<svg xmlns="http://www.w3.org/2000/svg" width="57" height="39" viewBox="0 0 57 39">
  <defs>
    <style>
      .cls-1 {
        fill: #fff;
        fill-rule: evenodd;
      }
    </style>
  </defs>
  <path class="cls-1" d="M1311,33.928a0.9,0.9,0,0,1-.88.929h-40.34a0.931,0.931,0,0,1,0-1.857h40.34A0.9,0.9,0,0,1,1311,33.928Zm-0.88,11.143h-52.61a0.93,0.93,0,0,0,0,1.857h52.61A0.93,0.93,0,0,0,1310.12,45.071Zm0,13H1265.4a0.93,0.93,0,0,0,0,1.858h44.72A0.93,0.93,0,0,0,1310.12,58.071Zm0,12.072h-55.24a0.93,0.93,0,0,0,0,1.857h55.24A0.93,0.93,0,0,0,1310.12,70.143Z" transform="translate(-1254 -33)"/>
</svg>
