<svg xmlns="http://www.w3.org/2000/svg" width="32" height="33" viewBox="0 0 32 33">
  <defs>
    <style>
      .cls-1 {
        fill: #fff;
        fill-rule: evenodd;
      }
    </style>
  </defs>
  <path id="Facebook" class="cls-1" d="M1159,708h28a2,2,0,0,1,2,2v29a2,2,0,0,1-2,2h-28a2,2,0,0,1-2-2V710A2,2,0,0,1,1159,708Zm0,2h28v29h-28V710Zm19.96,2v3.9s-3.03-.173-3.79.964c-0.41.621-.13,2.823-0.17,4.129h3.99c-0.34,1.528-.58,1.682-0.83,3h-3.19v13h-5V724h-2.96v-3h3c0.12-2.876-.49-6.108.97-7.56C1172.62,711.8,1174.18,712,1178.96,712Z" transform="translate(-1157 -708)"/>
</svg>
