<svg xmlns="http://www.w3.org/2000/svg" width="32" height="33" viewBox="0 0 32 33">
  <defs>
    <style>
      .cls-1 {
        fill: #fff;
        fill-rule: evenodd;
      }
    </style>
  </defs>
  <path id="Instagram" class="cls-1" d="M1212,708h28a2,2,0,0,1,2,2v29a2,2,0,0,1-2,2h-28a2,2,0,0,1-2-2V710A2,2,0,0,1,1212,708Zm14,9.8a6.191,6.191,0,0,0-5.62,3.6h-0.01l-0.03.068c-0.05.132-.11,0.266-0.16,0.4-0.02.065-.05,0.129-0.07,0.2-0.04.139-.08,0.281-0.12,0.424a1.462,1.462,0,0,1-.05.2c-0.03.152-.05,0.306-0.07,0.46a1.213,1.213,0,0,0-.03.187,4.872,4.872,0,0,0-.04.664,6.2,6.2,0,0,0,12.4,0,4.872,4.872,0,0,0-.04-0.664,1.213,1.213,0,0,0-.03-0.187c-0.02-.154-0.04-0.308-0.07-0.46a1.462,1.462,0,0,1-.05-0.2c-0.04-.143-0.08-0.285-0.12-0.424-0.02-.066-0.05-0.13-0.07-0.2-0.05-.136-0.11-0.27-0.16-0.4l-0.03-.068h-0.01A6.191,6.191,0,0,0,1226,717.8Zm13.03-5.228a1.6,1.6,0,0,0-1.6-1.6h-3.83a1.6,1.6,0,0,0-1.6,1.6V716.4a1.6,1.6,0,0,0,1.6,1.6h3.83a1.6,1.6,0,0,0,1.6-1.6v-3.828Zm1,8.41h-5.14a9.694,9.694,0,0,1,.35,2.6c0,5.413-3.83,10.428-9.24,10.428s-9.24-5.015-9.24-10.428a9.694,9.694,0,0,1,.35-2.6h-5.14v16.446c0,1.8-.44,1.6,1.6,1.6h24.86c1.79,0,1.6.21,1.6-1.6V720.982Z" transform="translate(-1210 -708)"/>
</svg>
