<svg xmlns="http://www.w3.org/2000/svg" width="28" height="32" viewBox="0 0 28 32">
  <defs>
    <style>
      .cls-1 {
        fill: #fff;
        fill-rule: evenodd;
      }
    </style>
  </defs>
  <path id="share_icon" data-name="share icon" class="cls-1" d="M1303.06,684.445l0.96,1.909-17.23,8.533-0.96-1.908Zm-17.4,10.341,1.29-1.707,17.23,12.8-1.29,1.707ZM1304.62,679a5.334,5.334,0,1,1-5.39,5.334A5.359,5.359,0,0,1,1304.62,679Zm-17.24,10.667A5.334,5.334,0,1,1,1282,695,5.36,5.36,0,0,1,1287.38,689.666Zm17.24,10.667a5.333,5.333,0,1,1-5.39,5.333A5.358,5.358,0,0,1,1304.62,700.333Z" transform="translate(-1282 -679)"/>
</svg>
