<svg width="257" height="46" viewBox="0 0 257 46" fill="none" xmlns="http://www.w3.org/2000/svg">
<path fill-rule="evenodd" clip-rule="evenodd" d="M14.5237 27.1863H26.1427L21.8433 17.6593C21.6109 16.962 21.3784 16.2647 21.146 15.4519C20.9136 14.7546 20.5657 13.8248 20.3333 12.895C20.0992 13.7078 19.8684 14.6376 19.6343 15.4519C19.2864 16.2647 19.054 16.962 18.8216 17.6593L14.5237 27.1863ZM33.3453 43.6834L28.5826 32.8788H11.9669L7.08714 43.6834H0L20.2162 0L40.5479 43.6834H33.3453ZM86.7882 45.3089L68.0837 1.74253H75.1708L84.4654 24.0507C85.0457 25.3284 85.5106 26.489 85.8601 27.6512C86.2079 28.6964 86.5574 29.7432 86.7898 30.7884C87.0223 29.7432 87.3701 28.6964 87.7196 27.5358C88.0691 26.3752 88.5324 25.213 88.9973 24.0507L98.4072 1.74253H105.494L86.7882 45.3089ZM174.506 22.7715C174.506 20.6795 174.155 18.5875 173.341 16.7296C172.53 14.7546 171.484 13.1275 169.971 11.6174C168.578 10.1073 166.953 9.0605 165.093 8.24775C163.233 7.435 161.257 7.08553 159.282 7.08553C157.193 7.08553 155.218 7.435 153.359 8.24775C151.499 8.94508 149.874 10.1073 148.362 11.6174C146.969 13.1275 145.807 14.7546 144.992 16.7296C144.297 18.5875 143.947 20.6795 143.947 22.7715C143.947 24.8635 144.298 26.8353 144.992 28.8118C145.807 30.6714 146.967 32.4155 148.362 33.8086C149.874 35.3171 151.499 36.4793 153.359 37.2936C155.218 37.9926 157.195 38.4559 159.282 38.4559C161.257 38.4559 163.233 37.9926 165.093 37.2936C166.837 36.4793 168.578 35.3187 169.971 33.8086C171.483 32.4155 172.53 30.6714 173.341 28.8118C174.155 26.8353 174.506 24.8635 174.506 22.7715ZM181.592 22.7715C181.592 25.7901 181.01 28.5794 179.966 31.2533C178.775 33.8873 177.121 36.2869 175.085 38.3388C172.878 40.4308 170.439 41.9393 167.765 43.1015C165.063 44.1654 162.187 44.7177 159.284 44.7302C156.15 44.7302 153.36 44.1483 150.569 43.1015C147.899 41.9393 145.459 40.4308 143.368 38.3388C141.161 36.2468 139.532 33.924 138.487 31.2533C137.321 28.5784 136.728 25.6892 136.746 22.7715C136.746 19.7497 137.325 16.9604 138.487 14.2881C139.532 11.6158 141.161 9.29294 143.368 7.20255C145.46 5.11056 147.899 3.48505 150.569 2.43825C153.359 1.27603 156.148 0.812746 159.284 0.812746C162.188 0.812746 165.095 1.27763 167.765 2.43825C170.555 3.48345 172.878 5.11056 175.085 7.20255C177.177 9.29294 178.801 11.6174 179.966 14.2881C181.039 16.9879 181.59 19.8664 181.592 22.7715ZM219.352 43.6834V0L246.072 25.6746C246.771 26.3736 247.468 27.1863 248.279 28.0007C248.978 28.8118 249.791 29.7416 250.605 30.7868V1.74253H256.876V45.3089L229.69 19.1694C228.994 18.4721 228.297 17.7764 227.598 16.962C226.902 16.1492 226.32 15.3365 225.626 14.5237V43.685H219.352V43.6834Z" fill="black"/>
</svg>
