<svg width="77" height="103" viewBox="0 0 77 103" fill="none" xmlns="http://www.w3.org/2000/svg">
<path fill-rule="evenodd" clip-rule="evenodd" d="M23.8066 84.3479L23.9929 85.0915L23.7135 93.1827C24.3647 92.439 25.1084 91.7872 25.9458 91.3229C26.7826 90.9517 27.4338 90.7648 28.085 90.7648C29.4799 90.7648 30.5029 91.2298 31.1541 92.0666C31.8984 92.9034 32.2703 94.112 32.2703 95.6931C32.2703 97.6461 31.8053 99.2284 30.7823 100.437C29.8523 101.646 28.6431 102.204 27.2482 102.204L25.5746 101.924C24.9274 101.672 24.3047 101.361 23.7141 100.995V101.831L21.0175 101.924L19.8082 102.018L19.4364 101.924L19.3433 101.739L19.8082 101.366L21.7612 100.995L21.6681 87.5101L21.5749 86.3015C21.4818 86.1159 21.3887 86.0221 21.11 86.0221L20.3657 86.3015L19.6214 86.4871H19.4351V86.3939L19.6214 85.8359L20.5513 85.1853L22.2255 84.3485L23.4348 84.0692L23.8066 84.3479ZM23.7135 94.0195L23.8066 99.8784L25.3877 101.18C25.9458 101.459 26.5039 101.646 26.9688 101.646C27.9919 101.646 28.7356 101.273 29.2936 100.436C29.7586 99.5997 30.0379 98.391 30.0379 96.8086C30.0379 95.4144 29.7586 94.2051 29.2005 93.3677C28.7356 92.5309 27.9919 92.0659 26.9688 92.0659C26.4201 92.0658 25.8788 92.1934 25.3877 92.4384C24.8297 92.7178 24.2716 93.2758 23.7135 94.0195ZM36.268 92.3453C36.8261 91.6947 37.5698 91.3222 38.5922 91.3222C39.5227 91.3222 40.2664 91.6947 40.732 92.3453C41.1969 92.9965 41.4757 93.9264 41.4757 94.9488L35.3375 95.2281C35.3381 94.0195 35.6175 93.089 36.268 92.3453ZM33.292 96.623C33.292 98.2973 33.757 99.6921 34.6875 100.715C35.7106 101.738 36.9192 102.203 38.4072 102.203L40.8251 101.738C41.4763 101.458 42.0344 100.901 42.6849 100.156L43.243 99.3196L43.5224 98.6691L43.4293 98.4822L43.2437 98.3897L42.7787 98.8547L42.2206 99.5053L41.0113 100.436L39.524 100.808C38.3147 100.808 37.2917 100.343 36.4549 99.4128C35.6181 98.4822 35.2456 97.2729 35.2456 95.8787H43.6161V95.5075C43.6161 94.0189 43.2437 92.8096 42.4069 91.9722C41.5701 91.1347 40.4545 90.6704 38.9659 90.6704C37.2917 90.6704 35.8974 91.2285 34.8738 92.3447C33.8501 93.4614 33.292 94.8557 33.292 96.623ZM44.0798 91.9728L44.1723 92.1597L44.4523 92.2528L46.4046 92.1597L46.4977 93.2758V100.901L44.4523 101.366C44.1723 101.459 43.9867 101.646 43.9867 101.738L44.1723 101.924L44.4523 102.017L45.5672 101.924H50.5899L51.7047 102.017L52.0772 101.924L52.1703 101.738C52.1703 101.553 51.891 101.366 51.2398 101.18L48.5425 100.901V98.576C48.5425 96.8086 48.8219 95.4144 49.2862 94.3907C49.7518 93.2758 50.3092 92.7178 50.9604 92.7178L51.611 93.089C51.891 93.3683 52.2635 93.4614 52.5415 93.4614L53.4721 93.089C53.7514 92.8096 53.8446 92.5309 53.8446 92.0659C53.8446 91.601 53.6577 91.3222 53.379 91.1354C53.0996 90.8573 52.7284 90.7642 52.2641 90.7642C51.6116 90.7642 50.9611 91.1354 50.3099 91.7872C49.6593 92.4384 49.1012 93.4614 48.5432 94.7632V91.6947L48.3576 90.951L48.0782 90.6711L47.1476 90.951L45.5665 91.416L44.916 91.6016C44.3585 91.6947 44.0798 91.7872 44.0798 91.9728ZM4.64958 88.8112L4.9283 87.2301C5.30014 85.4634 5.67262 84.6266 6.04446 84.6266C6.23069 84.6266 6.4163 84.8122 6.50941 85.0915L6.60253 85.2784L7.16061 85.8352L7.81181 86.0221C8.27676 86.0221 8.55548 85.929 8.8342 85.6496C9.11356 85.3703 9.20668 84.9984 9.20668 84.5335C9.20668 84.0685 9.11356 83.6973 8.8342 83.4173C8.55548 83.1392 8.18365 83.0461 7.71869 83.0461C7.06749 83.0461 6.50941 83.2317 6.04509 83.6042C5.48702 83.9754 4.83582 84.7204 4.18462 85.7434C3.62655 86.5802 3.16159 87.4176 2.88287 88.2538C2.69663 88.905 2.60351 89.8355 2.51103 91.0442V92.4397H1.85983L0.464958 92.1603V93.3689L1.85983 93.1833H2.51103L2.41791 100.902L0.464958 101.367L0 101.739L0.0931191 101.925L0.464958 102.018L1.67423 101.925L7.71869 102.018L8.09053 101.925L8.18365 101.739C8.18365 101.554 7.90429 101.367 7.34621 101.181L4.64958 100.902L4.46398 93.1833H5.39326L8.18365 93.3689V92.1603L4.46398 92.4397L4.64958 88.8112ZM13.2051 95.9725L14.3212 96.1581L15.7167 96.5293V99.2272C15.2518 99.6921 14.6937 100.156 14.1363 100.436C13.6713 100.715 13.1126 100.808 12.5551 100.808C11.9039 100.808 11.439 100.621 11.0672 100.25C10.7878 99.9708 10.6022 99.4134 10.6022 98.576C10.6022 97.7385 10.7878 97.0886 11.2534 96.623C11.7171 96.1581 12.3683 95.9725 13.2051 95.9725ZM10.8803 92.7178C11.6978 92.3464 12.5859 92.156 13.4838 92.1597C14.3206 92.1597 14.9724 92.3453 15.2511 92.6246C15.5299 92.904 15.623 93.6477 15.623 94.7638V95.88L14.0419 95.415L12.6463 95.2281C11.3446 95.2281 10.3216 95.6006 9.57724 96.2518C8.83293 96.9955 8.46109 97.9261 8.46109 99.0409C8.46109 99.8777 8.74045 100.715 9.29789 101.366C9.94908 101.924 10.6934 102.203 11.5302 102.203C12.0883 102.203 12.7395 102.017 13.4831 101.646L15.6223 100.064V101.18C15.6223 101.553 15.7155 101.831 15.9017 102.017C15.9948 102.11 16.2735 102.203 16.5529 102.203C17.2041 102.203 17.9484 101.923 18.8777 101.273C19.7145 100.622 20.1801 100.157 20.1801 99.6921V99.5053H19.9945L19.3426 99.9715C18.8777 100.343 18.5058 100.528 18.2265 100.528C17.9471 100.528 17.8546 100.436 17.7615 100.25C17.6684 100.157 17.5759 99.6921 17.5759 99.0409V92.8096C17.4828 92.4384 17.3897 92.159 17.2035 91.8803L16.0879 91.0435L14.4137 90.6711C13.2975 90.6711 12.1814 90.951 10.9728 91.6016C9.8566 92.1597 9.29852 92.6246 9.29852 93.089L9.39164 93.1821L9.57788 93.2752L10.8803 92.7178ZM53.2852 101.924L53.6577 102.017L56.6337 101.83L59.7028 102.017L60.074 101.924L60.1671 101.738L59.7022 101.366L57.841 100.901L57.7486 85.0915L57.563 84.2548C57.563 84.1616 57.4698 84.0692 57.283 84.0692L56.0743 84.3485L54.4014 85.1853L53.5633 85.8359L53.2839 86.3939L53.3771 86.4871H53.5627L55.0513 86.0221C55.2369 86.0221 55.3306 86.1152 55.4238 86.3015L55.6094 87.5101L55.5163 100.901L53.5633 101.366C53.2839 101.459 53.1921 101.646 53.1921 101.739L53.2852 101.924ZM60.7258 92.1597L61.0052 92.2528L62.9581 92.1597L63.0506 93.2758L63.1437 99.5059L62.9581 100.901L61.097 101.366C60.8189 101.459 60.6321 101.553 60.6321 101.739L60.7252 101.924L61.0964 102.018L64.1655 101.831L67.1415 102.018L67.6064 101.924L67.6996 101.739L67.1415 101.366L65.2816 100.901L65.0948 91.2298L65.0023 90.6717L64.8154 90.5792L62.2119 91.416L61.4682 91.6016C61.0033 91.6947 60.7245 91.7872 60.7245 91.9728V92.1597H60.7258ZM66.8634 96.8086C66.8634 98.3904 67.4215 99.6921 68.4445 100.715C69.4675 101.738 70.6768 102.203 72.0711 102.203C73.0016 102.203 73.8384 102.017 74.489 101.738C75.2339 101.458 75.7907 100.994 76.2563 100.342L76.8144 99.5053L77 98.9472V98.6691H76.8144C76.7213 98.6691 76.5344 98.7616 76.3488 99.0403L75.9776 99.5053C75.5126 99.9708 75.1408 100.342 74.769 100.436L73.2803 100.808C71.8848 100.808 70.7687 100.25 69.9331 99.2272C69.0951 98.2035 68.6314 96.9017 68.6314 95.3206C68.6314 94.2045 68.9095 93.2752 69.5607 92.5302C70.2112 91.8797 71.048 91.5072 72.0711 91.5072C72.7223 91.5072 73.2803 91.6941 73.9322 91.9722L75.7907 93.2752L76.0707 95.3206C76.1632 95.6 76.2563 95.7856 76.4419 95.7856L76.6275 95.6925V94.6707L76.4419 93.1821L76.7213 90.2061L76.6282 90.0205H76.4426C76.257 90.0205 76.0714 90.3917 75.9776 91.1354L75.8845 91.3222L74.2102 90.8573L72.816 90.7642C71.0487 90.7642 69.6531 91.3222 68.6314 92.5309C67.4215 93.647 66.8634 95.0419 66.8634 96.8086ZM49.938 0.930279V69.003C49.938 70.2116 50.1039 71.1543 50.5892 71.979C51.0338 72.7354 51.699 73.2954 52.7284 73.6532L54.8663 74.3969L57.2842 74.7693H59.2372L62.4001 74.49L65.0036 73.8394L66.7703 72.722C68.6901 71.5102 70.4561 69.2536 71.6999 66.1195L73.8391 60.7256H76.7219L75.4202 78.0234L33.1071 78.1159V74.7687L35.6181 74.5831L37.7573 74.1175C38.7924 73.8917 39.4168 73.2731 39.8027 72.6302C40.2536 71.8775 40.5464 70.8628 40.5464 69.6542V9.57889C40.5464 7.99777 39.8027 6.6029 38.4072 5.57986C37.013 4.55683 35.245 3.99875 33.1064 3.99875C29.152 3.99875 25.956 5.40765 23.5273 8.55585C22.3569 10.0738 21.2956 12.1824 20.5513 14.9728C19.9001 17.6694 19.5282 20.8316 19.5282 24.4582V28.6434H31.804V33.4793H19.5289V69.0967C19.5289 70.3054 19.7151 71.2359 20.1801 71.9796C20.645 72.7233 21.2784 73.3336 22.3193 73.6538L24.7372 74.3975L27.4344 74.77V78.1172H2.88287V74.77L5.20766 74.5844L7.34621 74.1188C8.38264 73.893 8.98473 73.2629 9.39228 72.5377C9.82216 71.7729 10.1366 70.771 10.1366 69.5617V33.4793H0.371839V28.6434H10.1366V27.4342C10.1366 22.9702 10.6947 19.0649 11.9033 15.8096C13.1126 12.5542 15.0942 9.51255 17.7622 6.6029C21.6234 2.39085 27.9453 0.022686 33.5714 0.000362884C36.7916 -0.0123932 39.5131 0.308422 42.4993 1.39524C43.5543 1.77983 44.3592 2.04643 45.1966 2.04643C46.5908 2.04643 47.9857 1.39524 49.1956 0.093482L49.938 0.930279Z" fill="black"/>
</svg>
