<svg width="300" height="49" viewBox="0 0 300 49" fill="none" xmlns="http://www.w3.org/2000/svg">
<path fill-rule="evenodd" clip-rule="evenodd" d="M160.178 0.121942L160.411 2.036C162.746 2.40951 161.905 3.48197 161.159 5.44412L148.322 30.0479L137.209 6.75221C136.743 5.16518 134.407 2.69006 136.276 2.17708L136.135 0.170044C133.288 0.170044 130.906 0.216533 128.106 0.170044V2.17708C128.712 2.27166 129.133 2.41113 129.46 2.55059C130.113 2.87762 131.373 3.90517 131.934 5.63167L145.847 34.8555L140.712 44.6149C139.527 46.319 136.977 47.5101 136.93 47.3209L136.603 48.7685C138.564 48.7685 142.58 46.9955 143.793 44.6598L165.314 4.08953C166.109 2.68845 166.949 2.31494 168.301 2.12899V0.168442C165.733 0.214931 162.839 0.168431 160.178 0.121942ZM111.717 20.5706C111.479 20.2067 111.423 20.0945 111.578 19.8236C115.639 17.0214 118.673 15.0625 118.487 10.6268C118.208 2.64356 114.38 0.590036 107.564 0.121942C103.782 0.263011 100.421 0.355997 96.6855 0.26302V2.13059C98.7407 2.36464 98.9266 3.06517 98.9266 5.21167V30.282C98.9266 32.6176 99.3931 34.7176 96.6855 35.1376V37.0982C99.5823 37.0517 102.756 36.9122 105.65 37.0982V35.1857C103.314 34.7641 103.689 32.4301 103.643 30.3765V30.282V6.84518C103.643 5.4922 103.269 4.32357 103.83 2.87601C104.997 2.59547 106.445 2.27005 107.659 2.27005C111.673 2.27005 113.915 4.79167 114.055 10.8144C114.196 16.369 111.347 18.5636 105.371 19.1246V20.0576C111.86 26.4074 116.902 38.3582 126.801 36.7247L126.427 35.4631C123.109 35.5576 119.654 31.9155 111.717 20.5706ZM84.5455 31.0755L71.5207 0.683023C71.1007 -0.251562 70.2126 -0.20347 69.9336 0.683023L69.7461 1.10303L57.8417 28.7414C57.1412 30.3765 56.3942 32.1495 55.3201 33.5506C54.8536 34.203 54.1066 34.6247 53.1255 34.9036V36.6317C55.3008 36.484 57.4825 36.4524 59.6612 36.5371V34.5301C58.4942 33.969 59.4271 31.962 59.8488 31.1685L61.9023 27.0117L69.7461 26.9652L77.8239 26.9203L79.8309 31.449C80.158 32.196 80.812 34.2495 79.8309 34.7625V36.5355C82.492 36.489 85.1547 36.5355 87.8142 36.582V34.7144C85.9931 34.203 85.1996 32.5695 84.5455 31.0755ZM69.7461 24.5863L62.7439 24.6809L69.7461 8.1068L69.8406 7.87276L76.7034 24.5382L69.7461 24.5863ZM44.1163 30.8414L40.3812 6.23763C40.3812 4.27708 39.5876 2.45601 41.9682 2.0825V0.21493H41.8752C39.4947 0.402488 37.4395 0.168442 35.1055 0.168442C34.8714 0.729514 35.1055 1.28897 34.8714 1.89654L24.2271 27.1528C19.8395 18.3295 15.7309 10.9538 11.9027 1.89654C11.6687 1.28897 12.0903 0.729514 11.8563 0.168442C9.24326 0.402489 6.86111 0.168431 4.29461 0.121942V1.98951C5.36705 2.17547 6.06759 2.40952 6.34813 2.73654C6.81462 3.24952 6.86111 4.83815 6.4876 7.17221L2.70757 32.6625C2.47353 34.4355 1.7265 34.5766 0.0929778 34.7641C0.046489 34.7641 0 34.7641 0 34.8106V36.6317C2.6146 36.4906 4.52865 36.5371 7.18974 36.6317V34.7176C5.22759 34.3441 5.6011 33.2717 5.6011 31.3095L8.86975 7.17381C13.7735 17.2106 18.1595 24.8684 22.4092 35.2306L23.4833 35.1376L35.3411 6.98466L39.4033 29.7209C39.4033 31.3079 40.8973 33.783 38.9368 34.2495V36.3031C41.9714 36.2566 44.4449 36.2566 47.433 36.3031V34.389C46.5 34.296 45.8925 34.1101 45.519 33.9225C44.9563 33.5971 44.1163 32.5695 44.1163 30.8414ZM199.487 29.3009L199.346 5.49061C199.346 3.95006 199.44 2.68846 200.607 2.0825C200.841 1.98952 201.074 1.89654 201.353 1.84845V0.12034C201.12 0.12034 200.886 0.16684 200.607 0.16684C197.993 0.16684 195.378 0.166829 192.764 0.12034V1.94142C194.771 2.4544 194.771 3.85548 194.771 5.76953V29.4387C194.771 31.2598 195.005 33.5474 192.951 34.062V35.8831C195.471 35.7885 198.086 35.742 200.606 35.8366C200.885 35.8831 201.167 35.8831 201.398 35.9296V34.1101C201.118 34.0659 200.85 33.9702 200.606 33.8279C199.346 33.0841 199.487 31.122 199.487 29.3009ZM291.833 0.121942L292.02 2.03761C294.399 2.41113 293.514 3.48357 292.766 5.44572L279.928 30.0495L268.864 6.75381C268.351 5.16678 266.016 2.69166 267.931 2.17868L267.79 0.171646C264.941 0.171646 262.514 0.218135 259.759 0.171646V2.17868C260.32 2.27326 260.786 2.41273 261.067 2.55219C261.766 2.87922 263.027 3.90678 263.54 5.63328L277.452 34.8571L272.364 44.6165C271.283 46.2629 268.628 47.5117 268.582 47.3225L268.257 48.7701C270.217 48.7701 274.186 46.9971 275.445 44.6614L296.967 4.09113C297.763 2.69006 298.554 2.31654 299.911 2.13059V0.170044C297.339 0.21493 294.494 0.168431 291.833 0.121942ZM256.306 31.0755L243.278 0.683023C242.858 -0.251562 241.973 -0.20347 241.646 0.683023L241.458 1.10303L229.554 28.7414C228.852 30.3765 228.151 32.1495 227.08 33.5506C226.564 34.203 225.819 34.6247 224.886 34.9036V36.6317C227.045 36.484 229.211 36.4524 231.373 36.5371V34.5301C230.205 33.969 231.141 31.962 231.561 31.1685L233.662 27.0117L241.458 26.9652L249.536 26.9203L251.59 31.449C251.915 32.196 252.523 34.2495 251.59 34.7625V36.5355C254.251 36.489 256.865 36.5355 259.526 36.582V34.7144C257.705 34.203 256.913 32.5695 256.306 31.0755ZM241.458 24.5863L234.454 24.6809L241.458 8.1068L241.553 7.87276L248.464 24.5382L241.458 24.5863Z" fill="black"/>
<path fill-rule="evenodd" clip-rule="evenodd" d="M204.62 15.3417C204.388 15.0147 204.62 14.7806 204.433 14.5482L213.819 4.50981C215.92 2.31521 216.9 1.98818 219.515 1.8952V0.261683C217.366 0.354661 215.266 0.261675 213.118 0.120605V0.54061C213.118 2.54765 211.578 3.48063 210.27 4.88171C207.004 8.47578 204.343 12.0715 200.608 15.2006C200.374 15.3866 200.095 15.6206 199.859 15.8066V16.3196C200.093 16.4142 200.326 16.6001 200.608 16.8326C204.435 20.1477 213.633 36.3483 224.043 36.2088L224.184 34.9472C218.63 34.625 209.29 19.4039 204.62 15.3417Z" fill="black"/>
</svg>
