<svg width="284" height="54" viewBox="0 0 284 54" fill="none" xmlns="http://www.w3.org/2000/svg">
<g clip-path="url(#clip0)">
<path d="M220.558 48.3213H283.499V48.9444H220.558V48.3213ZM2.97656 48.3213H70.6925V48.9444H2.97656V48.3213Z" fill="#231F20"/>
<path d="M89.7774 48.2977C91.7012 48.7176 92.5879 49.4208 92.5879 50.7528C92.5879 52.2459 91.3545 53.2069 89.6397 53.2069C88.3298 53.2206 87.0656 52.7256 86.1133 51.826L86.7169 51.1102C87.1035 51.5014 87.5647 51.8111 88.0731 52.021C88.5815 52.2308 89.1268 52.3366 89.6768 52.3319C90.836 52.3319 91.6006 51.7254 91.6006 50.8504C91.6006 50.037 91.17 49.5819 89.3565 49.1991C87.3711 48.7665 86.459 48.1239 86.459 46.6942C86.459 45.3133 87.6553 44.328 89.295 44.328C90.4019 44.2961 91.4819 44.6733 92.3282 45.3875L91.7608 46.1395C91.0711 45.5369 90.1865 45.2042 89.2706 45.203C88.1475 45.203 87.4327 45.8192 87.4327 46.6083C87.4327 47.4344 87.877 47.8915 89.7774 48.2977ZM110.646 44.4266H111.449L113.818 51.6395L116.283 44.451H117.307L114.225 53.1454H113.398L111.031 46.1395L108.65 53.1454H107.836L104.752 44.451H105.813L108.279 51.6395L110.646 44.4266ZM136.621 45.2899H131.355V48.2401H136.066V49.1258H131.355V52.1473H136.682V53.035H130.381V44.4012H136.621V45.2899ZM154.908 53.035H151.912V44.4012H154.908C155.497 44.3654 156.087 44.4504 156.642 44.6511C157.197 44.8519 157.705 45.164 158.135 45.5684C158.565 45.9728 158.907 46.4608 159.141 47.0025C159.375 47.5442 159.496 48.128 159.496 48.7181C159.496 49.3082 159.375 49.8921 159.141 50.4338C158.907 50.9755 158.565 51.4635 158.135 51.8679C157.705 52.2723 157.197 52.5844 156.642 52.7852C156.087 52.9859 155.497 53.0709 154.908 53.035ZM154.908 45.3036H152.887V52.1336H154.908C155.37 52.1552 155.832 52.0829 156.265 51.921C156.698 51.7591 157.094 51.511 157.428 51.1918C157.763 50.8725 158.029 50.4888 158.211 50.0637C158.393 49.6386 158.486 49.181 158.486 48.7186C158.486 48.2563 158.393 47.7987 158.211 47.3736C158.029 46.9485 157.763 46.5648 157.428 46.2455C157.094 45.9263 156.698 45.6782 156.265 45.5163C155.832 45.3544 155.37 45.2821 154.908 45.3036ZM180.721 45.2899H175.455V48.2401H180.166V49.1258H175.455V52.1473H180.783V53.035H174.48V44.4012H180.721V45.2899ZM203.082 44.4012H204.031V53.035H203.254L197.682 45.9569V53.035H196.73V44.4012H197.643L203.082 51.3211V44.4012Z" fill="#231F20"/>
<path d="M91.6407 33.623H87.1856V3.7939H91.6407V33.623ZM113.181 33.623H108.724V3.7929H130.511V8.0029H113.181V16.9912H128.673V21.1582H113.181V33.623ZM165.136 33.623H144.575V3.7929H149.032V29.4121H165.136V33.623ZM230.263 25.7753L220.776 11.5693V33.623H216.403V3.7929H220.614L230.71 18.9111L240.806 3.7929H245.017V33.623H240.56V11.5332L231.075 25.7753L230.669 26.3759L230.263 25.7753ZM283.522 33.623H261.409V3.7929H283.319V7.9628H265.864V16.5009H281.479V20.6679H265.864V29.4531H283.522V33.623ZM73.2373 33.5869H67.5723L59.4385 22.4706H52.1836V33.5869H47.7285V3.7578H60.6455C67.2989 3.7578 71.6807 7.3515 71.6807 12.914C71.6807 17.2978 68.8848 20.5214 64.2862 21.6826L73.2373 33.5869ZM52.1836 18.3456H60.3594C64.4571 18.3456 67.1035 16.2617 67.1035 13.0361C67.1035 9.8154 64.6592 7.9687 60.3994 7.9687H52.1836V18.3456ZM73.2354 33.5947H67.5723L59.4395 22.4775H52.1856V33.5947H47.7305V3.7578H60.6455C67.2998 3.7578 71.6807 7.3515 71.6807 12.914C71.6807 17.3017 68.8858 20.5253 64.2862 21.6894L73.2354 33.5947ZM52.1856 18.3496H60.3604C64.4571 18.3496 67.1035 16.2636 67.1035 13.0361C67.1035 9.8154 64.6592 7.9687 60.4004 7.9687H52.1856V18.3496ZM73.2373 33.5869H67.5723L59.4385 22.4706H52.1836V33.5869H47.7285V3.7578H60.6455C67.2989 3.7578 71.6807 7.3515 71.6807 12.914C71.6807 17.2978 68.8848 20.5214 64.2862 21.6826L73.2373 33.5869ZM52.1836 18.3456H60.3594C64.4571 18.3456 67.1035 16.2617 67.1035 13.0361C67.1035 9.8154 64.6592 7.9687 60.3994 7.9687H52.1836V18.3456ZM73.2354 33.5947H67.5723L59.4395 22.4775H52.1856V33.5947H47.7305V3.7578H60.6455C67.2998 3.7578 71.6807 7.3515 71.6807 12.914C71.6807 17.3017 68.8858 20.5253 64.2862 21.6894L73.2354 33.5947ZM52.1856 18.3496H60.3604C64.4571 18.3496 67.1035 16.2636 67.1035 13.0361C67.1035 9.8154 64.6592 7.9687 60.4004 7.9687H52.1856V18.3496ZM200.046 33.623H204.95L191.357 3.5888H187.54L173.946 33.623H178.687L182.073 25.8964H196.685L200.046 33.623ZM183.806 21.9414L189.405 9.165L194.964 21.9414H183.806ZM34.3409 16.9355C34.3404 20.2097 33.4038 23.4155 31.6414 26.175C29.879 28.9344 27.3644 31.1325 24.3941 32.5099C21.4237 33.8874 18.1214 34.3869 14.8766 33.9495C11.6317 33.512 8.57954 32.156 6.07995 30.0411C3.58036 27.9263 1.73755 25.1409 0.768785 22.0132C-0.199978 18.8856 -0.2543 15.5462 0.612222 12.3888C1.47874 9.23128 3.22998 6.38739 5.65946 4.19237C8.08895 1.99735 11.0954 0.54273 14.3243 0L14.3516 0.123C8.0157 2.5869 4.2129 8.5576 4.2129 15.5322C4.2129 24.4443 10.5078 29.5615 17.17 29.5615C18.8281 29.5616 20.47 29.2352 22.0019 28.6007C23.5339 27.9662 24.9258 27.0362 26.0983 25.8638C27.2707 24.6913 28.2007 23.2994 28.8352 21.7674C29.4696 20.2355 29.7961 18.5936 29.7959 16.9355C29.8066 15.4978 29.5324 14.0722 28.9891 12.7411C28.4459 11.4099 27.6444 10.1996 26.6309 9.17984C25.6173 8.16012 24.4118 7.35126 23.084 6.79994C21.7562 6.24862 20.3323 5.96576 18.8946 5.9677C11.7598 5.9677 8.3868 12.4482 8.3868 12.4482L8.2754 12.4101C8.2754 12.4101 11.4873 3.1074 20.7871 3.1074C24.4102 3.16882 27.8634 4.65407 30.3998 7.24186C32.9363 9.82965 34.3521 13.3119 34.3409 16.9355Z" fill="#231F20"/>
</g>
<defs>
<clipPath id="clip0">
<rect width="283.522" height="53.207" fill="white"/>
</clipPath>
</defs>
</svg>
