<svg width="176" height="61" viewBox="0 0 176 61" fill="none" xmlns="http://www.w3.org/2000/svg">
<path d="M0 60.6067C0 60.6067 100.964 35.4708 175.769 53.179L176 52.3608C176 52.3608 110.727 32.8265 1.25393 56.6197" fill="#E4214E"/>
<path d="M48.3246 11.2809V15.4475C48.6967 14.6134 49.1696 13.4825 50.4386 12.4118C51.813 11.2225 53.8211 10.566 55.7784 10.566C56.7795 10.566 57.784 10.7471 58.7857 11.1038C61.904 12.2931 62.8031 14.7914 63.1725 15.8615C65.605 11.2815 69.4603 10.6289 71.5203 10.6289C74.0549 10.6289 76.276 11.5822 77.7552 13.0687C80.3963 15.686 80.5013 18.5379 80.5013 25.6805V42.1003H72.7376V27.523C72.7376 22.5835 72.632 21.5719 71.838 20.2664C70.993 18.8378 69.7763 18.5372 68.6131 18.5372C66.5015 18.5372 65.4455 20.0843 65.2864 20.3241C64.4391 21.8111 64.4391 24.3697 64.4391 26.8682V42.0991H56.6748V26.5719C56.6748 23.24 56.6748 21.7524 55.8808 20.3828C55.3004 19.3737 54.1368 18.5373 52.7118 18.5373C52.0262 18.5373 51.3374 18.7172 50.7028 19.0763C48.4303 20.3828 48.3787 22.6452 48.3787 28.4765V42.1004H40.6094V11.2809H48.3246ZM111.391 11.2809H119.313L111.391 42.0991H104.148L99.5508 21.2778L95.0093 42.0991H87.6662L79.7403 11.2809H87.6662L91.8403 30.558L96.1193 11.2809H102.987L107.217 30.558L111.391 11.2809ZM136.026 42.0991H143.636V11.2225H136.184V15.2077C134.813 12.2339 132.435 10.5078 129.422 10.5078C124.246 10.5078 117.481 15.0304 117.481 27.1668C117.481 36.8055 122.34 42.7554 128.841 42.7554C133.279 42.7554 135.074 40.1375 136.025 38.7089L136.026 42.0991ZM135.626 26.3331C135.626 29.1314 135.256 31.808 133.618 33.8315C132.244 35.4358 130.713 35.5567 130.236 35.5567C128.705 35.5567 126.961 34.6037 125.902 31.9252C125.271 30.3799 125.058 28.5343 125.058 26.6301C125.058 24.2508 125.378 21.8109 126.696 19.849C127.646 18.4785 129.125 17.589 130.554 17.589C131.715 17.589 132.878 18.1804 133.672 19.1337C134.674 20.2664 135.626 22.3476 135.626 26.3331Z" fill="#004B85"/>
<path d="M161.572 11.2806H169.467L160.779 41.8618C160.145 44.0033 159.143 47.5151 157.609 49.2403C156.181 50.7874 154.491 51.5026 148.204 51.5026C147.305 51.5026 146.937 51.4407 146.143 51.3829V44.5398H148.204C148.945 44.5398 150.687 44.5398 151.479 43.7673C152.114 43.2296 152.643 41.9219 152.643 40.6713C152.643 40.0187 152.324 38.8252 152.061 38.0534L143.607 11.2806H152.061L157.027 32.0435L161.572 11.2806ZM18.338 0L5.29297 42.0988H14.8754L17.3097 33.1546H29.5439L32.0349 42.0988H41.6712L28.0815 0H18.338ZM23.2631 9.24498L27.4322 25.4635H19.3153L23.2631 9.24498Z" fill="#004B85"/>
</svg>
