<svg width="266" height="43" viewBox="0 0 266 43" fill="none" xmlns="http://www.w3.org/2000/svg">
<path d="M76.282 34.5756H70.9702V21.8575H59.9345V34.5756H54.625V8.15801H59.9345V18.3103H70.9725V8.15801H76.2836L76.282 34.5756ZM100.018 11.7076H91.1669V18.9523H99.8308V22.5004H91.1669V31.0292H101.638V34.5756H85.8544V8.15801H100.017L100.018 11.7076ZM109.592 8.15801H118.746C123.793 8.15801 127.184 10.5745 127.184 15.0649C127.184 18.9914 125.225 21.2554 122.74 22.7256L129.296 34.5741L123.188 34.5709L118.068 24.0073H114.904V34.5741H109.591L109.592 8.15801ZM114.904 20.4624H117.05C120.703 20.4624 121.873 17.6315 121.873 15.7061C121.873 12.7235 119.763 11.7076 117.654 11.7076H114.905L114.904 20.4624ZM135.928 34.5756V8.15801H145.457C149.901 8.15801 153.029 10.1968 153.029 13.7823C153.029 18.0076 149.598 19.7445 147.754 20.2364V20.3115C151.03 20.4624 154.684 22.7256 154.684 26.764C154.684 31.331 150.881 34.5741 144.664 34.5741L135.928 34.5756ZM141.237 19.176H142.895C145.947 19.176 148.016 17.2131 148.016 14.7607C148.016 12.4232 146.282 11.4019 143.985 11.4019H141.237V19.176ZM141.237 31.331H143.951C146.889 31.331 149.11 29.7834 149.11 26.8406C149.11 23.7454 146.815 22.4237 143.912 22.4237H141.237V31.331ZM174.105 8.15801L184.011 34.5756H178.06L175.61 27.3677H166.268L163.554 34.5756H158.958L169.694 8.15801H174.105ZM174.821 24.1239C173.692 20.6532 172.56 17.4438 171.319 13.3663H171.242C170.151 17.4438 168.907 20.6517 167.665 24.1239H174.821ZM190.496 8.15801H195.807V31.0292H206.279V34.5756H190.495V8.15801H190.496ZM213.367 34.5756V8.15801H218.679V34.5756H213.367ZM242.377 11.7076H233.563V20.3889H242.227V23.9323H233.563V34.5741H228.252V8.15723H242.377V11.7076ZM264.094 11.7076H255.241V18.9523H263.907V22.5004H255.241V31.0292H265.713V34.5756H249.931V8.15801H264.094V11.7076H264.094Z" fill="#7AC143"/>
<path d="M21.4127 41.5921C10.2997 41.5921 1.31664 32.5714 1.31664 21.4565C1.31664 10.3274 10.2997 1.31302 21.4127 1.31302C32.5062 1.31302 41.4932 10.3259 41.4932 21.4565C41.4932 32.5714 32.507 41.5921 21.4127 41.5921ZM21.4127 0C9.58874 0 0 9.61267 0 21.458C0 33.3018 9.58796 42.9051 21.4127 42.9051C33.2234 42.9051 42.8106 33.3018 42.8106 21.458C42.8106 9.61267 33.2242 0 21.4127 0Z" fill="#7AC143"/>
<path d="M2.96484 21.3198C10.2707 23.6221 17.1614 30.7651 19.246 39.8961C8.97673 38.5565 2.98826 30.0996 2.96484 21.3198ZM39.7604 21.3198C32.4561 23.6221 25.4788 30.7651 23.48 39.8961C33.7485 38.5565 39.737 30.0996 39.7604 21.3198ZM21.386 39.8961C13.5978 27.8513 15.2797 11.3279 21.3939 2.4292C27.2231 11.3271 29.0486 27.8474 21.386 39.8961Z" fill="#7AC143"/>
</svg>
