<svg width="106" height="106" viewBox="0 0 106 106" fill="none" xmlns="http://www.w3.org/2000/svg">
<path d="M53 81.1562C53.9142 81.1562 54.6562 81.8983 54.6562 82.8125H57.9688C57.9688 80.6561 56.5792 78.8342 54.6562 78.1485V74.5312H51.3438V77.8438H48.0312V82.8125C48.0312 85.5519 50.2606 87.7812 53 87.7812C53.9142 87.7812 54.6562 88.5232 54.6562 89.4375V91.0938H53C52.0858 91.0938 51.3438 90.3518 51.3438 89.4375H48.0312C48.0312 91.5939 49.4208 93.4158 51.3438 94.1015V97.7188H54.6562V94.4062H57.9688V89.4375C57.9688 86.6981 55.7394 84.4688 53 84.4688C52.0858 84.4688 51.3438 83.7268 51.3438 82.8125V81.1562H53Z" fill="white"/>
<path d="M59.625 69.1716V62.5036C59.625 61.1305 60.2014 59.8072 61.2034 58.8731L83.4667 38.0938H84.4688C88.1224 38.0938 91.0938 35.1224 91.0938 31.4688C91.0938 27.8151 88.1224 24.8438 84.4688 24.8438H70.5132C70.9687 23.2355 71.2188 21.576 71.2188 19.875C71.2188 9.82984 63.0452 1.65625 53 1.65625C42.9548 1.65625 34.7812 9.82984 34.7812 19.875C34.7812 21.5776 35.0313 23.2372 35.4885 24.8438H21.5312C17.8776 24.8438 14.9062 27.8151 14.9062 31.4688C14.9062 35.1224 17.8776 38.0938 21.5312 38.0938H22.5333L44.7983 58.8731C45.7986 59.8072 46.375 61.1305 46.375 62.5036V69.1716C39.5993 71.8299 34.7812 78.4185 34.7812 86.125C34.7812 96.1702 42.9548 104.344 53 104.344C63.0452 104.344 71.2188 96.1702 71.2188 86.125C71.2188 78.4185 66.4007 71.8299 59.625 69.1716ZM38.0938 19.875C38.0938 11.655 44.78 4.96875 53 4.96875C61.22 4.96875 67.9062 11.655 67.9062 19.875C67.9062 21.5892 67.6048 23.2537 67.0417 24.8438H57.9688V23.1875C57.9688 20.4481 55.7394 18.2188 53 18.2188C52.0858 18.2188 51.3438 17.4768 51.3438 16.5625V14.9062H53C53.9142 14.9062 54.6562 15.6482 54.6562 16.5625H57.9688C57.9688 14.4061 56.5792 12.5842 54.6562 11.8985V8.28125H51.3438V11.5938H48.0312V16.5625C48.0312 19.3019 50.2606 21.5312 53 21.5312C53.9142 21.5312 54.6562 22.2733 54.6562 23.1875V24.8438H53C52.0858 24.8438 51.3438 24.1017 51.3438 23.1875H48.0312C48.0312 23.7705 48.1505 24.3237 48.336 24.8438H38.9583C38.3952 23.2554 38.0938 21.5925 38.0938 19.875ZM18.2188 31.4688C18.2188 29.6419 19.7044 28.1562 21.5312 28.1562H53H57.9688H84.4688C86.2956 28.1562 87.7812 29.6419 87.7812 31.4688C87.7812 33.2956 86.2956 34.7812 84.4688 34.7812H21.5312C19.7044 34.7812 18.2188 33.2956 18.2188 31.4688ZM47.0574 56.45L27.3911 38.0938H78.6106L58.9443 56.45C57.2715 58.0085 56.3125 60.2146 56.3125 62.5036V68.2226C55.2359 68.0238 54.1329 67.9062 53 67.9062C51.8671 67.9062 50.7641 68.0238 49.6875 68.2226V62.5036C49.6875 60.2146 48.7285 58.0085 47.0574 56.45ZM53 101.031C44.78 101.031 38.0938 94.345 38.0938 86.125C38.0938 77.905 44.78 71.2188 53 71.2188C61.22 71.2188 67.9062 77.905 67.9062 86.125C67.9062 94.345 61.22 101.031 53 101.031Z" fill="white"/>
<path d="M62.9375 87.7812C63.8522 87.7812 64.5938 87.0397 64.5938 86.125C64.5938 85.2103 63.8522 84.4688 62.9375 84.4688C62.0228 84.4688 61.2812 85.2103 61.2812 86.125C61.2812 87.0397 62.0228 87.7812 62.9375 87.7812Z" fill="white"/>
<path d="M43.0625 87.7812C43.9772 87.7812 44.7188 87.0397 44.7188 86.125C44.7188 85.2103 43.9772 84.4688 43.0625 84.4688C42.1478 84.4688 41.4062 85.2103 41.4062 86.125C41.4062 87.0397 42.1478 87.7812 43.0625 87.7812Z" fill="white"/>
<path d="M62.9375 21.5312C63.8522 21.5312 64.5938 20.7897 64.5938 19.875C64.5938 18.9603 63.8522 18.2188 62.9375 18.2188C62.0228 18.2188 61.2812 18.9603 61.2812 19.875C61.2812 20.7897 62.0228 21.5312 62.9375 21.5312Z" fill="white"/>
<path d="M43.0625 21.5312C43.9772 21.5312 44.7188 20.7897 44.7188 19.875C44.7188 18.9603 43.9772 18.2188 43.0625 18.2188C42.1478 18.2188 41.4062 18.9603 41.4062 19.875C41.4062 20.7897 42.1478 21.5312 43.0625 21.5312Z" fill="white"/>
<path d="M47.0195 51.3677L49.2014 48.8746L51.6957 51.0575L49.5138 53.5506L47.0195 51.3677Z" fill="white"/>
<path d="M41.9844 47.0457L44.1665 44.5556L46.6577 46.7388L44.4756 49.2288L41.9844 47.0457Z" fill="white"/>
<path d="M37 42.6816L39.1821 40.1916L41.6734 42.3748L39.4913 44.8648L37 42.6816Z" fill="white"/>
<path d="M101.031 56.6172V24.8438H97.7188V56.6172C95.7958 57.3029 94.4062 59.1248 94.4062 61.2812C94.4062 64.0207 96.6356 66.25 99.375 66.25C102.114 66.25 104.344 64.0207 104.344 61.2812C104.344 59.1248 102.954 57.3029 101.031 56.6172ZM99.375 62.9375C98.4608 62.9375 97.7188 62.1955 97.7188 61.2812C97.7188 60.367 98.4608 59.625 99.375 59.625C100.289 59.625 101.031 60.367 101.031 61.2812C101.031 62.1955 100.289 62.9375 99.375 62.9375Z" fill="white"/>
<path d="M91.0938 73.1797V41.4062H87.7812V73.1797C85.8583 73.8654 84.4688 75.6873 84.4688 77.8438C84.4688 80.5832 86.6981 82.8125 89.4375 82.8125C92.1769 82.8125 94.4062 80.5832 94.4062 77.8438C94.4062 75.6873 93.0167 73.8654 91.0938 73.1797ZM89.4375 79.5C88.5233 79.5 87.7812 78.758 87.7812 77.8438C87.7812 76.9295 88.5233 76.1875 89.4375 76.1875C90.3517 76.1875 91.0938 76.9295 91.0938 77.8438C91.0938 78.758 90.3517 79.5 89.4375 79.5Z" fill="white"/>
<path d="M8.28125 56.6172V24.8438H4.96875V56.6172C3.04584 57.3029 1.65625 59.1248 1.65625 61.2812C1.65625 64.0207 3.88556 66.25 6.625 66.25C9.36444 66.25 11.5938 64.0207 11.5938 61.2812C11.5938 59.1248 10.2042 57.3029 8.28125 56.6172ZM6.625 62.9375C5.71075 62.9375 4.96875 62.1955 4.96875 61.2812C4.96875 60.367 5.71075 59.625 6.625 59.625C7.53925 59.625 8.28125 60.367 8.28125 61.2812C8.28125 62.1955 7.53925 62.9375 6.625 62.9375Z" fill="white"/>
<path d="M18.2188 73.1797V41.4062H14.9062V73.1797C12.9833 73.8654 11.5938 75.6873 11.5938 77.8438C11.5938 80.5832 13.8231 82.8125 16.5625 82.8125C19.3019 82.8125 21.5312 80.5832 21.5312 77.8438C21.5312 75.6873 20.1417 73.8654 18.2188 73.1797ZM16.5625 79.5C15.6483 79.5 14.9062 78.758 14.9062 77.8438C14.9062 76.9295 15.6483 76.1875 16.5625 76.1875C17.4767 76.1875 18.2188 76.9295 18.2188 77.8438C18.2188 78.758 17.4767 79.5 16.5625 79.5Z" fill="white"/>
</svg>
