<svg width="106" height="106" viewBox="0 0 106 106" fill="none" xmlns="http://www.w3.org/2000/svg">
<path d="M54.4088 102.466C54.0239 102.081 53.4898 101.859 52.9453 101.859C52.4006 101.859 51.8665 102.081 51.4816 102.466C51.0965 102.851 50.875 103.385 50.875 103.93C50.875 104.474 51.0963 105.008 51.4816 105.393C51.8665 105.778 52.4006 106 52.9453 106C53.4898 106 54.0239 105.778 54.4088 105.393C54.7939 105.008 55.0156 104.474 55.0156 103.93C55.0156 103.385 54.7941 102.851 54.4088 102.466Z" fill="#F2F2F2"/>
<path d="M94.9362 67.714L88.0301 66.0642V63.3247C91.8635 60.9019 94.4166 56.6289 94.4166 51.7687V44.0532C94.4166 36.5188 88.2868 30.3892 80.7521 30.3892C76.6877 30.3892 73.0342 32.175 70.5289 35.0008C68.3348 27.4021 61.3171 21.8289 53.0215 21.8289H53.0213C44.7123 21.8289 37.6851 27.4197 35.5032 35.037C32.9973 32.1904 29.3303 30.3892 25.2485 30.3892C17.7138 30.3892 11.584 36.519 11.584 44.0532V51.7687C11.584 56.6292 14.1371 60.9021 17.9705 63.3247V66.0642L11.0644 67.714C4.54972 69.2701 0 75.0344 0 81.7317V95.6485C0 96.792 0.927086 97.7188 2.07031 97.7188H18.6252V103.93C18.6252 105.073 19.5522 106 20.6955 106H43.4076C44.5508 106 45.4779 105.073 45.4779 103.93C45.4779 102.786 44.5508 101.859 43.4076 101.859H34.1651V92.7476C34.1651 91.6042 33.238 90.6773 32.0948 90.6773C30.9516 90.6773 30.0245 91.6042 30.0245 92.7476V101.859H22.7656V92.5186C22.7656 85.4974 27.5343 79.451 34.3624 77.8149L44.5448 75.3748L51.0966 90.2802C51.427 91.0319 52.1704 91.5174 52.9915 91.5174H52.9917C53.8128 91.5174 54.5565 91.0322 54.8869 90.2804L61.432 75.3967L71.5848 77.8221C78.4191 79.4546 83.192 85.5021 83.192 92.5284V94.8386C83.0862 95.0875 83.0274 95.361 83.0274 95.6483C83.0274 95.9357 83.0862 96.2094 83.192 96.458V101.859H75.9755V92.7476C75.9755 91.6042 75.0484 90.6773 73.9052 90.6773C72.762 90.6773 71.8349 91.6042 71.8349 92.7476V101.859H61.6955C60.5523 101.859 59.6252 102.786 59.6252 103.93C59.6252 105.073 60.5523 106 61.6955 106H85.2623C86.4055 106 87.3326 105.073 87.3326 103.93V97.7188H103.93C105.073 97.7188 106 96.792 106 95.6485V81.7317C106 75.0344 101.45 69.2701 94.9362 67.714ZM80.7519 34.5298C86.0033 34.5298 90.2758 38.8021 90.2758 44.0532V44.5659V44.7739H84.3541C79.8809 44.7739 75.4855 43.5994 71.6117 41.3732C72.7723 37.4227 76.4306 34.5298 80.7519 34.5298ZM71.2281 51.4308C71.2353 51.2194 71.2405 45.8641 71.2405 45.8641C75.3105 47.8657 79.7975 48.9148 84.3543 48.9148H90.276V51.7689C90.2758 57.02 86.0033 61.2921 80.7519 61.2921C75.5006 61.2921 71.2281 57.0198 71.2281 51.7687V51.4308ZM38.9426 40.0478C38.9426 32.285 45.2583 25.9697 53.0213 25.9697C60.7842 25.9697 67.0999 32.2852 67.0999 40.0478V40.3178L59.4159 35.8035C58.5441 35.2911 57.4299 35.4838 56.7804 36.2587C53.795 39.8213 49.4167 41.8647 44.7682 41.8647H38.9426V40.0478ZM15.7242 44.5661V44.0532C15.7242 38.8019 19.9967 34.5298 25.2481 34.5298C29.5694 34.5298 33.2277 37.4227 34.3881 41.3734C30.5143 43.5994 26.1191 44.7741 21.6457 44.7741H15.7242V44.5661ZM15.7242 51.7687V48.9145H21.6459C26.2073 48.9145 30.6988 47.8637 34.7719 45.8581V51.7687C34.7719 57.02 30.4994 61.2921 25.2481 61.2921C19.9967 61.2921 15.7242 57.0198 15.7242 51.7687ZM18.6252 92.5186V93.5782H12.4219V84.38C12.4219 83.2366 11.4948 82.3097 10.3516 82.3097C9.20834 82.3097 8.28125 83.2366 8.28125 84.38V93.5782H4.14062V81.7317C4.14062 76.9586 7.38315 72.8505 12.0258 71.7414L18.5883 70.1735L22.8714 80.433C20.1926 83.7608 18.6252 87.9789 18.6252 92.5186ZM25.2485 75.3789L22.1043 67.8473C22.1078 67.7979 22.1107 67.7484 22.1107 67.6983V65.0653C23.1188 65.3029 24.1684 65.4327 25.2481 65.4327C26.323 65.4327 27.3677 65.304 28.3718 65.0684V67.5672C28.3695 67.6062 28.3685 67.6451 28.3685 67.684C28.3685 67.7492 28.3747 67.814 28.3809 67.8788L25.2485 75.3789ZM33.3977 73.7883C32.1751 74.0813 31.0069 74.4889 29.8976 74.9916L31.9141 70.1632L38.4776 71.736C38.9867 71.8579 39.4827 72.0192 39.9628 72.2151L33.3977 73.7883ZM43.6739 69.4732C42.3741 68.667 40.9481 68.0701 39.4426 67.7095L32.5124 66.0489V63.3336C34.2359 62.2474 35.6998 60.7874 36.7911 59.0674C38.3519 62.1167 40.7475 64.6702 43.6739 66.4267V69.4732ZM58.1619 72.5465L52.9921 84.303L47.8145 72.5236V68.2537C49.4649 68.7469 51.2125 69.0129 53.0211 69.0129C54.8057 69.0129 56.5309 68.7537 58.1619 68.2732V72.5465ZM53.0213 64.8725C45.2581 64.8723 38.9426 58.5568 38.9426 50.7942V46.0055H44.768C50.0523 46.0055 55.0606 43.917 58.7606 40.2209L67.0876 45.1128V51.2801C66.8301 58.8183 60.6214 64.8725 53.0213 64.8725ZM62.3025 66.4656H62.3027C65.2471 64.7152 67.6595 62.1598 69.2323 59.1038C70.3213 60.8079 71.7765 62.2548 73.4876 63.3336V66.0489L66.5574 67.7095C65.0428 68.0724 63.6087 68.6746 62.3025 69.4883V66.4656ZM72.5466 73.7951L65.9993 72.2308C66.4912 72.0279 66.9999 71.8613 67.5224 71.736L74.07 70.1671L76.0947 75.017C74.9712 74.5053 73.7868 74.0914 72.5466 73.7951ZM77.6148 67.9097C77.6231 67.8345 77.6291 67.7589 77.6291 67.6832C77.6291 67.6639 77.6289 67.6445 77.6282 67.6252V65.0684C78.6323 65.3042 79.677 65.4327 80.7519 65.4327C81.8316 65.4327 82.8812 65.3029 83.8893 65.0651V67.6981C83.8893 67.7358 83.892 67.7728 83.894 67.8101L80.7331 75.3789L77.6148 67.9097ZM101.859 93.5782H97.7188V84.38C97.7188 83.2366 96.7917 82.3097 95.6484 82.3097C94.5052 82.3097 93.5781 83.2366 93.5781 84.38V93.5782H87.3326V92.5286C87.3326 87.9948 85.7704 83.7825 83.0992 80.4576L87.3958 70.1698L93.9742 71.7414C98.6169 72.8505 101.859 76.9586 101.859 81.7317V93.5782Z" fill="#F2F2F2"/>
<path d="M47.5182 48.4826C47.1333 48.0975 46.5992 47.876 46.0547 47.876C45.5102 47.876 44.9761 48.0975 44.591 48.4826C44.2059 48.8677 43.9844 49.4018 43.9844 49.9463C43.9844 50.4908 44.2057 51.0249 44.591 51.41C44.9763 51.7951 45.5102 52.0166 46.0547 52.0166C46.6012 52.0166 47.1333 51.7951 47.5182 51.41C47.9053 51.0249 48.125 50.4908 48.125 49.9463C48.125 49.4018 47.9053 48.8677 47.5182 48.4826Z" fill="#F2F2F2"/>
<path d="M61.3658 48.4826C60.981 48.0975 60.4468 47.876 59.9023 47.876C59.3579 47.876 58.8237 48.0975 58.4386 48.4826C58.0536 48.8677 57.832 49.4018 57.832 49.9463C57.832 50.4908 58.0534 51.0249 58.4386 51.41C58.8239 51.7951 59.3579 52.0166 59.9023 52.0166C60.4468 52.0166 60.981 51.7951 61.3658 51.41C61.753 51.0249 61.9727 50.4908 61.9727 49.9463C61.9727 49.4018 61.753 48.8677 61.3658 48.4826Z" fill="#F2F2F2"/>
<path d="M56.9836 55.4516C56.175 54.6431 54.8645 54.6431 54.0556 55.4516C53.4434 56.0638 52.4474 56.0638 51.8352 55.4516C51.0265 54.6431 49.716 54.6431 48.9071 55.4516C48.0987 56.26 48.0987 57.5709 48.9071 58.3796C50.0205 59.4928 51.4828 60.0495 52.9453 60.0495C54.4077 60.0495 55.87 59.493 56.9834 58.3796C57.7921 57.5709 57.7921 56.26 56.9836 55.4516Z" fill="#F2F2F2"/>
<path d="M85.6036 11.1797H84.1836C83.0404 11.1797 82.1133 12.1066 82.1133 13.25C82.1133 14.3934 83.0404 15.3203 84.1836 15.3203H85.6036C86.7469 15.3203 87.674 14.3934 87.674 13.25C87.674 12.1066 86.7469 11.1797 85.6036 11.1797Z" fill="#F2F2F2"/>
<path d="M95.6466 11.1797H94.2266C93.0833 11.1797 92.1562 12.1066 92.1562 13.25C92.1562 14.3934 93.0831 15.3203 94.2266 15.3203H95.6466C96.7898 15.3203 97.7169 14.3934 97.7169 13.25C97.7169 12.1066 96.7898 11.1797 95.6466 11.1797Z" fill="#F2F2F2"/>
<path d="M89.918 15.4924C88.7747 15.4924 87.8477 16.4193 87.8477 17.5627V18.9828C87.8477 20.1262 88.7745 21.0531 89.918 21.0531C91.0612 21.0531 91.9883 20.1262 91.9883 18.9828V17.5627C91.9883 16.4193 91.0612 15.4924 89.918 15.4924Z" fill="#F2F2F2"/>
<path d="M89.918 5.44702C88.7747 5.44702 87.8477 6.3739 87.8477 7.51733V8.93736C87.8477 10.0808 88.7745 11.0077 89.918 11.0077C91.0612 11.0077 91.9883 10.0808 91.9883 8.93736V7.51733C91.9883 6.3739 91.0612 5.44702 89.918 5.44702Z" fill="#F2F2F2"/>
<path d="M11.6581 11.1797H10.2383C9.09505 11.1797 8.16797 12.1066 8.16797 13.25C8.16797 14.3934 9.09505 15.3203 10.2383 15.3203H11.6581C12.8013 15.3203 13.7284 14.3934 13.7284 13.25C13.7284 12.1066 12.8013 11.1797 11.6581 11.1797Z" fill="#F2F2F2"/>
<path d="M21.7011 11.1797H20.2812C19.138 11.1797 18.2109 12.1066 18.2109 13.25C18.2109 14.3934 19.1378 15.3203 20.2812 15.3203H21.7011C22.8443 15.3203 23.7714 14.3934 23.7714 13.25C23.7714 12.1066 22.8443 11.1797 21.7011 11.1797Z" fill="#F2F2F2"/>
<path d="M15.9687 15.4924C14.8255 15.4924 13.8984 16.4193 13.8984 17.5627V18.9828C13.8984 20.1262 14.8253 21.0531 15.9687 21.0531C17.112 21.0531 18.0391 20.1262 18.0391 18.9828V17.5627C18.0391 16.4193 17.112 15.4924 15.9687 15.4924Z" fill="#F2F2F2"/>
<path d="M15.9687 5.44702C14.8255 5.44702 13.8984 6.3739 13.8984 7.51733V8.93736C13.8984 10.0808 14.8253 11.0077 15.9687 11.0077C17.112 11.0077 18.0391 10.0808 18.0391 8.93736V7.51733C18.0391 6.3739 17.112 5.44702 15.9687 5.44702Z" fill="#F2F2F2"/>
<path d="M53 7.88525C51.8568 7.88525 50.9297 8.81213 50.9297 9.95557V15.4026C50.9297 16.546 51.8568 17.4729 53 17.4729C54.1432 17.4729 55.0703 16.546 55.0703 15.4026V9.95557C55.0703 8.81213 54.1432 7.88525 53 7.88525Z" fill="#F2F2F2"/>
<path d="M54.4635 0.606602C54.0786 0.221523 53.5445 0 53 0C52.4555 0 51.9214 0.221523 51.5363 0.606602C51.151 0.99168 50.9297 1.52582 50.9297 2.07031C50.9297 2.6148 51.151 3.14895 51.5363 3.53402C51.9216 3.9191 52.4555 4.14062 53 4.14062C53.5445 4.14062 54.0786 3.9191 54.4635 3.53402C54.8488 3.14895 55.0703 2.6148 55.0703 2.07031C55.0703 1.52582 54.8488 0.99168 54.4635 0.606602Z" fill="#F2F2F2"/>
<path d="M45.7438 8.30596L42.7141 5.27626C41.9054 4.46781 40.5949 4.46781 39.786 5.27626C38.9776 6.08472 38.9776 7.39564 39.786 8.20431L42.8159 11.234C43.2203 11.6383 43.7501 11.8404 44.2798 11.8404C44.8096 11.8404 45.3394 11.6383 45.7438 11.234C46.5522 10.4255 46.5522 9.11462 45.7438 8.30596Z" fill="#F2F2F2"/>
<path d="M66.2122 5.16225C65.4035 4.35379 64.093 4.35379 63.2842 5.16225L60.1532 8.29318C59.3448 9.10164 59.3448 10.4126 60.1532 11.2212C60.5578 11.6256 61.0873 11.8276 61.6173 11.8276C62.1473 11.8276 62.6769 11.6256 63.0813 11.2212L66.2122 8.09029C67.0206 7.28184 67.0206 5.97091 66.2122 5.16225Z" fill="#F2F2F2"/>
</svg>
