<svg width="106" height="106" viewBox="0 0 106 106" fill="none" xmlns="http://www.w3.org/2000/svg">
<path d="M64.5823 37.729L49.1164 28.8C47.9786 28.1425 46.6199 28.1425 45.4821 28.8C44.3442 29.4567 43.6641 30.6334 43.6641 31.9475V49.8056C43.6641 51.1197 44.3442 52.2964 45.4821 52.9531C46.0506 53.2814 46.6749 53.4464 47.2992 53.4464C47.9236 53.4464 48.5479 53.2814 49.1164 52.9531L64.5823 44.0241C65.7202 43.3674 66.3995 42.1907 66.3995 40.8766C66.3995 39.5624 65.7202 38.3857 64.5823 37.729ZM63.0239 41.3262L47.5588 50.2552C47.3332 50.3854 47.1367 50.311 47.0396 50.2552C46.9426 50.1994 46.78 50.0668 46.78 49.8056V31.9475C46.78 31.6863 46.9426 31.5537 47.0396 31.4979C47.0963 31.4647 47.1884 31.4251 47.3009 31.4251C47.3785 31.4251 47.4658 31.4445 47.5588 31.4979L63.0239 40.4269C63.2503 40.5571 63.2843 40.7649 63.2843 40.8766C63.2843 40.989 63.2503 41.196 63.0239 41.3262Z" fill="white"/>
<path d="M101.338 8.07434H4.66143C2.09133 8.07434 0 10.1657 0 12.7358V77.179C0 79.7491 2.09133 81.8404 4.66143 81.8404H41.5542V89.9639H37.1305C34.9373 89.9639 33.1532 91.7488 33.1532 93.9412V94.0124C33.1532 96.2056 34.9373 97.9896 37.1305 97.9896H68.8701C71.0625 97.9896 72.8474 96.2056 72.8474 94.0124V93.9412C72.8474 91.748 71.0625 89.9639 68.8701 89.9639H64.4456V81.8404H101.338C103.908 81.8404 106 79.7491 106 77.179V12.7358C106 10.1657 103.908 8.07434 101.338 8.07434V8.07434ZM68.8693 93.0799C69.3448 93.0799 69.7314 93.4665 69.7314 93.9412V94.0124C69.7314 94.4871 69.3448 94.8745 68.8693 94.8745H37.1297C36.655 94.8745 36.2684 94.4879 36.2684 94.0124V93.9412C36.2684 93.4665 36.655 93.0799 37.1297 93.0799H45.77C46.6305 93.0799 47.3276 92.382 47.3276 91.5223C47.3276 90.6619 46.6305 89.9639 45.77 89.9639H44.6693V81.8404H61.3305V89.9639H52.97C52.1095 89.9639 51.4124 90.6619 51.4124 91.5223C51.4124 92.382 52.1095 93.0799 52.97 93.0799H68.8693ZM102.885 77.179C102.885 78.0314 102.191 78.7244 101.338 78.7244H4.66143C3.80904 78.7244 3.11598 78.0314 3.11598 77.179V12.7358C3.11598 11.8834 3.80904 11.1903 4.66143 11.1903H101.338C102.191 11.1903 102.885 11.8834 102.885 12.7358V77.179Z" fill="white"/>
<path d="M97.069 15.0648H8.93192C7.50049 15.0648 6.33594 16.2294 6.33594 17.6608V69.5512C6.33594 70.9827 7.50049 72.1472 8.93192 72.1472H97.069C98.5004 72.1472 99.665 70.9827 99.665 69.5512V57.9979C99.665 57.1375 98.9671 56.4403 98.1074 56.4403C97.2469 56.4403 96.5498 57.1375 96.5498 57.9979V69.032H86.5104C86.5112 68.9973 86.5153 68.9633 86.5153 68.9277V18.2843C86.5153 18.2487 86.5112 18.2148 86.5104 18.18H96.5498V50.6362C96.5498 51.4967 97.2469 52.1938 98.1074 52.1938C98.9671 52.1938 99.665 51.4967 99.665 50.6362V17.6608C99.665 16.2294 98.5004 15.0648 97.069 15.0648ZM83.4001 68.9277C83.4001 68.9851 83.3532 69.032 83.2966 69.032H24.2587C24.2013 69.032 24.1544 68.9851 24.1544 68.9277V23.8434C24.1544 22.983 23.4573 22.285 22.5968 22.285C21.7363 22.285 21.0392 22.983 21.0392 23.8434V68.9277C21.0392 68.9625 21.0432 68.9973 21.0441 69.032H9.45111V18.18H83.2966C83.354 18.18 83.4001 18.2269 83.4001 18.2843V68.9277Z" fill="white"/>
<path d="M72.8209 23.0469H34.7303C30.5218 23.0469 27.0977 26.471 27.0977 30.6795V51.3463C27.0977 55.5548 30.5218 58.9789 34.7303 58.9789H72.8209C77.0294 58.9789 80.4535 55.5548 80.4535 51.3463V30.6795C80.4535 26.471 77.0294 23.0469 72.8209 23.0469ZM77.3375 51.3463C77.3375 53.8371 75.3117 55.8629 72.8209 55.8629H34.7303C32.2395 55.8629 30.2128 53.8371 30.2128 51.3463V30.6795C30.2128 28.1887 32.2395 26.162 34.7303 26.162H72.8209C75.3117 26.162 77.3375 28.1887 77.3375 30.6795V51.3463Z" fill="white"/>
<path d="M49.5095 62.094H26.8857C26.0252 62.094 25.3281 62.7911 25.3281 63.6516C25.3281 64.5121 26.0252 65.2092 26.8857 65.2092H49.5095C50.3692 65.2092 51.0671 64.5121 51.0671 63.6516C51.0671 62.7911 50.3692 62.094 49.5095 62.094Z" fill="white"/>
<path d="M62.8881 62.094H57.1123C56.2526 62.094 55.5547 62.7911 55.5547 63.6516C55.5547 64.5121 56.2526 65.2092 57.1123 65.2092H62.8881C63.7486 65.2092 64.4457 64.5121 64.4457 63.6516C64.4457 62.7911 63.7486 62.094 62.8881 62.094Z" fill="white"/>
</svg>
