<svg width="106" height="106" viewBox="0 0 106 106" fill="none" xmlns="http://www.w3.org/2000/svg">
<g clip-path="url(#clip0)">
<path d="M58.0917 27.0883C57.8944 26.3243 57.3045 25.7235 56.5445 25.5124L12.0129 13.1441C11.2531 12.9329 10.4376 13.1433 9.87473 13.6963C9.31181 14.249 9.08677 15.0602 9.28386 15.8241L20.6898 60.0003L15.1255 80.0359L6.89741 77.7505C5.72396 77.424 4.50496 78.112 4.17888 79.2873C3.85219 80.4624 4.54036 81.6795 5.71567 82.0062L16.0614 84.8798C16.065 84.8809 16.0679 84.8823 16.0714 84.8831C16.0741 84.884 16.0759 84.884 16.0786 84.885L26.4269 87.7592C26.6246 87.8143 26.8233 87.8402 27.0192 87.8402C27.9866 87.8402 28.8742 87.1998 29.1456 86.2222C29.4723 85.0471 28.7841 83.83 27.6088 83.5035L19.3814 81.2183L24.9458 61.1822L40.7385 45.6747C40.7389 45.6743 40.7394 45.6739 40.7398 45.6735L57.5006 29.2159C58.0635 28.6632 58.2886 27.852 58.0917 27.0883ZM24.158 55.7652L21.7198 46.3209H33.7767L24.158 55.7652ZM38.2749 41.9045H20.5795L14.5168 18.4232L18.7715 19.6051L21.6043 30.578C21.8614 31.5738 22.7581 32.2347 23.7411 32.2347C23.9239 32.2347 24.1098 32.2117 24.2949 32.1643C25.476 31.8593 26.1859 30.6548 25.8809 29.4739L23.6856 20.9701L51.677 28.7443L38.2749 41.9045Z" fill="white"/>
<path d="M24.8809 34.407C23.699 34.7091 22.9862 35.9117 23.288 37.0935L23.3201 37.2183C23.5754 38.2166 24.4731 38.8804 25.4583 38.8804C25.6395 38.8804 25.8231 38.8578 26.007 38.811C27.1885 38.5092 27.9017 37.3063 27.5994 36.1246L27.5673 35.9997C27.2653 34.8182 26.0624 34.1048 24.8809 34.407Z" fill="white"/>
<path d="M98.6754 95.0456L90.2351 96.3408L87.081 75.7869L103.636 33.2714C103.922 32.5362 103.794 31.7042 103.301 31.0887C102.808 30.473 102.023 30.1678 101.243 30.2873L55.5611 37.2979C54.7814 37.4176 54.1243 37.9443 53.838 38.6795C53.5517 39.4146 53.6796 40.2467 54.1732 40.8622L82.7153 76.4571L85.8695 97.0105L77.4288 98.3055C76.2232 98.4904 75.396 99.6174 75.581 100.823C75.7485 101.915 76.6897 102.697 77.7609 102.697C77.8727 102.697 77.9853 102.688 78.0985 102.671L99.3449 99.4108C100.55 99.226 101.378 98.0989 101.193 96.8933C101.008 95.6878 99.8793 94.8609 98.6754 95.0456ZM60.0121 41.0833L98.1325 35.2334L90.3188 55.3006H86.1417L88.1971 50.0221C88.6397 48.8857 88.0768 47.6054 86.9404 47.163C85.8042 46.7206 84.5238 47.2831 84.0817 48.4195L81.4023 55.3006H71.4127L60.0121 41.0833ZM84.1387 71.1718L74.9537 59.7174H79.6823L79.5068 60.1677C79.0641 61.304 79.6271 62.5843 80.7639 63.0268C81.0268 63.1292 81.2978 63.1779 81.5645 63.1779C82.4483 63.1779 83.2828 62.6435 83.6228 61.7703L84.4219 59.7174H88.5988L84.1387 71.1718Z" fill="white"/>
<path d="M87.784 45.0035C88.0466 45.1058 88.3171 45.154 88.5832 45.154C89.4678 45.154 90.3024 44.6189 90.6423 43.745L90.6889 43.6245C91.1305 42.4879 90.5672 41.208 89.4304 40.7664C88.2938 40.3248 87.0141 40.8882 86.5721 42.025L86.5255 42.1455C86.0839 43.2825 86.647 44.5619 87.784 45.0035Z" fill="white"/>
<path d="M6.9344 32.9216C7.11679 32.9216 7.30271 32.8986 7.48779 32.8512C8.66891 32.5463 9.37902 31.3418 9.07428 30.1608L4.34734 11.8539C4.04238 10.6728 2.83767 9.96288 1.65676 10.2676C0.475646 10.5726 -0.234265 11.7771 0.0706924 12.958L4.79742 31.2647C5.05456 32.2606 5.95142 32.9216 6.9344 32.9216Z" fill="white"/>
<path d="M104.591 50.8405C103.454 50.3974 102.174 50.9608 101.732 52.0967L94.8738 69.7062C94.4312 70.8426 94.9937 72.1229 96.1301 72.5653C96.3936 72.6678 96.6644 72.7164 96.9311 72.7164C97.8149 72.7164 98.6494 72.1821 98.9892 71.309L105.847 53.6996C106.29 52.5632 105.727 51.2829 104.591 50.8405Z" fill="white"/>
<path d="M55.0281 15.1817C55.2997 16.1593 56.1874 16.7995 57.1545 16.7995C57.3503 16.7995 57.5491 16.7734 57.7472 16.7185C58.9221 16.392 59.6103 15.1749 59.2836 13.9996L57.2313 6.61166C56.9046 5.43655 55.6885 4.74817 54.5126 5.07486C53.3372 5.40156 52.6491 6.61849 52.9758 7.7938L55.0281 15.1817Z" fill="white"/>
<path d="M63.8801 19.8187C64.2252 20.0156 64.6014 20.1091 64.9722 20.1091C65.7396 20.1091 66.4849 19.7087 66.8924 18.9947L73.96 6.60614C74.5641 5.54655 74.1954 4.19795 73.1362 3.59342C72.0773 2.9893 70.7282 3.35803 70.1237 4.4172L63.0563 16.8059C62.4518 17.8653 62.8207 19.2139 63.8801 19.8187Z" fill="white"/>
<path d="M68.0936 25.03C68.4787 25.8076 69.2612 26.2583 70.0738 26.2583C70.4032 26.2583 70.7376 26.1844 71.0531 26.0281L79.083 22.0479C80.1759 21.5061 80.6225 20.1813 80.0811 19.0886C79.5393 17.9959 78.2147 17.5489 77.1214 18.0905L69.0915 22.0707C67.9986 22.6125 67.5518 23.9373 68.0936 25.03Z" fill="white"/>
</g>
<defs>
<clipPath id="clip0">
<rect width="106" height="106" fill="white"/>
</clipPath>
</defs>
</svg>
