<svg width="125" height="125" viewBox="0 0 125 125" fill="none" xmlns="http://www.w3.org/2000/svg">
<path d="M81.8344 11.9142C79.0863 9.14842 75.7785 7.00232 72.1329 5.61986C68.4873 4.2374 64.5883 3.65056 60.6972 3.8987C56.8062 4.14684 53.0133 5.22422 49.5729 7.05858C46.1324 8.89293 43.124 11.4418 40.7495 14.5343C38.3751 17.6267 36.6894 21.1912 35.8055 24.9887C34.9217 28.7861 34.8602 32.7286 35.6252 36.5517C36.3901 40.3749 37.9638 43.9902 40.2407 47.1552C42.5176 50.3202 45.445 52.9617 48.8266 54.9025V80.0783H52.7328V56.7775C59.018 59.1993 65.9789 59.1993 72.2641 56.7775V83.9845H76.1703V54.9025C79.8115 52.8168 82.922 49.9186 85.2595 46.4336C87.5969 42.9487 89.0982 38.9711 89.6464 34.8108C90.1945 30.6505 89.7747 26.4198 88.4197 22.4483C87.0647 18.4769 84.8111 14.8719 81.8344 11.9142V11.9142ZM76.1703 50.254C72.1942 53.1359 67.4091 54.6876 62.4984 54.6876C57.5878 54.6876 52.8027 53.1359 48.8266 50.254V49.7462C48.8342 48.6576 49.1405 47.5919 49.7123 46.6654C50.284 45.739 51.0991 44.9873 52.0688 44.4923L53.182 43.9455L54.8617 47.6759C54.9755 47.9343 55.1446 48.1645 55.3573 48.3501C55.57 48.5357 55.8209 48.6723 56.0922 48.7501C56.2692 48.8048 56.4538 48.8312 56.6391 48.8283C57.0226 48.8292 57.3972 48.7134 57.7133 48.4962L62.4984 45.3126L67.2836 48.4962C67.5997 48.7134 67.9743 48.8292 68.3578 48.8283C68.5431 48.8312 68.7277 48.8048 68.9047 48.7501C69.176 48.6723 69.4269 48.5357 69.6396 48.3501C69.8523 48.1645 70.0214 47.9343 70.1352 47.6759L71.8149 43.9455L72.9281 44.4923C73.8978 44.9873 74.7129 45.739 75.2847 46.6654C75.8564 47.5919 76.1627 48.6576 76.1703 49.7462V50.254ZM63.8656 24.629C64.3546 25.3922 65.0158 26.03 65.7959 26.4913C66.5761 26.9526 67.4535 27.2245 68.3578 27.2853V27.3439C68.3578 28.8979 67.7405 30.3882 66.6417 31.4871C65.5428 32.5859 64.0525 33.2033 62.4984 33.2033C60.9444 33.2033 59.4541 32.5859 58.3552 31.4871C57.2564 30.3882 56.6391 28.8979 56.6391 27.3439V27.2658C59.2543 27.1144 61.7674 26.1975 63.8656 24.629V24.629ZM56.6391 23.34V21.4845C56.6391 19.9305 57.2564 18.4402 58.3552 17.3413C59.4541 16.2425 60.9444 15.6251 62.4984 15.6251C64.0525 15.6251 65.5428 16.2425 66.6417 17.3413C67.7405 18.4402 68.3578 19.9305 68.3578 21.4845V23.379C68.0815 23.3149 67.8228 23.1906 67.6 23.0151C67.3771 22.8396 67.1958 22.617 67.0688 22.3634L66.2094 20.6056C66.0659 20.3304 65.8609 20.092 65.6102 19.9091C65.3595 19.7262 65.0699 19.6036 64.7641 19.5509C64.4578 19.5022 64.1444 19.5264 63.8491 19.6214C63.5539 19.7164 63.2852 19.8796 63.0649 20.0978L62.5961 20.5861C60.9895 22.1666 58.8839 23.14 56.6391 23.34V23.34ZM68.3188 42.2072L67.518 43.965L65.5649 42.6564L66.7953 41.4454L68.3188 42.2072ZM64.4516 36.9142V38.2619L62.4984 40.215L60.5453 38.2619V36.9142C61.8344 37.1746 63.1625 37.1746 64.4516 36.9142ZM59.432 42.6564L57.4789 43.965L56.6781 42.2072L58.2016 41.4454L59.432 42.6564ZM79.7055 47.129C79.3363 45.8187 78.6997 44.599 77.8358 43.5468C76.9719 42.4947 75.8994 41.6329 74.686 41.0158L68.3578 37.8517V35.0978C69.5682 34.1992 70.5517 33.0301 71.2299 31.6838C71.9081 30.3375 72.2623 28.8513 72.2641 27.3439V21.4845C72.2641 18.8945 71.2352 16.4106 69.4038 14.5792C67.5724 12.7478 65.0885 11.7189 62.4984 11.7189C59.9084 11.7189 57.4245 12.7478 55.5931 14.5792C53.7617 16.4106 52.7328 18.8945 52.7328 21.4845V27.3439C52.7346 28.8513 53.0888 30.3375 53.767 31.6838C54.4452 33.0301 55.4287 34.1992 56.6391 35.0978V37.8517L50.311 41.0158C49.0953 41.6299 48.0211 42.4907 47.1568 43.5433C46.2925 44.5959 45.6572 45.8171 45.2914 47.129C42.197 43.783 40.1452 39.6073 39.3873 35.1132C38.6294 30.6191 39.1982 26.0014 41.0242 21.8256C42.8502 17.6498 45.8541 14.0969 49.6681 11.602C53.4821 9.10702 57.9409 7.7782 62.4984 7.7782C67.056 7.7782 71.5148 9.10702 75.3288 11.602C79.1428 14.0969 82.1467 17.6498 83.9727 21.8256C85.7987 26.0014 86.3675 30.6191 85.6096 35.1132C84.8517 39.6073 82.8 43.783 79.7055 47.129V47.129Z" fill="#94BAD0"/>
<path d="M23.4375 54.6875C19.5746 54.6875 15.7984 55.833 12.5865 57.9791C9.37463 60.1252 6.87126 63.1756 5.39299 66.7445C3.91471 70.3133 3.52793 74.2404 4.28155 78.0291C5.03516 81.8178 6.89534 85.2979 9.62683 88.0294C12.3583 90.7609 15.8385 92.6211 19.6272 93.3747C23.4158 94.1283 27.3429 93.7415 30.9118 92.2633C34.4807 90.785 37.531 88.2816 39.6771 85.0697C41.8233 81.8578 42.9688 78.0817 42.9688 74.2187C42.9631 69.0405 40.9035 64.0759 37.2419 60.4144C33.5803 56.7528 28.6158 54.6932 23.4375 54.6875V54.6875ZM15.9004 87.8906C16.1674 86.8224 16.6595 85.8236 17.3438 84.9609C18.075 85.8727 19.0015 86.6088 20.055 87.1149C21.1084 87.6211 22.262 87.8844 23.4308 87.8855C24.5996 87.8866 25.7537 87.6255 26.8081 87.1214C27.8626 86.6173 28.7905 85.883 29.5234 84.9727C30.2109 85.8319 30.71 86.826 30.9883 87.8906C28.6799 89.1704 26.0838 89.8419 23.4443 89.8419C20.8049 89.8419 18.2088 89.1704 15.9004 87.8906V87.8906ZM19.5313 74.2187H19.8652C21.1577 74.2226 22.4146 73.7958 23.4375 73.0059C24.4604 73.7958 25.7173 74.2226 27.0098 74.2187H27.3438C27.3438 75.2547 26.9322 76.2483 26.1996 76.9809C25.4671 77.7134 24.4735 78.125 23.4375 78.125C22.4015 78.125 21.4079 77.7134 20.6754 76.9809C19.9428 76.2483 19.5313 75.2547 19.5313 74.2187ZM19.5313 70.3125C19.5313 69.2765 19.9428 68.2829 20.6754 67.5504C21.4079 66.8178 22.4015 66.4062 23.4375 66.4062C24.4735 66.4062 25.4671 66.8178 26.1996 67.5504C26.9322 68.2829 27.3438 69.2765 27.3438 70.3125H27.0098C26.753 70.3127 26.4987 70.2623 26.2614 70.1641C26.0241 70.0659 25.8085 69.9218 25.627 69.7402L24.8184 68.9316C24.4521 68.5655 23.9554 68.3598 23.4375 68.3598C22.9196 68.3598 22.4229 68.5655 22.0567 68.9316L21.2481 69.7402C21.0665 69.9218 20.8509 70.0659 20.6136 70.1641C20.3764 70.2623 20.122 70.3127 19.8652 70.3125H19.5313ZM23.4375 82.0312C24.4525 82.0325 25.4576 82.2315 26.3965 82.6172C26.0327 83.0467 25.5798 83.3918 25.0691 83.6285C24.5584 83.8652 24.0023 83.9879 23.4395 83.9879C22.8766 83.9879 22.3205 83.8652 21.8098 83.6285C21.2992 83.3918 20.8462 83.0467 20.4824 82.6172C21.42 82.2315 22.4237 82.0325 23.4375 82.0312V82.0312ZM34.2637 85.459C33.2998 82.943 31.4644 80.8568 29.0918 79.5801C30.4744 78.1373 31.2474 76.217 31.25 74.2187V70.3125C31.25 68.2405 30.4269 66.2534 28.9618 64.7882C27.4967 63.3231 25.5095 62.5 23.4375 62.5C21.3655 62.5 19.3784 63.3231 17.9132 64.7882C16.4481 66.2534 15.625 68.2405 15.625 70.3125V74.2187C15.6276 76.2267 16.4074 78.1558 17.8008 79.6016C15.4463 80.8946 13.6145 82.9659 12.6191 85.4609C10.3706 83.3018 8.81935 80.5194 8.16477 77.4716C7.51019 74.4238 7.78223 71.2499 8.94592 68.3579C10.1096 65.4659 12.1117 62.9881 14.6949 61.2431C17.278 59.4981 20.3241 58.5657 23.4414 58.5657C26.5587 58.5657 29.6048 59.4981 32.1879 61.2431C34.7711 62.9881 36.7732 65.4659 37.9369 68.3579C39.1006 71.2499 39.3726 74.4238 38.7181 77.4716C38.0635 80.5194 36.5122 83.3018 34.2637 85.4609V85.459Z" fill="#94BAD0"/>
<path d="M101.563 50.7813C97.6996 50.7813 93.9234 51.9267 90.7115 54.0729C87.4996 56.219 84.9963 59.2693 83.518 62.8382C82.0397 66.4071 81.6529 70.3342 82.4065 74.1229C83.1602 77.9115 85.0203 81.3917 87.7518 84.1232C90.4833 86.8547 93.9635 88.7148 97.7521 89.4685C101.541 90.2221 105.468 89.8353 109.037 88.357C112.606 86.8787 115.656 84.3754 117.802 81.1635C119.948 77.9516 121.094 74.1754 121.094 70.3125C121.088 65.1342 119.028 60.1697 115.367 56.5081C111.705 52.8465 106.741 50.7869 101.563 50.7813ZM94.0254 83.9844C94.2924 82.9162 94.7845 81.9173 95.4688 81.0547C96.2 81.9664 97.1265 82.7025 98.18 83.2087C99.2334 83.7148 100.387 83.9781 101.556 83.9793C102.725 83.9804 103.879 83.7193 104.933 83.2152C105.988 82.711 106.915 81.9767 107.648 81.0664C108.336 81.9256 108.835 82.9198 109.113 83.9844C106.805 85.2642 104.209 85.9357 101.569 85.9357C98.9299 85.9357 96.3338 85.2642 94.0254 83.9844V83.9844ZM97.6563 70.3125H97.9902C99.2827 70.3163 100.54 69.8896 101.563 69.0996C102.585 69.8896 103.842 70.3163 105.135 70.3125H105.469C105.469 71.3485 105.057 72.3421 104.325 73.0746C103.592 73.8072 102.599 74.2187 101.563 74.2187C100.527 74.2187 99.5329 73.8072 98.8004 73.0746C98.0678 72.3421 97.6563 71.3485 97.6563 70.3125ZM97.6563 66.4062C97.6563 65.3702 98.0678 64.3767 98.8004 63.6441C99.5329 62.9115 100.527 62.5 101.563 62.5C102.599 62.5 103.592 62.9115 104.325 63.6441C105.057 64.3767 105.469 65.3702 105.469 66.4062H105.135C104.878 66.4064 104.624 66.356 104.386 66.2578C104.149 66.1596 103.934 66.0156 103.752 65.834L102.943 65.0254C102.577 64.6592 102.08 64.4535 101.563 64.4535C101.045 64.4535 100.548 64.6592 100.182 65.0254L99.3731 65.834C99.1915 66.0156 98.9759 66.1596 98.7386 66.2578C98.5014 66.356 98.247 66.4064 97.9902 66.4062H97.6563ZM101.563 78.125C102.578 78.1262 103.583 78.3253 104.521 78.7109C104.158 79.1405 103.705 79.4856 103.194 79.7223C102.683 79.959 102.127 80.0816 101.564 80.0816C101.002 80.0816 100.446 79.959 99.9348 79.7223C99.4242 79.4856 98.9712 79.1405 98.6074 78.7109C99.545 78.3253 100.549 78.1262 101.563 78.125V78.125ZM112.389 81.5527C111.425 79.0367 109.589 76.9505 107.217 75.6738C108.599 74.2311 109.372 72.3108 109.375 70.3125V66.4062C109.375 64.3342 108.552 62.3471 107.087 60.882C105.622 59.4169 103.635 58.5937 101.563 58.5937C99.4905 58.5937 97.5034 59.4169 96.0382 60.882C94.5731 62.3471 93.75 64.3342 93.75 66.4062V70.3125C93.7526 72.3205 94.5324 74.2495 95.9258 75.6953C93.5713 76.9883 91.7395 79.0597 90.7441 81.5547C88.4956 79.3955 86.9444 76.6132 86.2898 73.5654C85.6352 70.5176 85.9072 67.3436 87.0709 64.4516C88.2346 61.5597 90.2367 59.0819 92.8199 57.3369C95.403 55.5919 98.4491 54.6594 101.566 54.6594C104.684 54.6594 107.73 55.5919 110.313 57.3369C112.896 59.0819 114.898 61.5597 116.062 64.4516C117.226 67.3436 117.498 70.5176 116.843 73.5654C116.188 76.6132 114.637 79.3955 112.389 81.5547V81.5527Z" fill="#94BAD0"/>
<path d="M34.9199 45.9531C32.5097 41.4246 31.2491 36.3732 31.2491 31.2432C31.2491 26.1132 32.5097 21.0617 34.9199 16.5332L31.4766 14.6895C28.763 19.7852 27.3438 25.4699 27.3438 31.2432C27.3437 37.0164 28.763 42.7011 31.4766 47.7969L34.9199 45.9531Z" fill="#94BAD0"/>
<path d="M93.5195 47.8108C96.2331 42.715 97.6524 37.0303 97.6524 31.2571C97.6524 25.4838 96.2331 19.7991 93.5195 14.7034L90.0742 16.5471C92.4845 21.0757 93.7451 26.1271 93.7451 31.2571C93.7451 36.3871 92.4845 41.4385 90.0742 45.967L93.5195 47.8108Z" fill="#94BAD0"/>
<path d="M60.5469 62.5H64.4531V89.8437H60.5469V62.5Z" fill="#94BAD0"/>
<path d="M60.5469 93.75H64.4531V97.6562H60.5469V93.75Z" fill="#94BAD0"/>
<path d="M60.5469 101.562H64.4531V105.469H60.5469V101.562Z" fill="#94BAD0"/>
<path d="M72.2656 87.8906H76.1719V91.7969H72.2656V87.8906Z" fill="#94BAD0"/>
<path d="M72.2656 95.7031H76.1719V99.6094H72.2656V95.7031Z" fill="#94BAD0"/>
<path d="M48.8281 83.9844H52.7344V87.8906H48.8281V83.9844Z" fill="#94BAD0"/>
<path d="M48.8281 91.7969H52.7344V95.7031H48.8281V91.7969Z" fill="#94BAD0"/>
<path d="M99.6094 93.75H103.516V105.469H99.6094V93.75Z" fill="#94BAD0"/>
<path d="M99.6094 109.375H103.516V113.281H99.6094V109.375Z" fill="#94BAD0"/>
<path d="M99.6094 117.188H103.516V121.094H99.6094V117.188Z" fill="#94BAD0"/>
<path d="M87.8906 89.8438H91.7969V101.562H87.8906V89.8438Z" fill="#94BAD0"/>
<path d="M87.8906 105.469H91.7969V109.375H87.8906V105.469Z" fill="#94BAD0"/>
<path d="M87.8906 113.281H91.7969V117.188H87.8906V113.281Z" fill="#94BAD0"/>
<path d="M111.328 89.8438H115.234V101.562H111.328V89.8438Z" fill="#94BAD0"/>
<path d="M111.328 105.469H115.234V109.375H111.328V105.469Z" fill="#94BAD0"/>
<path d="M111.328 113.281H115.234V117.188H111.328V113.281Z" fill="#94BAD0"/>
<path d="M21.4844 97.6562H25.3906V105.469H21.4844V97.6562Z" fill="#94BAD0"/>
<path d="M21.4844 109.375H25.3906V113.281H21.4844V109.375Z" fill="#94BAD0"/>
<path d="M21.4844 117.188H25.3906V121.094H21.4844V117.188Z" fill="#94BAD0"/>
<path d="M33.2031 93.75H37.1094V101.562H33.2031V93.75Z" fill="#94BAD0"/>
<path d="M33.2031 105.469H37.1094V109.375H33.2031V105.469Z" fill="#94BAD0"/>
<path d="M33.2031 113.281H37.1094V117.188H33.2031V113.281Z" fill="#94BAD0"/>
<path d="M9.76562 93.75H13.6719V101.562H9.76562V93.75Z" fill="#94BAD0"/>
<path d="M9.76562 105.469H13.6719V109.375H9.76562V105.469Z" fill="#94BAD0"/>
<path d="M9.76562 113.281H13.6719V117.188H9.76562V113.281Z" fill="#94BAD0"/>
<path d="M48.8281 99.6094H52.7344V103.516H48.8281V99.6094Z" fill="#94BAD0"/>
<path d="M60.5469 109.375H64.4531V113.281H60.5469V109.375Z" fill="#94BAD0"/>
<path d="M11.7188 23.4375H15.625V19.5312H19.5313V15.625H15.625V11.7188H11.7188V15.625H7.8125V19.5312H11.7188V23.4375Z" fill="#94BAD0"/>
<path d="M11.7188 27.3438H15.625V31.25H11.7188V27.3438Z" fill="#94BAD0"/>
<path d="M11.7188 35.1562H15.625V39.0625H11.7188V35.1562Z" fill="#94BAD0"/>
<path d="M109.375 31.25H113.281V27.3438H117.188V23.4375H113.281V19.5312H109.375V23.4375H105.469V27.3438H109.375V31.25Z" fill="#94BAD0"/>
<path d="M109.375 35.1562H113.281V39.0625H109.375V35.1562Z" fill="#94BAD0"/>
<path d="M109.375 42.9688H113.281V46.875H109.375V42.9688Z" fill="#94BAD0"/>
</svg>
