<svg width="125" height="125" viewBox="0 0 125 125" fill="none" xmlns="http://www.w3.org/2000/svg">
<path d="M80.5725 27.0117C80.8198 26.7473 81.0745 26.4839 81.3294 26.229L83.4099 24.1484L80.6477 21.3867L78.5671 23.4673C78.2813 23.7532 77.9959 24.0486 77.7188 24.345L80.5725 27.0117Z" fill="#94BAD0"/>
<path d="M68.3633 44.71L72.2451 45.1338C72.8591 39.5273 74.9662 34.1883 78.3464 29.6736L75.2214 27.3325C71.4216 32.4069 69.0531 38.4081 68.3633 44.71Z" fill="#94BAD0"/>
<path d="M119.308 54.2207L113.686 48.5984C113.125 48.0367 112.459 47.5907 111.726 47.2857L114.662 44.3499C114.844 44.1685 114.988 43.9532 115.086 43.7162C115.184 43.4793 115.235 43.2253 115.235 42.9688C115.235 42.7123 115.184 42.4583 115.086 42.2213C114.988 41.9843 114.844 41.769 114.662 41.5877L83.4124 10.3377L80.6502 13.0999L110.519 42.9688L104.295 49.1926C100.25 53.2526 95.3663 56.379 89.9857 58.353C84.6052 60.327 78.8581 61.1008 73.147 60.6201L64.38 51.853C63.8991 46.1421 64.6727 40.3951 66.6463 35.0146C68.62 29.634 71.7461 24.75 75.8057 20.7046L76.5748 19.9358L76.6358 19.8748V19.8731C77.7528 18.7249 78.3729 17.1831 78.3617 15.5813C78.3506 13.9795 77.7091 12.4465 76.5762 11.314L70.9537 5.69167C70.389 5.12387 69.7172 4.67372 68.9774 4.36725C68.2375 4.06079 67.4442 3.90411 66.6434 3.90627H66.1693C65.3684 3.90411 64.575 4.06081 63.8351 4.36732C63.0952 4.67383 62.4235 5.12404 61.8587 5.69192L56.3055 11.2449C55.3114 12.2408 54.6914 13.5492 54.5501 14.9492L52.9388 31.0552C52.8473 31.9538 52.9574 32.8614 53.2611 33.7121C53.5648 34.5627 54.0543 35.3349 54.6942 35.9724L60.8221 42.1004C60.3308 45.3754 60.2149 48.6958 60.4766 51.9971L56.6407 55.8318L53.5443 52.7344C52.925 52.1149 52.1898 51.6236 51.3806 51.2883C50.5714 50.9531 49.7041 50.7805 48.8282 50.7805C47.9523 50.7805 47.085 50.9531 46.2758 51.2883C45.4666 51.6236 44.7314 52.1149 44.1121 52.7344L27.3438 69.5027C26.2848 70.5618 25.613 71.9464 25.4364 73.4337C25.2599 74.921 25.589 76.4244 26.3707 77.7019C24.0012 77.9228 21.7837 78.9658 20.1026 80.6502L18.1495 82.6033C17.9681 82.7847 17.8242 83 17.7261 83.2369C17.6279 83.4739 17.5774 83.7279 17.5774 83.9844C17.5774 84.2409 17.6279 84.4949 17.7261 84.7318C17.8242 84.9688 17.9681 85.1841 18.1495 85.3655L42.1597 109.375L35.1563 116.378L8.62165 89.8438L15.6226 82.8426L12.8607 80.0806L4.47834 88.4627C4.29697 88.644 4.15309 88.8594 4.05493 89.0963C3.95677 89.3333 3.90625 89.5873 3.90625 89.8438C3.90625 90.1003 3.95677 90.3543 4.05493 90.5912C4.15309 90.8282 4.29697 91.0435 4.47834 91.2249L33.7752 120.522C33.9566 120.703 34.1719 120.847 34.4089 120.945C34.6458 121.043 34.8998 121.094 35.1563 121.094C35.4128 121.094 35.6668 121.043 35.9038 120.945C36.1407 120.847 36.3561 120.703 36.5374 120.522L46.303 110.756C46.4844 110.575 46.6283 110.359 46.7265 110.122C46.8246 109.886 46.8751 109.632 46.8751 109.375C46.8751 109.119 46.8246 108.865 46.7265 108.628C46.6283 108.391 46.4844 108.175 46.303 107.994L43.7777 105.469L44.3499 104.897C46.0349 103.215 47.078 100.996 47.2984 98.6258C48.9067 99.7025 50.799 100.277 52.7344 100.275C52.7738 100.275 52.8128 100.272 52.8521 100.272C52.9486 100.542 53.1038 100.788 53.3065 100.991L74.7908 122.475L77.5531 119.713L67.2154 109.375L83.9844 92.606L113.853 122.475L116.616 119.713L75.5999 78.697C75.3981 78.4956 75.1544 78.341 74.8861 78.2444C74.8861 78.2046 74.889 78.1651 74.889 78.125C74.8946 75.889 74.127 73.7199 72.7161 71.9851C72.71 71.9761 69.1683 68.3594 69.1683 68.3594L73.0028 64.5249C74.1509 64.6153 75.2956 64.6608 76.4368 64.6616C78.5489 64.6616 80.6582 64.5073 82.7479 64.2002L89.0277 70.48C89.592 71.0465 90.2627 71.4958 91.0012 71.8022C91.7397 72.1087 92.5315 72.2662 93.3311 72.2656C93.5347 72.2656 93.7393 72.2555 93.9449 72.2351L110.051 70.6238C111.451 70.4825 112.759 69.8625 113.755 68.8684L119.308 63.3152C119.876 62.7506 120.326 62.079 120.633 61.3392C120.939 60.5995 121.096 59.8063 121.094 59.0056V58.5315C121.096 57.7306 120.939 56.9372 120.633 56.1973C120.326 55.4573 119.876 54.7855 119.308 54.2207V54.2207ZM65.3734 28.312L65.9974 21.8845L66.0018 21.8889C66.6827 22.5708 67.5165 23.0803 68.4339 23.3753C67.3043 24.9505 66.2818 26.5998 65.3734 28.312V28.312ZM57.4569 33.2105C57.2271 32.9814 57.0512 32.704 56.9422 32.3984C56.8331 32.0928 56.7936 31.7667 56.8265 31.4439L58.4378 15.3382C58.4886 14.8351 58.7114 14.365 59.0684 14.0071L64.6217 8.45388C64.8244 8.25002 65.0656 8.08837 65.3313 7.97828C65.5969 7.8682 65.8817 7.81186 66.1693 7.81252H66.6434C66.9311 7.81173 67.2161 7.86801 67.4819 7.9781C67.7477 8.08818 67.9891 8.2499 68.192 8.45388L73.8143 14.0764C74.0177 14.2798 74.179 14.5212 74.2891 14.7869C74.3992 15.0526 74.4559 15.3374 74.4559 15.625C74.4559 15.9126 74.3992 16.1974 74.2891 16.4631C74.179 16.7288 74.0177 16.9703 73.8143 17.1736L71.8612 19.1267C71.6578 19.3301 71.4164 19.4914 71.1507 19.6015C70.885 19.7115 70.6002 19.7682 70.3126 19.7682C70.025 19.7682 69.7402 19.7115 69.4745 19.6015C69.2088 19.4914 68.9674 19.3301 68.764 19.1267C68.5606 18.9234 68.3993 18.6819 68.2893 18.4162C68.1792 18.1505 68.1225 17.8657 68.1225 17.5781C68.1225 17.2905 68.1792 17.0058 68.2893 16.7401C68.3993 16.4744 68.5606 16.2329 68.764 16.0296C69.1303 15.6633 69.3361 15.1665 69.3361 14.6485C69.3361 14.1304 69.1303 13.6336 68.764 13.2674C68.3977 12.9011 67.9009 12.6953 67.3829 12.6953C66.8649 12.6953 66.3681 12.9011 66.0018 13.2674L63.0721 16.197C62.752 16.5173 62.553 16.9388 62.5093 17.3894L61.2886 29.9627C61.2601 30.2561 61.2984 30.5522 61.4006 30.8287C61.5028 31.1052 61.6663 31.355 61.8787 31.5593L63.2703 32.8975C62.6828 34.4094 62.1811 35.9533 61.7676 37.5217L57.4569 33.2105ZM69.6673 74.4251L69.6702 74.429C70.5175 75.4745 70.9798 76.7793 70.9798 78.125C70.9798 79.4707 70.5175 80.7756 69.6702 81.8211L69.6673 81.825C69.5415 81.9792 69.4079 82.1269 69.2672 82.2676L64.4532 87.0816L63.0013 85.6297C61.9194 84.5431 61.246 83.1163 61.0947 81.5905C60.9435 80.0647 61.3237 78.5334 62.1712 77.2556C62.4217 76.88 62.5342 76.4291 62.4897 75.9798C62.4452 75.5305 62.2464 75.1104 61.9272 74.7912C61.6079 74.4719 61.1879 74.2731 60.7386 74.2286C60.2893 74.1841 59.8384 74.2967 59.4627 74.5471C58.2862 75.3274 56.892 75.7135 55.4817 75.6497C54.0714 75.5859 52.7178 75.0755 51.6165 74.1922L60.5469 65.2622L69.2659 73.9812C69.4071 74.1223 69.5411 74.2704 69.6673 74.4251V74.4251ZM29.5062 73.1614C29.6452 72.8261 29.8494 72.5216 30.1068 72.2656L46.8751 55.4973C47.1316 55.2406 47.4362 55.0369 47.7714 54.898C48.1067 54.759 48.466 54.6875 48.8289 54.6875C49.1918 54.6875 49.5512 54.759 49.8864 54.898C50.2217 55.0369 50.5263 55.2406 50.7828 55.4973L57.785 62.5L54.6876 65.5974L48.2562 59.1658L45.494 61.928L51.9256 68.3594L48.8282 71.4568L42.3968 65.0252L39.6346 67.7874L51.9256 80.0781L48.8282 83.1756L36.5374 70.8845L33.7752 73.6468L46.0662 85.9375L44.9219 87.0808C44.5508 87.4523 44.0815 87.7102 43.569 87.8245C43.0566 87.9387 42.5221 87.9045 42.0284 87.7259L41.9525 87.698C41.9388 87.6919 41.9246 87.6861 41.9107 87.6802C41.5758 87.5414 41.2716 87.3377 41.0157 87.0808L34.585 80.6502L30.1068 76.1719C29.7201 75.7856 29.4568 75.2933 29.3501 74.7572C29.2434 74.2212 29.2981 73.6656 29.5074 73.1607L29.5062 73.1614ZM22.2933 83.9844L22.8655 83.4124C24.0533 82.2247 25.6641 81.5574 27.3438 81.5574C29.0235 81.5574 30.6344 82.2247 31.8221 83.4124L41.5877 93.178C42.7754 94.3657 43.4427 95.9766 43.4427 97.6563C43.4427 99.3359 42.7754 100.947 41.5877 102.135L41.0157 102.707L22.2933 83.9844ZM45.3089 91.3748C46.2014 91.0405 47.0117 90.5184 47.6849 89.8438L57.1778 80.3489C57.0942 81.8293 57.3235 83.3107 57.8508 84.6965C58.3781 86.0824 59.1915 87.3415 60.2381 88.3919L61.6912 89.8438L56.8782 94.6565C56.3341 95.2008 55.6881 95.6325 54.9771 95.9271C54.2661 96.2217 53.5041 96.3733 52.7344 96.3733C51.9648 96.3733 51.2028 96.2217 50.4918 95.9271C49.7808 95.6325 49.1348 95.2008 48.5906 94.6565L45.3089 91.3748ZM81.2225 89.8438L64.4532 106.613L57.4495 99.6094L74.2188 82.8401L81.2225 89.8438ZM66.4063 65.5972L59.4029 58.5938L62.5001 55.4966L69.5035 62.5L66.4063 65.5972ZM103.111 59.1731L103.116 59.1775L96.2777 59.8413C98.1202 58.8886 99.8919 57.8045 101.579 56.5977C101.866 57.5709 102.393 58.4565 103.111 59.1731V59.1731ZM117.188 59.0056C117.188 59.2933 117.132 59.5783 117.022 59.8442C116.912 60.11 116.75 60.3513 116.546 60.5542L110.993 66.1074C110.635 66.4646 110.165 66.6872 109.662 66.7378L93.556 68.3491C93.2332 68.382 92.9072 68.3424 92.6016 68.2333C92.2961 68.1243 92.0187 67.9485 91.7896 67.7188L87.3382 63.2671C88.9123 62.8586 90.4621 62.3614 91.9801 61.7779L93.4407 63.2971C93.6449 63.5098 93.8947 63.6734 94.1713 63.7756C94.4478 63.8778 94.744 63.916 95.0374 63.8872L107.611 62.6665C108.061 62.6228 108.483 62.4239 108.803 62.1038L111.733 59.1741C111.914 58.9927 112.058 58.7774 112.156 58.5404C112.254 58.3035 112.305 58.0495 112.305 57.793C112.305 57.5365 112.254 57.2825 112.156 57.0455C112.058 56.8086 111.914 56.5933 111.733 56.4119C111.551 56.2305 111.336 56.0866 111.099 55.9885C110.862 55.8903 110.608 55.8398 110.352 55.8398C110.095 55.8398 109.841 55.8903 109.604 55.9885C109.367 56.0866 109.152 56.2305 108.971 56.4119C108.767 56.6153 108.526 56.7766 108.26 56.8866C107.994 56.9967 107.71 57.0533 107.422 57.0533C106.841 57.0533 106.284 56.8226 105.873 56.4119C105.463 56.0012 105.232 55.4441 105.232 54.8633C105.232 54.2825 105.463 53.7254 105.873 53.3147L107.826 51.3616C108.03 51.1582 108.271 50.9968 108.537 50.8868C108.803 50.7767 109.087 50.72 109.375 50.72C109.663 50.72 109.947 50.7767 110.213 50.8868C110.479 50.9968 110.72 51.1582 110.924 51.3616L116.546 56.9839C116.75 57.1867 116.912 57.4279 117.022 57.6935C117.132 57.9591 117.188 58.244 117.188 58.5315V59.0056Z" fill="#94BAD0"/>
<path d="M66.4062 97.6562H62.5V101.562H66.4062V97.6562Z" fill="#94BAD0"/>
<path d="M30.632 15.5246C32.1618 16.0386 33.5518 16.8999 34.693 18.041C35.8341 19.1822 36.6955 20.5722 37.2094 22.102C37.3391 22.4908 37.5878 22.829 37.9203 23.0686C38.2529 23.3082 38.6523 23.4371 39.0622 23.4371C39.4721 23.4371 39.8715 23.3082 40.2041 23.0686C40.5366 22.829 40.7853 22.4908 40.915 22.102C41.4289 20.5722 42.2903 19.1822 43.4314 18.041C44.5726 16.8999 45.9626 16.0386 47.4924 15.5246C47.8812 15.3949 48.2193 15.1462 48.459 14.8137C48.6986 14.4812 48.8275 14.0817 48.8275 13.6718C48.8275 13.262 48.6986 12.8625 48.459 12.53C48.2193 12.1974 47.8812 11.9487 47.4924 11.819C45.9626 11.3051 44.5726 10.4438 43.4314 9.30259C42.2903 8.16144 41.4289 6.77146 40.915 5.24165C40.7853 4.85284 40.5366 4.51468 40.2041 4.27506C39.8715 4.03543 39.4721 3.90649 39.0622 3.90649C38.6523 3.90649 38.2529 4.03543 37.9203 4.27506C37.5878 4.51468 37.3391 4.85284 37.2094 5.24165C36.6955 6.77146 35.8341 8.16144 34.693 9.30259C33.5518 10.4438 32.1618 11.3051 30.632 11.819C30.2432 11.9487 29.9051 12.1974 29.6654 12.53C29.4258 12.8625 29.2969 13.262 29.2969 13.6718C29.2969 14.0817 29.4258 14.4812 29.6654 14.8137C29.9051 15.1462 30.2432 15.3949 30.632 15.5246V15.5246ZM39.0622 10.1484C40.024 11.5179 41.2162 12.71 42.5856 13.6718C41.2162 14.6336 40.024 15.8258 39.0622 17.1953C38.1004 15.8258 36.9083 14.6336 35.5388 13.6718C36.9083 12.71 38.1004 11.5179 39.0622 10.1484V10.1484Z" fill="#94BAD0"/>
</svg>
