<svg width="405" height="4336" viewBox="0 0 405 4336" fill="none" xmlns="http://www.w3.org/2000/svg">
<rect width="405" height="4336" fill="#1F2529"/>
<g style="mix-blend-mode:overlay" opacity="0.3">
<path d="M0 0H186.844L360 1044.87L0 2571.08L360 4336H180H0L65.5312 0H0Z" fill="#001E20"/>
</g>
<path style="mix-blend-mode:color-dodge" opacity="0.3" d="M185 0H104.444L11 420L30.0296 419.422L185 0Z" fill="url(#paint0_linear)"/>
<path d="M298.459 397.875C298.459 397.875 312.117 390.417 321.549 388.547L324.925 389.262C320.226 390.196 315.731 391.597 311.569 393.426L324.85 390.518L335.762 401.731L323.126 405.85L336.426 402.591C336.426 402.591 351.525 418.494 349.937 437.758L325.296 426.863L322.948 417.154L323.35 426.796L317.388 425.598L317.335 413.461L313.866 424.714C313.866 424.714 297.329 414.555 293.33 409.908C289.331 405.262 298.459 397.875 298.459 397.875Z" fill="#19001B"/>
<path d="M283.549 400.677C283.549 400.677 264.396 406.241 259.191 409.989L257.695 412.32L272.644 408.953L257.695 414.591C257.203 420.338 257.975 426.106 259.984 431.68L271.018 427.557L263.352 433.95L275.141 450.222C275.141 450.222 287.195 441.342 291.652 438.133L281.566 425.449L285.802 419.543L296.808 433.206L298.422 431.68L286.125 417.028L303.054 427.736C303.054 427.736 310.919 420.661 310.919 417.028C310.919 413.395 309.454 401.719 309.454 401.719L283.549 400.677Z" fill="#19001B"/>
<path d="M280.121 565.266L295.156 487.569L299.966 436.541L295.183 389.633H299.115L306.211 436.541L291.724 565.266H280.121Z" fill="#19001B"/>
<path d="M284.199 544.176L293.983 545.176L294.531 540.325L284.811 541.012L284.199 544.176Z" fill="#19001B"/>
<path d="M286.148 534.086L295.038 535.762L295.132 534.923L286.266 533.465L286.148 534.086Z" fill="#19001B"/>
<path d="M296.158 525.873H287.746L288.853 520.146H296.803L296.158 525.873Z" fill="#19001B"/>
<path d="M296.797 518.938L289.168 518.489L289.362 517.486L296.797 518.211V518.938Z" fill="#19001B"/>
<path d="M298.636 503.787L291.66 505.584V504.686L298.686 503.338L298.636 503.787Z" fill="#19001B"/>
<path d="M293.582 495.675L299.416 496.874L299.551 495.675L293.788 494.604L293.582 495.675Z" fill="#19001B"/>
<path d="M300.571 486.622L295.152 487.569L295.529 483.574H300.915L300.571 486.622Z" fill="#19001B"/>
<path d="M296.199 476.335L301.539 477.937V477.449L296.302 475.256L296.199 476.335Z" fill="#19001B"/>
<path d="M297.586 461.714L303.27 462.621L303.37 461.714L297.668 460.828L297.586 461.714Z" fill="#19001B"/>
<path d="M298.876 450.222H304.666V451.686L298.473 452.309L298.876 450.222Z" fill="#19001B"/>
<path d="M299.621 440.121L305.952 438.779L306.206 436.541L299.768 438.552L299.621 440.121Z" fill="#19001B"/>
<path d="M299.623 432.455L306.208 436.541L300.642 399.749L295.605 398.679L299.623 432.455Z" fill="#19001B"/>
<path d="M362.218 431.46C362.218 431.46 336.597 423.871 330.374 420.943C324.15 418.016 305.395 401.083 305.395 401.083C305.395 401.083 323.569 397.64 324.813 397.64C326.058 397.64 346.888 403.256 350.871 409.112C354.854 414.968 362.218 431.46 362.218 431.46Z" fill="#19001B"/>
<path d="M294.345 390.916C294.345 390.916 273.261 390.672 270.036 390.672C266.811 390.672 245.625 398.772 243.285 399.227C240.944 399.683 217.793 404.719 217.793 404.719C217.793 404.719 225.38 390.963 227.227 389.633C229.074 388.303 235.456 386.168 237.932 384.868C240.409 383.567 269.208 382.65 272.288 384.868C275.368 387.085 294.345 390.916 294.345 390.916Z" fill="#19001B"/>
<path d="M294.213 389.633C294.213 389.633 271.521 379.234 244.644 382.819C217.766 386.405 204.156 409.828 204.156 409.828L228.72 403.912L230.961 388.406L234.073 386.524L235.318 402.389L238.181 401.403L235.567 386.255L241.417 400.865L269.549 392.798L271.292 385.18L272.786 391.633L294.481 392.265L294.213 389.633Z" fill="#280E2F"/>
<path d="M296.812 390.684L304.923 374.031L309.721 372.507L304.027 383.794L312.363 371.364C312.363 371.364 340.909 369.242 353.38 371.364C362.346 373.283 370.73 376.4 378.094 380.553C378.094 380.553 367.596 387.627 359.887 389.694L334.247 378.221L354.287 391.935L352.135 392.755L329.937 378.382L326.171 379.609L339.776 396.436C339.776 396.436 325.151 401.404 312.363 401.404C303.092 401.404 296.812 394.384 296.812 394.384V390.684Z" fill="#19001B"/>
<path d="M296.812 390.684C296.812 390.684 319.294 378.819 326.852 376.533C334.409 374.248 362.374 376.533 362.374 376.533C362.374 376.533 337.095 375.2 328.325 377.322C319.555 379.445 296.812 391.852 296.812 391.852V390.684Z" fill="#19001B"/>
<path d="M318.066 401.112L312.762 383.686L313.754 382.149L318.858 401.033L318.066 401.112Z" fill="#19001B"/>
<path d="M328.651 399.422L318.031 381.231L319.291 380.672L329.602 399.212L328.651 399.422Z" fill="#19001B"/>
<path d="M344.993 370.421L334.25 375.618L339.622 375.518L350.186 370.942L344.993 370.421Z" fill="#19001B"/>
<path d="M364.925 387.943L347.105 376.121L347.938 375.695L365.658 387.589L364.925 387.943Z" fill="#19001B"/>
<path d="M323.809 370.728V378.801L324.497 377.359V370.698L323.809 370.728Z" fill="#19001B"/>
<path d="M254.219 397.197L241.441 383.355L241.877 383.269L254.905 396.998L254.219 397.197Z" fill="#19001B"/>
<path d="M257.628 396.216L250.172 382.269L251.123 382.069L258.564 395.949L257.628 396.216Z" fill="#19001B"/>
<path d="M221.911 405.554L217.793 394.658L218.697 393.946L222.8 405.34L221.911 405.554Z" fill="#19001B"/>
<path d="M279.445 384.868L282.115 391.904H284.246L280.687 384.868H279.445Z" fill="#19001B"/>
<path d="M296.817 389.634C296.817 389.634 329.966 394.891 343.244 401.404C356.522 407.917 372.411 434.567 372.411 434.567C372.411 434.567 351.709 431.788 345.733 429.727L348.596 407.678L342.497 404.003L332.041 424.259L330.547 423.094L340.381 403.734L326.459 420.943C326.459 420.943 317.125 415.073 312.996 412.1L317.67 402.927L311.253 409.829C311.253 409.829 300.379 403.742 298.347 399.749C297.091 396.897 296.572 393.904 296.817 390.917V389.634Z" fill="#280E2F"/>
<path d="M358.491 432.455L354.309 410.271L355.365 411.401L360.257 432.455H358.491Z" fill="#19001B"/>
<path d="M332.813 397.641L316.562 414.549L317.672 415.287L333.19 397.641H332.813Z" fill="#19001B"/>
<path d="M302.159 403.79L323.616 395.037L322.648 394.8L301.164 402.959L302.159 403.79Z" fill="#19001B"/>
<g style="mix-blend-mode:multiply" opacity="0.61">
<path d="M314.317 392.922L300.127 402.002L295.605 398.678L296.812 389.633L314.317 392.922Z" fill="#424517"/>
</g>
<path d="M281.959 382.337L251.945 375.053L249.829 376.914L271.165 383.679V386.552L246.773 382.195V398.01H261.334L248.419 400.757L269.638 429.19L284.164 414.539L275.828 407.464L287.169 412.595L300.32 395.346L290.457 391.679L303.14 393.445L313.474 383.34L281.959 382.337Z" fill="#280E2F"/>
<path d="M279.898 381.836C279.898 381.836 266.977 393.444 266.977 414.538C266.977 414.538 270.969 391.005 281.012 382.106L279.898 381.836Z" fill="#19001B"/>
<path d="M297.534 399.003L273.083 394.067L271.594 395.515L296.257 400.678L297.534 399.003Z" fill="#19001B"/>
<path d="M305.406 391.228L277.246 386.446L276.805 387.097L304.791 391.83L305.406 391.228Z" fill="#19001B"/>
<path d="M276.804 421.96L269.719 403.273L267.977 404.579L275.827 422.948L276.804 421.96Z" fill="#19001B"/>
<path d="M246.773 391.679L272.393 392.162L275.074 389.089L246.773 387.605V391.679Z" fill="#19001B"/>
<path d="M282.495 553.033L293.065 553.423L293.173 554.313L282.371 553.673L282.495 553.033Z" fill="#19001B"/>
<g style="mix-blend-mode:soft-light">
<path d="M284.251 565.266L295.183 494.517L301.167 437.425L299.627 433.062L299.966 436.542L295.156 487.57L280.121 565.266H284.251Z" fill="#E5C266"/>
</g>
<path d="M264.749 567.799L268.825 512.03L239.512 329.435L245.034 327.33L281.087 511.366L279.218 567.004L264.749 567.799Z" fill="#19001B"/>
<g style="mix-blend-mode:multiply" opacity="0.62">
<path d="M248.373 384.66L257.683 391.88L248.294 343.597L241.836 343.951L248.373 384.66Z" fill="#40132D"/>
</g>
<path d="M221.543 316.055L224.183 308.548L241.623 314.073L226.026 306.656L229.16 304L248.711 311.009L281.347 307.594L284.394 317.592L243.283 329.753L221.543 316.055Z" fill="#19001B"/>
<path d="M247.149 332.191C247.149 332.191 262.445 322.434 273.423 319.596L277.526 320.226C272.057 321.642 266.89 323.601 262.173 326.047L277.595 321.724L291.978 334.341L277.474 340.061L292.875 335.32C292.875 335.32 312.825 353.239 313.362 376.242L282.699 364.898L278.686 353.51L280.377 364.946L273.139 363.911L271.549 349.487L268.842 363.089C268.842 363.089 247.904 352.092 242.566 346.83C237.227 341.568 247.149 332.191 247.149 332.191Z" fill="#19001B"/>
<path d="M231.204 323.25C231.204 323.25 192.926 330.934 183.534 335.732L199.69 346.368L197.168 349.088L177.477 342.041L175.776 343.75L195.235 349.826L174.379 345.482C174.379 345.482 175.222 354.307 176.368 365.127C177.595 376.712 178.716 387.304 178.716 387.304C178.716 387.304 197.857 374.807 206.639 369.912L199.771 358.292L209.987 369.315C214.605 366.545 218.943 363.542 222.969 360.328C228.157 355.975 231.204 323.25 231.204 323.25Z" fill="#19001B"/>
<path d="M222.606 326.092C222.606 326.092 190.539 332.647 180.929 333.174C171.319 333.702 137.156 330.229 137.156 330.229C137.156 330.229 171.874 315.227 180.15 314.773C188.425 314.318 222.606 326.092 222.606 326.092Z" fill="#19001B"/>
<path d="M244.512 324.336C244.512 324.336 216.041 312.209 199.47 311.569C173.834 310.578 107 327.33 107 327.33C107 327.33 133.034 331.955 144.402 333.604L170.884 320.784L148.896 333.358L153.301 334.304L177.661 320.412L158.223 334.034C158.223 334.034 179.069 335.739 191.37 336.042C197.397 336.368 203.458 336.039 209.349 335.066L208.799 321.741L213.667 334.818C213.667 334.818 238.732 326.956 244.512 324.336Z" fill="#280E2F"/>
<path d="M253.528 330.507L274.958 331.914C274.958 331.914 325.224 340.417 338.47 340.827C351.715 341.236 379.275 338.587 379.275 338.587C379.275 338.587 334.256 317.293 311.211 316.491C288.165 315.69 252.93 324.857 252.93 324.857L253.463 329.891L253.528 330.507Z" fill="#19001B"/>
<path d="M244.375 323.051C265.167 318.226 286.929 315.928 308.769 316.253C348.634 316.916 395.098 338.854 395.098 338.854C395.098 338.854 369.596 340.254 355.822 341.01L333.164 342.254L326.983 321.824L326.339 342.373L320.878 341.732L323.947 321.611L314.668 340.666L268.255 331.935L274.345 324.009L265.065 331.676L245.314 331.923L244.375 323.051Z" fill="#280E2F"/>
<path d="M246.101 322.834C246.101 322.834 225.669 322.569 214.763 325.545L212.211 327.943C217.647 326.463 223.343 325.536 229.135 325.189L213.51 329.114L213.955 345.434L230.143 343.001L214.156 346.598C214.156 346.598 215.151 369.553 235.493 387.294L248.575 364.329L241.353 353.793L250.383 363.279L254.953 359.107L243.151 347.397L257.48 356.473C257.48 356.473 263.479 338.319 262.791 331.821C262.103 325.324 246.101 322.834 246.101 322.834Z" fill="#280E2F"/>
<path d="M244.377 323.052C244.377 323.052 225.277 343.424 235.496 387.294L243.189 373.788L233.481 366.46L233.466 358.896L245.496 369.737L248.826 365.07L234.791 353.751C234.791 353.751 238.058 330.527 244.377 323.052Z" fill="#19001B"/>
<path d="M240.254 330.887L262.792 331.821L262.992 333.708L240.027 331.506L240.254 330.887Z" fill="#19001B"/>
<path d="M305.591 316.22L286.273 335.324L289.337 335.901L306.654 316.163L305.591 316.22Z" fill="#19001B"/>
<path d="M312.114 316.358L304.57 338.767L306.086 339.053L313.203 316.411L312.114 316.358Z" fill="#19001B"/>
<path d="M348.715 322.373L355.817 341.011L359.341 340.818L349.763 322.644L348.715 322.373Z" fill="#19001B"/>
<path d="M181.184 335.611L199.468 311.569L200.448 311.516L183.527 335.734L181.184 335.611Z" fill="#19001B"/>
<path d="M127.648 330.908L158.322 316.234L160.423 315.856L129.432 331.207L127.648 330.908Z" fill="#19001B"/>
<path d="M203.23 311.883L190.727 336.078L192.134 335.999L203.907 311.965L203.23 311.883Z" fill="#19001B"/>
<path d="M246.969 310.387L244.008 319.602L248.708 311.01L246.969 310.387Z" fill="#19001B"/>
<path d="M250.008 394.847L257.743 392.825L258.17 394.398L250.117 395.521L250.008 394.847Z" fill="#19001B"/>
<path d="M252.094 407.826L260.565 406.62L260.709 407.353L252.147 408.15L252.094 407.826Z" fill="#19001B"/>
<path d="M253.48 416.512L262.399 416.022L262.479 416.432L253.787 416.908L253.48 416.512Z" fill="#19001B"/>
<path d="M253.598 417.514L262.684 417.43L263.402 421.088L254.339 421.791L253.598 417.514Z" fill="#19001B"/>
<path d="M264.28 425.612L255.355 428.177L255.414 428.533L264.386 426.155L264.28 425.612Z" fill="#19001B"/>
<path d="M266.466 436.734L256.988 438.282L257.068 438.79L266.616 437.497L266.466 436.734Z" fill="#19001B"/>
<path d="M269.077 450.044L258.707 448.98L259.564 454.304L269.966 454.573L269.077 450.044Z" fill="#19001B"/>
<path d="M271.599 462.905L261.238 464.728L261.303 465.135L271.687 463.732L271.599 462.905Z" fill="#19001B"/>
<path d="M273.563 472.976L262.781 474.393L262.949 475.423L273.925 474.822L273.563 472.976Z" fill="#19001B"/>
<path d="M275.663 483.673L264.375 484.292L264.516 485.163L275.784 484.815L275.663 483.673Z" fill="#19001B"/>
<path d="M277.701 494.123L266.531 497.775L266.814 500.443L279.011 500.816L277.701 494.123Z" fill="#19001B"/>
<path d="M281.49 515.221L268.504 516.384L268.266 519.661L280.808 519.61L281.49 515.221Z" fill="#19001B"/>
<path d="M280.383 532.041L267.3 532.76L267.117 535.256L280.236 536.401L280.383 532.041Z" fill="#19001B"/>
<path d="M280.143 539.341L266.715 540.824L266.783 541.471L280.096 540.74L280.143 539.341Z" fill="#19001B"/>
<defs>
<linearGradient id="paint0_linear" x1="-68552.7" y1="177101" x2="-68552.7" y2="55531.6" gradientUnits="userSpaceOnUse">
<stop/>
<stop offset="1" stop-color="#A4450B"/>
</linearGradient>
</defs>
</svg>
