<svg width="125" height="125" viewBox="0 0 125 125" fill="none" xmlns="http://www.w3.org/2000/svg">
<path d="M88.25 21.8667H72.8V16.7167C72.8 15.7686 72.0314 15 71.0833 15H29.8833C28.9353 15 28.1667 15.7686 28.1667 16.7167V21.8667H12.7167C11.7686 21.8667 11 22.6353 11 23.5833V116.283C11 117.231 11.7686 118 12.7167 118H88.25C89.198 118 89.9667 117.231 89.9667 116.283V23.5833C89.9667 22.6353 89.198 21.8667 88.25 21.8667ZM31.6 18.4333H69.3667V21.8667H31.6V18.4333ZM31.6 25.3H69.3667V32.1667H55.3398C54.3933 29.4846 51.4515 28.0776 48.7695 29.0241C47.3006 29.5425 46.1453 30.6978 45.6269 32.1667H31.6V25.3ZM86.5333 114.567H14.4333V25.3H28.1667V33.8833C28.1667 34.8314 28.9353 35.6 29.8833 35.6H47.05C47.998 35.6 48.7667 34.8314 48.7667 33.8833C48.7667 32.9353 49.5353 32.1667 50.4833 32.1667C51.4314 32.1667 52.2 32.9353 52.2 33.8833C52.2 34.8314 52.9686 35.6 53.9167 35.6H71.0833C72.0314 35.6 72.8 34.8314 72.8 33.8833V25.3H86.5333V114.567Z" fill="#94BAD0"/>
<path d="M28.1674 39.0334C24.3751 39.0334 21.3008 42.1078 21.3008 45.9001C21.3008 49.6924 24.3751 52.7668 28.1674 52.7668C31.9598 52.7668 35.0341 49.6924 35.0341 45.9001C35.0341 42.1078 31.9598 39.0334 28.1674 39.0334ZM28.1674 49.3334C26.2712 49.3334 24.7341 47.7964 24.7341 45.9001C24.7341 44.0038 26.2712 42.4668 28.1674 42.4668C30.0637 42.4668 31.6008 44.0038 31.6008 45.9001C31.6008 47.7964 30.0637 49.3334 28.1674 49.3334Z" fill="#94BAD0"/>
<path d="M28.1674 56.2C24.3751 56.2 21.3008 59.2743 21.3008 63.0666C21.3008 66.859 24.3751 69.9333 28.1674 69.9333C31.9598 69.9333 35.0341 66.859 35.0341 63.0666C35.0341 59.2743 31.9598 56.2 28.1674 56.2ZM28.1674 66.5C26.2712 66.5 24.7341 64.9629 24.7341 63.0666C24.7341 61.1703 26.2712 59.6333 28.1674 59.6333C30.0637 59.6333 31.6008 61.1703 31.6008 63.0666C31.6008 64.9629 30.0637 66.5 28.1674 66.5Z" fill="#94BAD0"/>
<path d="M77.9492 40.75H53.9159C52.9679 40.75 52.1992 41.5186 52.1992 42.4667C52.1992 43.4147 52.9679 44.1833 53.9159 44.1833H77.9492C78.8972 44.1833 79.6659 43.4147 79.6659 42.4667C79.6659 41.5186 78.8972 40.75 77.9492 40.75Z" fill="#94BAD0"/>
<path d="M47.0482 40.75H40.1815C39.2335 40.75 38.4648 41.5186 38.4648 42.4667C38.4648 43.4147 39.2335 44.1833 40.1815 44.1833H47.0482C47.9962 44.1833 48.7648 43.4147 48.7648 42.4667C48.7648 41.5186 47.9962 40.75 47.0482 40.75Z" fill="#94BAD0"/>
<path d="M77.95 47.6167H64.2167C63.2686 47.6167 62.5 48.3853 62.5 49.3334C62.5 50.2814 63.2686 51.05 64.2167 51.05H77.95C78.898 51.05 79.6667 50.2814 79.6667 49.3334C79.6667 48.3853 78.898 47.6167 77.95 47.6167Z" fill="#94BAD0"/>
<path d="M57.3482 47.6167H40.1815C39.2335 47.6167 38.4648 48.3853 38.4648 49.3334C38.4648 50.2814 39.2335 51.05 40.1815 51.05H57.3482C58.2962 51.05 59.0648 50.2814 59.0648 49.3334C59.0648 48.3853 58.2962 47.6167 57.3482 47.6167Z" fill="#94BAD0"/>
<path d="M77.9466 57.917H71.0799C70.1319 57.917 69.3633 58.6856 69.3633 59.6337C69.3633 60.5817 70.1319 61.3503 71.0799 61.3503H77.9466C78.8946 61.3503 79.6633 60.5817 79.6633 59.6337C79.6633 58.6856 78.8946 57.917 77.9466 57.917Z" fill="#94BAD0"/>
<path d="M64.2148 57.9167H40.1815C39.2335 57.9167 38.4648 58.6854 38.4648 59.6334C38.4648 60.5814 39.2335 61.3501 40.1815 61.3501H64.2148C65.1629 61.3501 65.9315 60.5814 65.9315 59.6334C65.9315 58.6854 65.1629 57.9167 64.2148 57.9167Z" fill="#94BAD0"/>
<path d="M77.9477 64.7832H59.0643C58.1163 64.7832 57.3477 65.5518 57.3477 66.4999C57.3477 67.4479 58.1163 68.2165 59.0643 68.2165H77.9477C78.8957 68.2165 79.6643 67.4479 79.6643 66.4999C79.6643 65.5518 78.8957 64.7832 77.9477 64.7832Z" fill="#94BAD0"/>
<path d="M52.1982 64.7834H40.1815C39.2335 64.7834 38.4648 65.5521 38.4648 66.5001C38.4648 67.4481 39.2335 68.2168 40.1815 68.2168H52.1982C53.1462 68.2168 53.9148 67.4481 53.9148 66.5001C53.9148 65.5521 53.1462 64.7834 52.1982 64.7834Z" fill="#94BAD0"/>
<path d="M107.136 22.0383V21.8667C107.136 18.0743 104.061 15 100.269 15C96.4767 15 93.4023 18.0743 93.4023 21.8667V104.267C93.4023 104.289 93.4144 104.308 93.4144 104.328C93.4217 104.509 93.4575 104.688 93.5208 104.857C93.5362 104.895 93.5448 104.934 93.5603 104.971C93.5757 105.007 93.5723 105.013 93.5826 105.034L98.5523 114.972V116.283C98.5523 117.231 99.321 118 100.269 118C101.217 118 101.986 117.231 101.986 116.283V114.972L106.964 105.034C106.974 105.013 106.976 104.991 106.986 104.971C106.997 104.95 107.01 104.895 107.026 104.857C107.089 104.688 107.125 104.509 107.132 104.328C107.132 104.306 107.144 104.289 107.144 104.267V25.6159C109.191 26.3435 110.561 28.2776 110.569 30.45V45.9C110.569 46.848 111.338 47.6167 112.286 47.6167C113.234 47.6167 114.002 46.848 114.002 45.9V30.45C113.997 26.3727 111.129 22.8595 107.136 22.0383ZM100.269 110.728L97.8966 105.983H102.641L100.269 110.728ZM103.702 102.55H96.8357V54.4833H103.702V102.55ZM103.702 51.05H96.8357V25.3H103.702V51.05ZM96.8357 21.8667C96.8357 19.9704 98.3727 18.4333 100.269 18.4333C102.165 18.4333 103.702 19.9704 103.702 21.8667H96.8357Z" fill="#94BAD0"/>
<path d="M62.4975 81.9501V78.5167H57.3475C56.8922 78.5167 56.4557 78.6978 56.1339 79.0197L54.8155 80.3381C48.2408 72.2425 36.3482 71.0097 28.2528 77.5844C20.1575 84.159 18.9245 96.0516 25.4991 104.147C32.0737 112.243 43.9663 113.476 52.0617 106.901C52.2237 106.769 52.3834 106.635 52.5409 106.499C53.3557 105.781 54.1069 104.994 54.7863 104.147L56.1236 105.484C56.4484 105.807 56.8892 105.987 57.3475 105.984H62.4975V102.55H58.0582L56.7484 101.24C59.8283 95.6368 59.8367 88.8491 56.7707 83.2378L58.0582 81.9503H62.4975V81.9501ZM54.2112 98.703L51.6946 96.1864L49.2672 98.6137L52.3692 101.714C52.0774 102.088 51.7735 102.454 51.4474 102.802L42.6082 93.9667H55.5347C55.3502 95.6061 54.9032 97.2054 54.2112 98.703ZM38.4642 90.5334C37.5162 90.5336 36.7478 91.3022 36.748 92.2505C36.748 92.7056 36.9289 93.1419 37.2505 93.4637L48.8243 105.039C41.7591 109.824 32.1531 107.975 27.3685 100.91C22.584 93.8446 24.4328 84.2386 31.498 79.454C38.2432 74.8862 47.3765 76.3404 52.3692 82.7775L49.2603 85.8864L51.6877 88.3137L54.1975 85.8057C54.8953 87.2992 55.347 88.8957 55.5347 90.5334H38.4642Z" fill="#94BAD0"/>
<path d="M72.8003 73.3667C69.0079 73.3667 65.9336 76.441 65.9336 80.2334C65.9336 84.0257 69.0079 87.1 72.8003 87.1C76.5926 87.1 79.6669 84.0257 79.6669 80.2334C79.6669 76.441 76.5926 73.3667 72.8003 73.3667ZM72.8003 83.6667C70.904 83.6667 69.3669 82.1296 69.3669 80.2334C69.3669 78.3371 70.904 76.8 72.8003 76.8C74.6965 76.8 76.2336 78.3371 76.2336 80.2334C76.2336 82.1296 74.6965 83.6667 72.8003 83.6667Z" fill="#94BAD0"/>
<path d="M72.8003 97.3999C69.0079 97.3999 65.9336 100.474 65.9336 104.267C65.9336 108.059 69.0079 111.133 72.8003 111.133C76.5926 111.133 79.6669 108.059 79.6669 104.267C79.6669 100.474 76.5926 97.3999 72.8003 97.3999ZM72.8003 107.7C70.904 107.7 69.3669 106.163 69.3669 104.267C69.3669 102.37 70.904 100.833 72.8003 100.833C74.6965 100.833 76.2336 102.37 76.2336 104.267C76.2336 106.163 74.6965 107.7 72.8003 107.7Z" fill="#94BAD0"/>
</svg>
