<svg width="125" height="125" viewBox="0 0 125 125" fill="none" xmlns="http://www.w3.org/2000/svg">
<path d="M122.845 58.4914H95.2802V53.1682C95.2788 52.3907 94.8588 51.6741 94.181 51.2932L64.6552 34.6983V26.2501H70.4957V29.4613C70.4957 30.6515 71.4607 31.6164 72.6509 31.6164H90.2586C91.4488 31.6159 92.4132 30.6507 92.413 29.4605C92.413 29.211 92.3693 28.9634 92.2845 28.7285L90.5172 23.707L92.306 18.7932C92.7107 17.6738 92.1315 16.4384 91.0121 16.0337C90.7775 15.9489 90.5299 15.9055 90.2802 15.9052H82.2629V12.7802C82.2629 11.59 81.2979 10.6251 80.1078 10.6251H64.6552V7.99575C64.6552 6.80555 63.6902 5.84058 62.5 5.84058C61.3098 5.84058 60.3448 6.80555 60.3448 7.99575V34.6983L30.819 51.2716C30.1412 51.6525 29.7212 52.3691 29.7198 53.1466V58.4699H2.15517C0.964978 58.4699 0 59.4349 0 60.6251V117.004C0 118.195 0.964978 119.16 2.15517 119.16H122.845C124.035 119.16 125 118.195 125 117.004V60.6466C125 59.4564 124.035 58.4914 122.845 58.4914ZM82.2629 24.0949L82.1767 24.0087V20.3018H87.0905L86.2069 23.0604C86.0304 23.5405 86.0304 24.0674 86.2069 24.5475L87.2198 27.3061H74.806V26.2501H80.1078C81.2979 26.2501 82.2629 25.2851 82.2629 24.0949ZM64.6552 14.9354H77.9526V18.1466V21.9397H64.6552V14.9354ZM29.7198 114.849H4.31034V62.8018H29.7198V114.849ZM60.3448 114.849H49.0302V90.2371H60.3448V114.849ZM75.9698 114.849H64.6552V90.2371H75.9698V114.849ZM91.056 114.849H80.2802V88.082C80.2802 86.8918 79.3152 85.9268 78.125 85.9268H46.875C45.6848 85.9268 44.7198 86.8918 44.7198 88.082V114.849H33.944V54.5044L62.5 38.4268L90.9698 54.4182L91.056 60.6251V114.849ZM120.69 114.849H95.2802V62.8018H120.69V114.849Z" fill="#94BAD0"/>
<path d="M62.4989 45.0215C57.5081 45.0333 53.4688 49.0824 53.4688 54.0732C53.4806 59.0606 57.5331 63.0937 62.5205 63.0818C67.5078 63.07 71.5409 59.0174 71.5291 54.0301C71.5172 49.0514 67.4776 45.0215 62.4989 45.0215ZM62.4989 58.7715C59.8922 58.7596 57.7888 56.6368 57.8006 54.0301C57.8125 51.4404 59.9089 49.3437 62.4989 49.3318C65.1091 49.3437 67.2188 51.463 67.2188 54.0732H67.2403C67.2285 56.6799 65.1056 58.7833 62.4989 58.7715Z" fill="#94BAD0"/>
<path d="M13.8142 67.543H9.50391V76.1636H13.8142V67.543Z" fill="#94BAD0"/>
<path d="M24.4393 67.543H20.1289V76.1636H24.4393V67.543Z" fill="#94BAD0"/>
<path d="M49.1168 67.543H40.4961V71.8533H49.1168V67.543Z" fill="#94BAD0"/>
<path d="M66.8121 67.543H58.1914V71.8533H66.8121V67.543Z" fill="#94BAD0"/>
<path d="M84.5035 67.543H75.8828V71.8533H84.5035V67.543Z" fill="#94BAD0"/>
<path d="M49.1168 77.5862H40.4961V81.8965H49.1168V77.5862Z" fill="#94BAD0"/>
<path d="M66.8121 77.5862H58.1914V81.8965H66.8121V77.5862Z" fill="#94BAD0"/>
<path d="M84.5035 77.5862H75.8828V81.8965H84.5035V77.5862Z" fill="#94BAD0"/>
<path d="M13.8142 84.5042H9.50391V93.1248H13.8142V84.5042Z" fill="#94BAD0"/>
<path d="M24.4393 84.5042H20.1289V93.1248H24.4393V84.5042Z" fill="#94BAD0"/>
<path d="M13.8142 101.487H9.50391V110.108H13.8142V101.487Z" fill="#94BAD0"/>
<path d="M24.4393 101.487H20.1289V110.108H24.4393V101.487Z" fill="#94BAD0"/>
<path d="M104.869 67.543H100.559V76.1636H104.869V67.543Z" fill="#94BAD0"/>
<path d="M115.494 67.543H111.184V76.1636H115.494V67.543Z" fill="#94BAD0"/>
<path d="M104.869 84.5042H100.559V93.1248H104.869V84.5042Z" fill="#94BAD0"/>
<path d="M115.494 84.5042H111.184V93.1248H115.494V84.5042Z" fill="#94BAD0"/>
<path d="M104.869 101.487H100.559V110.108H104.869V101.487Z" fill="#94BAD0"/>
<path d="M115.494 101.487H111.184V110.108H115.494V101.487Z" fill="#94BAD0"/>
</svg>
