<svg width="125" height="125" viewBox="0 0 125 125" fill="none" xmlns="http://www.w3.org/2000/svg">
<path d="M23.4375 74.2188C24.5162 74.2188 25.3906 73.3443 25.3906 72.2656C25.3906 71.1869 24.5162 70.3125 23.4375 70.3125C22.3588 70.3125 21.4844 71.1869 21.4844 72.2656C21.4844 73.3443 22.3588 74.2188 23.4375 74.2188Z" fill="#94BAD0"/>
<path d="M35.1562 74.2188C36.2349 74.2188 37.1094 73.3443 37.1094 72.2656C37.1094 71.1869 36.2349 70.3125 35.1562 70.3125C34.0776 70.3125 33.2031 71.1869 33.2031 72.2656C33.2031 73.3443 34.0776 74.2188 35.1562 74.2188Z" fill="#94BAD0"/>
<path d="M33.2031 77.6641C32.459 79.1524 30.9629 80.0781 29.2969 80.0781C27.6309 80.0781 26.1348 79.1524 25.3906 77.6641L25.1855 77.252L21.6914 79L21.8965 79.4102C23.3066 82.2324 26.1426 83.9844 29.2969 83.9844C32.4512 83.9844 35.2871 82.2324 36.6973 79.4102L36.9023 78.9981L33.4082 77.25L33.2031 77.6641Z" fill="#94BAD0"/>
<path d="M95.7031 36.75V41.0156H99.6094V37.1094H103.516V31.25C103.516 28.0195 100.887 25.3906 97.6562 25.3906C96.5781 25.3906 95.7031 24.5137 95.7031 23.4375V21.4844H97.6562C98.7344 21.4844 99.6094 22.3613 99.6094 23.4375V25.3906H103.516V23.4375C103.516 20.8945 101.877 18.7461 99.6094 17.9375V13.6719H95.7031V17.5781H91.7969V23.4375C91.7969 26.668 94.4258 29.2969 97.6562 29.2969C98.7344 29.2969 99.6094 30.1738 99.6094 31.25V33.2031H97.6562C96.5781 33.2031 95.7031 32.3262 95.7031 31.25V29.2969H91.7969V31.25C91.7969 33.793 93.4355 35.9414 95.7031 36.75Z" fill="#94BAD0"/>
<path d="M123.047 27.3436C123.047 20.3788 120.283 13.8807 115.264 9.04869C110.244 4.21861 103.627 1.67954 96.6641 1.97251C86.709 2.35337 78.0547 8.77915 74.2832 17.578H15.625C12.3945 17.578 9.76562 20.2069 9.76562 23.4374V55.4315C7.30273 59.1405 5.85938 63.5839 5.85938 68.3592V90.6151C5.85938 93.1542 6.50781 95.5936 7.70117 97.7948C4.17773 100.67 1.95312 105.037 1.95312 109.892V123.047H56.6406V109.892C56.6406 109.051 56.5605 108.228 56.4316 107.422H68.3594V114.527C68.3594 117.07 70.4297 119.141 72.9727 119.141C74.3457 119.141 75.6367 118.535 76.5156 117.48L84.9004 107.422H113.281C116.512 107.422 119.141 104.793 119.141 101.562V40.8319C121.625 36.8827 123.047 32.2401 123.047 27.3436ZM96.8105 5.87486C97.0957 5.86314 97.3789 5.85923 97.6621 5.85923C103.252 5.85923 108.514 7.97447 112.553 11.8631C116.801 15.951 119.141 21.4491 119.141 27.3436C119.141 37.0116 112.627 45.5331 103.299 48.0663C101.916 48.4432 100.844 49.5233 100.5 50.8846L98.1875 60.1307C98.0645 60.621 97.2461 60.621 97.123 60.1307L94.8086 50.8827C94.4688 49.5213 93.3965 48.4413 92.0117 48.0682C82.5273 45.4921 76.0137 36.8241 76.1738 26.9881C76.3574 15.7752 85.6133 6.30454 96.8105 5.87486ZM15.625 21.4842H72.9941C72.5625 23.244 72.2988 25.0604 72.2695 26.9237C72.1582 33.8182 74.8359 40.2128 79.3672 44.9217H29.2969C23.291 44.9217 17.8242 47.2108 13.6719 50.9393V23.4374C13.6719 22.3612 14.5469 21.4842 15.625 21.4842ZM9.76562 90.6151V68.3592C9.76562 57.5897 18.5273 48.828 29.2969 48.828C40.0664 48.828 48.8281 57.5897 48.8281 68.3592V90.6151C48.8281 92.4159 48.4004 94.1561 47.5898 95.7303C46.0918 95.035 44.4668 94.5565 42.7422 94.3632L38.6758 93.912L37.5508 89.4139C41.9688 86.6503 44.9219 81.7557 44.9219 76.1717V67.9882C44.9219 64.9667 42.6543 62.4589 39.6465 62.1581L30.666 61.2616C27.6582 60.9588 25.3906 58.453 25.3906 55.4296V54.6874H21.4844V55.4296C21.4844 56.5546 21.6738 57.6346 22.0195 58.6424L19.3379 59.41C16.002 60.3592 13.6719 63.4491 13.6719 66.9198V76.1717C13.6719 81.7557 16.625 86.6503 21.043 89.4139L19.918 93.912L15.8516 94.3632C14.127 94.5546 12.502 95.035 11.0039 95.7303C10.1934 94.1542 9.76562 92.4159 9.76562 90.6151ZM29.2969 87.8905C22.834 87.8905 17.5781 82.6346 17.5781 76.1717V66.9198C17.5781 65.1854 18.7441 63.6405 20.4102 63.1639L24.1094 62.1073C25.6738 63.7792 27.8281 64.9022 30.2773 65.1483L39.2578 66.0448C40.2617 66.1444 41.0156 66.9803 41.0156 67.9882V76.1717C41.0156 82.6346 35.7598 87.8905 29.2969 87.8905ZM29.2969 91.7967C30.9141 91.7967 32.4766 91.5487 33.9453 91.0897L35.1562 95.9432V97.6561C35.1562 98.3124 35.1152 98.9628 35.041 99.6092H23.5527C23.4805 98.9628 23.4375 98.3124 23.4375 97.6561V95.9432L24.6484 91.0897C26.1172 91.5487 27.6797 91.7967 29.2969 91.7967ZM34.123 103.515C33.1426 106.273 31.498 108.781 29.2969 110.758C27.0938 108.781 25.4512 106.273 24.4707 103.515H34.123ZM52.7344 119.141H44.9219V111.328H41.0156V119.141H17.5781V111.328H13.6719V119.141H5.85938V109.892C5.85938 103.912 10.3398 98.9061 16.2832 98.246L19.5449 97.8846C19.6172 104.527 22.8047 110.853 28.125 114.844L29.2969 115.723L30.4707 114.844C35.791 110.853 38.9785 104.525 39.0508 97.8846L42.3125 98.246C48.2539 98.9061 52.7344 103.914 52.7344 109.892V119.141ZM115.234 101.562C115.234 102.639 114.359 103.515 113.281 103.515H84.9004C83.7383 103.515 82.6465 104.027 81.8984 104.922L73.5156 114.98C73.1328 115.443 72.2637 115.127 72.2656 114.529V107.422C72.2656 105.267 70.5137 103.515 68.3594 103.515H55.2695C54.2715 101.285 52.7715 99.326 50.8926 97.7928C52.0859 95.5936 52.7344 93.1522 52.7344 90.6151V68.3592C52.7344 60.2128 48.5508 53.0292 42.2246 48.828H84.1836C86.2656 50.1307 88.5527 51.162 91.0234 51.8299L93.3379 61.078C93.832 63.0663 95.6094 64.453 97.6562 64.453C99.7031 64.453 101.48 63.0663 101.977 61.078L104.322 51.8338C108.525 50.6932 112.24 48.5174 115.234 45.6366V101.562Z" fill="#94BAD0"/>
<path d="M60.5469 25.3906H17.5781V41.0156H60.5469V25.3906ZM37.1094 29.2969H41.0156V37.1094H37.1094V29.2969ZM33.2031 37.1094H29.2969V29.2969H33.2031V37.1094ZM44.9219 29.2969H48.8281V37.1094H44.9219V29.2969ZM21.4844 29.2969H25.3906V37.1094H21.4844V29.2969ZM56.6406 37.1094H52.7344V29.2969H56.6406V37.1094Z" fill="#94BAD0"/>
<path d="M99.6094 95.7031H95.7031V72.2656H83.9844V95.7031H80.0781V76.1719H68.3594V99.6094H111.328V68.3594H99.6094V95.7031ZM76.1719 95.7031H72.2656V80.0781H76.1719V95.7031ZM87.8906 76.1719H91.7969V95.7031H87.8906V76.1719ZM103.516 72.2656H107.422V95.7031H103.516V72.2656Z" fill="#94BAD0"/>
<path d="M56.6406 52.7344H64.4531V56.6406H56.6406V52.7344Z" fill="#94BAD0"/>
<path d="M68.3594 52.7344H83.9844V56.6406H68.3594V52.7344Z" fill="#94BAD0"/>
<path d="M56.6406 60.5469H83.9844V64.4531H56.6406V60.5469Z" fill="#94BAD0"/>
<path d="M56.6406 68.3594H60.5469V72.2656H56.6406V68.3594Z" fill="#94BAD0"/>
<path d="M64.4531 68.3594H68.3594V72.2656H64.4531V68.3594Z" fill="#94BAD0"/>
<path d="M72.2656 68.3594H76.1719V72.2656H72.2656V68.3594Z" fill="#94BAD0"/>
</svg>
