<svg width="125" height="125" viewBox="0 0 125 125" fill="none" xmlns="http://www.w3.org/2000/svg">
<path d="M100 104.63H106.481V108.333H100V104.63Z" fill="#94BAD0"/>
<path d="M100 98.1482H106.481V100.926H100V98.1482Z" fill="#94BAD0"/>
<path d="M18.5195 63.8889H25.001V67.5926H18.5195V63.8889Z" fill="#94BAD0"/>
<path d="M18.5195 57.4075H25.001V61.1112H18.5195V57.4075Z" fill="#94BAD0"/>
<path d="M114.817 33.8114V10.1853H81.0656V20.3108H74.3153C69.6627 20.3108 65.8775 24.096 65.8775 28.7486V38.8741H59.1272V30.4362C59.1272 25.7836 55.3419 21.9983 50.6893 21.9983H41.1275L27.0632 11.451L10.7495 23.6859L27.0632 35.9208L41.1275 25.3735H50.6893C53.4805 25.3735 55.752 27.645 55.752 30.4362V38.8741H43.939C41.1477 38.8741 38.8763 41.1456 38.8763 43.9368V47.3119C38.8763 50.1032 41.1477 52.3747 43.939 52.3747H44.2495C44.0605 52.9046 43.939 53.4682 43.939 54.0622C43.939 54.6563 44.0605 55.2199 44.2495 55.7498H43.939C41.1477 55.7498 38.8763 58.0213 38.8763 60.8125H33.6785C32.855 55.0967 27.9391 50.6871 22.0005 50.6871C15.4882 50.6871 10.1875 55.9861 10.1875 62.5001C10.1875 69.0142 15.4882 74.3131 22.0005 74.3131C27.9391 74.3131 32.855 69.9035 33.6785 64.1877H38.8763C38.8763 66.9789 41.1477 69.2504 43.939 69.2504H44.2495C44.0605 69.7803 43.939 70.344 43.939 70.938C43.939 71.532 44.0605 72.0957 44.2495 72.6256H43.939C41.1477 72.6256 38.8763 74.897 38.8763 77.6883V81.0634C38.8763 83.8547 41.1477 86.1262 43.939 86.1262H55.752V96.2516C55.752 99.0429 53.4805 101.314 50.6893 101.314H43.939V91.1889H10.1875V114.815H43.939V104.689H50.6893C55.3419 104.689 59.1272 100.904 59.1272 96.2516V86.1262H65.8775V96.2516C65.8775 100.904 69.6627 104.689 74.3153 104.689H91.3261C92.1496 110.405 97.0655 114.815 103.004 114.815C109.516 114.815 114.817 109.516 114.817 103.002C114.817 96.4879 109.516 91.1889 103.004 91.1889C97.0655 91.1889 92.1496 95.5985 91.3261 101.314H74.3153C71.5241 101.314 69.2526 99.0429 69.2526 96.2516V86.1262H81.0656C83.8569 86.1262 86.1284 83.8547 86.1284 81.0634V77.6883C86.1284 74.897 83.8569 72.6256 81.0656 72.6256H80.7551C80.9441 72.0957 81.0656 71.532 81.0656 70.938C81.0656 70.344 80.9441 69.7803 80.7551 69.2504H81.0656C83.8569 69.2504 86.1284 66.9789 86.1284 64.1877H94.5662V74.3131H114.817V50.6871H94.5662V60.8125H86.1284C86.1284 58.0213 83.8569 55.7498 81.0656 55.7498H80.7551C80.9441 55.2199 81.0656 54.6563 81.0656 54.0622C81.0656 53.4682 80.9441 52.9046 80.7551 52.3747H81.0656C83.8569 52.3747 86.1284 50.1032 86.1284 47.3119V43.9368C86.1284 41.1456 83.8569 38.8741 81.0656 38.8741H69.2526V28.7486C69.2526 25.9574 71.5241 23.6859 74.3153 23.6859H81.0656V33.8114H114.817ZM27.0632 31.7019L16.3758 23.6859L27.0632 15.6699L37.7507 23.6859L27.0632 31.7019ZM22.0005 70.938C17.3479 70.938 13.5626 67.1528 13.5626 62.5001C13.5626 57.8475 17.3479 54.0622 22.0005 54.0622C26.6532 54.0622 30.4384 57.8475 30.4384 62.5001C30.4384 67.1528 26.6532 70.938 22.0005 70.938ZM40.5638 111.44H13.5626V94.564H40.5638V111.44ZM103.004 94.564C107.657 94.564 111.442 98.3493 111.442 103.002C111.442 107.655 107.657 111.44 103.004 111.44C98.3515 111.44 94.5662 107.655 94.5662 103.002C94.5662 98.3493 98.3515 94.564 103.004 94.564ZM97.9414 54.0622H111.442V70.938H97.9414V54.0622ZM82.7532 77.6883V81.0634C82.7532 81.9933 81.9972 82.751 81.0656 82.751H43.939C43.0075 82.751 42.2514 81.9933 42.2514 81.0634V77.6883C42.2514 76.7584 43.0075 76.0007 43.939 76.0007H49.0017H76.0029H81.0656C81.9972 76.0007 82.7532 76.7584 82.7532 77.6883ZM77.6905 70.938C77.6905 71.8679 76.9345 72.6256 76.0029 72.6256H49.0017C48.0702 72.6256 47.3141 71.8679 47.3141 70.938C47.3141 70.0081 48.0702 69.2504 49.0017 69.2504H76.0029C76.9345 69.2504 77.6905 70.0081 77.6905 70.938ZM82.7532 60.8125V64.1877C82.7532 65.1176 81.9972 65.8753 81.0656 65.8753H76.0029H49.0017H43.939C43.0075 65.8753 42.2514 65.1176 42.2514 64.1877V60.8125C42.2514 59.8827 43.0075 59.125 43.939 59.125H49.0017H76.0029H81.0656C81.9972 59.125 82.7532 59.8827 82.7532 60.8125ZM77.6905 54.0622C77.6905 54.9921 76.9345 55.7498 76.0029 55.7498H49.0017C48.0702 55.7498 47.3141 54.9921 47.3141 54.0622C47.3141 53.1324 48.0702 52.3747 49.0017 52.3747H76.0029C76.9345 52.3747 77.6905 53.1324 77.6905 54.0622ZM82.7532 43.9368V47.3119C82.7532 48.2418 81.9972 48.9995 81.0656 48.9995H76.0029H49.0017H43.939C43.0075 48.9995 42.2514 48.2418 42.2514 47.3119V43.9368C42.2514 43.0069 43.0075 42.2492 43.939 42.2492H81.0656C81.9972 42.2492 82.7532 43.0069 82.7532 43.9368ZM84.4408 13.5605H111.442V30.4362H84.4408V13.5605Z" fill="#94BAD0"/>
<path d="M16.668 98.1482H20.3717V100.926H16.668V98.1482Z" fill="#94BAD0"/>
<path d="M24.0742 98.1482H26.852V100.926H24.0742V98.1482Z" fill="#94BAD0"/>
<path d="M30.5547 98.1482H37.0362V100.926H30.5547V98.1482Z" fill="#94BAD0"/>
<path d="M16.668 104.63H37.0383V108.333H16.668V104.63Z" fill="#94BAD0"/>
<path d="M87.9648 16.6667H108.335V20.3705H87.9648V16.6667Z" fill="#94BAD0"/>
<path d="M87.9648 24.0742H108.335V26.852H87.9648V24.0742Z" fill="#94BAD0"/>
<path d="M22.2227 22.2222H32.4078V24.9999H22.2227V22.2222Z" fill="#94BAD0"/>
<path d="M100.926 57.4075H108.333V61.1112H100.926V57.4075Z" fill="#94BAD0"/>
<path d="M100.926 63.8889H108.333V67.5926H100.926V63.8889Z" fill="#94BAD0"/>
</svg>
