<svg width="125" height="125" viewBox="0 0 125 125" fill="none" xmlns="http://www.w3.org/2000/svg">
<g clip-path="url(#clip0)">
<path d="M109.181 12.9629H15.8169C10.6631 12.9691 6.48664 17.1455 6.48047 22.2993V115.664C6.48664 120.817 10.6631 124.994 15.8169 125H109.181C114.335 124.994 118.511 120.817 118.518 115.664V22.2993C118.511 17.1455 114.335 12.9691 109.181 12.9629ZM15.8169 16.6975H109.181C112.275 16.6975 114.783 19.2055 114.783 22.2993V27.9012H10.215V22.2993C10.215 19.2055 12.7231 16.6975 15.8169 16.6975ZM109.181 121.265H15.8169C12.7231 121.265 10.215 118.757 10.215 115.664V31.6357H114.783V115.664C114.783 118.757 112.275 121.265 109.181 121.265Z" fill="#94BAD0"/>
<path d="M17.6837 24.1667C18.715 24.1667 19.551 23.3307 19.551 22.2994C19.551 21.2681 18.715 20.4321 17.6837 20.4321C16.6524 20.4321 15.8164 21.2681 15.8164 22.2994C15.8164 23.3307 16.6524 24.1667 17.6837 24.1667Z" fill="#94BAD0"/>
<path d="M25.1524 24.1667C26.1837 24.1667 27.0197 23.3307 27.0197 22.2994C27.0197 21.2681 26.1837 20.4321 25.1524 20.4321C24.1212 20.4321 23.2852 21.2681 23.2852 22.2994C23.2852 23.3307 24.1212 24.1667 25.1524 24.1667Z" fill="#94BAD0"/>
<path d="M32.6212 24.1667C33.6525 24.1667 34.4885 23.3307 34.4885 22.2994C34.4885 21.2681 33.6525 20.4321 32.6212 20.4321C31.5899 20.4321 30.7539 21.2681 30.7539 22.2994C30.7539 23.3307 31.5899 24.1667 32.6212 24.1667Z" fill="#94BAD0"/>
<path d="M103.578 24.1667H105.445C106.477 24.1667 107.313 23.3307 107.313 22.2994C107.313 21.2681 106.477 20.4321 105.445 20.4321H103.578C102.547 20.4321 101.711 21.2681 101.711 22.2994C101.711 23.3307 102.547 24.1667 103.578 24.1667Z" fill="#94BAD0"/>
<path d="M84.9063 24.1667H96.11C97.1413 24.1667 97.9773 23.3307 97.9773 22.2994C97.9773 21.2681 97.1413 20.4321 96.11 20.4321H84.9063C83.8751 20.4321 83.0391 21.2681 83.0391 22.2994C83.0391 23.3307 83.8751 24.1667 84.9063 24.1667Z" fill="#94BAD0"/>
<path d="M99.844 35.3704H25.1526C22.0588 35.3704 19.5508 37.8784 19.5508 40.9722V70.8488C19.5508 73.9426 22.0588 76.4506 25.1526 76.4506H99.844C102.938 76.4506 105.446 73.9426 105.446 70.8488V40.9722C105.446 37.8784 102.938 35.3704 99.844 35.3704ZM101.711 70.8488C101.711 71.88 100.875 72.716 99.844 72.716H25.1526C24.1214 72.716 23.2853 71.88 23.2853 70.8488V40.9722C23.2853 39.9409 24.1214 39.1049 25.1526 39.1049H99.844C100.875 39.1049 101.711 39.9409 101.711 40.9722V70.8488Z" fill="#94BAD0"/>
<path d="M62.5007 42.8394C55.2818 42.8394 49.4297 48.6914 49.4297 55.9103C49.4297 63.1293 55.2818 68.9813 62.5007 68.9813C69.7196 68.9813 75.5717 63.1293 75.5717 55.9103C75.5634 48.6948 69.7162 42.8476 62.5007 42.8394ZM62.5007 65.2468C57.3443 65.2468 53.1643 61.0667 53.1643 55.9103C53.1643 50.754 57.3443 46.5739 62.5007 46.5739C67.657 46.5739 71.8371 50.754 71.8371 55.9103C71.8309 61.0641 67.6545 65.2406 62.5007 65.2468Z" fill="#94BAD0"/>
<path d="M67.2715 54.3568L61.6697 50.6222C60.8117 50.0499 59.6521 50.2815 59.0798 51.1395C58.5074 51.9975 58.739 53.157 59.597 53.7294L62.8741 55.9104L59.6026 58.0914C59.0476 58.4616 58.7322 59.0999 58.7753 59.7657C58.8185 60.4315 59.2135 61.0237 59.8117 61.3192C60.4098 61.6148 61.1202 61.5688 61.6753 61.1985L67.2771 57.464C67.7965 57.1176 68.1085 56.5347 68.1085 55.9104C68.1085 55.2861 67.7965 54.7031 67.2771 54.3568H67.2715Z" fill="#94BAD0"/>
<path d="M58.7637 83.9196H56.8965C56.8965 81.8571 55.2244 80.1851 53.1619 80.1851H45.6928C44.3139 80.1838 42.9834 80.6934 41.9582 81.6154C40.9329 80.6934 39.6025 80.1838 38.2236 80.1851H30.7545C28.6919 80.1851 27.0199 81.8571 27.0199 83.9196H25.1526C22.0588 83.9196 19.5508 86.4277 19.5508 89.5215V111.929C19.5508 115.023 22.0588 117.531 25.1526 117.531H58.7637C61.8576 117.531 64.3656 115.023 64.3656 111.929V89.5215C64.3656 86.4277 61.8576 83.9196 58.7637 83.9196ZM30.7545 102.592H38.2236C39.2549 102.592 40.0909 103.428 40.0909 104.46V106.327H30.7545V102.592ZM43.8255 104.46C43.8255 103.428 44.6615 102.592 45.6928 102.592H53.1619V106.327H43.8255V104.46ZM45.6928 83.9196H53.1619V98.8579H45.6928C45.0552 98.8641 44.4235 98.9803 43.8255 99.2015V85.7869C43.8255 84.7556 44.6615 83.9196 45.6928 83.9196ZM38.2236 83.9196C39.2549 83.9196 40.0909 84.7556 40.0909 85.7869V99.2015C39.4929 98.9803 38.8612 98.8641 38.2236 98.8579H30.7545V83.9196H38.2236ZM60.631 111.929C60.631 112.96 59.795 113.796 58.7637 113.796H25.1526C24.1214 113.796 23.2853 112.96 23.2853 111.929V89.5215C23.2853 88.4902 24.1214 87.6542 25.1526 87.6542H27.0199V106.327C27.0199 108.39 28.6919 110.062 30.7545 110.062H53.1619C55.2244 110.062 56.8965 108.39 56.8965 106.327V87.6542H58.7637C59.795 87.6542 60.631 88.4902 60.631 89.5215V111.929Z" fill="#94BAD0"/>
<path d="M103.58 87.6543H73.7032C72.6719 87.6543 71.8359 88.4903 71.8359 89.5216C71.8359 90.5528 72.6719 91.3888 73.7032 91.3888H103.58C104.611 91.3888 105.447 90.5528 105.447 89.5216C105.447 88.4903 104.611 87.6543 103.58 87.6543Z" fill="#94BAD0"/>
<path d="M90.5088 110.062H73.7032C72.6719 110.062 71.8359 110.898 71.8359 111.929C71.8359 112.96 72.6719 113.796 73.7032 113.796H90.5088C91.5401 113.796 92.3761 112.96 92.3761 111.929C92.3761 110.898 91.5401 110.062 90.5088 110.062Z" fill="#94BAD0"/>
<path d="M73.7032 98.8578H90.5088C91.5401 98.8578 92.3761 98.0218 92.3761 96.9906C92.3761 95.9593 91.5401 95.1233 90.5088 95.1233H73.7032C72.6719 95.1233 71.8359 95.9593 71.8359 96.9906C71.8359 98.0218 72.6719 98.8578 73.7032 98.8578Z" fill="#94BAD0"/>
<path d="M73.7032 106.327H77.4378C78.4691 106.327 79.3051 105.491 79.3051 104.46C79.3051 103.429 78.4691 102.593 77.4378 102.593H73.7032C72.672 102.593 71.8359 103.429 71.8359 104.46C71.8359 105.491 72.672 106.327 73.7032 106.327Z" fill="#94BAD0"/>
<path d="M103.579 95.1233H97.9767C96.9454 95.1233 96.1094 95.9593 96.1094 96.9906C96.1094 98.0218 96.9454 98.8578 97.9767 98.8578H103.579C104.61 98.8578 105.446 98.0218 105.446 96.9906C105.446 95.9593 104.61 95.1233 103.579 95.1233Z" fill="#94BAD0"/>
<path d="M103.579 102.593H84.9063C83.8751 102.593 83.0391 103.429 83.0391 104.46C83.0391 105.491 83.8751 106.327 84.9063 106.327H103.579C104.61 106.327 105.446 105.491 105.446 104.46C105.446 103.429 104.61 102.593 103.579 102.593Z" fill="#94BAD0"/>
</g>
<defs>
<clipPath id="clip0">
<rect width="125" height="125" fill="white"/>
</clipPath>
</defs>
</svg>
