<svg width="5760" height="2216" viewBox="0 0 5760 2216" fill="none" xmlns="http://www.w3.org/2000/svg">
<rect width="5760" height="2216" fill="#1F2529"/>
<mask id="mask0" mask-type="alpha" maskUnits="userSpaceOnUse" x="0" y="0" width="5760" height="2216">
<rect width="5760" height="2216" fill="#1F2529"/>
</mask>
<g mask="url(#mask0)">
<g style="mix-blend-mode:overlay" opacity="0.1">
<path d="M1920 -0.375977H2916.5L5760 592L0 1005L3840 2215.62H2880H1920L2269.5 -0.375977H1920Z" fill="#001E20"/>
</g>
<path opacity="0.05" d="M1282.45 1885.22H4325.37L1282.45 1902.3V1885.22Z" fill="#DDFFF0"/>
<path opacity="0.05" d="M1282.45 1969.37H2660.04L1281.84 1983.97L1282.45 1969.37Z" fill="#DDFFF0"/>
<path d="M4314.37 1789.9L3370.78 1846.28H4317.14L4314.37 1789.9Z" fill="#19001B"/>
<path d="M1 1680.44L5804 1645V1685.93C5804 1685.93 3425.44 1752 3158.05 1752C2890.66 1752 1 1705.44 1 1705.44V1680.44Z" fill="#36014A"/>
<path d="M5785.12 1752H1.16781L0 2055L5801 2050.96L5785.12 1752Z" fill="url(#paint0_linear)"/>
<path d="M5817 1885H1V2089L5817 1959.33V1885Z" fill="url(#paint1_linear)"/>
<path opacity="0.05" d="M5243 1971.74L1 1969V2106L5243 1971.74Z" fill="#DDFFF0"/>
<path opacity="0.05" d="M5817 1927L2625 1944L5817 1941.08V1927Z" fill="#DDFFF0"/>
<path d="M5804 1686C5804 1686 3961.52 1724.53 3525.77 1724.53C3090.03 1724.53 1 1705.49 1 1705.49V1752H5800.01L5804 1686Z" fill="#2A013E"/>
<path d="M5817 1885H1.16786L0 1848.58L5793.71 1828L5817 1885Z" fill="#4C1D5E"/>
<path d="M5804.63 1853L1 1860.95V1885H5817L5804.63 1853Z" fill="#19001B"/>
<path d="M5781.91 1636.43L5436 1560H5327.64L5220.5 1588.3L4274.25 1645.43L4101.47 1639.76L3959 1645.43L3496.98 1611.81L3363.79 1629.52L3219.04 1639.76H2385.94L2234.07 1629.52L1676.9 1659.99L1 1648.97V1680L5804 1659.99L5781.91 1636.43Z" fill="#4C1D5E"/>
<path d="M1639.24 1184.92C1639.24 1184.92 1726.17 1137.45 1786.21 1125.55L1807.7 1130.1C1777.79 1136.05 1749.17 1144.97 1722.69 1156.6L1807.22 1138.1L1876.67 1209.47L1796.24 1235.68L1880.9 1214.94C1880.9 1214.94 1977 1316.16 1966.89 1438.77L1810.06 1369.43L1795.11 1307.63L1797.67 1369L1759.72 1361.37L1759.38 1284.13L1737.31 1355.75C1737.31 1355.75 1632.05 1291.09 1606.59 1261.51C1581.14 1231.94 1639.24 1184.92 1639.24 1184.92Z" fill="#19001B"/>
<path d="M1544.34 1202.76C1544.34 1202.76 1422.44 1238.17 1389.31 1262.03L1379.78 1276.86L1474.93 1255.43L1379.78 1291.32C1379.78 1291.32 1373.75 1353.31 1394.35 1400.09L1464.58 1373.84L1415.79 1414.54L1490.83 1518.1C1490.83 1518.1 1567.55 1461.58 1595.91 1441.16L1531.72 1360.43L1558.68 1322.84L1628.74 1409.8L1639.01 1400.09L1560.74 1306.83L1668.49 1374.98C1668.49 1374.98 1718.55 1329.95 1718.55 1306.83C1718.55 1283.71 1709.22 1209.39 1709.22 1209.39L1544.34 1202.76Z" fill="#19001B"/>
<path d="M1522.51 2250.34L1618.2 1755.82L1648.81 1431.03L1618.38 1132.47H1643.41L1688.57 1431.03L1596.36 2250.34H1522.51Z" fill="#19001B"/>
<path d="M1548.46 2116.12L1610.73 2122.48L1614.21 2091.61L1552.37 2095.97L1548.46 2116.12Z" fill="#19001B"/>
<path d="M1560.89 2051.89L1617.48 2062.55L1618.08 2057.22L1561.66 2047.94L1560.89 2051.89Z" fill="#19001B"/>
<path d="M1624.58 1999.61H1571.02L1578.07 1963.17H1628.68L1624.58 1999.61Z" fill="#19001B"/>
<path d="M1628.66 1955.48L1580.1 1952.62L1581.33 1946.24L1628.66 1950.86V1955.48Z" fill="#19001B"/>
<path d="M1640.37 1859.05L1595.98 1870.49V1864.77L1640.69 1856.19L1640.37 1859.05Z" fill="#19001B"/>
<path d="M1608.2 1807.41L1645.34 1815.04L1646.19 1807.41L1609.52 1800.59L1608.2 1807.41Z" fill="#19001B"/>
<path d="M1652.68 1749.78L1618.18 1755.82L1620.58 1730.39H1654.87L1652.68 1749.78Z" fill="#19001B"/>
<path d="M1624.93 1684.32L1658.9 1694.51V1691.41L1625.57 1677.45L1624.93 1684.32Z" fill="#19001B"/>
<path d="M1633.68 1591.25L1669.86 1597.03L1670.51 1591.25L1634.21 1585.61L1633.68 1591.25Z" fill="#19001B"/>
<path d="M1641.93 1518.1H1678.77V1527.42L1639.35 1531.39L1641.93 1518.1Z" fill="#19001B"/>
<path d="M1646.65 1453.82L1686.96 1445.28L1688.56 1431.03L1647.59 1443.84L1646.65 1453.82Z" fill="#19001B"/>
<path d="M1646.65 1405.02L1688.56 1431.03L1653.13 1196.86L1621.08 1190.05L1646.65 1405.02Z" fill="#19001B"/>
<path d="M2045.07 1398.69C2045.07 1398.69 1882 1350.39 1842.38 1331.75C1802.77 1313.11 1683.39 1205.34 1683.39 1205.34C1683.39 1205.34 1799.07 1183.42 1806.99 1183.42C1814.91 1183.42 1947.49 1219.17 1972.85 1256.45C1998.2 1293.72 2045.07 1398.69 2045.07 1398.69Z" fill="#19001B"/>
<path d="M1613.03 1140.64C1613.03 1140.64 1478.84 1139.08 1458.31 1139.08C1437.78 1139.08 1302.94 1190.64 1288.04 1193.54C1273.14 1196.44 1125.79 1228.49 1125.79 1228.49C1125.79 1228.49 1174.08 1140.94 1185.83 1132.47C1197.59 1124 1238.21 1110.42 1253.97 1102.14C1269.74 1093.86 1453.04 1088.02 1472.65 1102.14C1492.25 1116.25 1613.03 1140.64 1613.03 1140.64Z" fill="#252F12"/>
<path d="M1612.2 1132.47C1612.2 1132.47 1467.77 1066.28 1296.7 1089.1C1125.62 1111.92 1039 1261.01 1039 1261.01L1195.35 1223.36L1209.61 1124.66L1229.41 1112.68L1237.34 1213.66L1255.56 1207.38L1238.92 1110.97L1276.16 1203.96L1455.22 1152.62L1466.31 1104.13L1475.82 1145.2L1613.91 1149.22L1612.2 1132.47Z" fill="#280E2F"/>
<path d="M1628.75 1139.16L1680.37 1033.16L1710.92 1023.46L1674.68 1095.3L1727.73 1016.19C1727.73 1016.19 1909.42 1002.68 1988.8 1016.19C2068.17 1029.7 2146.1 1074.67 2146.1 1074.67C2146.1 1074.67 2079.28 1119.7 2030.21 1132.85L1867.02 1059.83L1994.57 1147.12L1980.88 1152.34L1839.59 1060.86L1815.62 1068.66L1902.21 1175.76C1902.21 1175.76 1809.13 1207.39 1727.73 1207.39C1668.72 1207.39 1628.75 1162.7 1628.75 1162.7V1139.16Z" fill="#280E2F"/>
<path d="M1628.75 1139.16C1628.75 1139.16 1771.85 1063.64 1819.95 1049.09C1868.05 1034.55 2046.04 1049.09 2046.04 1049.09C2046.04 1049.09 1885.15 1040.61 1829.33 1054.12C1773.51 1067.62 1628.75 1146.6 1628.75 1146.6V1139.16Z" fill="#19001B"/>
<path d="M1764.01 1205.53L1730.23 1094.61L1736.56 1084.83L1769.05 1205.02L1764.01 1205.53Z" fill="#19001B"/>
<path d="M1831.36 1194.77L1763.78 1078.99L1771.79 1075.43L1837.42 1193.44L1831.36 1194.77Z" fill="#19001B"/>
<path d="M1935.4 1010.19L1867.01 1043.26L1901.21 1042.63L1968.44 1013.49L1935.4 1010.19Z" fill="#19001B"/>
<path d="M2062.27 1121.71L1948.86 1046.48L1954.16 1043.76L2066.94 1119.46L2062.27 1121.71Z" fill="#19001B"/>
<path d="M1800.58 1012.14V1063.52L1804.98 1054.35V1011.96L1800.58 1012.14Z" fill="#19001B"/>
<path d="M1518.21 1102.14L1535.21 1146.93H1548.78L1526.14 1102.14H1518.21Z" fill="#19001B"/>
<path d="M1628.75 1132.47C1628.75 1132.47 1839.74 1165.93 1924.25 1207.39C2008.76 1248.84 2109.9 1418.46 2109.9 1418.46C2109.9 1418.46 1978.13 1400.78 1940.1 1387.66L1958.32 1247.32L1919.5 1223.93L1852.95 1352.86L1843.44 1345.44L1906.03 1222.22L1817.42 1331.75C1817.42 1331.75 1758.01 1294.39 1731.73 1275.47L1761.48 1217.08L1720.63 1261.01C1720.63 1261.01 1651.42 1222.27 1638.49 1196.86C1630.49 1178.7 1627.19 1159.65 1628.75 1140.64V1132.47Z" fill="#19001B"/>
<path d="M2021.29 1405.02L1994.67 1263.83L2001.39 1271.02L2032.53 1405.02H2021.29Z" fill="#19001B"/>
<path d="M1857.85 1183.42L1754.43 1291.06L1761.49 1295.74L1860.26 1183.42H1857.85Z" fill="#19001B"/>
<path d="M1662.75 1222.58L1799.33 1166.86L1793.16 1165.36L1656.42 1217.29L1662.75 1222.58Z" fill="#19001B"/>
<g style="mix-blend-mode:multiply" opacity="0.61">
<path d="M1740.18 1153.39L1649.86 1211.19L1621.08 1190.04L1628.76 1132.47L1740.18 1153.39Z" fill="#424517"/>
</g>
<path d="M1534.21 1086.03L1343.18 1039.67L1329.7 1051.5L1465.51 1094.56V1112.85L1310.27 1085.11V1185.77H1402.94L1320.73 1203.27L1455.79 1384.24L1548.25 1290.98L1495.18 1245.95L1567.37 1278.61L1651.09 1168.82L1588.3 1145.49L1669.02 1156.72L1734.79 1092.4L1534.21 1086.03Z" fill="#280E2F"/>
<path d="M1521.06 1082.83C1521.06 1082.83 1438.81 1156.72 1438.81 1290.98C1438.81 1290.98 1464.22 1141.2 1528.14 1084.55L1521.06 1082.83Z" fill="#19001B"/>
<path d="M1633.32 1192.11L1477.69 1160.69L1468.2 1169.9L1625.2 1202.76L1633.32 1192.11Z" fill="#19001B"/>
<path d="M1683.46 1142.62L1504.24 1112.18L1501.43 1116.32L1679.56 1146.44L1683.46 1142.62Z" fill="#19001B"/>
<path d="M1501.42 1338.22L1456.32 1219.29L1445.23 1227.6L1495.2 1344.5L1501.42 1338.22Z" fill="#19001B"/>
<path d="M1310.27 1145.48L1473.32 1148.56L1490.39 1129L1310.27 1119.56V1145.48Z" fill="#19001B"/>
<path d="M1537.55 2172.49L1604.82 2174.96L1605.51 2180.63L1536.76 2176.56L1537.55 2172.49Z" fill="#19001B"/>
<g style="mix-blend-mode:soft-light">
<path d="M1548.8 2250.35L1618.37 1800.03L1656.46 1436.65L1646.67 1408.88L1648.81 1431.03L1618.2 1755.82L1522.51 2250.35H1548.8Z" fill="#E5C266"/>
</g>
<path style="mix-blend-mode:color-dodge" d="M1770.21 1889.03C1804.09 1889.03 1831.56 1869.25 1831.56 1844.85C1831.56 1820.46 1804.09 1800.68 1770.21 1800.68C1736.33 1800.68 1708.86 1820.46 1708.86 1844.85C1708.86 1869.25 1736.33 1889.03 1770.21 1889.03Z" fill="url(#paint2_radial)"/>
<path d="M1774.84 1861.89H1769.55L1767.84 1845.19H1776.55L1774.84 1861.89Z" fill="#19001B"/>
<path d="M1772.2 1850.99C1776.91 1850.99 1780.73 1848.24 1780.73 1844.85C1780.73 1841.46 1776.91 1838.71 1772.2 1838.71C1767.49 1838.71 1763.67 1841.46 1763.67 1844.85C1763.67 1848.24 1767.49 1850.99 1772.2 1850.99Z" fill="white"/>
<path style="mix-blend-mode:color-dodge" d="M1458.6 1889.03C1492.49 1889.03 1519.95 1869.25 1519.95 1844.85C1519.95 1820.46 1492.49 1800.68 1458.6 1800.68C1424.72 1800.68 1397.25 1820.46 1397.25 1844.85C1397.25 1869.25 1424.72 1889.03 1458.6 1889.03Z" fill="url(#paint3_radial)"/>
<path d="M1463.24 1861.89H1457.96L1456.23 1845.19H1464.96L1463.24 1861.89Z" fill="#19001B"/>
<path d="M1460.59 1850.99C1465.3 1850.99 1469.12 1848.24 1469.12 1844.85C1469.12 1841.46 1465.3 1838.71 1460.59 1838.71C1455.88 1838.71 1452.07 1841.46 1452.07 1844.85C1452.07 1848.24 1455.88 1850.99 1460.59 1850.99Z" fill="white"/>
<path d="M2197.62 1842.72L2193.58 1700.05H2198.81L2200 1842.72H2197.62Z" fill="#19001B"/>
<path d="M2075 1735.56L2324.64 1736.48L2196.79 1693.61L2075 1735.56Z" fill="#3D112F"/>
<path d="M2193.58 1694.72L2195.25 1688H2197.66L2200.09 1694.72H2193.58Z" fill="#19001B"/>
<path d="M2196.84 1694.72L2263.23 1736.25L2324.65 1736.48L2200.09 1694.72H2196.84Z" fill="#19001B"/>
<g style="mix-blend-mode:soft-light" opacity="0.53">
<path d="M2196.83 1694.72L2130.76 1735.56H2075L2193.58 1694.72H2196.83Z" fill="#DDFFF0"/>
</g>
<path d="M2801.89 1842.72L2793.44 1544.42H2804.37L2806.86 1842.72H2801.89Z" fill="#19001B"/>
<path d="M2545.53 1618.66L3067.46 1620.6L2800.16 1530.97L2545.53 1618.66Z" fill="#3D112F"/>
<path d="M2793.44 1533.29L2796.94 1519.24H2801.97L2807.05 1533.29H2793.44Z" fill="#19001B"/>
<path d="M2800.26 1533.29L2939.07 1620.12L3067.47 1620.6L2807.06 1533.29H2800.26Z" fill="#19001B"/>
<g style="mix-blend-mode:soft-light" opacity="0.53">
<path d="M2800.26 1533.29L2662.11 1618.67H2545.53L2793.45 1533.29H2800.26Z" fill="#DDFFF0"/>
</g>
<path style="mix-blend-mode:color-dodge" opacity="0.7" d="M1768.86 1953.52C1779.08 1953.52 1787.36 1933.74 1787.36 1909.35C1787.36 1884.95 1779.08 1865.17 1768.86 1865.17C1758.64 1865.17 1750.36 1884.95 1750.36 1909.35C1750.36 1933.74 1758.64 1953.52 1768.86 1953.52Z" fill="url(#paint4_radial)"/>
<path d="M649.556 1913.58C641.14 1849.53 575.578 1766.26 575.578 1766.26L423.152 1872.57L556.657 1749.31L499.865 1719.11C470.187 1816.46 341.975 1910.86 338.029 1913.79C366.436 1868.68 486.897 1708.06 486.897 1708.06L388.515 1621.86L323.317 1762.45L377.024 1614.81L354.301 1616.35L278.011 1882.37L249.946 1860.94L332.91 1607.93L159.695 1589L108.326 1907.98L109.957 1592.38L-42 1619.45L-37.6623 2199.95L471.681 2229C471.681 2229 532.339 2223.5 551.587 2206.76C570.833 2190.02 608.823 2139.85 608.823 2139.85L413.75 2169.24L422.38 2127.98L627.189 2105.15L638.391 2069.8L407.294 2120.11L641.953 2056.71C641.953 2056.71 657.972 1977.62 649.556 1913.58ZM27.4109 2085.75C27.4109 2085.75 18.7147 1943.19 7.61504 1858.73C-3.49453 1774.19 15.3378 1620.03 15.3378 1620.03C15.3378 1620.03 64.5567 1803.24 88.0299 1911.11C111.407 2019.07 27.4109 2085.75 27.4109 2085.75ZM495.688 1979.16C436.062 2031.11 344.998 2142.9 342.178 2146.36C343.941 2142.89 403.557 2032.18 444.693 1982.63C485.544 1933.33 580.155 1862.19 584.205 1859.26C564.748 1902.67 534.781 1943.26 495.688 1979.16Z" fill="#280E2F"/>
<path d="M5018.78 1853.04C5037.24 1781.14 5123.01 1691.6 5123.01 1691.6L5280.57 1823L5146.78 1673.77L5215.23 1643.7C5235.2 1756.06 5367.04 1872.22 5371.09 1875.82C5345.26 1822.69 5231.44 1632.12 5231.44 1632.12L5354.74 1541.64L5408.86 1705.54L5368.72 1534.49L5394.21 1537.89L5443.36 1844.59L5478.09 1822.36L5419.58 1529.9L5618.13 1521L5631.7 1885.87L5673.91 1528.43L5842 1570.07L5756.06 2227L5175.93 2223.03C5175.93 2223.03 5108.09 2212.42 5088.65 2192.08C5067.98 2166.26 5049.48 2139.58 5033.26 2112.17L5249.79 2159.56L5245.79 2112.22L5017.33 2071.56L5009.6 2030.72L5263.95 2104.41L5007.4 2015.64C5003.65 1961.3 5007.46 1906.83 5018.78 1853.04ZM5698.4 2092.99C5698.4 2092.99 5728.14 1932.22 5752.48 1837.39C5776.85 1742.48 5777.07 1566.58 5777.07 1566.58C5777.07 1566.58 5695.83 1770.44 5654.22 1890.88C5641.46 1924.91 5638.8 1960.5 5646.41 1995.33C5654.02 2030.15 5671.74 2063.43 5698.4 2092.99ZM5183.65 1938.43C5239.12 2003.06 5289.3 2069.98 5333.93 2138.84C5308.34 2073.28 5277.26 2008.89 5240.84 1946.04C5200.15 1893.26 5153.12 1843.14 5100.27 1796.27C5116.22 1846.82 5144.45 1894.95 5183.65 1938.43Z" fill="#280E2F"/>
<path d="M123.792 2209.16C123.792 2209.16 288.303 2048.6 395.601 1880.15L332.743 1843.97L195.475 2000.41L189.695 2001.64L243.224 1813.63L216.745 1815.44C216.745 1815.44 149.777 2036.34 114.089 2121.46L78.4023 2206.57L123.792 2209.16Z" fill="#19001B"/>
<path d="M59.8485 2205.51L165.699 1818.88L58.1794 1834.79C58.1794 1834.79 67.2383 1987.29 54.2837 2022.87C41.3292 2058.45 25.2098 2069.23 25.2098 2069.23C25.2098 2069.23 23.6598 1866.62 30.4578 1841.44L7.9554 1850.53C7.9554 1850.53 -2.99812 2111.45 8.97214 2202.6L59.8485 2205.51Z" fill="#19001B"/>
<path d="M148.039 2210.55C148.039 2210.55 349.983 2045.61 418.622 1894.53L434.216 1902.66C434.216 1902.66 274.532 2134.33 180.203 2212.39L148.039 2210.55Z" fill="#19001B"/>
<path d="M217.652 2214.53L385.405 1993.63L413.978 2020.12L332.591 2114.37L350.662 2124.55L421.114 2030.88L430.677 2036.65L392.56 2108.38L454.423 2056.58L498.82 2126.51L337.265 2221.37L217.652 2214.53Z" fill="#19001B"/>
<path d="M4323.17 1959.35L-7.11719 2143.38V2477L4323.17 2131.02V1959.35Z" fill="url(#paint5_linear)"/>
<path d="M4330.54 2041.35H2353.62L2318.73 2044.54L4321.37 2047.75L4330.54 2041.35Z" fill="#19001B"/>
<path d="M4110.35 2145.24L1223.05 2091.1L1191.56 2092.44L4072.35 2151.06L4110.35 2145.24Z" fill="#19001B"/>
<path d="M2820.21 2256.62L349.644 2128.22L340.383 2128.35L2741.66 2260.03L2820.21 2256.62Z" fill="#19001B"/>
<path d="M1800.48 2332.57L-7.20398 2180.46L-7.96875 2184.27L1768.35 2335.14L1800.48 2332.57Z" fill="#19001B"/>
<path style="mix-blend-mode:color-dodge" d="M2564.06 2262.36L357.808 2143.42L45.2617 2161.02L1826.27 2323.37L2564.06 2262.36Z" fill="url(#paint6_linear)"/>
<path style="mix-blend-mode:color-dodge" d="M2775.27 2233.4L580.879 2128.22L1191.56 2102.24L3651.81 2153.37L2775.27 2233.4Z" fill="url(#paint7_linear)"/>
<path style="mix-blend-mode:color-dodge" d="M4122.23 2131.46L1661.24 2082.78L2343.14 2055.41L4312.89 2062.63V2121.38L4122.23 2131.46Z" fill="url(#paint8_linear)"/>
<path style="mix-blend-mode:color-dodge" d="M4330.52 2041.35L2908.85 2030.14L4330.52 1988.1V2041.35Z" fill="url(#paint9_linear)"/>
<path style="mix-blend-mode:color-dodge" d="M1548.66 2341.99L-7.96875 2194.13L-7.58113 2302.76L814.082 2411.39L1548.66 2341.99Z" fill="url(#paint10_linear)"/>
<path d="M4330.51 1988.1L-7.11719 2422.68V2477L4353 2224.5L4330.51 1988.1Z" fill="#19001B"/>
<path d="M377.207 2127.03L2744.39 2252.68L4072.37 2151.06L3988.67 2143.42L2744.74 2222.93L377.207 2127.03Z" fill="#19001B"/>
<path d="M2628.53 2260.03L1800.49 2332.57L-7.19141 2180.46L-7.08662 2167.81L1800.49 2309.02L2628.53 2260.03Z" fill="#19001B"/>
<path d="M4110.35 2145.24L1240.49 2093.43L4110.35 2130.74L4330.51 2098.45L4323.18 2131.02L4110.35 2145.24Z" fill="#19001B"/>
<path style="mix-blend-mode:color-dodge" d="M4263.16 1889.03C4297.04 1889.03 4324.51 1869.25 4324.51 1844.85C4324.51 1820.46 4297.04 1800.68 4263.16 1800.68C4229.28 1800.68 4201.81 1820.46 4201.81 1844.85C4201.81 1869.25 4229.28 1889.03 4263.16 1889.03Z" fill="url(#paint11_radial)"/>
<path d="M4267.79 1861.89H4262.5L4260.79 1845.19H4269.5L4267.79 1861.89Z" fill="#19001B"/>
<path d="M4265.14 1850.99C4269.85 1850.99 4273.67 1848.24 4273.67 1844.85C4273.67 1841.46 4269.85 1838.71 4265.14 1838.71C4260.43 1838.71 4256.61 1841.46 4256.61 1844.85C4256.61 1848.24 4260.43 1850.99 4265.14 1850.99Z" fill="white"/>
<path style="mix-blend-mode:color-dodge" d="M3951.56 1889.03C3985.44 1889.03 4012.91 1869.25 4012.91 1844.85C4012.91 1820.46 3985.44 1800.68 3951.56 1800.68C3917.67 1800.68 3890.21 1820.46 3890.21 1844.85C3890.21 1869.25 3917.67 1889.03 3951.56 1889.03Z" fill="url(#paint12_radial)"/>
<path d="M3956.19 1861.89H3950.9L3949.18 1845.19H3957.9L3956.19 1861.89Z" fill="#19001B"/>
<path d="M3953.55 1850.99C3958.26 1850.99 3962.08 1848.24 3962.08 1844.85C3962.08 1841.46 3958.26 1838.71 3953.55 1838.71C3948.84 1838.71 3945.02 1841.46 3945.02 1844.85C3945.02 1848.24 3948.84 1850.99 3953.55 1850.99Z" fill="white"/>
<path style="mix-blend-mode:color-dodge" d="M3639.89 1889.03C3673.77 1889.03 3701.24 1869.25 3701.24 1844.85C3701.24 1820.46 3673.77 1800.68 3639.89 1800.68C3606.01 1800.68 3578.54 1820.46 3578.54 1844.85C3578.54 1869.25 3606.01 1889.03 3639.89 1889.03Z" fill="url(#paint13_radial)"/>
<path d="M3644.5 1861.89H3639.22L3637.5 1845.19H3646.22L3644.5 1861.89Z" fill="#19001B"/>
<path d="M3641.88 1850.99C3646.59 1850.99 3650.41 1848.24 3650.41 1844.85C3650.41 1841.46 3646.59 1838.71 3641.88 1838.71C3637.17 1838.71 3633.35 1841.46 3633.35 1844.85C3633.35 1848.24 3637.17 1850.99 3641.88 1850.99Z" fill="white"/>
<path style="mix-blend-mode:color-dodge" opacity="0.7" d="M2081.08 1964.12C2091.3 1964.12 2099.58 1944.35 2099.58 1919.95C2099.58 1895.55 2091.3 1875.78 2081.08 1875.78C2070.86 1875.78 2062.57 1895.55 2062.57 1919.95C2062.57 1944.35 2070.86 1964.12 2081.08 1964.12Z" fill="url(#paint14_radial)"/>
<path style="mix-blend-mode:color-dodge" opacity="0.7" d="M2397.67 1964.12C2407.89 1964.12 2416.18 1944.35 2416.18 1919.95C2416.18 1895.55 2407.89 1875.78 2397.67 1875.78C2387.45 1875.78 2379.17 1895.55 2379.17 1919.95C2379.17 1944.35 2387.45 1964.12 2397.67 1964.12Z" fill="url(#paint15_radial)"/>
<path style="mix-blend-mode:color-dodge" d="M3328.28 1889.03C3362.17 1889.03 3389.63 1869.25 3389.63 1844.85C3389.63 1820.46 3362.17 1800.68 3328.28 1800.68C3294.4 1800.68 3266.93 1820.46 3266.93 1844.85C3266.93 1869.25 3294.4 1889.03 3328.28 1889.03Z" fill="url(#paint16_radial)"/>
<path d="M3332.92 1861.89H3327.63L3325.91 1845.19H3334.63L3332.92 1861.89Z" fill="#19001B"/>
<path d="M3330.27 1850.99C3334.98 1850.99 3338.8 1848.24 3338.8 1844.85C3338.8 1841.46 3334.98 1838.71 3330.27 1838.71C3325.56 1838.71 3321.75 1841.46 3321.75 1844.85C3321.75 1848.24 3325.56 1850.99 3330.27 1850.99Z" fill="white"/>
<path style="mix-blend-mode:color-dodge" d="M3016.67 1889.03C3050.55 1889.03 3078.02 1869.25 3078.02 1844.85C3078.02 1820.46 3050.55 1800.68 3016.67 1800.68C2982.78 1800.68 2955.32 1820.46 2955.32 1844.85C2955.32 1869.25 2982.78 1889.03 3016.67 1889.03Z" fill="url(#paint17_radial)"/>
<path d="M3021.3 1861.89H3016.02L3014.29 1845.19H3023.02L3021.3 1861.89Z" fill="#19001B"/>
<path d="M3018.66 1850.99C3023.37 1850.99 3027.18 1848.24 3027.18 1844.85C3027.18 1841.46 3023.37 1838.71 3018.66 1838.71C3013.95 1838.71 3010.13 1841.46 3010.13 1844.85C3010.13 1848.24 3013.95 1850.99 3018.66 1850.99Z" fill="white"/>
<path style="mix-blend-mode:color-dodge" d="M2705.06 1889.03C2738.94 1889.03 2766.41 1869.25 2766.41 1844.85C2766.41 1820.46 2738.94 1800.68 2705.06 1800.68C2671.17 1800.68 2643.71 1820.46 2643.71 1844.85C2643.71 1869.25 2671.17 1889.03 2705.06 1889.03Z" fill="url(#paint18_radial)"/>
<path d="M2709.69 1861.89H2704.4L2702.68 1845.19H2711.4L2709.69 1861.89Z" fill="#19001B"/>
<path d="M2707.05 1850.99C2711.76 1850.99 2715.58 1848.24 2715.58 1844.85C2715.58 1841.46 2711.76 1838.71 2707.05 1838.71C2702.34 1838.71 2698.52 1841.46 2698.52 1844.85C2698.52 1848.24 2702.34 1850.99 2707.05 1850.99Z" fill="white"/>
<path style="mix-blend-mode:color-dodge" d="M2393.45 1889.03C2427.33 1889.03 2454.8 1869.25 2454.8 1844.85C2454.8 1820.45 2427.33 1800.68 2393.45 1800.68C2359.56 1800.68 2332.1 1820.45 2332.1 1844.85C2332.1 1869.25 2359.56 1889.03 2393.45 1889.03Z" fill="url(#paint19_radial)"/>
<path d="M2398.08 1861.89H2392.79L2391.07 1845.19H2399.79L2398.08 1861.89Z" fill="#19001B"/>
<path d="M2395.43 1850.99C2400.14 1850.99 2403.96 1848.24 2403.96 1844.85C2403.96 1841.46 2400.14 1838.71 2395.43 1838.71C2390.72 1838.71 2386.91 1841.46 2386.91 1844.85C2386.91 1848.24 2390.72 1850.99 2395.43 1850.99Z" fill="white"/>
<path style="mix-blend-mode:color-dodge" d="M2081.83 1889.03C2115.71 1889.03 2143.18 1869.25 2143.18 1844.85C2143.18 1820.46 2115.71 1800.68 2081.83 1800.68C2047.94 1800.68 2020.48 1820.46 2020.48 1844.85C2020.48 1869.25 2047.94 1889.03 2081.83 1889.03Z" fill="url(#paint20_radial)"/>
<path d="M2086.44 1861.89H2081.16L2079.43 1845.19H2088.16L2086.44 1861.89Z" fill="#19001B"/>
<path d="M2083.82 1850.99C2088.53 1850.99 2092.35 1848.24 2092.35 1844.85C2092.35 1841.46 2088.53 1838.71 2083.82 1838.71C2079.11 1838.71 2075.29 1841.46 2075.29 1844.85C2075.29 1848.24 2079.11 1850.99 2083.82 1850.99Z" fill="white"/>
<path style="mix-blend-mode:color-dodge" opacity="0.7" d="M2705.66 1953.52C2715.88 1953.52 2724.16 1933.74 2724.16 1909.35C2724.16 1884.95 2715.88 1865.17 2705.66 1865.17C2695.44 1865.17 2687.16 1884.95 2687.16 1909.35C2687.16 1933.74 2695.44 1953.52 2705.66 1953.52Z" fill="url(#paint21_radial)"/>
<path style="mix-blend-mode:color-dodge" opacity="0.7" d="M3017.88 1964.12C3028.1 1964.12 3036.39 1944.35 3036.39 1919.95C3036.39 1895.55 3028.1 1875.78 3017.88 1875.78C3007.66 1875.78 2999.38 1895.55 2999.38 1919.95C2999.38 1944.35 3007.66 1964.12 3017.88 1964.12Z" fill="url(#paint22_radial)"/>
<path style="mix-blend-mode:color-dodge" opacity="0.7" d="M3334.48 1964.12C3344.7 1964.12 3352.98 1944.35 3352.98 1919.95C3352.98 1895.55 3344.7 1875.78 3334.48 1875.78C3324.26 1875.78 3315.98 1895.55 3315.98 1919.95C3315.98 1944.35 3324.26 1964.12 3334.48 1964.12Z" fill="url(#paint23_radial)"/>
<path style="mix-blend-mode:color-dodge" opacity="0.7" d="M3642.84 1964.12C3653.06 1964.12 3661.35 1944.35 3661.35 1919.95C3661.35 1895.55 3653.06 1875.78 3642.84 1875.78C3632.62 1875.78 3624.34 1895.55 3624.34 1919.95C3624.34 1944.35 3632.62 1964.12 3642.84 1964.12Z" fill="url(#paint24_radial)"/>
<path style="mix-blend-mode:color-dodge" opacity="0.7" d="M3956.12 1964.12C3966.34 1964.12 3974.63 1944.35 3974.63 1919.95C3974.63 1895.55 3966.34 1875.78 3956.12 1875.78C3945.9 1875.78 3937.62 1895.55 3937.62 1919.95C3937.62 1944.35 3945.9 1964.12 3956.12 1964.12Z" fill="url(#paint25_radial)"/>
<path style="mix-blend-mode:color-dodge" opacity="0.7" d="M4263.16 1964.12C4273.38 1964.12 4281.67 1944.35 4281.67 1919.95C4281.67 1895.55 4273.38 1875.78 4263.16 1875.78C4252.94 1875.78 4244.66 1895.55 4244.66 1919.95C4244.66 1944.35 4252.94 1964.12 4263.16 1964.12Z" fill="url(#paint26_radial)"/>
<path style="mix-blend-mode:color-dodge" d="M3777.37 1713.74C3817.76 1713.74 3850.49 1690.17 3850.49 1661.09C3850.49 1632.01 3817.76 1608.44 3777.37 1608.44C3736.99 1608.44 3704.25 1632.01 3704.25 1661.09C3704.25 1690.17 3736.99 1713.74 3777.37 1713.74Z" fill="url(#paint27_radial)"/>
<path d="M3780.19 1832.16H3776.18L3775.01 1666.45H3780.95L3780.19 1832.16Z" fill="#19001B"/>
<path d="M3778 1670.54C3784.2 1670.54 3789.23 1666.91 3789.23 1662.45C3789.23 1657.98 3784.2 1654.36 3778 1654.36C3771.79 1654.36 3766.76 1657.98 3766.76 1662.45C3766.76 1666.91 3771.79 1670.54 3778 1670.54Z" fill="white"/>
<path style="mix-blend-mode:color-dodge" d="M3178.22 1713.74C3218.61 1713.74 3251.34 1690.17 3251.34 1661.09C3251.34 1632.01 3218.61 1608.44 3178.22 1608.44C3137.84 1608.44 3105.11 1632.01 3105.11 1661.09C3105.11 1690.17 3137.84 1713.74 3178.22 1713.74Z" fill="url(#paint28_radial)"/>
<path d="M3181.06 1832.16H3177.05L3175.88 1666.45H3181.81L3181.06 1832.16Z" fill="#19001B"/>
<path d="M3178.86 1670.54C3185.07 1670.54 3190.1 1666.91 3190.1 1662.45C3190.1 1657.98 3185.07 1654.36 3178.86 1654.36C3172.66 1654.36 3167.63 1657.98 3167.63 1662.45C3167.63 1666.91 3172.66 1670.54 3178.86 1670.54Z" fill="white"/>
<path style="mix-blend-mode:color-dodge" d="M2551.73 1721.52C2592.11 1721.52 2624.85 1697.95 2624.85 1668.88C2624.85 1639.8 2592.11 1616.23 2551.73 1616.23C2511.35 1616.23 2478.61 1639.8 2478.61 1668.88C2478.61 1697.95 2511.35 1721.52 2551.73 1721.52Z" fill="url(#paint29_radial)"/>
<path d="M2554.56 1839.94H2550.55L2549.38 1674.23H2555.32L2554.56 1839.94Z" fill="#19001B"/>
<path d="M2552.36 1678.32C2558.57 1678.32 2563.6 1674.7 2563.6 1670.23C2563.6 1665.76 2558.57 1662.14 2552.36 1662.14C2546.16 1662.14 2541.13 1665.76 2541.13 1670.23C2541.13 1674.7 2546.16 1678.32 2552.36 1678.32Z" fill="white"/>
<path style="mix-blend-mode:color-dodge" d="M2369.39 1424.3C2372.89 1424.3 2375.73 1422.26 2375.73 1419.74C2375.73 1417.22 2372.89 1415.17 2369.39 1415.17C2365.89 1415.17 2363.05 1417.22 2363.05 1419.74C2363.05 1422.26 2365.89 1424.3 2369.39 1424.3Z" fill="url(#paint30_radial)"/>
<path style="mix-blend-mode:color-dodge" d="M3053.06 1325.09C3056.56 1325.09 3059.4 1323.04 3059.4 1320.52C3059.4 1318 3056.56 1315.96 3053.06 1315.96C3049.56 1315.96 3046.72 1318 3046.72 1320.52C3046.72 1323.04 3049.56 1325.09 3053.06 1325.09Z" fill="url(#paint31_radial)"/>
<path style="mix-blend-mode:color-dodge" d="M3118.02 1513.9C3121.52 1513.9 3124.36 1511.85 3124.36 1509.33C3124.36 1506.81 3121.52 1504.77 3118.02 1504.77C3114.52 1504.77 3111.68 1506.81 3111.68 1509.33C3111.68 1511.85 3114.52 1513.9 3118.02 1513.9Z" fill="url(#paint32_radial)"/>
<path style="mix-blend-mode:color-dodge" d="M2196.83 1430.65C2200.33 1430.65 2203.17 1428.61 2203.17 1426.09C2203.17 1423.57 2200.33 1421.52 2196.83 1421.52C2193.33 1421.52 2190.49 1423.57 2190.49 1426.09C2190.49 1428.61 2193.33 1430.65 2196.83 1430.65Z" fill="url(#paint33_radial)"/>
<path style="mix-blend-mode:color-dodge" d="M1696.57 1492.48C1700.07 1492.48 1702.91 1490.43 1702.91 1487.91C1702.91 1485.39 1700.07 1483.35 1696.57 1483.35C1693.07 1483.35 1690.23 1485.39 1690.23 1487.91C1690.23 1490.43 1693.07 1492.48 1696.57 1492.48Z" fill="url(#paint34_radial)"/>
<path style="mix-blend-mode:color-dodge" d="M3341.21 1077.1C3349.47 1077.1 3356.17 1072.28 3356.17 1066.33C3356.17 1060.38 3349.47 1055.55 3341.21 1055.55C3332.94 1055.55 3326.24 1060.38 3326.24 1066.33C3326.24 1072.28 3332.94 1077.1 3341.21 1077.1Z" fill="url(#paint35_radial)"/>
<path style="mix-blend-mode:color-dodge" d="M2492.52 999.097C2500.79 999.097 2507.49 994.273 2507.49 988.321C2507.49 982.37 2500.79 977.545 2492.52 977.545C2484.26 977.545 2477.55 982.37 2477.55 988.321C2477.55 994.273 2484.26 999.097 2492.52 999.097Z" fill="url(#paint36_radial)"/>
<path style="mix-blend-mode:color-dodge" d="M2955.83 591.373C2964.09 591.373 2970.79 586.548 2970.79 580.597C2970.79 574.645 2964.09 569.82 2955.83 569.82C2947.56 569.82 2940.86 574.645 2940.86 580.597C2940.86 586.548 2947.56 591.373 2955.83 591.373Z" fill="url(#paint37_radial)"/>
<path style="mix-blend-mode:color-dodge" d="M3836.04 830.794C3844.31 830.794 3851.01 825.969 3851.01 820.018C3851.01 814.066 3844.31 809.241 3836.04 809.241C3827.78 809.241 3821.08 814.066 3821.08 820.018C3821.08 825.969 3827.78 830.794 3836.04 830.794Z" fill="url(#paint38_radial)"/>
<path style="mix-blend-mode:color-dodge" d="M3517.89 1468.49C3521.39 1468.49 3524.23 1466.45 3524.23 1463.93C3524.23 1461.41 3521.39 1459.37 3517.89 1459.37C3514.39 1459.37 3511.55 1461.41 3511.55 1463.93C3511.55 1466.45 3514.39 1468.49 3517.89 1468.49Z" fill="url(#paint39_radial)"/>
<path style="mix-blend-mode:color-dodge" d="M3631.95 1603.53C3635.45 1603.53 3638.29 1601.49 3638.29 1598.96C3638.29 1596.44 3635.45 1594.4 3631.95 1594.4C3628.45 1594.4 3625.61 1596.44 3625.61 1598.96C3625.61 1601.49 3628.45 1603.53 3631.95 1603.53Z" fill="url(#paint40_radial)"/>
<path style="mix-blend-mode:color-dodge" d="M4091.23 1096.87C4094.73 1096.87 4097.57 1094.82 4097.57 1092.3C4097.57 1089.78 4094.73 1087.74 4091.23 1087.74C4087.73 1087.74 4084.89 1089.78 4084.89 1092.3C4084.89 1094.82 4087.73 1096.87 4091.23 1096.87Z" fill="url(#paint41_radial)"/>
<path style="mix-blend-mode:color-dodge" d="M3692.26 1114.81C3695.76 1114.81 3698.6 1112.77 3698.6 1110.25C3698.6 1107.73 3695.76 1105.68 3692.26 1105.68C3688.76 1105.68 3685.92 1107.73 3685.92 1110.25C3685.92 1112.77 3688.76 1114.81 3692.26 1114.81Z" fill="url(#paint42_radial)"/>
<path style="mix-blend-mode:color-dodge" d="M2663.3 1484.4C2666.8 1484.4 2669.64 1482.35 2669.64 1479.83C2669.64 1477.31 2666.8 1475.27 2663.3 1475.27C2659.8 1475.27 2656.96 1477.31 2656.96 1479.83C2656.96 1482.35 2659.8 1484.4 2663.3 1484.4Z" fill="url(#paint43_radial)"/>
<path style="mix-blend-mode:color-dodge" d="M2471.41 1164.07C2474.91 1164.07 2477.75 1162.02 2477.75 1159.5C2477.75 1156.98 2474.91 1154.94 2471.41 1154.94C2467.91 1154.94 2465.07 1156.98 2465.07 1159.5C2465.07 1162.02 2467.91 1164.07 2471.41 1164.07Z" fill="url(#paint44_radial)"/>
<path d="M2824.67 1316.15C2825.75 1316.15 2826.62 1315.52 2826.62 1314.74C2826.62 1313.96 2825.75 1313.33 2824.67 1313.33C2823.59 1313.33 2822.71 1313.96 2822.71 1314.74C2822.71 1315.52 2823.59 1316.15 2824.67 1316.15Z" fill="white"/>
<path d="M3098.89 825.718C3099.97 825.718 3100.84 825.087 3100.84 824.31C3100.84 823.532 3099.97 822.901 3098.89 822.901C3097.81 822.901 3096.93 823.532 3096.93 824.31C3096.93 825.087 3097.81 825.718 3098.89 825.718Z" fill="white"/>
<path d="M3818.83 1530.34C3819.91 1530.34 3820.79 1529.71 3820.79 1528.93C3820.79 1528.15 3819.91 1527.52 3818.83 1527.52C3817.75 1527.52 3816.88 1528.15 3816.88 1528.93C3816.88 1529.71 3817.75 1530.34 3818.83 1530.34Z" fill="white"/>
<path d="M4236.53 1434.92C4237.61 1434.92 4238.48 1434.29 4238.48 1433.51C4238.48 1432.74 4237.61 1432.11 4236.53 1432.11C4235.45 1432.11 4234.57 1432.74 4234.57 1433.51C4234.57 1434.29 4235.45 1434.92 4236.53 1434.92Z" fill="white"/>
<path d="M2838.29 1002.02C2839.37 1002.02 2840.25 1001.38 2840.25 1000.61C2840.25 999.83 2839.37 999.199 2838.29 999.199C2837.21 999.199 2836.34 999.83 2836.34 1000.61C2836.34 1001.38 2837.21 1002.02 2838.29 1002.02Z" fill="white"/>
<path d="M3573.37 899.173C3574.45 899.173 3575.32 898.543 3575.32 897.765C3575.32 896.988 3574.45 896.357 3573.37 896.357C3572.29 896.357 3571.41 896.988 3571.41 897.765C3571.41 898.543 3572.29 899.173 3573.37 899.173Z" fill="white"/>
<path d="M3356.32 641.198C3359.23 641.198 3361.6 639.496 3361.6 637.397C3361.6 635.298 3359.23 633.597 3356.32 633.597C3353.4 633.597 3351.04 635.298 3351.04 637.397C3351.04 639.496 3353.4 641.198 3356.32 641.198Z" fill="white"/>
<path d="M2539.26 449.225C2542.17 449.225 2544.54 447.523 2544.54 445.424C2544.54 443.326 2542.17 441.624 2539.26 441.624C2536.34 441.624 2533.98 443.326 2533.98 445.424C2533.98 447.523 2536.34 449.225 2539.26 449.225Z" fill="white"/>
<path d="M2293.55 1134.23C2294.63 1134.23 2295.5 1133.6 2295.5 1132.82C2295.5 1132.05 2294.63 1131.42 2293.55 1131.42C2292.47 1131.42 2291.59 1132.05 2291.59 1132.82C2291.59 1133.6 2292.47 1134.23 2293.55 1134.23Z" fill="white"/>
<path d="M2387.68 883.271C2388.76 883.271 2389.63 882.641 2389.63 881.863C2389.63 881.086 2388.76 880.455 2387.68 880.455C2386.6 880.455 2385.72 881.086 2385.72 881.863C2385.72 882.641 2386.6 883.271 2387.68 883.271Z" fill="white"/>
<path d="M2019.15 1240.57C2020.23 1240.57 2021.11 1239.94 2021.11 1239.16C2021.11 1238.38 2020.23 1237.75 2019.15 1237.75C2018.07 1237.75 2017.2 1238.38 2017.2 1239.16C2017.2 1239.94 2018.07 1240.57 2019.15 1240.57Z" fill="white"/>
<path d="M1964.67 987.88C1965.75 987.88 1966.62 987.249 1966.62 986.472C1966.62 985.694 1965.75 985.063 1964.67 985.063C1963.59 985.063 1962.71 985.694 1962.71 986.472C1962.71 987.249 1963.59 987.88 1964.67 987.88Z" fill="white"/>
<path style="mix-blend-mode:color-dodge" d="M3549.96 1672.43C3556.03 1668.06 3556.03 1660.97 3549.96 1656.6C3543.89 1652.23 3534.05 1652.23 3527.98 1656.6C3521.91 1660.97 3521.91 1668.06 3527.98 1672.43C3534.05 1676.8 3543.89 1676.8 3549.96 1672.43Z" fill="url(#paint45_radial)"/>
<path style="mix-blend-mode:color-dodge" d="M3488.56 1672.43C3494.63 1668.06 3494.63 1660.97 3488.56 1656.6C3482.49 1652.23 3472.64 1652.23 3466.57 1656.6C3460.5 1660.97 3460.5 1668.06 3466.57 1672.43C3472.64 1676.8 3482.49 1676.8 3488.56 1672.43Z" fill="url(#paint46_radial)"/>
<path style="mix-blend-mode:color-dodge" d="M4076.33 1672.43C4082.4 1668.06 4082.4 1660.97 4076.33 1656.6C4070.26 1652.23 4060.42 1652.23 4054.35 1656.6C4048.28 1660.97 4048.28 1668.06 4054.35 1672.43C4060.42 1676.8 4070.26 1676.8 4076.33 1672.43Z" fill="url(#paint47_radial)"/>
<path style="mix-blend-mode:color-dodge" d="M3842.56 1672.43C3848.63 1668.06 3848.63 1660.97 3842.56 1656.6C3836.49 1652.23 3826.65 1652.23 3820.58 1656.6C3814.51 1660.97 3814.51 1668.06 3820.58 1672.43C3826.65 1676.8 3836.49 1676.8 3842.56 1672.43Z" fill="url(#paint48_radial)"/>
<path style="mix-blend-mode:color-dodge" d="M4101.27 1607.2C4107.34 1602.83 4107.34 1595.74 4101.27 1591.37C4095.2 1587 4085.36 1587 4079.28 1591.37C4073.21 1595.74 4073.21 1602.83 4079.28 1607.2C4085.35 1611.57 4095.2 1611.57 4101.27 1607.2Z" fill="url(#paint49_radial)"/>
<path style="mix-blend-mode:color-dodge" d="M2943.26 1659.85C2945.02 1658.58 2945.02 1656.53 2943.26 1655.26C2941.5 1654 2938.65 1654 2936.9 1655.26C2935.14 1656.53 2935.14 1658.58 2936.9 1659.85C2938.65 1661.11 2941.5 1661.11 2943.26 1659.85Z" fill="url(#paint50_radial)"/>
<path style="mix-blend-mode:color-dodge" d="M3896.76 1633.7C3898.51 1632.44 3898.51 1630.38 3896.76 1629.12C3895 1627.85 3892.15 1627.85 3890.39 1629.12C3888.64 1630.38 3888.64 1632.44 3890.39 1633.7C3892.15 1634.97 3895 1634.97 3896.76 1633.7Z" fill="url(#paint51_radial)"/>
<path style="mix-blend-mode:color-dodge" d="M3921.69 1660.21C3923.44 1658.94 3923.44 1656.89 3921.69 1655.62C3919.93 1654.36 3917.08 1654.36 3915.32 1655.62C3913.57 1656.89 3913.57 1658.94 3915.32 1660.21C3917.08 1661.47 3919.93 1661.47 3921.69 1660.21Z" fill="url(#paint52_radial)"/>
<path style="mix-blend-mode:color-dodge" d="M2174.65 1671.33C2176.4 1670.07 2176.4 1668.01 2174.65 1666.75C2172.89 1665.48 2170.04 1665.48 2168.28 1666.75C2166.53 1668.01 2166.53 1670.07 2168.28 1671.33C2170.04 1672.6 2172.89 1672.6 2174.65 1671.33Z" fill="url(#paint53_radial)"/>
<path style="mix-blend-mode:color-dodge" d="M1436.03 1666.83C1437.79 1665.57 1437.79 1663.52 1436.03 1662.25C1434.28 1660.99 1431.43 1660.99 1429.67 1662.25C1427.91 1663.52 1427.91 1665.57 1429.67 1666.83C1431.43 1668.1 1434.28 1668.1 1436.03 1666.83Z" fill="url(#paint54_radial)"/>
<path style="mix-blend-mode:color-dodge" d="M2320.47 1663.74C2322.22 1662.47 2322.22 1660.42 2320.47 1659.16C2318.71 1657.89 2315.86 1657.89 2314.1 1659.16C2312.35 1660.42 2312.35 1662.47 2314.1 1663.74C2315.86 1665 2318.71 1665 2320.47 1663.74Z" fill="url(#paint55_radial)"/>
<path style="mix-blend-mode:color-dodge" d="M2006.59 1670.09C2008.35 1668.82 2008.35 1666.77 2006.59 1665.5C2004.84 1664.24 2001.99 1664.24 2000.23 1665.5C1998.47 1666.77 1998.47 1668.82 2000.23 1670.09C2001.99 1671.35 2004.84 1671.35 2006.59 1670.09Z" fill="url(#paint56_radial)"/>
<path style="mix-blend-mode:color-dodge" d="M2440.94 1662.19C2442.7 1660.93 2442.7 1658.88 2440.94 1657.61C2439.18 1656.35 2436.33 1656.35 2434.58 1657.61C2432.82 1658.88 2432.82 1660.93 2434.58 1662.19C2436.33 1663.46 2439.18 1663.46 2440.94 1662.19Z" fill="url(#paint57_radial)"/>
<path style="mix-blend-mode:color-dodge" d="M2018.62 1703.54C2020.38 1702.28 2020.38 1700.23 2018.62 1698.96C2016.87 1697.7 2014.02 1697.69 2012.26 1698.96C2010.5 1700.23 2010.5 1702.28 2012.26 1703.54C2014.02 1704.81 2016.87 1704.81 2018.62 1703.54Z" fill="url(#paint58_radial)"/>
<path style="mix-blend-mode:color-dodge" d="M2436.43 1685.83C2438.18 1684.56 2438.18 1682.51 2436.43 1681.24C2434.67 1679.98 2431.82 1679.98 2430.06 1681.24C2428.31 1682.51 2428.31 1684.56 2430.06 1685.83C2431.82 1687.09 2434.67 1687.09 2436.43 1685.83Z" fill="url(#paint59_radial)"/>
<path style="mix-blend-mode:color-dodge" d="M2996.29 1680.1C2998.05 1678.83 2998.05 1676.78 2996.29 1675.51C2994.54 1674.25 2991.69 1674.25 2989.93 1675.51C2988.17 1676.78 2988.17 1678.83 2989.93 1680.09C2991.69 1681.36 2994.54 1681.36 2996.29 1680.1Z" fill="url(#paint60_radial)"/>
<path style="mix-blend-mode:color-dodge" d="M1374.47 1675.39C1376.23 1674.12 1376.23 1672.07 1374.47 1670.81C1372.71 1669.54 1369.86 1669.54 1368.11 1670.81C1366.35 1672.07 1366.35 1674.12 1368.11 1675.39C1369.86 1676.66 1372.71 1676.65 1374.47 1675.39Z" fill="url(#paint61_radial)"/>
<path style="mix-blend-mode:color-dodge" d="M3641.73 1671.55C3646.03 1668.46 3646.03 1663.44 3641.73 1660.35C3637.44 1657.26 3630.48 1657.26 3626.19 1660.35C3621.9 1663.44 3621.9 1668.46 3626.19 1671.55C3630.48 1674.64 3637.44 1674.64 3641.73 1671.55Z" fill="url(#paint62_radial)"/>
<path style="mix-blend-mode:color-dodge" d="M4122.89 1660.8C4127.18 1657.71 4127.18 1652.69 4122.89 1649.6C4118.6 1646.51 4111.64 1646.51 4107.35 1649.6C4103.05 1652.69 4103.05 1657.71 4107.35 1660.8C4111.64 1663.89 4118.6 1663.89 4122.89 1660.8Z" fill="url(#paint63_radial)"/>
<path style="mix-blend-mode:color-dodge" d="M3581.1 1671.55C3585.39 1668.45 3585.39 1663.44 3581.1 1660.35C3576.81 1657.26 3569.85 1657.26 3565.56 1660.35C3561.26 1663.44 3561.26 1668.46 3565.56 1671.55C3569.85 1674.64 3576.81 1674.64 3581.1 1671.55Z" fill="url(#paint64_radial)"/>
<path style="mix-blend-mode:color-dodge" d="M2885.9 1672.43C2890.19 1669.34 2890.19 1664.33 2885.9 1661.24C2881.61 1658.15 2874.65 1658.15 2870.36 1661.24C2866.07 1664.33 2866.07 1669.34 2870.36 1672.43C2874.65 1675.52 2881.61 1675.52 2885.9 1672.43Z" fill="url(#paint65_radial)"/>
<path style="mix-blend-mode:color-dodge" d="M2660.06 1678.39C2664.35 1675.3 2664.35 1670.29 2660.06 1667.2C2655.77 1664.11 2648.81 1664.11 2644.52 1667.2C2640.23 1670.29 2640.23 1675.3 2644.52 1678.39C2648.81 1681.48 2655.77 1681.48 2660.06 1678.39Z" fill="url(#paint66_radial)"/>
<path style="mix-blend-mode:color-dodge" d="M1707.59 1677.43C1711.88 1674.34 1711.88 1669.33 1707.59 1666.24C1703.3 1663.15 1696.34 1663.15 1692.05 1666.24C1687.75 1669.33 1687.75 1674.34 1692.05 1677.43C1696.34 1680.52 1703.3 1680.52 1707.59 1677.43Z" fill="url(#paint67_radial)"/>
<path style="mix-blend-mode:color-dodge" d="M1649.52 1685.31C1653.82 1682.22 1653.82 1677.21 1649.52 1674.12C1645.23 1671.03 1638.27 1671.03 1633.98 1674.12C1629.69 1677.21 1629.69 1682.22 1633.98 1685.31C1638.27 1688.4 1645.23 1688.4 1649.52 1685.31Z" fill="url(#paint68_radial)"/>
<path style="mix-blend-mode:color-dodge" d="M3083.08 1658.15C3087.37 1655.05 3087.37 1650.04 3083.08 1646.95C3078.79 1643.86 3071.83 1643.86 3067.53 1646.95C3063.24 1650.04 3063.24 1655.05 3067.53 1658.15C3071.83 1661.24 3078.79 1661.24 3083.08 1658.15Z" fill="url(#paint69_radial)"/>
<path style="mix-blend-mode:color-dodge" d="M2384.45 1679.35C2388.74 1676.26 2388.74 1671.25 2384.45 1668.16C2380.16 1665.07 2373.2 1665.07 2368.91 1668.16C2364.61 1671.25 2364.61 1676.26 2368.9 1679.35C2373.2 1682.44 2380.16 1682.44 2384.45 1679.35Z" fill="url(#paint70_radial)"/>
<path style="mix-blend-mode:color-dodge" d="M2285.15 1676.4C2289.44 1673.31 2289.44 1668.3 2285.15 1665.21C2280.86 1662.12 2273.9 1662.12 2269.61 1665.21C2265.32 1668.3 2265.32 1673.31 2269.61 1676.4C2273.9 1679.49 2280.86 1679.49 2285.15 1676.4Z" fill="url(#paint71_radial)"/>
<path style="mix-blend-mode:color-dodge" d="M2700.87 1669.19C2705.16 1666.1 2705.16 1661.09 2700.87 1658C2696.58 1654.91 2689.62 1654.91 2685.32 1658C2681.03 1661.09 2681.03 1666.1 2685.32 1669.19C2689.62 1672.28 2696.58 1672.28 2700.87 1669.19Z" fill="url(#paint72_radial)"/>
<path style="mix-blend-mode:color-dodge" d="M1340.04 1680.67C1344.33 1677.58 1344.33 1672.57 1340.04 1669.48C1335.75 1666.39 1328.79 1666.39 1324.49 1669.48C1320.2 1672.57 1320.2 1677.58 1324.49 1680.67C1328.79 1683.77 1335.75 1683.77 1340.04 1680.67Z" fill="url(#paint73_radial)"/>
<path style="mix-blend-mode:color-dodge" d="M1776.17 1682.73C1780.46 1679.64 1780.46 1674.63 1776.17 1671.54C1771.88 1668.45 1764.92 1668.45 1760.63 1671.54C1756.34 1674.63 1756.34 1679.64 1760.63 1682.73C1764.92 1685.82 1771.88 1685.82 1776.17 1682.73Z" fill="url(#paint74_radial)"/>
<path style="mix-blend-mode:color-dodge" d="M2040.12 1726.3C2080.5 1726.3 2113.24 1702.73 2113.24 1673.65C2113.24 1644.57 2080.5 1621 2040.12 1621C1999.74 1621 1967 1644.57 1967 1673.65C1967 1702.73 1999.74 1726.3 2040.12 1726.3Z" fill="url(#paint75_radial)"/>
<path d="M2042.94 1844.71H2038.93L2037.76 1679.01H2043.7L2042.94 1844.71Z" fill="#19001B"/>
<path d="M2040.75 1683.09C2046.96 1683.09 2051.99 1679.47 2051.99 1675C2051.99 1670.54 2046.96 1666.92 2040.75 1666.92C2034.55 1666.92 2029.52 1670.54 2029.52 1675C2029.52 1679.47 2034.55 1683.09 2040.75 1683.09Z" fill="white"/>
<path d="M3748.87 1446.79C3748.87 1446.79 3783.03 1428.14 3806.62 1423.46L3815.06 1425.25C3803.31 1427.59 3792.07 1431.09 3781.66 1435.67L3814.88 1428.39L3842.17 1456.44L3810.56 1466.74L3843.83 1458.59C3843.83 1458.59 3881.59 1498.37 3877.62 1546.55L3815.99 1519.3L3810.12 1495.01L3811.12 1519.13L3796.21 1516.13L3796.08 1485.78L3787.4 1513.92C3787.4 1513.92 3746.04 1488.51 3736.04 1476.89C3726.04 1465.27 3748.87 1446.79 3748.87 1446.79Z" fill="#19001B"/>
<path d="M3711.57 1453.8C3711.57 1453.8 3663.67 1467.72 3650.65 1477.09L3646.91 1482.92L3684.3 1474.5L3646.91 1488.6C3645.68 1502.98 3647.61 1517.4 3652.63 1531.35L3680.23 1521.03L3661.06 1537.02L3690.54 1577.72C3690.54 1577.72 3720.69 1555.51 3731.84 1547.49L3706.61 1515.76L3717.21 1500.99L3744.74 1535.16L3748.77 1531.35L3718.01 1494.7L3760.36 1521.48C3760.36 1521.48 3780.03 1503.79 3780.03 1494.7C3780.03 1485.61 3776.36 1456.41 3776.36 1456.41L3711.57 1453.8Z" fill="#19001B"/>
<path d="M3703 1865.46L3740.6 1671.13L3752.63 1543.5L3740.67 1426.18H3750.51L3768.26 1543.5L3732.02 1865.46H3703Z" fill="#19001B"/>
<path d="M3713.2 1812.71L3737.67 1815.22L3739.04 1803.08L3714.73 1804.8L3713.2 1812.71Z" fill="#19001B"/>
<path d="M3718.07 1787.48L3740.31 1791.67L3740.54 1789.57L3718.37 1785.92L3718.07 1787.48Z" fill="#19001B"/>
<path d="M3743.11 1766.94H3722.07L3724.84 1752.61H3744.72L3743.11 1766.94Z" fill="#19001B"/>
<path d="M3744.71 1749.59L3725.63 1748.47L3726.12 1745.96L3744.71 1747.77V1749.59Z" fill="#19001B"/>
<path d="M3749.31 1711.7L3731.87 1716.19V1713.94L3749.44 1710.57L3749.31 1711.7Z" fill="#19001B"/>
<path d="M3736.67 1691.41L3751.26 1694.41L3751.6 1691.41L3737.18 1688.73L3736.67 1691.41Z" fill="#19001B"/>
<path d="M3754.15 1668.77L3740.59 1671.13L3741.54 1661.14H3755.01L3754.15 1668.77Z" fill="#19001B"/>
<path d="M3743.22 1643.03L3756.58 1647.04V1645.82L3743.48 1640.33L3743.22 1643.03Z" fill="#19001B"/>
<path d="M3746.68 1606.46L3760.9 1608.73L3761.15 1606.46L3746.89 1604.25L3746.68 1606.46Z" fill="#19001B"/>
<path d="M3749.91 1577.72H3764.39V1581.38L3748.9 1582.94L3749.91 1577.72Z" fill="#19001B"/>
<path d="M3751.77 1552.46L3767.61 1549.1L3768.24 1543.5L3752.14 1548.53L3751.77 1552.46Z" fill="#19001B"/>
<path d="M3751.78 1533.29L3768.25 1543.51L3754.33 1451.48L3741.73 1448.81L3751.78 1533.29Z" fill="#19001B"/>
<path d="M3908.33 1530.8C3908.33 1530.8 3844.25 1511.82 3828.69 1504.49C3813.12 1497.17 3766.21 1454.82 3766.21 1454.82C3766.21 1454.82 3811.67 1446.21 3814.78 1446.21C3817.89 1446.21 3869.99 1460.26 3879.95 1474.9C3889.92 1489.55 3908.33 1530.8 3908.33 1530.8Z" fill="#19001B"/>
<path d="M3738.57 1429.39C3738.57 1429.39 3685.84 1428.78 3677.77 1428.78C3669.71 1428.78 3616.72 1449.04 3610.86 1450.18C3605.01 1451.32 3547.11 1463.92 3547.11 1463.92C3547.11 1463.92 3566.08 1429.51 3570.7 1426.18C3575.32 1422.86 3591.28 1417.52 3597.48 1414.26C3603.67 1411.01 3675.7 1408.72 3683.41 1414.26C3691.11 1419.81 3738.57 1429.39 3738.57 1429.39Z" fill="#19001B"/>
<path d="M3738.25 1426.18C3738.25 1426.18 3681.49 1400.17 3614.26 1409.14C3547.04 1418.11 3513 1476.69 3513 1476.69L3574.44 1461.9L3580.04 1423.11L3587.83 1418.41L3590.94 1458.09L3598.1 1455.62L3591.56 1417.73L3606.19 1454.28L3676.56 1434.1L3680.92 1415.04L3684.65 1431.18L3738.92 1432.77L3738.25 1426.18Z" fill="#280E2F"/>
<path d="M3744.75 1428.81L3765.03 1387.16L3777.04 1383.35L3762.8 1411.58L3783.64 1380.49C3783.64 1380.49 3855.04 1375.18 3886.23 1380.49C3908.66 1385.29 3929.63 1393.08 3948.05 1403.47C3948.05 1403.47 3921.79 1421.16 3902.51 1426.33L3838.38 1397.64L3888.5 1431.94L3883.12 1433.99L3827.6 1398.04L3818.18 1401.11L3852.21 1443.2C3852.21 1443.2 3815.63 1455.62 3783.64 1455.62C3760.46 1455.62 3744.75 1438.06 3744.75 1438.06V1428.81Z" fill="#19001B"/>
<path d="M3744.75 1428.81C3744.75 1428.81 3800.98 1399.14 3819.88 1393.42C3838.79 1387.7 3908.73 1393.42 3908.73 1393.42C3908.73 1393.42 3845.5 1390.08 3823.57 1395.39C3801.63 1400.7 3744.75 1431.73 3744.75 1431.73V1428.81Z" fill="#19001B"/>
<path d="M3797.9 1454.89L3784.63 1411.31L3787.11 1407.46L3799.88 1454.7L3797.9 1454.89Z" fill="#19001B"/>
<path d="M3824.38 1450.67L3797.82 1405.17L3800.97 1403.77L3826.76 1450.14L3824.38 1450.67Z" fill="#19001B"/>
<path d="M3865.26 1378.13L3838.39 1391.13L3851.82 1390.88L3878.24 1379.43L3865.26 1378.13Z" fill="#19001B"/>
<path d="M3915.1 1421.95L3870.53 1392.39L3872.61 1391.32L3916.93 1421.07L3915.1 1421.95Z" fill="#19001B"/>
<path d="M3812.27 1378.9V1399.09L3813.99 1395.48V1378.82L3812.27 1378.9Z" fill="#19001B"/>
<path d="M3638.22 1445.1L3606.26 1410.48L3607.35 1410.26L3639.93 1444.6L3638.22 1445.1Z" fill="#19001B"/>
<path d="M3646.74 1442.65L3628.09 1407.76L3630.47 1407.26L3649.08 1441.98L3646.74 1442.65Z" fill="#19001B"/>
<path d="M3557.4 1466L3547.11 1438.75L3549.37 1436.97L3559.63 1465.47L3557.4 1466Z" fill="#19001B"/>
<path d="M3701.31 1414.26L3707.99 1431.86H3713.32L3704.42 1414.26H3701.31Z" fill="#19001B"/>
<path d="M3744.76 1426.18C3744.76 1426.18 3827.67 1439.33 3860.88 1455.62C3894.09 1471.91 3933.83 1538.57 3933.83 1538.57C3933.83 1538.57 3882.05 1531.62 3867.1 1526.46L3874.27 1471.31L3859.01 1462.12L3832.86 1512.79L3829.12 1509.87L3853.72 1461.45L3818.9 1504.49C3818.9 1504.49 3795.55 1489.81 3785.22 1482.37L3796.91 1459.43L3780.86 1476.69C3780.86 1476.69 3753.67 1461.47 3748.58 1451.48C3745.44 1444.35 3744.14 1436.86 3744.76 1429.39V1426.18Z" fill="#280E2F"/>
<path d="M3899.01 1533.29L3888.55 1477.8L3891.19 1480.63L3903.43 1533.29H3899.01Z" fill="#19001B"/>
<path d="M3834.79 1446.21L3794.14 1488.5L3796.92 1490.34L3835.73 1446.21H3834.79Z" fill="#19001B"/>
<path d="M3758.12 1461.59L3811.79 1439.7L3809.36 1439.1L3755.63 1459.51L3758.12 1461.59Z" fill="#19001B"/>
<g style="mix-blend-mode:multiply" opacity="0.61">
<path d="M3788.53 1434.41L3753.04 1457.12L3741.73 1448.8L3744.75 1426.18L3788.53 1434.41Z" fill="#424517"/>
</g>
<path d="M3707.6 1407.93L3632.53 1389.71L3627.24 1394.37L3680.6 1411.29V1418.47L3619.59 1407.57V1447.13H3656.01L3623.71 1454L3676.78 1525.12L3713.11 1488.47L3692.26 1470.78L3720.63 1483.61L3753.52 1440.47L3728.85 1431.3L3760.57 1435.71L3786.42 1410.44L3707.6 1407.93Z" fill="#280E2F"/>
<path d="M3702.45 1406.68C3702.45 1406.68 3670.13 1435.71 3670.13 1488.47C3670.13 1488.47 3680.11 1429.61 3705.23 1407.35L3702.45 1406.68Z" fill="#19001B"/>
<path d="M3746.56 1449.62L3685.4 1437.27L3681.68 1440.89L3743.36 1453.8L3746.56 1449.62Z" fill="#19001B"/>
<path d="M3766.24 1430.17L3695.81 1418.21L3694.71 1419.84L3764.7 1431.67L3766.24 1430.17Z" fill="#19001B"/>
<path d="M3694.7 1507.03L3676.98 1460.3L3672.62 1463.56L3692.26 1509.5L3694.7 1507.03Z" fill="#19001B"/>
<path d="M3619.59 1431.29L3683.67 1432.5L3690.38 1424.82L3619.59 1421.11V1431.29Z" fill="#19001B"/>
<path d="M3708.93 1834.87L3735.37 1835.84L3735.64 1838.07L3708.62 1836.47L3708.93 1834.87Z" fill="#19001B"/>
<g style="mix-blend-mode:soft-light">
<path d="M3713.33 1865.46L3740.67 1688.51L3755.64 1545.72L3751.79 1534.8L3752.63 1543.51L3740.6 1671.13L3703 1865.46H3713.33Z" fill="#E5C266"/>
</g>
<path d="M3664.55 1871.8L3674.75 1732.31L3601.43 1275.62L3615.24 1270.35L3705.42 1730.65L3700.75 1869.81L3664.55 1871.8Z" fill="#19001B"/>
<g style="mix-blend-mode:multiply" opacity="0.62">
<path d="M3623.6 1413.74L3646.88 1431.8L3623.4 1311.04L3607.25 1311.92L3623.6 1413.74Z" fill="#40132D"/>
</g>
<path d="M3556.48 1242.15L3563.09 1223.38L3606.71 1237.2L3567.7 1218.64L3575.54 1212L3624.43 1229.53L3706.06 1220.99L3713.68 1245.99L3610.86 1276.41L3556.48 1242.15Z" fill="#19001B"/>
<path d="M3620.53 1282.51C3620.53 1282.51 3658.79 1258.11 3686.25 1251.01L3696.51 1252.58C3682.83 1256.13 3669.91 1261.03 3658.11 1267.14L3696.68 1256.33L3732.66 1287.89L3696.38 1302.19L3734.9 1290.34C3734.9 1290.34 3784.8 1335.15 3786.14 1392.69L3709.45 1364.32L3699.41 1335.83L3703.64 1364.43L3685.54 1361.84L3681.56 1325.77L3674.79 1359.79C3674.79 1359.79 3622.42 1332.29 3609.07 1319.12C3595.72 1305.96 3620.53 1282.51 3620.53 1282.51Z" fill="#19001B"/>
<path d="M3580.65 1260.15C3580.65 1260.15 3484.91 1279.37 3461.42 1291.37L3501.83 1317.97L3495.52 1324.77L3446.27 1307.15L3442.02 1311.42L3490.69 1326.62L3438.52 1315.75C3438.52 1315.75 3440.63 1337.83 3443.5 1364.89C3446.57 1393.86 3449.37 1420.36 3449.37 1420.36C3449.37 1420.36 3497.24 1389.1 3519.21 1376.86L3502.03 1347.79L3527.58 1375.36C3539.13 1368.43 3549.98 1360.92 3560.05 1352.89C3573.03 1342 3580.65 1260.15 3580.65 1260.15Z" fill="#19001B"/>
<path d="M3559.15 1267.25C3559.15 1267.25 3478.94 1283.65 3454.91 1284.97C3430.87 1286.29 3345.43 1277.6 3345.43 1277.6C3345.43 1277.6 3432.26 1240.08 3452.96 1238.94C3473.66 1237.81 3559.15 1267.25 3559.15 1267.25Z" fill="#19001B"/>
<path d="M3613.94 1262.86C3613.94 1262.86 3542.73 1232.53 3501.28 1230.93C3437.16 1228.45 3270 1270.35 3270 1270.35C3270 1270.35 3335.11 1281.92 3363.55 1286.04L3429.78 1253.98L3374.79 1285.43L3385.81 1287.79L3446.73 1253.05L3398.12 1287.12C3398.12 1287.12 3450.25 1291.38 3481.02 1292.14C3496.1 1292.96 3511.26 1292.13 3525.99 1289.7L3524.61 1256.37L3536.79 1289.08C3536.79 1289.08 3599.48 1269.42 3613.94 1262.86Z" fill="#280E2F"/>
<path d="M3636.48 1278.3L3690.08 1281.82C3690.08 1281.82 3815.81 1303.08 3848.94 1304.11C3882.07 1305.13 3951 1298.51 3951 1298.51C3951 1298.51 3838.4 1245.25 3780.76 1243.24C3723.12 1241.24 3634.99 1264.16 3634.99 1264.16L3636.32 1276.76L3636.48 1278.3Z" fill="#19001B"/>
<path d="M3613.6 1259.65C3665.6 1247.58 3720.03 1241.83 3774.66 1242.65C3874.37 1244.3 3990.58 1299.17 3990.58 1299.17C3990.58 1299.17 3926.79 1302.68 3892.34 1304.57L3835.67 1307.68L3820.21 1256.58L3818.6 1307.98L3804.94 1306.37L3812.62 1256.05L3789.41 1303.71L3673.33 1281.87L3688.56 1262.04L3665.35 1281.22L3615.95 1281.84L3613.6 1259.65Z" fill="#280E2F"/>
<path d="M3617.91 1259.11C3617.91 1259.11 3566.81 1258.45 3539.53 1265.89L3533.15 1271.89C3546.74 1268.18 3560.99 1265.86 3575.48 1265L3536.4 1274.81L3537.51 1315.63L3578 1309.55L3538.01 1318.55C3538.01 1318.55 3540.5 1375.96 3591.38 1420.33L3624.1 1362.89L3606.04 1336.54L3628.62 1360.27L3640.05 1349.83L3610.53 1320.54L3646.37 1343.24C3646.37 1343.24 3661.38 1297.84 3659.66 1281.59C3657.94 1265.33 3617.91 1259.11 3617.91 1259.11Z" fill="#280E2F"/>
<path d="M3613.6 1259.65C3613.6 1259.65 3565.83 1310.6 3591.39 1420.33L3610.63 1386.55L3586.35 1368.22L3586.31 1349.3L3616.4 1376.42L3624.73 1364.74L3589.63 1336.43C3589.63 1336.43 3597.8 1278.35 3613.6 1259.65Z" fill="#19001B"/>
<path d="M3603.29 1279.25L3659.66 1281.58L3660.16 1286.3L3602.73 1280.79L3603.29 1279.25Z" fill="#19001B"/>
<path d="M3766.71 1242.56L3718.39 1290.35L3726.05 1291.79L3769.36 1242.42L3766.71 1242.56Z" fill="#19001B"/>
<path d="M3783.01 1242.91L3764.14 1298.96L3767.94 1299.67L3785.74 1243.04L3783.01 1242.91Z" fill="#19001B"/>
<path d="M3874.56 1257.95L3892.33 1304.57L3901.14 1304.09L3877.18 1258.63L3874.56 1257.95Z" fill="#19001B"/>
<path d="M3455.54 1291.06L3501.28 1230.93L3503.73 1230.8L3461.4 1291.37L3455.54 1291.06Z" fill="#19001B"/>
<path d="M3321.64 1279.3L3398.36 1242.6L3403.62 1241.65L3326.11 1280.05L3321.64 1279.3Z" fill="#19001B"/>
<path d="M3510.68 1231.72L3479.41 1292.23L3482.93 1292.03L3512.38 1231.92L3510.68 1231.72Z" fill="#19001B"/>
<path d="M3620.08 1227.97L3612.67 1251.02L3624.43 1229.53L3620.08 1227.97Z" fill="#19001B"/>
<path d="M3627.69 1439.22L3647.04 1434.17L3648.11 1438.1L3627.96 1440.91L3627.69 1439.22Z" fill="#19001B"/>
<path d="M3632.89 1471.68L3654.08 1468.67L3654.44 1470.5L3633.03 1472.5L3632.89 1471.68Z" fill="#19001B"/>
<path d="M3636.36 1493.41L3658.67 1492.18L3658.87 1493.21L3637.13 1494.4L3636.36 1493.41Z" fill="#19001B"/>
<path d="M3636.66 1495.92L3659.39 1495.7L3661.18 1504.85L3638.52 1506.61L3636.66 1495.92Z" fill="#19001B"/>
<path d="M3663.38 1516.17L3641.06 1522.58L3641.21 1523.47L3663.65 1517.53L3663.38 1516.17Z" fill="#19001B"/>
<path d="M3668.85 1543.99L3645.14 1547.86L3645.34 1549.13L3669.22 1545.9L3668.85 1543.99Z" fill="#19001B"/>
<path d="M3675.37 1577.28L3649.43 1574.62L3651.58 1587.93L3677.59 1588.61L3675.37 1577.28Z" fill="#19001B"/>
<path d="M3681.68 1609.44L3655.76 1614L3655.92 1615.02L3681.9 1611.51L3681.68 1609.44Z" fill="#19001B"/>
<path d="M3686.6 1634.63L3659.63 1638.18L3660.05 1640.76L3687.5 1639.25L3686.6 1634.63Z" fill="#19001B"/>
<path d="M3691.85 1661.39L3663.61 1662.93L3663.97 1665.11L3692.15 1664.24L3691.85 1661.39Z" fill="#19001B"/>
<path d="M3696.95 1687.53L3669.01 1696.66L3669.71 1703.33L3700.22 1704.27L3696.95 1687.53Z" fill="#19001B"/>
<path d="M3706.43 1740.29L3673.95 1743.2L3673.35 1751.4L3704.72 1751.27L3706.43 1740.29Z" fill="#19001B"/>
<path d="M3703.65 1782.36L3670.93 1784.16L3670.47 1790.41L3703.28 1793.27L3703.65 1782.36Z" fill="#19001B"/>
<path d="M3703.07 1800.62L3669.48 1804.33L3669.65 1805.95L3702.95 1804.12L3703.07 1800.62Z" fill="#19001B"/>
<g opacity="0.4">
<path d="M1902.34 103.54L1843.66 73.3489L1894.73 83.662L1825.05 57.3492L1887.11 63.7812L1825.25 -29.4586L1741.31 -55.0424L1820.37 -42.1841L1787.29 -97.4378L1651.98 -160.092L1601.44 -68.3713L1639.01 -3.08701L1667.9 -15.4177L1641.31 31.3402L1650.45 55.1967L1703.51 25.0822L1679.39 91.9609L1694 106.458L1718.39 58.926L1702.4 126.301L1795.54 265.302L1815.18 246.654L1804.1 287.637L1823.03 315.489L1833.53 297.263L1838.44 336.627L1953.33 428.284L1967.52 294.423L1924.29 261.827L1968.98 277.494L1902.34 103.54Z" fill="#19001B"/>
<path d="M1650.67 -134.183L1953.23 428.285L1655.61 -138.044L1650.67 -134.183Z" fill="#19001B"/>
<path d="M1869.16 35.5055L1732.5 5.92064L1866.91 32.111L1869.16 35.5055Z" fill="#19001B"/>
<path d="M1925.06 163.727L1793.99 131.924L1800.15 136.699L1926.96 168.68L1925.06 163.727Z" fill="#19001B"/>
<path d="M1756.44 207.872L1813.58 169.255L1819.36 174.124L1759.43 212.321L1756.44 207.872Z" fill="#19001B"/>
<g style="mix-blend-mode:soft-light" opacity="0.31">
<path d="M1967.8 277.159L1849 231.08L1841.62 221.884L1958.52 252.941L1967.8 277.159Z" fill="white"/>
</g>
<g style="mix-blend-mode:soft-light" opacity="0.31">
<path d="M1855.57 351.77L1879.98 291.668L1882.54 299.575L1876.81 368.667L1855.57 351.77Z" fill="white"/>
</g>
</g>
<g opacity="0.4">
<path d="M1511.38 228.487L1556.29 202.738L1508.98 208.714L1567.22 187.963L1506.57 188.94L1522.23 98.5803L1595.55 79.8738L1520.69 85.9259L1526.29 32.0535L1648.05 6.61239L1718.27 64.3503L1727.8 142.651L1691.66 127.331L1743.18 177.877L1746.07 201.606L1675.84 165.787L1735.2 236.821L1727.62 250.417L1677.97 199.273L1729.2 270.081L1704.91 404.704L1675.06 383.725L1707.62 426.918L1702.47 453.868L1682.25 434.155L1697.49 474.227L1626.36 558.141L1542.67 419.057L1570.42 389.433L1532.43 401.496L1511.38 228.487Z" fill="#280E2F"/>
<path d="M1647.85 6.29463L1626.14 558.247L1640.75 1.86816L1647.85 6.29463Z" fill="#19001B"/>
<g style="mix-blend-mode:multiply" opacity="0.39">
<path d="M1512.45 161.877L1638 143.793L1513.02 158.583L1512.45 161.877Z" fill="#63733E"/>
</g>
<path d="M1518.91 288.741L1637.64 267.854L1633.74 272.215L1519.51 293.676L1518.91 288.741Z" fill="#19001B"/>
<path d="M1713.96 348.52L1635.85 303.915L1632.44 308.37L1713.19 352.8L1713.96 348.52Z" fill="#19001B"/>
<path d="M1531.86 401.654L1630.68 364.907L1633.54 356.086L1528.93 377.513L1531.86 401.654Z" fill="#19001B"/>
<g style="mix-blend-mode:soft-light" opacity="0.31">
<path d="M1725.61 118.129L1646.92 64.7277L1647.4 52.4092L1723.48 100.628L1725.61 118.129Z" fill="white"/>
</g>
<path d="M1684.12 487.851L1628.32 424.036L1629.76 431.912L1671.07 503.258L1684.12 487.851Z" fill="#19001B"/>
</g>
<g opacity="0.4">
<path d="M2046.67 105.966L1973.67 80.9091L2032.37 83.3318L1948.59 65.162L2018.07 60.6995L1922.54 -40.2811L1823.46 -54.7449L1913.39 -54.7656L1860.67 -115.314L1700.96 -132.96L1671.21 -61.0583L1727.84 28.5681L1755.55 7.88104L1740.76 69.9119L1757.92 97.0709L1806.56 50.0138L1800.54 135.986L1820.82 150.701L1832.98 88.1652L1835.96 173.135L1979.37 323.496L1995.1 296.971L1995.44 348.919L2024.47 378.994L2030.38 354.79L2047.63 401.612L2200.39 490.188L2175.34 324.846L2118.43 293.818L2171.81 304.003L2046.67 105.966Z" fill="#280E2F"/>
<path d="M1700.91 -132.769L2200.16 490.188L1705.12 -138.43L1700.91 -132.769Z" fill="#19001B"/>
<path d="M1990.31 30.2217L1832.29 21.2844L1986.83 26.5382L1990.31 30.2217Z" fill="#19001B"/>
<path d="M2089.94 174.609L1937.35 161.868L1945.52 166.454L2093.51 180.26L2089.94 174.609Z" fill="#19001B"/>
<path d="M1919.18 261.532L1969.84 203.257L1977.64 208.033L1923.79 266.353L1919.18 261.532Z" fill="#19001B"/>
<g style="mix-blend-mode:soft-light" opacity="0.31">
<path d="M2170.73 303.748L2027.24 271.217L2016.4 261.492L2153.28 276.13L2170.73 303.748Z" fill="white"/>
</g>
<g style="mix-blend-mode:soft-light" opacity="0.31">
<path d="M1712 1.71536L1755.68 -66.5804L1744.4 -80.6021L1699.2 -18.4694L1712 1.71536Z" fill="white"/>
</g>
<g style="mix-blend-mode:soft-light" opacity="0.31">
<path d="M2070.83 416.32L2079.16 338.554L2084.34 347.647L2099.02 432.646L2070.83 416.32Z" fill="white"/>
</g>
</g>
<g opacity="0.3">
<path d="M3721.79 113.622L3714.95 85.0838L3731.53 103.837L3717.06 73.5879L3741.27 94.0511L3774.96 40.5621L3753.46 6.45188L3781.2 34.2991L3802.8 3.6381L3782.39 -59.5098L3698.12 -39.2216L3671.89 -3.43899L3693.37 0.246221L3650.02 10.3484L3638.33 22.092L3682.75 26.0193L3627.14 44.5039L3624.2 54.2696L3667.04 43.2297L3614.84 64.2697L3565.04 144.274L3586.48 142.865L3554.1 155.268L3544.25 171.378L3561.2 167.478L3537.24 183.905L3528.96 252.179L3624.61 205.285L3626.46 180.313L3636.55 199.256L3721.79 113.622Z" fill="#19001B"/>
<path d="M3764.38 -49.873L3528.8 252.18L3769.21 -49.9112L3764.38 -49.873Z" fill="#19001B"/>
<path d="M3752.64 76.7791L3710.24 26.3953L3753.85 74.8537L3752.64 76.7791Z" fill="#19001B"/>
<path d="M3691.32 142.246L3653.02 92.6818L3652.68 96.2479L3688.93 144.657L3691.32 142.246Z" fill="#19001B"/>
<path d="M3584.69 111.725L3636.88 113.593L3636.29 117.165L3583.09 114.317L3584.69 111.725Z" fill="#19001B"/>
<path d="M3634.49 198.019L3611.1 146.628L3613.78 141.053L3646.13 186.249L3634.49 198.019Z" fill="#280E2F"/>
<path d="M3532.57 195.463L3584.11 179.303L3579.99 183.134L3531.03 208.306L3532.57 195.463Z" fill="#280E2F"/>
</g>
<g opacity="0.4">
<path d="M3575.29 104.345L3592.98 80.539L3588.22 101.751L3602.87 73.1897L3601.15 99.1577L3660.7 75.9735L3674.27 41.3763L3668.97 74.3134L3704.41 62.0808L3723.26 5.65236L3686.63 -13.6471L3635.44 -3.37794L3644.84 9.18548L3612.6 -3.47939L3597.09 -0.365854L3619.34 22.9457L3573.8 10.6953L3564.74 16.4061L3597.41 28.1633L3551.87 19.3288L3463.14 54.2806L3476.37 63.1378L3448.61 57.1919L3430.84 64.3095L3443.42 69.3045L3417.4 70.1489L3361.1 115.744L3450.85 125.891L3470.77 108.674L3462.18 127.036L3575.29 104.345Z" fill="#280E2F"/>
<path d="M3724.26 4.00092L3360.26 117.725L3727.05 6.27575L3724.26 4.00092Z" fill="#19001B"/>
<path d="M3619.16 89.5157L3632.96 34.4913L3621.28 88.6952L3619.16 89.5157Z" fill="#19001B"/>
<path d="M3535.61 110.634L3551.15 57.8419L3548.27 60.2245L3532.44 111.263L3535.61 110.634Z" fill="#19001B"/>
<path d="M3500.42 41.2881L3527.92 65.7455L3524.98 67.957L3497.64 42.3705L3500.42 41.2881Z" fill="#19001B"/>
<g style="mix-blend-mode:soft-light" opacity="0.31">
<path d="M3461.55 126.387L3487.11 78.7872L3492.88 76.0216L3477.15 123.298L3461.55 126.387Z" fill="white"/>
</g>
<g style="mix-blend-mode:soft-light" opacity="0.31">
<path d="M3652.66 -6.74048L3686.03 16.512L3694.06 14.1067L3664.02 -8.98691L3652.66 -6.74048Z" fill="white"/>
</g>
<g style="mix-blend-mode:soft-light" opacity="0.31">
<path d="M3407.8 79.5207L3448.57 91.4785L3443.44 92.2959L3397.49 87.8016L3407.8 79.5207Z" fill="white"/>
</g>
</g>
<path style="mix-blend-mode:color-dodge" opacity="0.57" d="M2703.9 1153.37L2835.79 1171.08L2942.96 2058.87H2907.95L2703.9 1153.37Z" fill="url(#paint76_linear)"/>
<path style="mix-blend-mode:color-dodge" opacity="0.57" d="M2850.91 1174.54L2896.84 1182.91L2988.42 2037L2971.69 2041.76L2850.91 1174.54Z" fill="url(#paint77_linear)"/>
<path style="mix-blend-mode:color-dodge" opacity="0.2" d="M3347 -327L3586.64 -292.555L3867 2090L3810.13 2086.68L3347 -327Z" fill="url(#paint78_linear)"/>
</g>
<defs>
<linearGradient id="paint0_linear" x1="2900.5" y1="2055" x2="2900.5" y2="1752" gradientUnits="userSpaceOnUse">
<stop offset="0.42064" stop-color="#972A55"/>
<stop offset="1" stop-color="#2B1154"/>
</linearGradient>
<linearGradient id="paint1_linear" x1="1.4899e+06" y1="88204.8" x2="1.4899e+06" y2="80375.2" gradientUnits="userSpaceOnUse">
<stop offset="0.42064" stop-color="#972A55"/>
<stop offset="1" stop-color="#2B1154"/>
</linearGradient>
<radialGradient id="paint2_radial" cx="0" cy="0" r="1" gradientUnits="userSpaceOnUse" gradientTransform="translate(1770.21 1844.85) scale(61.3494 44.174)">
<stop stop-color="#B3E80F"/>
<stop offset="1"/>
</radialGradient>
<radialGradient id="paint3_radial" cx="0" cy="0" r="1" gradientUnits="userSpaceOnUse" gradientTransform="translate(10407 35120.3) scale(1022.49 736.234)">
<stop stop-color="#B3E80F"/>
<stop offset="1"/>
</radialGradient>
<radialGradient id="paint4_radial" cx="0" cy="0" r="1" gradientUnits="userSpaceOnUse" gradientTransform="translate(564.791 36259.5) scale(93.0171 736.252)">
<stop stop-color="#B3E80F"/>
<stop offset="1"/>
</radialGradient>
<linearGradient id="paint5_linear" x1="-7.11719" y1="2218.18" x2="4323.18" y2="2218.18" gradientUnits="userSpaceOnUse">
<stop stop-color="#452A5B"/>
<stop offset="1" stop-color="#271140"/>
</linearGradient>
<linearGradient id="paint6_linear" x1="137332" y1="80434.3" x2="742908" y2="80434.3" gradientUnits="userSpaceOnUse">
<stop stop-color="#A2450B"/>
<stop offset="1"/>
</linearGradient>
<linearGradient id="paint7_linear" x1="324963" y1="58025.3" x2="1.22513e+06" y2="58025.3" gradientUnits="userSpaceOnUse">
<stop stop-color="#A2450B"/>
<stop offset="1"/>
</linearGradient>
<linearGradient id="paint8_linear" x1="555194" y1="33732.9" x2="1.22634e+06" y2="33732.9" gradientUnits="userSpaceOnUse">
<stop stop-color="#A2450B"/>
<stop offset="1"/>
</linearGradient>
<linearGradient id="paint9_linear" x1="468985" y1="23611.8" x2="661904" y2="23611.8" gradientUnits="userSpaceOnUse">
<stop stop-color="#A2450B"/>
<stop offset="1"/>
</linearGradient>
<linearGradient id="paint10_linear" x1="76923.5" y1="98715.2" x2="308213" y2="98715.2" gradientUnits="userSpaceOnUse">
<stop stop-color="#A2450B"/>
<stop offset="1"/>
</linearGradient>
<radialGradient id="paint11_radial" cx="0" cy="0" r="1" gradientUnits="userSpaceOnUse" gradientTransform="translate(59954.3 35120.2) scale(1022.48 736.229)">
<stop stop-color="#B3E80F"/>
<stop offset="1"/>
</radialGradient>
<radialGradient id="paint12_radial" cx="0" cy="0" r="1" gradientUnits="userSpaceOnUse" gradientTransform="translate(54449.1 35120.2) scale(1022.49 736.229)">
<stop stop-color="#B3E80F"/>
<stop offset="1"/>
</radialGradient>
<radialGradient id="paint13_radial" cx="0" cy="0" r="1" gradientUnits="userSpaceOnUse" gradientTransform="translate(48943.9 35120.3) scale(1022.49 736.234)">
<stop stop-color="#B3E80F"/>
<stop offset="1"/>
</radialGradient>
<radialGradient id="paint14_radial" cx="0" cy="0" r="1" gradientUnits="userSpaceOnUse" gradientTransform="translate(2228.5 36446.8) scale(93.0172 736.252)">
<stop stop-color="#B3E80F"/>
<stop offset="1"/>
</radialGradient>
<radialGradient id="paint15_radial" cx="0" cy="0" r="1" gradientUnits="userSpaceOnUse" gradientTransform="translate(3915.45 36446.8) scale(93.0169 736.252)">
<stop stop-color="#B3E80F"/>
<stop offset="1"/>
</radialGradient>
<radialGradient id="paint16_radial" cx="0" cy="0" r="1" gradientUnits="userSpaceOnUse" gradientTransform="translate(43438.6 35120.3) scale(1022.49 736.234)">
<stop stop-color="#B3E80F"/>
<stop offset="1"/>
</radialGradient>
<radialGradient id="paint17_radial" cx="0" cy="0" r="1" gradientUnits="userSpaceOnUse" gradientTransform="translate(37933.4 35120.3) scale(1022.49 736.234)">
<stop stop-color="#B3E80F"/>
<stop offset="1"/>
</radialGradient>
<radialGradient id="paint18_radial" cx="0" cy="0" r="1" gradientUnits="userSpaceOnUse" gradientTransform="translate(32428 35120.3) scale(1022.49 736.234)">
<stop stop-color="#B3E80F"/>
<stop offset="1"/>
</radialGradient>
<radialGradient id="paint19_radial" cx="0" cy="0" r="1" gradientUnits="userSpaceOnUse" gradientTransform="translate(26922.7 35120.2) scale(1022.49 736.231)">
<stop stop-color="#B3E80F"/>
<stop offset="1"/>
</radialGradient>
<radialGradient id="paint20_radial" cx="0" cy="0" r="1" gradientUnits="userSpaceOnUse" gradientTransform="translate(21417.5 35120.3) scale(1022.49 736.234)">
<stop stop-color="#B3E80F"/>
<stop offset="1"/>
</radialGradient>
<radialGradient id="paint21_radial" cx="0" cy="0" r="1" gradientUnits="userSpaceOnUse" gradientTransform="translate(5556.62 36259.5) scale(93.0166 736.251)">
<stop stop-color="#B3E80F"/>
<stop offset="1"/>
</radialGradient>
<radialGradient id="paint22_radial" cx="0" cy="0" r="1" gradientUnits="userSpaceOnUse" gradientTransform="translate(7220.35 36446.8) scale(93.0172 736.252)">
<stop stop-color="#B3E80F"/>
<stop offset="1"/>
</radialGradient>
<radialGradient id="paint23_radial" cx="0" cy="0" r="1" gradientUnits="userSpaceOnUse" gradientTransform="translate(8907.31 36446.8) scale(93.0172 736.252)">
<stop stop-color="#B3E80F"/>
<stop offset="1"/>
</radialGradient>
<radialGradient id="paint24_radial" cx="0" cy="0" r="1" gradientUnits="userSpaceOnUse" gradientTransform="translate(10550.6 36446.8) scale(93.0172 736.252)">
<stop stop-color="#B3E80F"/>
<stop offset="1"/>
</radialGradient>
<radialGradient id="paint25_radial" cx="0" cy="0" r="1" gradientUnits="userSpaceOnUse" gradientTransform="translate(12219.9 36446.8) scale(93.0172 736.252)">
<stop stop-color="#B3E80F"/>
<stop offset="1"/>
</radialGradient>
<radialGradient id="paint26_radial" cx="0" cy="0" r="1" gradientUnits="userSpaceOnUse" gradientTransform="translate(13856 36446.8) scale(93.0172 736.252)">
<stop stop-color="#B3E80F"/>
<stop offset="1"/>
</radialGradient>
<radialGradient id="paint27_radial" cx="0" cy="0" r="1" gradientUnits="userSpaceOnUse" gradientTransform="translate(60502.9 37669.9) scale(1452.44 1045.82)">
<stop stop-color="#B3E80F"/>
<stop offset="1"/>
</radialGradient>
<radialGradient id="paint28_radial" cx="0" cy="0" r="1" gradientUnits="userSpaceOnUse" gradientTransform="translate(48002.5 37669.9) scale(1452.44 1045.82)">
<stop stop-color="#B3E80F"/>
<stop offset="1"/>
</radialGradient>
<radialGradient id="paint29_radial" cx="0" cy="0" r="1" gradientUnits="userSpaceOnUse" gradientTransform="translate(34930.9 37832.3) scale(1452.44 1045.81)">
<stop stop-color="#B3E80F"/>
<stop offset="1"/>
</radialGradient>
<radialGradient id="paint30_radial" cx="0" cy="0" r="1" gradientUnits="userSpaceOnUse" gradientTransform="translate(4862.44 4125.86) scale(10.9164 7.86024)">
<stop stop-color="#B3E80F"/>
<stop offset="1"/>
</radialGradient>
<radialGradient id="paint31_radial" cx="0" cy="0" r="1" gradientUnits="userSpaceOnUse" gradientTransform="translate(6723.35 3855.7) scale(10.9157 7.85978)">
<stop stop-color="#B3E80F"/>
<stop offset="1"/>
</radialGradient>
<radialGradient id="paint32_radial" cx="0" cy="0" r="1" gradientUnits="userSpaceOnUse" gradientTransform="translate(6900.29 4369.76) scale(10.9162 7.86024)">
<stop stop-color="#B3E80F"/>
<stop offset="1"/>
</radialGradient>
<radialGradient id="paint33_radial" cx="0" cy="0" r="1" gradientUnits="userSpaceOnUse" gradientTransform="translate(4392.72 4143.15) scale(10.9163 7.86024)">
<stop stop-color="#B3E80F"/>
<stop offset="1"/>
</radialGradient>
<radialGradient id="paint34_radial" cx="0" cy="0" r="1" gradientUnits="userSpaceOnUse" gradientTransform="translate(3030.96 4311.34) scale(10.9158 7.85978)">
<stop stop-color="#B3E80F"/>
<stop offset="1"/>
</radialGradient>
<radialGradient id="paint35_radial" cx="0" cy="0" r="1" gradientUnits="userSpaceOnUse" gradientTransform="translate(13178.7 6018.55) scale(60.8506 43.8151)">
<stop stop-color="#B3E80F"/>
<stop offset="1"/>
</radialGradient>
<radialGradient id="paint36_radial" cx="0" cy="0" r="1" gradientUnits="userSpaceOnUse" gradientTransform="translate(8879.15 5623.29) scale(60.8488 43.8136)">
<stop stop-color="#B3E80F"/>
<stop offset="1"/>
</radialGradient>
<radialGradient id="paint37_radial" cx="0" cy="0" r="1" gradientUnits="userSpaceOnUse" gradientTransform="translate(11226.3 3557.88) scale(60.8506 43.8149)">
<stop stop-color="#B3E80F"/>
<stop offset="1"/>
</radialGradient>
<radialGradient id="paint38_radial" cx="0" cy="0" r="1" gradientUnits="userSpaceOnUse" gradientTransform="translate(15685.5 4770.76) scale(60.8511 43.8149)">
<stop stop-color="#B3E80F"/>
<stop offset="1"/>
</radialGradient>
<radialGradient id="paint39_radial" cx="0" cy="0" r="1" gradientUnits="userSpaceOnUse" gradientTransform="translate(7988.51 4245.96) scale(10.915 7.85922)">
<stop stop-color="#B3E80F"/>
<stop offset="1"/>
</radialGradient>
<radialGradient id="paint40_radial" cx="0" cy="0" r="1" gradientUnits="userSpaceOnUse" gradientTransform="translate(8299.2 4613.64) scale(10.9159 7.85978)">
<stop stop-color="#B3E80F"/>
<stop offset="1"/>
</radialGradient>
<radialGradient id="paint41_radial" cx="0" cy="0" r="1" gradientUnits="userSpaceOnUse" gradientTransform="translate(9549.23 3234.46) scale(10.9154 7.85962)">
<stop stop-color="#B3E80F"/>
<stop offset="1"/>
</radialGradient>
<radialGradient id="paint42_radial" cx="0" cy="0" r="1" gradientUnits="userSpaceOnUse" gradientTransform="translate(8463.47 3283.38) scale(10.9164 7.86017)">
<stop stop-color="#B3E80F"/>
<stop offset="1"/>
</radialGradient>
<radialGradient id="paint43_radial" cx="0" cy="0" r="1" gradientUnits="userSpaceOnUse" gradientTransform="translate(5662.45 4289.35) scale(10.9158 7.85978)">
<stop stop-color="#B3E80F"/>
<stop offset="1"/>
</radialGradient>
<radialGradient id="paint44_radial" cx="0" cy="0" r="1" gradientUnits="userSpaceOnUse" gradientTransform="translate(5140.12 3417.42) scale(10.9158 7.85985)">
<stop stop-color="#B3E80F"/>
<stop offset="1"/>
</radialGradient>
<radialGradient id="paint45_radial" cx="0" cy="0" r="1" gradientUnits="userSpaceOnUse" gradientTransform="translate(18900.9 1462.35) rotate(-35.7543) scale(57.1975 54.2449)">
<stop stop-color="#B3E80F"/>
<stop offset="1"/>
</radialGradient>
<radialGradient id="paint46_radial" cx="0" cy="0" r="1" gradientUnits="userSpaceOnUse" gradientTransform="translate(18598.2 1493.61) rotate(-35.7543) scale(57.1975 54.2449)">
<stop stop-color="#B3E80F"/>
<stop offset="1"/>
</radialGradient>
<radialGradient id="paint47_radial" cx="0" cy="0" r="1" gradientUnits="userSpaceOnUse" gradientTransform="translate(21495.8 1194.09) rotate(-35.7553) scale(57.1965 54.2446)">
<stop stop-color="#B3E80F"/>
<stop offset="1"/>
</radialGradient>
<radialGradient id="paint48_radial" cx="0" cy="0" r="1" gradientUnits="userSpaceOnUse" gradientTransform="translate(20343 1313.1) rotate(-35.756) scale(57.1953 54.2434)">
<stop stop-color="#B3E80F"/>
<stop offset="1"/>
</radialGradient>
<radialGradient id="paint49_radial" cx="0" cy="0" r="1" gradientUnits="userSpaceOnUse" gradientTransform="translate(21554.9 860.009) rotate(-35.7544) scale(57.1979 54.2445)">
<stop stop-color="#B3E80F"/>
<stop offset="1"/>
</radialGradient>
<radialGradient id="paint50_radial" cx="0" cy="0" r="1" gradientUnits="userSpaceOnUse" gradientTransform="translate(6820.24 1896.72) rotate(-35.7561) scale(4.79239 4.54506)">
<stop stop-color="#B3E80F"/>
<stop offset="1"/>
</radialGradient>
<radialGradient id="paint51_radial" cx="0" cy="0" r="1" gradientUnits="userSpaceOnUse" gradientTransform="translate(8634.45 1361.09) rotate(-35.7552) scale(4.79302 4.54562)">
<stop stop-color="#B3E80F"/>
<stop offset="1"/>
</radialGradient>
<radialGradient id="paint52_radial" cx="0" cy="0" r="1" gradientUnits="userSpaceOnUse" gradientTransform="translate(8708.58 1399.57) rotate(-35.755) scale(4.79303 4.54561)">
<stop stop-color="#B3E80F"/>
<stop offset="1"/>
</radialGradient>
<radialGradient id="paint53_radial" cx="0" cy="0" r="1" gradientUnits="userSpaceOnUse" gradientTransform="translate(5348.2 2310.54) rotate(-35.7551) scale(4.79194 4.54464)">
<stop stop-color="#B3E80F"/>
<stop offset="1"/>
</radialGradient>
<radialGradient id="paint54_radial" cx="0" cy="0" r="1" gradientUnits="userSpaceOnUse" gradientTransform="translate(3918.86 2677.89) rotate(-35.7552) scale(4.79303 4.54562)">
<stop stop-color="#B3E80F"/>
<stop offset="1"/>
</radialGradient>
<radialGradient id="paint55_radial" cx="0" cy="0" r="1" gradientUnits="userSpaceOnUse" gradientTransform="translate(5622.39 2221.63) rotate(-35.7552) scale(4.79303 4.54562)">
<stop stop-color="#B3E80F"/>
<stop offset="1"/>
</radialGradient>
<radialGradient id="paint56_radial" cx="0" cy="0" r="1" gradientUnits="userSpaceOnUse" gradientTransform="translate(5022.98 2393.69) rotate(-35.7552) scale(4.79303 4.54562)">
<stop stop-color="#B3E80F"/>
<stop offset="1"/>
</radialGradient>
<radialGradient id="paint57_radial" cx="0" cy="0" r="1" gradientUnits="userSpaceOnUse" gradientTransform="translate(5853.34 2157.3) rotate(-35.7551) scale(4.79303 4.54561)">
<stop stop-color="#B3E80F"/>
<stop offset="1"/>
</radialGradient>
<radialGradient id="paint58_radial" cx="0" cy="0" r="1" gradientUnits="userSpaceOnUse" gradientTransform="translate(5078.8 2452.13) rotate(-35.7573) scale(4.79242 4.54516)">
<stop stop-color="#B3E80F"/>
<stop offset="1"/>
</radialGradient>
<radialGradient id="paint59_radial" cx="0" cy="0" r="1" gradientUnits="userSpaceOnUse" gradientTransform="translate(5867.55 2205.48) rotate(-35.7541) scale(4.79256 4.54512)">
<stop stop-color="#B3E80F"/>
<stop offset="1"/>
</radialGradient>
<radialGradient id="paint60_radial" cx="0" cy="0" r="1" gradientUnits="userSpaceOnUse" gradientTransform="translate(6942.14 1909.1) rotate(-35.7573) scale(4.79242 4.54516)">
<stop stop-color="#B3E80F"/>
<stop offset="1"/>
</radialGradient>
<radialGradient id="paint61_radial" cx="0" cy="0" r="1" gradientUnits="userSpaceOnUse" gradientTransform="translate(3808.46 2725.76) rotate(-35.7552) scale(4.79303 4.54562)">
<stop stop-color="#B3E80F"/>
<stop offset="1"/>
</radialGradient>
<radialGradient id="paint62_radial" cx="0" cy="0" r="1" gradientUnits="userSpaceOnUse" gradientTransform="translate(14752.6 1478.15) rotate(-35.7557) scale(28.5998 27.1237)">
<stop stop-color="#B3E80F"/>
<stop offset="1"/>
</radialGradient>
<radialGradient id="paint63_radial" cx="0" cy="0" r="1" gradientUnits="userSpaceOnUse" gradientTransform="translate(16518.6 1193.46) rotate(-35.7557) scale(28.5973 27.1213)">
<stop stop-color="#B3E80F"/>
<stop offset="1"/>
</radialGradient>
<radialGradient id="paint64_radial" cx="0" cy="0" r="1" gradientUnits="userSpaceOnUse" gradientTransform="translate(14528.3 1508.95) rotate(-35.7551) scale(28.5981 27.1217)">
<stop stop-color="#B3E80F"/>
<stop offset="1"/>
</radialGradient>
<radialGradient id="paint65_radial" cx="0" cy="0" r="1" gradientUnits="userSpaceOnUse" gradientTransform="translate(11961.6 1866.28) rotate(-35.7558) scale(28.597 27.1213)">
<stop stop-color="#B3E80F"/>
<stop offset="1"/>
</radialGradient>
<radialGradient id="paint66_radial" cx="0" cy="0" r="1" gradientUnits="userSpaceOnUse" gradientTransform="translate(11133.4 2003.27) rotate(-35.7557) scale(28.5972 27.1213)">
<stop stop-color="#B3E80F"/>
<stop offset="1"/>
</radialGradient>
<radialGradient id="paint67_radial" cx="0" cy="0" r="1" gradientUnits="userSpaceOnUse" gradientTransform="translate(7614.89 2484.67) rotate(-35.7556) scale(28.5972 27.1213)">
<stop stop-color="#B3E80F"/>
<stop offset="1"/>
</radialGradient>
<radialGradient id="paint68_radial" cx="0" cy="0" r="1" gradientUnits="userSpaceOnUse" gradientTransform="translate(7408.15 2543.35) rotate(-35.7557) scale(28.5972 27.1213)">
<stop stop-color="#B3E80F"/>
<stop offset="1"/>
</radialGradient>
<radialGradient id="paint69_radial" cx="0" cy="0" r="1" gradientUnits="userSpaceOnUse" gradientTransform="translate(12675.8 1713.1) rotate(-35.7556) scale(28.5973 27.1213)">
<stop stop-color="#B3E80F"/>
<stop offset="1"/>
</radialGradient>
<radialGradient id="paint70_radial" cx="0" cy="0" r="1" gradientUnits="userSpaceOnUse" gradientTransform="translate(10116.5 2147.12) rotate(-35.7548) scale(28.5981 27.1216)">
<stop stop-color="#B3E80F"/>
<stop offset="1"/>
</radialGradient>
<radialGradient id="paint71_radial" cx="0" cy="0" r="1" gradientUnits="userSpaceOnUse" gradientTransform="translate(9746.9 2186.81) rotate(-35.7557) scale(28.5972 27.1213)">
<stop stop-color="#B3E80F"/>
<stop offset="1"/>
</radialGradient>
<radialGradient id="paint72_radial" cx="0" cy="0" r="1" gradientUnits="userSpaceOnUse" gradientTransform="translate(11275.4 1948.46) rotate(-35.7544) scale(28.5988 27.1224)">
<stop stop-color="#B3E80F"/>
<stop offset="1"/>
</radialGradient>
<radialGradient id="paint73_radial" cx="0" cy="0" r="1" gradientUnits="userSpaceOnUse" gradientTransform="translate(6260.66 2683.78) rotate(-35.7556) scale(28.5972 27.1213)">
<stop stop-color="#B3E80F"/>
<stop offset="1"/>
</radialGradient>
<radialGradient id="paint74_radial" cx="0" cy="0" r="1" gradientUnits="userSpaceOnUse" gradientTransform="translate(7873.42 2469.32) rotate(-35.7556) scale(28.5972 27.1213)">
<stop stop-color="#B3E80F"/>
<stop offset="1"/>
</radialGradient>
<radialGradient id="paint75_radial" cx="0" cy="0" r="1" gradientUnits="userSpaceOnUse" gradientTransform="translate(20791.7 37936.8) scale(1452.44 1045.81)">
<stop stop-color="#B3E80F"/>
<stop offset="1"/>
</radialGradient>
<linearGradient id="paint76_linear" x1="57704.4" y1="379761" x2="57704.4" y2="89762.9" gradientUnits="userSpaceOnUse">
<stop/>
<stop offset="1" stop-color="#A4450B"/>
</linearGradient>
<linearGradient id="paint77_linear" x1="37858" y1="358524" x2="37858" y2="92531" gradientUnits="userSpaceOnUse">
<stop/>
<stop offset="1" stop-color="#A4450B"/>
</linearGradient>
<linearGradient id="paint78_linear" x1="208770" y1="1.01885e+06" x2="208770" y2="319244" gradientUnits="userSpaceOnUse">
<stop/>
<stop offset="1" stop-color="#A4450B"/>
</linearGradient>
</defs>
</svg>
