<svg width="125" height="125" viewBox="0 0 125 125" fill="none" xmlns="http://www.w3.org/2000/svg">
<path d="M62.283 15.8838C63.6409 15.8838 64.7417 14.783 64.7417 13.425V2.45874C64.7417 1.10083 63.6409 0 62.283 0C60.9251 0 59.8242 1.10083 59.8242 2.45874V13.425C59.8245 14.783 60.9253 15.8838 62.283 15.8838Z" fill="#94BAD0"/>
<path d="M122.383 84.4691L118.04 80.1379C116.495 78.5946 114.435 77.7445 112.241 77.7445C110.838 77.7445 109.491 78.0937 108.297 78.7477L100.112 70.5724L100.511 70.1742C103.832 66.8471 103.83 61.4406 100.511 58.1247C99.3245 56.9362 97.8442 56.1437 96.2307 55.8102C96.4529 55.0434 96.5698 54.2401 96.5698 53.4181C96.5698 51.1342 95.6826 48.9926 94.0767 47.3932C92.8901 46.2047 91.4102 45.4123 89.7966 45.0788C90.0188 44.3119 90.1357 43.5089 90.1357 42.6867C90.1357 40.4025 89.2485 38.2611 87.6399 36.6593C86.4251 35.446 84.9316 34.6779 83.3635 34.351C84.2024 31.4586 83.4856 28.2045 81.2102 25.9252C79.3162 24.0392 76.7461 23.2287 74.2693 23.4914L58.0498 20.4213C55.5762 19.9521 52.4871 19.6418 50.5371 21.4203C50.4141 21.5326 50.2886 21.6618 50.165 21.8056C47.1416 20.7035 43.6152 21.3598 41.1941 23.7782C39.5879 25.3825 38.7031 27.5231 38.7031 29.8058C38.7031 30.6281 38.8196 31.4311 39.0415 32.1981C37.4297 32.5314 35.9514 33.3229 34.769 34.5075C33.1597 36.1103 32.2722 38.2484 32.2705 40.5285C32.2698 41.3527 32.3867 42.1584 32.6099 42.9274C30.9973 43.2599 29.5181 44.05 28.332 45.2345C26.7227 46.8422 25.8364 48.984 25.8364 51.2655C25.8364 53.0131 26.3582 54.6779 27.325 56.0841C26.1042 56.498 24.9861 57.1867 24.0498 58.122C20.7271 61.4406 20.7258 66.8473 24.052 70.1794L24.4492 70.5749L16.2632 78.746C13.2209 77.3136 9.47266 77.8503 6.96216 80.3576L2.61597 84.6916C1.07007 86.2355 0.218994 88.2951 0.21875 90.4906C0.21875 92.6864 1.07007 94.7463 2.61597 96.2904L8.04004 101.708C9.00073 102.668 10.5576 102.667 11.5171 101.706C12.4768 100.745 12.4758 99.1884 11.5151 98.2289L6.09107 92.8114C5.47534 92.1964 5.13623 91.3722 5.13623 90.4909C5.13623 89.6098 5.47534 88.7858 6.0896 88.1723L10.436 83.838C11.522 82.7533 13.1841 82.5917 14.4463 83.3463C14.5352 83.4799 14.6379 83.6068 14.7556 83.7248C14.9663 83.936 15.2068 84.0978 15.4622 84.2162L40.3872 109.105C40.5056 109.363 40.6682 109.606 40.8804 109.818C41.0869 110.025 41.3225 110.185 41.5725 110.302C42.0996 110.898 42.3909 111.66 42.3909 112.472C42.3909 113.353 42.0518 114.177 41.436 114.792L37.094 119.129C35.811 120.406 33.7241 120.406 32.4451 119.133L27.021 113.708C26.0608 112.748 24.5042 112.748 23.5439 113.708C22.5837 114.668 22.5837 116.225 23.5439 117.185L28.9719 122.614C30.5696 124.205 32.6677 125 34.7668 125C36.8665 125 38.967 124.204 40.5667 122.611L44.9114 118.271C46.4573 116.727 47.3086 114.668 47.3086 112.472C47.3086 110.904 46.8728 109.408 46.0625 108.117L55.2754 98.9157C55.2852 98.9057 55.2949 98.8957 55.3049 98.8857C56.3599 97.7951 59.2976 97.9992 62.1387 98.1965C64.1572 98.3368 66.4077 98.4928 68.6064 98.2394L78.6953 108.316C78.0418 109.508 77.6929 110.853 77.6929 112.254C77.6929 114.448 78.5442 116.506 80.0901 118.05L84.4351 122.39C85.98 123.933 88.0393 124.783 90.2336 124.783C92.4277 124.783 94.4871 123.933 96.0322 122.39L122.385 96.069C123.931 94.5251 124.782 92.4655 124.782 90.2697C124.782 88.0741 123.931 86.0146 122.383 84.4691V84.4691ZM57.1343 25.2528L67.8001 27.2716L61.416 33.6532C60.4285 33.1786 59.075 32.2934 57.5901 30.873C55.5576 28.9286 54.1038 26.6837 53.9714 25.2836C53.9712 25.2829 53.9712 25.2821 53.9712 25.2814C53.9712 25.2812 53.971 25.2809 53.971 25.2807C53.9614 25.1801 53.959 25.0998 53.9602 25.0385C54.2817 24.9604 55.1357 24.8737 57.1343 25.2528ZM44.669 27.2575C45.9146 26.0131 47.8496 25.8695 49.2571 26.8227C50.0547 30.1669 52.9075 33.1979 54.1909 34.4259C55.1421 35.3361 58.1941 38.0649 61.2747 38.8149C61.6914 39.4123 61.9182 40.1244 61.9182 40.8759C61.9182 41.8439 61.5459 42.7489 60.8674 43.4267C60.1909 44.1044 59.2844 44.4774 58.3147 44.4774C57.3447 44.4774 56.4382 44.1044 55.7585 43.4235L55.7583 43.4232L55.7571 43.422L44.6687 32.3537C43.9927 31.6786 43.6204 30.7736 43.6204 29.8058C43.6206 28.8378 43.9929 27.9328 44.669 27.2575V27.2575ZM38.2441 37.9867C38.9207 37.3092 39.8262 36.9359 40.7944 36.9359C41.7639 36.9359 42.6724 37.31 43.3533 37.9901L52.282 46.901C53.688 48.3092 53.688 50.6007 52.2869 52.0041C51.6067 52.6816 50.697 53.0546 49.7256 53.0546C48.7542 53.0546 47.8445 52.6816 47.1672 52.007L47.167 52.0067L40.3933 45.2345C40.3828 45.224 40.3713 45.2143 40.3606 45.2035L38.2415 43.0854C37.5615 42.4062 37.1873 41.4994 37.188 40.5321C37.189 39.568 37.562 38.6659 38.2441 37.9867V37.9867ZM31.8071 48.7138C32.4841 48.0378 33.3916 47.6654 34.3628 47.6654C35.3259 47.6654 36.2256 48.0324 36.8997 48.6967L43.6941 55.4879C44.3716 56.1628 44.7449 57.0668 44.7449 58.0336C44.7449 59.0002 44.3716 59.9042 43.6914 60.5817C43.0146 61.2575 42.1082 61.6298 41.1387 61.6298C40.1677 61.6298 39.2583 61.2565 38.5806 60.5817L36.1174 58.1215C36.1169 58.1208 36.1162 58.1203 36.1157 58.1198L31.8074 53.8166C31.1282 53.1381 30.7542 52.2318 30.7542 51.265C30.7542 50.2985 31.1282 49.392 31.8071 48.7138V48.7138ZM27.5249 61.601C28.2048 60.9218 29.1135 60.5478 30.0835 60.5478C31.0532 60.5478 31.9617 60.9215 32.6414 61.6003L35.1079 64.0639C35.7856 64.7387 36.1587 65.6427 36.1587 66.6095C36.1587 67.5763 35.7854 68.4801 35.1028 69.1603C34.4263 69.8378 33.5198 70.2111 32.5501 70.2111C31.5801 70.2111 30.6736 69.8381 29.9922 69.1554L29.6834 68.8478C29.6792 68.8437 29.676 68.8393 29.6721 68.8354C29.6675 68.831 29.6626 68.8271 29.658 68.8227L27.5273 66.7004C26.1213 65.2914 26.1201 63.0041 27.5249 61.601ZM77.6309 89.5448C76.6711 88.5839 75.1143 88.5832 74.1538 89.5426L71.9663 91.7275C69.8877 93.8061 66.1213 93.5444 62.479 93.2917C58.5237 93.0168 54.4336 92.7331 51.7869 95.4504L42.7305 104.496L20.0833 81.8817L28.0979 73.8815C29.4226 74.6935 30.9512 75.1288 32.5505 75.1288C34.8355 75.1288 36.978 74.2431 38.5784 72.6398C40.1895 71.0353 41.0769 68.894 41.0769 66.6098C41.0769 66.5885 41.0754 66.5675 41.0754 66.5463C41.0967 66.5465 41.1179 66.5478 41.1392 66.5478C43.4209 66.5478 45.5618 65.6647 47.1643 64.0641C48.7754 62.4596 49.6628 60.318 49.6628 58.0341C49.6628 58.0129 49.6614 57.9919 49.6614 57.9706C49.6829 57.9706 49.7043 57.9721 49.7261 57.9721C52.0071 57.9721 54.1492 57.09 55.7625 55.4833C57.4373 53.8058 58.2656 51.5973 58.2498 49.3935C58.2717 49.3937 58.2937 49.3949 58.3157 49.3949C60.6006 49.3947 62.7429 48.5092 64.3457 46.9035C65.9519 45.2992 66.8367 43.1586 66.8367 40.8759C66.8367 39.2795 66.4026 37.7533 65.5933 36.4313L72.6179 29.4096C73.1414 28.8883 73.7869 28.5612 74.4634 28.4262C74.5366 28.4184 74.6089 28.4066 74.6804 28.3925C75.7659 28.2428 76.9058 28.5778 77.7358 29.4044C79.1418 30.8129 79.1418 33.1044 77.741 34.5077L75.6016 36.6383C75.5945 36.6454 75.5869 36.6518 75.5798 36.6588L73.1157 39.1188C72.1548 40.0783 72.1538 41.6352 73.1135 42.5959C74.0735 43.5568 75.6301 43.5575 76.5906 42.5981L78.7385 40.453C78.739 40.4525 78.7395 40.4521 78.74 40.4516L79.0647 40.1281C80.4746 38.7311 82.7588 38.734 84.1672 40.1405C84.845 40.8153 85.2183 41.7194 85.2183 42.6862C85.2183 43.6527 84.845 44.5568 84.1619 45.237L82.0103 47.393C82.01 47.3932 82.0098 47.3935 82.0095 47.394L79.5457 49.8478C78.5835 50.8061 78.5803 52.3629 79.5386 53.3249C80.4968 54.287 82.0535 54.29 83.0156 53.3319L85.4907 50.8669C86.1672 50.1891 87.0737 49.8161 88.0435 49.8161C89.0134 49.8161 89.9202 50.1891 90.6016 50.8717C91.2793 51.5468 91.6523 52.4508 91.6523 53.4176C91.6523 54.3842 91.2793 55.2882 90.5977 55.967L86.3081 60.2582C85.3481 61.2187 85.3484 62.7753 86.3086 63.7353C86.7888 64.2152 87.4177 64.455 88.0469 64.455C88.6763 64.455 89.3057 64.2148 89.7856 63.7345L91.8879 61.6315C91.8999 61.62 91.9128 61.61 91.9248 61.5981C92.6013 60.9203 93.5078 60.5473 94.4775 60.5473C95.4475 60.5473 96.354 60.9203 97.033 61.6005C98.4375 63.0036 98.4363 65.2912 97.033 66.6969L94.8955 68.8319C94.8948 68.8327 94.8938 68.8334 94.8931 68.8341C94.8923 68.8349 94.8916 68.8359 94.8909 68.8366L91.4983 72.225C90.5376 73.1847 90.5366 74.7416 91.4961 75.7023C91.9763 76.183 92.6062 76.4235 93.2358 76.4235C93.8645 76.4235 94.4934 76.1837 94.9734 75.7045L96.6328 74.047L104.586 81.9911L81.9409 104.609L73.8272 96.5048C74.3928 96.141 74.9341 95.7133 75.4421 95.2052L77.6284 93.0216C78.5896 92.0624 78.5906 90.5055 77.6309 89.5448V89.5448ZM118.91 92.5898L92.5569 118.911C91.9404 119.526 91.1152 119.865 90.2334 119.865C89.3516 119.865 88.5264 119.526 87.9097 118.91L83.5647 114.571C82.949 113.956 82.6099 113.133 82.6099 112.254C82.6099 111.375 82.949 110.552 83.5647 109.937L109.917 83.6166C110.534 83.0006 111.359 82.6615 112.241 82.6615C113.123 82.6615 113.948 83.0006 114.566 83.6181L118.91 87.9494C119.526 88.5644 119.865 89.3881 119.865 90.2694C119.865 91.151 119.525 91.975 118.91 92.5898V92.5898Z" fill="#94BAD0"/>
<path d="M29.6345 13.8111C30.1144 14.2901 30.7429 14.5293 31.3713 14.5293C32.0012 14.5293 32.6313 14.2886 33.1115 13.8074C34.0707 12.8462 34.0693 11.2896 33.1081 10.3304L24.1486 1.3887C23.1877 0.429475 21.6308 0.430696 20.6716 1.39212C19.7123 2.3533 19.7138 3.90994 20.675 4.86917L29.6345 13.8111Z" fill="#94BAD0"/>
<path d="M93.1931 14.5292C93.8217 14.5292 94.4506 14.2895 94.9306 13.8102L103.883 4.86835C104.844 3.90887 104.845 2.35199 103.885 1.3913C102.926 0.430603 101.369 0.429627 100.408 1.38934L91.4555 10.3312C90.4948 11.2907 90.4938 12.8476 91.4536 13.8083C91.9338 14.289 92.5634 14.5292 93.1931 14.5292Z" fill="#94BAD0"/>
<path d="M15.3382 105.763C14.3863 106.731 14.3994 108.288 15.3679 109.24L15.375 109.247C15.8528 109.716 16.4732 109.95 17.0933 109.95C17.7298 109.95 18.3662 109.704 18.8484 109.213C19.8003 108.245 19.7835 106.685 18.8152 105.733C17.8472 104.781 16.2906 104.794 15.3382 105.763V105.763Z" fill="#94BAD0"/>
<path d="M83.6447 86.0027C84.0187 86.0027 84.3981 85.9175 84.7543 85.7381C85.9667 85.1265 86.4538 83.648 85.8424 82.4356C85.2309 81.2232 83.7521 80.7359 82.5399 81.3475L82.5263 81.3543C81.3139 81.9659 80.8336 83.441 81.445 84.6534C81.8766 85.5098 82.7448 86.0027 83.6447 86.0027V86.0027Z" fill="#94BAD0"/>
</svg>
