<svg width="125" height="125" viewBox="0 0 125 125" fill="none" xmlns="http://www.w3.org/2000/svg">
<path d="M109.373 79.269V58.5938H105.467V90.988L99.6077 85.1287V60.5469H95.7014V82.3879C94.1042 81.8748 92.3808 81.9137 90.8083 82.4983C89.2358 83.0828 87.9055 84.1792 87.0313 85.611C86.1571 87.0429 85.7897 88.7271 85.9882 90.393C86.1867 92.0588 86.9395 93.6096 88.1257 94.7959L95.3687 102.039C94.5098 104.386 94.1152 106.877 94.2068 109.375H30.7898C30.8814 106.877 30.4868 104.386 29.6279 102.039L36.8709 94.7959C38.0556 93.6091 38.8072 92.0586 39.0049 90.3934C39.2027 88.7281 38.8351 87.0448 37.9613 85.6135C37.0874 84.1822 35.7579 83.0862 34.1863 82.5012C32.6147 81.9162 30.8922 81.8763 29.2952 82.3879V46.875H58.592V42.9688H23.4358C21.3645 42.9711 19.3787 43.7949 17.9141 45.2595C16.4495 46.7242 15.6256 48.71 15.6233 50.7812V94.894L12.2891 98.2283L15.0513 100.99L18.9575 97.0842L29.0584 86.9834C29.7281 86.3137 30.6364 85.9374 31.5835 85.9374C32.5306 85.9374 33.4389 86.3137 34.1086 86.9834C34.7784 87.6531 35.1546 88.5614 35.1546 89.5085C35.1546 90.4557 34.7784 91.364 34.1086 92.0337L25.9609 100.181C25.6907 100.452 25.5056 100.795 25.4288 101.17C25.3519 101.544 25.3866 101.933 25.5286 102.288L25.8081 102.986C26.7823 105.445 27.1116 108.113 26.7648 110.735C26.4179 113.357 25.4065 115.847 23.8264 117.969C23.5729 118.307 23.4358 118.718 23.4358 119.141V121.094H27.342V119.772C28.7065 117.808 29.6936 115.607 30.2529 113.281H94.7437C95.303 115.607 96.2901 117.808 97.6546 119.772V121.094H101.561V119.141C101.561 118.718 101.424 118.307 101.17 117.969C99.5901 115.847 98.5787 113.357 98.2318 110.735C97.885 108.113 98.2143 105.445 99.1885 102.986L99.468 102.288C99.61 101.933 99.6447 101.544 99.5678 101.17C99.491 100.795 99.3059 100.452 99.0357 100.181L90.888 92.0337C90.2182 91.364 89.842 90.4557 89.842 89.5085C89.842 88.5614 90.2182 87.6531 90.888 86.9834C91.5577 86.3137 92.466 85.9374 93.4131 85.9374C94.3602 85.9374 95.2685 86.3137 95.9382 86.9834L106.039 97.0842L109.945 100.99L112.708 98.2283L109.373 94.894V84.7932L115.469 90.8896C116.015 91.4325 116.448 92.0782 116.743 92.7894C117.037 93.5006 117.188 94.2632 117.186 95.033V121.094H121.092V95.033C121.096 93.75 120.845 92.479 120.354 91.2937C119.863 90.1084 119.141 89.0322 118.232 88.1274L109.373 79.269ZM23.4358 46.875H25.3889V85.1284L19.5295 90.9878V50.7812C19.5308 49.7456 19.9427 48.7528 20.675 48.0205C21.4073 47.2882 22.4002 46.8762 23.4358 46.875V46.875Z" fill="#94BAD0"/>
<path d="M10.3377 84.5564L6.76664 88.1274C5.85695 89.0322 5.13574 90.1084 4.64476 91.2937C4.15378 92.479 3.90278 93.75 3.90629 95.033V121.094H7.81254V95.033C7.81045 94.2632 7.96107 93.5006 8.25568 92.7894C8.55028 92.0782 8.98302 91.4325 9.52884 90.8897L13.0999 87.3186L10.3377 84.5564Z" fill="#94BAD0"/>
<path d="M62.5 58.5938C59.0234 58.5938 55.6248 59.6247 52.7341 61.5562C49.8434 63.4877 47.5904 66.233 46.2599 69.445C44.9295 72.657 44.5814 76.1914 45.2596 79.6012C45.9379 83.011 47.6121 86.1431 50.0704 88.6015C52.5287 91.0598 55.6609 92.734 59.0707 93.4122C62.4805 94.0905 66.0149 93.7424 69.2269 92.4119C72.4388 91.0815 75.1842 88.8285 77.1157 85.9378C79.0472 83.0471 80.0781 79.6485 80.0781 76.1719C80.0729 71.5115 78.2192 67.0435 74.9238 63.748C71.6284 60.4526 67.1604 58.599 62.5 58.5938V58.5938ZM62.5 89.8438C59.796 89.8438 57.1526 89.0419 54.9043 87.5396C52.656 86.0373 50.9036 83.9021 49.8688 81.4039C48.8341 78.9057 48.5633 76.1567 49.0908 73.5046C49.6184 70.8525 50.9205 68.4164 52.8325 66.5044C54.7446 64.5924 57.1807 63.2902 59.8328 62.7627C62.4848 62.2352 65.2338 62.5059 67.732 63.5407C70.2302 64.5755 72.3655 66.3279 73.8678 68.5762C75.37 70.8245 76.1719 73.4678 76.1719 76.1719C76.1678 79.7966 74.7261 83.2718 72.163 85.8349C69.5999 88.3979 66.1248 89.8397 62.5 89.8438V89.8438Z" fill="#94BAD0"/>
<path d="M71.2815 74.4761L57.6096 66.6636C57.3126 66.4938 56.9762 66.4051 56.6341 66.4063C56.292 66.4074 55.9562 66.4984 55.6603 66.6701C55.3644 66.8418 55.1188 67.0882 54.9481 67.3847C54.7774 67.6812 54.6875 68.0173 54.6875 68.3594V83.9844C54.6875 84.3265 54.7774 84.6626 54.9481 84.959C55.1188 85.2555 55.3644 85.5019 55.6603 85.6736C55.9562 85.8454 56.292 85.9363 56.6341 85.9375C56.9762 85.9386 57.3126 85.8499 57.6096 85.6802L71.2815 77.8677C71.5805 77.6968 71.8289 77.45 72.0018 77.1522C72.1746 76.8544 72.2656 76.5162 72.2656 76.1719C72.2656 75.8275 72.1746 75.4893 72.0018 75.1915C71.8289 74.8937 71.5805 74.6469 71.2815 74.4761V74.4761ZM58.5938 80.6189V71.7249L66.3757 76.1719L58.5938 80.6189Z" fill="#94BAD0"/>
<path d="M39.3984 99.6095H35.1562V103.516H39.3984C39.8027 104.658 40.5508 105.646 41.54 106.345C42.5291 107.044 43.7106 107.42 44.9219 107.42C46.1331 107.42 47.3146 107.044 48.3038 106.345C49.2929 105.646 50.0411 104.658 50.4453 103.516H89.8437V99.6095H50.4453C50.0411 98.4676 49.2929 97.4792 48.3038 96.7801C47.3146 96.081 46.1331 95.7056 44.9219 95.7056C43.7106 95.7056 42.5291 96.081 41.54 96.7801C40.5508 97.4792 39.8027 98.4676 39.3984 99.6095V99.6095ZM44.9219 99.6095C45.3082 99.6095 45.6858 99.724 46.007 99.9386C46.3282 100.153 46.5785 100.458 46.7263 100.815C46.8742 101.172 46.9128 101.565 46.8375 101.944C46.7621 102.322 46.5761 102.67 46.3029 102.944C46.0298 103.217 45.6818 103.403 45.3029 103.478C44.924 103.554 44.5313 103.515 44.1744 103.367C43.8176 103.219 43.5125 102.969 43.2979 102.648C43.0833 102.326 42.9687 101.949 42.9687 101.563C42.9693 101.045 43.1753 100.548 43.5414 100.182C43.9076 99.816 44.4041 99.61 44.9219 99.6095V99.6095Z" fill="#94BAD0"/>
<path d="M37.1094 50.7812H33.2031V54.6875H37.1094V50.7812Z" fill="#94BAD0"/>
<path d="M44.9219 50.7812H41.0156V54.6875H44.9219V50.7812Z" fill="#94BAD0"/>
<path d="M52.7344 50.7812H48.8281V54.6875H52.7344V50.7812Z" fill="#94BAD0"/>
<path d="M113.281 3.90625H70.3125C68.2412 3.90858 66.2554 4.73242 64.7908 6.19705C63.3262 7.66167 62.5023 9.64746 62.5 11.7187V46.875C62.5023 48.9463 63.3262 50.9321 64.7908 52.3967C66.2554 53.8613 68.2412 54.6852 70.3125 54.6875H82.0312V62.5C82.0313 62.8588 82.1301 63.2107 82.317 63.517C82.5039 63.8234 82.7715 64.0723 83.0906 64.2365C83.4096 64.4007 83.7678 64.4738 84.1257 64.4479C84.4835 64.4219 84.8274 64.2979 85.1194 64.0894L98.282 54.6875H113.281C115.353 54.6852 117.338 53.8613 118.803 52.3967C120.268 50.9321 121.091 48.9463 121.094 46.875V11.7187C121.091 9.64746 120.268 7.66167 118.803 6.19705C117.338 4.73242 115.353 3.90858 113.281 3.90625V3.90625ZM113.281 50.7812H97.6562C97.2493 50.7813 96.8524 50.9085 96.5212 51.145L85.9375 58.7046V52.7344C85.9375 52.2164 85.7317 51.7196 85.3654 51.3533C84.9992 50.987 84.5024 50.7812 83.9844 50.7812H70.3125C69.2769 50.78 68.284 50.3681 67.5517 49.6358C66.8194 48.9035 66.4075 47.9106 66.4062 46.875V11.7187C66.4075 10.6831 66.8194 9.69027 67.5517 8.95797C68.284 8.22567 69.2769 7.81373 70.3125 7.8125H109.353L106.289 11.7378L109.369 14.1411L114.216 7.93018C115.063 8.13963 115.816 8.62635 116.354 9.31286C116.893 9.99938 117.186 10.8463 117.188 11.7187V16.8716L113.074 18.4385L114.466 22.0889L117.188 21.0515V29.2156H113.607V33.1218H117.188V46.875C117.186 47.9106 116.774 48.9035 116.042 49.6358C115.31 50.3681 114.317 50.78 113.281 50.7812V50.7812Z" fill="#94BAD0"/>
<path d="M109.268 18.8721C109.109 18.4667 108.818 18.1263 108.443 17.9051C108.068 17.6839 107.629 17.5946 107.197 17.6514L103.331 18.1548L100.519 11.0039C100.395 10.6874 100.19 10.4089 99.9244 10.1959C99.6592 9.98294 99.343 9.84291 99.0071 9.78969C98.6711 9.73646 98.3271 9.77188 98.0091 9.89244C97.6911 10.013 97.4101 10.2145 97.1938 10.477L95.3257 12.7441C91.0583 17.9339 85.8353 22.2572 79.9397 25.4797L71.4924 28.8017C71.2537 28.8956 71.0358 29.0355 70.8512 29.2136C70.6666 29.3917 70.5188 29.6044 70.4164 29.8395C70.314 30.0747 70.2589 30.3277 70.2542 30.5842C70.2496 30.8406 70.2955 31.0955 70.3894 31.3342L74.2414 41.1284C74.3353 41.3671 74.4753 41.585 74.6534 41.7696C74.8314 41.9542 75.0441 42.1019 75.2793 42.2043C75.5144 42.3067 75.7675 42.3618 76.0239 42.3664C76.2804 42.371 76.5352 42.3251 76.7739 42.2312L77.6828 41.8738L80.9455 47.3181C81.1539 47.6659 81.4654 47.9402 81.8367 48.103C82.2081 48.2657 82.6208 48.3089 83.0178 48.2265L89.1426 46.9551C89.4478 46.8917 89.7335 46.7562 89.9757 46.5598C90.2179 46.3634 90.4095 46.1119 90.5346 45.8263C90.6597 45.5408 90.7146 45.2294 90.6948 44.9182C90.6749 44.6071 90.5808 44.3052 90.4204 44.0378L87.0832 38.4765C93.0218 37.1914 99.1383 36.9467 105.161 37.7532L108.073 38.1411C108.41 38.1859 108.753 38.142 109.068 38.0136C109.383 37.8852 109.659 37.6768 109.869 37.409C110.078 37.1412 110.214 36.8233 110.263 36.4868C110.313 36.1502 110.273 35.8067 110.148 35.4902L107.336 28.3393L110.51 26.0749C110.865 25.822 111.125 25.4578 111.248 25.0401C111.372 24.6225 111.353 24.1754 111.194 23.77L109.268 18.8721ZM74.7405 31.7229L79.6748 29.7825L82.0471 35.8154L77.7707 37.6438L77.1626 37.883L74.7405 31.7229ZM83.5837 44.1211L81.3686 40.425L83.2532 39.6841L85.6572 43.6907L83.5837 44.1211ZM100.387 33.4241L97.2737 25.6416L93.6467 27.0928L96.1775 33.4184C92.6933 33.5412 89.2279 33.9865 85.8259 34.7488L83.2168 28.1152C88.8705 24.8127 93.9062 20.5511 98.0981 15.5212L105.3 33.8318C103.662 33.6243 102.024 33.4883 100.387 33.4241V33.4241ZM105.055 22.5393L104.804 21.9016L106.19 21.7209L107 23.7795L105.862 24.5913L105.055 22.5393Z" fill="#94BAD0"/>
</svg>
