<svg width="5760" height="1800" viewBox="0 0 5760 1800" fill="none" xmlns="http://www.w3.org/2000/svg">
<mask id="mask0" mask-type="alpha" maskUnits="userSpaceOnUse" x="0" y="0" width="5760" height="1800">
<rect width="5760" height="1800" fill="white"/>
</mask>
<g mask="url(#mask0)">
<g opacity="0.1">
<path d="M3186.17 1253.4C3178.99 1252.68 2948.05 1229.37 2785.26 1213.16C2769.39 1211.57 2752.16 1210.01 2733.89 1208.48C2733.89 1208.48 2733.71 1208.45 2733.11 1208.39C2561.01 1193.93 2298.41 1181.68 2228.97 1180.72C2152.06 1179.64 2008.03 1180.72 2008.03 1180.72C2008.03 1180.72 2039.02 1189.15 2040.52 1193.66C2042.02 1198.16 1912 1191.29 1912 1191.29C1912 1191.29 1833 1092.9 1866 1078.9C1899 1064.91 1943.33 995.514 1971.03 991.283C2027.47 982.64 2049.05 1040.62 2160.29 1042.69C2204.07 1043.47 2363.59 1082.45 2371.87 1089.05C2380.12 1095.62 2339.1 1089.89 2339.1 1089.89C2339.1 1089.89 2459.28 1165.78 2578.09 1185.7C2696.86 1205.6 2858.21 1213.16 2858.21 1213.16C2858.21 1213.16 2903.67 1209.8 2940.37 1215.59C2976.44 1221.32 3179.32 1252.35 3186.17 1253.4Z" fill="url(#paint0_linear)"/>
<path d="M2733.11 1208.39C2561.01 1193.93 2298.41 1181.68 2228.97 1180.72C2152.06 1179.64 2008.02 1180.72 2008.02 1180.72C2008.02 1180.72 2039.02 1189.16 2040.52 1193.66C2042.02 1198.16 1912 1191.29 1912 1191.29C1912 1191.29 1808.5 1119.4 1856.5 1119.4C1904.5 1119.4 1975.53 1159.42 2048.54 1166.8C2045.04 1161.31 2042.81 1155.11 2042.02 1148.64C2042.02 1148.64 2193.47 1148.13 2237.52 1153.15L2207.16 1164.34C2288.58 1163.76 2369.94 1168.89 2450.64 1179.7C2584.12 1197.65 2670.36 1198.67 2700.25 1203.41C2723.56 1207.1 2730.98 1208.12 2733.11 1208.39Z" fill="#FF8B56"/>
</g>
<path opacity="0.1" d="M3285.57 547.08C3285.57 547.08 3323.13 518.862 3356.57 521.591C3390.01 524.319 3420.35 535.707 3450.62 545.525C3480.9 555.343 3677.14 538.772 3750.14 559.843C3823.13 580.913 3845.28 590.159 3845.28 590.159C3788.2 576.886 3730.12 568.378 3671.64 564.721C3578.94 559.43 3434.32 564.16 3383.32 564.721C3332.33 565.281 3208 549.182 3208 549.182L3285.57 547.08Z" fill="#FF756D"/>
<path d="M2270.63 1746.96H2163.5L2249.97 1107.92L2270.63 1125.5V1746.96Z" fill="url(#paint1_linear)"/>
<path d="M2249.97 1107.92H2142.83V1746.95H2249.97V1107.92Z" fill="url(#paint2_linear)"/>
<path d="M2206.1 1144.84H2142.83V1149.73H2206.1V1144.84Z" fill="#FFCF00"/>
<path d="M2249.97 1232.03H2186.71V1236.92H2249.97V1232.03Z" fill="#FFCF00"/>
<path d="M2249.97 1183.22H2232.9V1188.1H2249.97V1183.22Z" fill="#FFCF00"/>
<path d="M2248.28 1334.8H2231.21V1339.69H2248.28V1334.8Z" fill="#FFCF00"/>
<path d="M2159.9 1284.56H2142.83V1289.45H2159.9V1284.56Z" fill="#FFCF00"/>
<path style="mix-blend-mode:screen" d="M2143.49 1121.59L2142.83 1409.87L2161.05 1409.25V1588.13H2188.6V1311.52H2206.55V1183.11L2248.28 1183.61V1121.59H2143.49Z" fill="url(#paint3_linear)"/>
<path d="M3019.59 1199.6H3069.27L3029.18 977.507L3019.59 1003.23V1199.6Z" fill="#FFD663"/>
<path d="M3029.17 1199.6H3078.85V977.508H3029.17V1199.6Z" fill="url(#paint4_linear)"/>
<g style="mix-blend-mode:multiply" opacity="0.2">
<path d="M3078.54 982.261L3078.85 1082.45L3070.4 1082.24V1144.41H3057.63V1048.27H3049.31V1003.64L3029.96 1003.82V982.261H3078.54Z" fill="#A90074"/>
</g>
<path d="M3002 1758.83H3079.74L3016.99 1171.01L3002 1187.18V1758.83Z" fill="url(#paint5_linear)"/>
<path d="M3017 1758.83H3094.74V1171.01H3017V1758.83Z" fill="url(#paint6_linear)"/>
<path d="M3048.83 1209.47H3094.74V1204.98H3048.83V1209.47Z" fill="#FFCF00"/>
<path d="M3017 1289.68H3062.91V1285.18H3017V1289.68Z" fill="#FFCF00"/>
<path d="M3031.06 1111.01H3076.97V1106.51H3031.06V1111.01Z" fill="#FFCF00"/>
<path d="M3017 1244.78H3029.38V1240.28H3017V1244.78Z" fill="#FFCF00"/>
<path d="M3018.21 1384.21H3030.6V1379.71H3018.21V1384.21Z" fill="#FFCF00"/>
<path d="M3033.76 1043.98H3046.14V1039.48H3033.76V1043.98Z" fill="#FFCF00"/>
<path d="M3082.36 1338H3094.74V1333.5H3082.36V1338Z" fill="#FFCF00"/>
<g style="mix-blend-mode:multiply" opacity="0.2">
<path d="M3094.27 1183.6L3094.74 1448.77L3081.52 1448.2V1612.74H3061.53V1358.3H3048.51V1240.18L3018.22 1240.64V1183.6H3094.27Z" fill="#A90074"/>
</g>
<path d="M2423.16 1332.19H2299.99V1766.87H2423.16V1332.19Z" fill="url(#paint7_linear)"/>
<path d="M2300 1775.12H2263V1355.23L2300 1332.2V1775.12Z" fill="url(#paint8_linear)"/>
<g style="mix-blend-mode:multiply" opacity="0.35">
<g style="mix-blend-mode:multiply" opacity="0.35">
<path d="M2337.29 1332.19H2335.9V1766.32H2337.29V1332.19Z" fill="#540D37"/>
</g>
</g>
<g style="mix-blend-mode:multiply" opacity="0.35">
<g style="mix-blend-mode:multiply" opacity="0.35">
<path d="M2373.29 1332.19H2371.9V1766.87H2373.29V1332.19Z" fill="#540D37"/>
</g>
</g>
<g style="mix-blend-mode:multiply" opacity="0.35">
<g style="mix-blend-mode:multiply" opacity="0.35">
<path d="M2407.86 1332.19H2406.46V1766.32H2407.86V1332.19Z" fill="#540D37"/>
</g>
</g>
<g style="mix-blend-mode:multiply" opacity="0.35">
<g style="mix-blend-mode:multiply" opacity="0.35">
<path d="M2423.16 1589.3H2299.99V1590.7H2423.16V1589.3Z" fill="#540D37"/>
</g>
</g>
<g style="mix-blend-mode:multiply" opacity="0.35">
<g style="mix-blend-mode:multiply" opacity="0.35">
<path d="M2422.32 1517.65H2300.46V1519.04H2422.32V1517.65Z" fill="#540D37"/>
</g>
</g>
<g style="mix-blend-mode:multiply" opacity="0.35">
<g style="mix-blend-mode:multiply" opacity="0.35">
<path d="M2423.16 1469.11H2372.59V1470.5H2423.16V1469.11Z" fill="#540D37"/>
</g>
</g>
<g style="mix-blend-mode:multiply" opacity="0.2">
<path d="M2335.96 1332.19H2299.99V1479.64H2335.96V1332.19Z" fill="#540D37"/>
</g>
<g style="mix-blend-mode:multiply" opacity="0.2">
<path d="M2408.24 1426.88H2372.59V1469.81H2408.24V1426.88Z" fill="#540D37"/>
</g>
<g style="mix-blend-mode:multiply" opacity="0.2">
<path d="M2407.16 1518.34H2300.46V1587.61H2407.16V1518.34Z" fill="#540D37"/>
</g>
<path d="M2405.48 1512.48H2373.53V1517.76H2405.48V1512.48Z" fill="#FFFF00"/>
<path d="M2405.48 1512.48H2391V1517.76H2405.48V1512.48Z" fill="#FFCF00"/>
<path d="M2405.48 1512.48H2401.43V1517.76H2405.48V1512.48Z" fill="#FF8900"/>
<path d="M2405.45 1346.49H2373.5V1351.77H2405.45V1346.49Z" fill="#FFFF00"/>
<path d="M2405.45 1346.49H2390.96V1351.77H2405.45V1346.49Z" fill="#FFCF00"/>
<path d="M2405.45 1346.49H2401.4V1351.77H2405.45V1346.49Z" fill="#FF8900"/>
<path d="M2372.59 1428.17H2298.85V1433.45H2372.59V1428.17Z" fill="#FFFF00"/>
<path d="M2372.6 1428.17H2339.16V1433.45H2372.6V1428.17Z" fill="#FFCF00"/>
<path d="M2372.59 1428.17H2363.23V1433.45H2372.59V1428.17Z" fill="#FF8900"/>
<path d="M2406.19 1584.23H2332.44V1589.52H2406.19V1584.23Z" fill="#FFFF00"/>
<path d="M2406.19 1584.23H2372.75V1589.52H2406.19V1584.23Z" fill="#FFCF00"/>
<path d="M2406.18 1584.23H2396.83V1589.52H2406.18V1584.23Z" fill="#FF8900"/>
<path d="M2402.44 1321.28H2321.01V1332.19H2402.44V1321.28Z" fill="#FFFF00"/>
<path d="M2321.01 1332.2H2306.3V1326.74L2321.01 1321.28V1332.2Z" fill="#FFCF00"/>
<path d="M2263 1355.23V1453.28L2300 1484.86V1332.2L2263 1355.23Z" fill="#FFC563"/>
<path d="M3320.35 1283.35L3345.17 1290.85V1297.78L3320.35 1292.79V1283.35Z" fill="url(#paint9_linear)"/>
<path d="M3190.84 1283.35L3146.96 1308.8V1317L3190.84 1292.79V1283.35Z" fill="#FFD686"/>
<path d="M3330.58 1292.78H3185.98V1779.7H3330.58V1292.78Z" fill="url(#paint10_linear)"/>
<path d="M3356.82 1782.34H3328.92V1292.79L3356.82 1301.36V1782.34Z" fill="url(#paint11_linear)"/>
<path d="M3187.32 1782.34H3131.55V1326.26L3187.32 1292.79V1782.34Z" fill="url(#paint12_linear)"/>
<path d="M3320.35 1283.36H3190.84V1292.79H3320.35V1283.36Z" fill="#F48629"/>
<g style="mix-blend-mode:multiply" opacity="0.2">
<path d="M3187.45 1749L3187.25 1444.67L3274.98 1445.77V1626.3H3296.11V1575.26H3328.44V1779.7L3187.45 1749Z" fill="#540D37"/>
</g>
<g style="mix-blend-mode:multiply" opacity="0.35">
<g style="mix-blend-mode:multiply" opacity="0.35">
<path d="M3156.93 1781.51L3156.43 1310.68H3157.55L3158.05 1781.51H3156.93Z" fill="#540D37"/>
</g>
</g>
<g style="mix-blend-mode:multiply" opacity="0.35">
<g style="mix-blend-mode:multiply" opacity="0.35">
<path d="M3275.54 1292.78H3274.42V1779.4H3275.54V1292.78Z" fill="#540D37"/>
</g>
</g>
<g style="mix-blend-mode:multiply" opacity="0.35">
<g style="mix-blend-mode:multiply" opacity="0.35">
<path d="M3297.42 1292.56H3296.3V1775.24H3297.42V1292.56Z" fill="#540D37"/>
</g>
</g>
<g style="mix-blend-mode:multiply" opacity="0.35">
<g style="mix-blend-mode:multiply" opacity="0.35">
<path d="M3219.08 1292.78H3217.96V1777.49H3219.08V1292.78Z" fill="#540D37"/>
</g>
</g>
<g style="mix-blend-mode:multiply" opacity="0.35">
<g style="mix-blend-mode:multiply" opacity="0.35">
<path d="M3131.53 1462.45L3131.2 1461.38L3187.25 1444.12H3328.91V1445.23H3187.33L3131.53 1462.45Z" fill="#540D37"/>
</g>
</g>
<g style="mix-blend-mode:multiply" opacity="0.35">
<g style="mix-blend-mode:multiply" opacity="0.35">
<path d="M3131.49 1401.41L3131.11 1400.36L3187.33 1379.78H3328.43V1380.9H3187.42L3131.49 1401.41Z" fill="#540D37"/>
</g>
</g>
<g style="mix-blend-mode:multiply" opacity="0.35">
<g style="mix-blend-mode:multiply" opacity="0.35">
<path d="M3328.43 1625.74H3185.98V1626.86H3328.43V1625.74Z" fill="#540D37"/>
</g>
</g>
<g style="mix-blend-mode:multiply" opacity="0.35">
<g style="mix-blend-mode:multiply" opacity="0.35">
<path d="M3328.56 1574.72L3328.29 1575.8L3356.67 1582.91L3356.94 1581.82L3328.56 1574.72Z" fill="#540D37"/>
</g>
</g>
<path d="M3296.11 1621.68H3218.52V1626.3H3296.11V1621.68Z" fill="#FFFF00"/>
<path d="M3296.11 1621.68H3260.93V1626.3H3296.11V1621.68Z" fill="#FFCF00"/>
<path d="M3296.11 1621.68H3286.27V1626.3H3296.11V1621.68Z" fill="#FF8900"/>
<path d="M3291.18 1440.05H3188.22V1444.68H3291.18V1440.05Z" fill="#FFFF00"/>
<path d="M3291.19 1440.05H3244.5V1444.68H3291.19V1440.05Z" fill="#FFCF00"/>
<path d="M3291.18 1440.05H3278.12V1444.68H3291.18V1440.05Z" fill="#FF8900"/>
<g style="mix-blend-mode:multiply" opacity="0.2">
<path d="M3327.66 1382.69H3298.13V1573.16H3327.66V1382.69Z" fill="#540D37"/>
</g>
<path d="M3288.5 1373.63H3247.19V1378.26H3288.5V1373.63Z" fill="#FFFF00"/>
<path d="M3288.5 1373.63H3269.77V1378.26H3288.5V1373.63Z" fill="#FFCF00"/>
<path d="M3288.49 1373.63H3283.25V1378.26H3288.49V1373.63Z" fill="#FF8900"/>
<path d="M3258.67 1693.98H3217.36V1698.61H3258.67V1693.98Z" fill="#FFFF00"/>
<path d="M3258.66 1693.98H3239.93V1698.61H3258.66V1693.98Z" fill="#FFCF00"/>
<path d="M3258.66 1693.98H3253.42V1698.61H3258.66V1693.98Z" fill="#FF8900"/>
<path d="M3276.27 1693.98H3263.86V1698.61H3276.27V1693.98Z" fill="#FF8900"/>
<path d="M3235.47 1564.22H3223.06V1568.84H3235.47V1564.22Z" fill="#FFFF00"/>
<path d="M3315.13 1440.05H3308.93V1444.68H3315.13V1440.05Z" fill="#FFFF00"/>
<path d="M3298.84 1373.63H3292.63V1378.26H3298.84V1373.63Z" fill="#FFFF00"/>
<path d="M3218.52 1373.63H3188.99V1378.26H3218.52V1373.63Z" fill="#FFFF00"/>
<path d="M3134.61 1460.91V1457.79L3157.17 1449.95V1453.95L3134.61 1460.91Z" fill="#FFFF00"/>
<path d="M3328.43 1743.28H3296.86V1747.48H3328.43V1743.28Z" fill="#FFFF00"/>
<path d="M3309.17 1743.07H3296.77V1747.69H3309.17V1743.07Z" fill="#FF8900"/>
<path d="M3328.91 1314.73H3281.56V1318.73H3328.91L3342.86 1323.29V1319.87L3328.91 1314.73Z" fill="#FFFF00"/>
<path d="M3328.92 1314.73V1318.73L3342.87 1323.29V1319.87L3328.92 1314.73Z" fill="#FFCF00"/>
<g style="mix-blend-mode:multiply" opacity="0.2">
<path d="M3218.52 1378.26H3188.99V1440.05H3218.52V1378.26Z" fill="#540D37"/>
</g>
<g style="mix-blend-mode:soft-light" opacity="0.5">
<path d="M3157.19 1390.61V1389.62V1301.36L3187.33 1292.79V1380.35L3157.19 1390.61Z" fill="#EFBBFC"/>
</g>
<path style="mix-blend-mode:screen" d="M3157.65 1387.05L3328.43 1556L3327.65 1768.18L3157.18 1625.66L3131 1635.29L3131.55 1395.07L3157.65 1387.05Z" fill="url(#paint13_linear)"/>
<path style="mix-blend-mode:screen" d="M2765.73 1956.55C3072 1956.55 3320.27 1866.97 3320.27 1756.48C3320.27 1645.98 3072 1556.4 2765.73 1556.4C2459.47 1556.4 2211.2 1645.98 2211.2 1756.48C2211.2 1866.97 2459.47 1956.55 2765.73 1956.55Z" fill="url(#paint14_radial)"/>
<g style="mix-blend-mode:soft-light" opacity="0.53">
<path d="M3739.03 1789.57H1934.12V1795.05H3739.03V1789.57Z" fill="white"/>
</g>
<path d="M2094.44 1439.31H1997V1774.53H2094.44V1439.31Z" fill="url(#paint15_linear)"/>
<path d="M3647 1385.4H3568V1775.4H3647V1385.4Z" fill="url(#paint16_linear)"/>
<path d="M3693 1488.4H3633V1775.4H3693V1488.4Z" fill="url(#paint17_linear)"/>
<path d="M2896.18 1261.54H2880V1771.13H2896.18V1261.54Z" fill="url(#paint18_linear)"/>
<path d="M2855.6 1771.13H2839.48V1355.16L2845.43 1347.01L2855.6 1771.13Z" fill="#FFD663"/>
<path d="M2883.63 1261.54H2875.45V1771.13H2883.63V1261.54Z" fill="#FFD663"/>
<path d="M2857.37 1771.13H2831.98V1476.67L2841.36 1470.87L2857.37 1771.13Z" fill="#FFD663"/>
<path d="M2914.18 1409.25H2896.24V1771.13H2914.18V1409.25Z" fill="url(#paint19_linear)"/>
<path d="M2900.28 1409.25H2891.22V1771.13H2900.28V1409.25Z" fill="#FFD663"/>
<path d="M2851.26 1771.13H2825.87V1577.44L2835.24 1574.08L2851.26 1771.13Z" fill="#FFD663"/>
<path d="M2871.25 1771.13H2863.82V1138.15L2871.25 1115.44V1771.13Z" fill="#FFD663"/>
<path d="M2878.67 1115.44H2871.25V1771.13H2878.67V1115.44Z" fill="url(#paint20_linear)"/>
<path d="M2867.64 1771.13H2851.52V1213.82L2857.48 1194.87L2867.64 1771.13Z" fill="#FFD663"/>
<path d="M2867.64 1194.87H2857.48V1771.13H2867.64V1194.87Z" fill="url(#paint21_linear)"/>
<path d="M2860.32 1347.01H2845.44V1771.13H2860.32V1347.01Z" fill="url(#paint22_linear)"/>
<path d="M2857.38 1470.87H2841.36V1771.13H2857.38V1470.87Z" fill="url(#paint23_linear)"/>
<path d="M2853.08 1574.08H2835.24V1771.13H2853.08V1574.08Z" fill="url(#paint24_linear)"/>
<path d="M2845.34 1664.15H2821.64V1771.13H2845.34V1664.15Z" fill="url(#paint25_linear)"/>
<path d="M2826.97 1664.15H2815V1771.13H2826.97V1664.15Z" fill="#FFD663"/>
<path d="M2932.26 1511.54H2911.82V1771.13H2932.26V1511.54Z" fill="url(#paint26_linear)"/>
<path d="M2916.42 1511.54H2906.09V1771.13H2916.42V1511.54Z" fill="#FFD663"/>
<path d="M2946.68 1614.68H2928.76V1771.13H2946.68V1614.68Z" fill="url(#paint27_linear)"/>
<path d="M2928.76 1614.68H2920.91V1771.13H2928.76V1614.68Z" fill="#FFD663"/>
<path d="M2845.33 1664.15H2826.97V1672.6H2845.33V1664.15Z" fill="#FFBA9F"/>
<path d="M2853.35 1573.77H2834.99V1582.22H2853.35V1573.77Z" fill="#FFBA9F"/>
<path d="M2946.9 1614.68H2928.54V1623.13H2946.9V1614.68Z" fill="#FFBA9F"/>
<path d="M2858.55 1470.87H2841.59V1479.32H2858.55V1470.87Z" fill="#FFBA9F"/>
<path d="M2860.4 1347.01H2845.34V1353.21H2860.4V1347.01Z" fill="#FFBA9F"/>
<path d="M2932.25 1511.54H2916.41V1517.74H2932.25V1511.54Z" fill="#FFBA9F"/>
<path d="M2867.65 1194.82H2857.18V1201.02H2867.65V1194.82Z" fill="#FFBA9F"/>
<path d="M2876.08 1073.4H2872.37V1124.53H2876.08V1073.4Z" fill="#FFEFC2"/>
<path d="M2878.78 1115.44H2871.25V1144.72H2878.78V1115.44Z" fill="#FFBA9F"/>
<path d="M2876.44 1073.4H2873.39V1115.44H2876.44V1073.4Z" fill="#FFBA9F"/>
<path d="M2826.97 1664.15H2815V1672.6H2826.97V1664.15Z" fill="#FFEFC2"/>
<path d="M2834.98 1573.77L2825.87 1577.44V1585.78L2834.98 1582.22V1573.77Z" fill="#FFEFC2"/>
<path d="M2841.58 1470.87L2831.98 1476.67V1485.56L2841.58 1479.32V1470.87Z" fill="#FFEFC2"/>
<path d="M2845.34 1347.01L2839.48 1355.16V1361.64L2845.34 1353.21V1347.01Z" fill="#FFEFC2"/>
<path d="M2857.48 1194.87L2851.52 1213.82V1219.98L2857.17 1201.02L2857.48 1194.87Z" fill="#FFEFC2"/>
<path d="M2871.25 1115.44L2863.82 1138.15V1161.95L2871.25 1144.72V1115.44Z" fill="#FFEFC2"/>
<path d="M2896.17 1261.54H2883.63V1266.79H2896.17V1261.54Z" fill="#FFBA9F"/>
<path d="M2914.17 1409.25H2900.28V1414.51H2914.17V1409.25Z" fill="#FFBA9F"/>
<path style="mix-blend-mode:screen" opacity="0.5" d="M2845.43 1672.6H2826.97V1717.64H2845.43V1672.6Z" fill="url(#paint28_linear)"/>
<path style="mix-blend-mode:screen" opacity="0.5" d="M2853.4 1582.22H2834.94V1627.25H2853.4V1582.22Z" fill="url(#paint29_linear)"/>
<path style="mix-blend-mode:screen" opacity="0.5" d="M2932.2 1517.74H2916.41V1562.78H2932.2V1517.74Z" fill="url(#paint30_linear)"/>
<path style="mix-blend-mode:screen" opacity="0.5" d="M2914.17 1414.51H2900.28V1459.54H2914.17V1414.51Z" fill="url(#paint31_linear)"/>
<path d="M2946.68 1703.78H2928.76V1707.34H2946.68V1703.78Z" fill="#FFFF00"/>
<path d="M2920.66 1703.78H2916.41V1714.15H2920.66V1703.78Z" fill="#FFCF00"/>
<path d="M2914.18 1480.38H2900.54V1484.63H2914.18V1480.38Z" fill="#FFCF00"/>
<path d="M2914.17 1480.38H2909.92V1484.63H2914.17V1480.38Z" fill="#FF8900"/>
<path d="M2875.5 1703.78H2871.25V1714.15H2875.5V1703.78Z" fill="#FFCF00"/>
<path d="M2857.4 1703.78H2853.15V1707.34H2857.4V1703.78Z" fill="#FFCF00"/>
<path d="M2891.73 1703.78H2883.42V1714.15H2891.73V1703.78Z" fill="#FFFF00"/>
<path d="M2845.43 1703.78H2826.97V1707.34H2845.43V1703.78Z" fill="#FFFF00"/>
<path d="M2826.97 1703.78H2815V1707.34H2826.97V1703.78Z" fill="#FFCF00"/>
<path d="M2879.41 1499.59H2841.59V1504.09H2879.41V1499.59Z" fill="#FFFF00"/>
<path d="M2879.42 1499.59H2862.27V1504.09H2879.42V1499.59Z" fill="#FFCF00"/>
<path d="M2879.42 1499.59H2874.62V1504.09H2879.42V1499.59Z" fill="#FF8900"/>
<path d="M2895.02 1303.95H2871.25V1308.45H2895.02V1303.95Z" fill="#FFFF00"/>
<path d="M2895.02 1303.95H2884.24V1308.45H2895.02V1303.95Z" fill="#FFCF00"/>
<path d="M2895.01 1303.95H2892V1308.45H2895.01V1303.95Z" fill="#FF8900"/>
<path d="M2888.88 1499.59H2883.2V1504.09H2888.88V1499.59Z" fill="#FFFF00"/>
<path d="M2863.34 1240.99H2857.66V1245.49H2863.34V1240.99Z" fill="#FFFF00"/>
<g style="mix-blend-mode:soft-light" opacity="0.5">
<path d="M2893.51 1341.26H2883.64V1406.47L2878.68 1417.58H2871.26V1450L2867.65 1452.78H2860.5V1771.13H2920.91L2920.66 1562.87L2932.21 1562.78L2932.26 1517.74L2911.82 1511.54V1414.51H2893.03L2893.51 1341.26Z" fill="#EFBBFC"/>
</g>
<g style="mix-blend-mode:multiply" opacity="0.2">
<path d="M2878.67 1314.87H2871.25V1396.28H2878.67V1314.87Z" fill="#540D37"/>
</g>
<g style="mix-blend-mode:multiply" opacity="0.2">
<path d="M2867.53 1569.01H2860.11V1650.43H2867.53V1569.01Z" fill="#540D37"/>
</g>
<path style="mix-blend-mode:color-dodge" d="M2909.93 1472.83C2910.97 1472.83 2911.82 1468.63 2911.82 1463.45C2911.82 1458.27 2910.97 1454.08 2909.93 1454.08C2908.89 1454.08 2908.04 1458.27 2908.04 1463.45C2908.04 1468.63 2908.89 1472.83 2909.93 1472.83Z" fill="url(#paint32_radial)"/>
<path d="M5760 1749.4H0V1788.4H5760V1749.4Z" fill="url(#paint33_linear)"/>
<path style="mix-blend-mode:screen" d="M2786.56 1752.14H2964.79V1420.36H2786.56V1752.14Z" fill="url(#paint34_linear)"/>
<path d="M2638.45 1322.35L2565.86 1313.31C2618.85 1396.15 2680.61 1545.18 2678.35 1774.02L2788.88 1770.5C2788.88 1770.5 2861.41 1455.45 2638.45 1322.35Z" fill="url(#paint35_linear)"/>
<path d="M2497.07 1232.78H2535.99L2537.91 1774.02H2494.14L2497.07 1232.78Z" fill="url(#paint36_linear)"/>
<path d="M2570.8 1312.4L2500.42 1325.31V1773.26L2678.36 1774.02C2700.11 1570.52 2630.66 1404.04 2570.8 1312.4Z" fill="url(#paint37_linear)"/>
<path d="M2774.14 1770.04C2762.97 1770.65 2775.48 1769.98 2700.14 1774.03C2700.14 1774.03 2715.55 1691.83 2694.4 1568.72C2680.74 1489.22 2649.56 1408.81 2615.52 1342.1L2656.78 1349.95C2716.67 1393.18 2806.6 1537.04 2774.14 1770.04Z" fill="url(#paint38_linear)"/>
<path d="M2780.12 1707.88L2774.14 1770.04L2765.76 1770.5C2801.85 1470.62 2655.42 1358.61 2655.42 1358.61L2621.49 1351.64L2621.41 1351.53L2615.94 1342.76L2615.52 1342.1L2656.78 1349.95C2656.78 1349.95 2793.55 1448.67 2780.12 1707.88Z" fill="url(#paint39_linear)"/>
<path d="M2481.72 1773.26L2486.09 1243.32L2497.08 1232.78L2494.14 1774.02L2481.72 1773.26Z" fill="#FFD663"/>
<path d="M2503.06 1232.78L2503.67 1105.66L2509.5 1097.4V1232.78H2503.06Z" fill="#FFEFC2"/>
<path d="M2509.5 1097.4H2516.03L2518.82 1233.91L2509.5 1232.78V1097.4Z" fill="#FFBA9F"/>
<g style="mix-blend-mode:multiply" opacity="0.2">
<path d="M2503.06 1246.07V1318.07L2531.71 1319.57V1250.73L2503.06 1246.07Z" fill="#540D37"/>
</g>
<path d="M2524.54 1226.37H2533.5C2533.5 1226.37 2872.1 1384.93 2800.16 1771.49L2788.89 1770.5C2788.89 1770.5 2872.1 1424.6 2524.54 1226.37Z" fill="url(#paint40_linear)"/>
<path d="M2788.89 1770.5C2788.89 1770.5 2875.26 1418.42 2524.54 1226.37L2526.21 1233.17C2526.21 1233.17 2840.82 1383.72 2781.01 1769.65L2788.89 1770.5Z" fill="#FFD663"/>
<path d="M2512.83 1226.37H2524.53C2524.53 1226.37 2718.21 1426.42 2688.36 1774.03L2678.35 1774.02C2678.35 1774.02 2685.59 1436.17 2512.83 1226.37Z" fill="url(#paint41_linear)"/>
<path d="M2678.35 1774.02C2678.35 1774.02 2707.95 1468.53 2512.83 1226.37V1243.08C2512.83 1243.08 2684.73 1426.42 2664.52 1774.03L2678.35 1774.02Z" fill="#FFD663"/>
<path d="M2634.51 1487.17L2505.7 1498.21L2506.98 1513.22L2635.8 1502.18L2634.51 1487.17Z" fill="#FFFF00"/>
<path d="M2634.52 1487.17L2576.11 1492.18L2577.39 1507.18L2635.8 1502.18L2634.52 1487.17Z" fill="#FFCF00"/>
<g style="mix-blend-mode:soft-light" opacity="0.5">
<path d="M2598.73 1383.72L2500.42 1479.69V1753.09H2545.72V1697.79H2570.75V1575.28H2615.51V1509.54H2641.55C2641.55 1509.54 2614.48 1400.03 2598.73 1383.72Z" fill="#EFBBFC"/>
</g>
<path d="M2634.52 1487.17L2618.18 1488.57L2619.47 1503.58L2635.8 1502.18L2634.52 1487.17Z" fill="#FF8900"/>
<path d="M2641.75 1648.68L2512.48 1651.1L2512.62 1658.63L2641.89 1656.21L2641.75 1648.68Z" fill="#FFFF00"/>
<path d="M2641.75 1648.68L2583.13 1649.78L2583.27 1657.31L2641.89 1656.21L2641.75 1648.68Z" fill="#FFCF00"/>
<path d="M2587.57 1582.26L2572.79 1582.54L2572.93 1590.07L2587.71 1589.79L2587.57 1582.26Z" fill="#FFCF00"/>
<path d="M2529.47 1730.37L2514.69 1730.64L2514.83 1738.17L2529.61 1737.89L2529.47 1730.37Z" fill="#FFCF00"/>
<path d="M2585.84 1398.41L2527.89 1407.3L2528.08 1399.65L2585.98 1390.77L2585.84 1398.41Z" fill="#FFCF00"/>
<path d="M2641.75 1648.68L2625.36 1648.99L2625.5 1656.52L2641.89 1656.21L2641.75 1648.68Z" fill="#FF8900"/>
<g style="mix-blend-mode:multiply" opacity="0.35">
<g style="mix-blend-mode:multiply" opacity="0.35">
<path d="M2665.92 1739.12H2500.43V1740.55H2665.92V1739.12Z" fill="#540D37"/>
</g>
<g style="mix-blend-mode:multiply" opacity="0.35">
<path d="M2665.45 1713.32H2500.43V1714.75H2665.45V1713.32Z" fill="#540D37"/>
</g>
<g style="mix-blend-mode:multiply" opacity="0.35">
<path d="M2654.05 1569.39L2500.39 1576.17L2500.45 1577.6L2654.12 1570.82L2654.05 1569.39Z" fill="#540D37"/>
</g>
<g style="mix-blend-mode:multiply" opacity="0.35">
<path d="M2623.57 1450.66L2500.33 1464.92L2500.5 1466.34L2623.73 1452.08L2623.57 1450.66Z" fill="#540D37"/>
</g>
<g style="mix-blend-mode:multiply" opacity="0.35">
<path d="M2610.67 1411.93L2500.33 1426.27L2500.52 1427.69L2610.85 1413.36L2610.67 1411.93Z" fill="#540D37"/>
</g>
<g style="mix-blend-mode:multiply" opacity="0.35">
<path d="M2577.11 1337.48L2500.29 1352.26L2500.56 1353.67L2577.38 1338.88L2577.11 1337.48Z" fill="#540D37"/>
</g>
<g style="mix-blend-mode:multiply" opacity="0.35">
<path d="M2562.76 1379.12L2561.33 1379.15L2570.04 1769.66L2571.48 1769.63L2562.76 1379.12Z" fill="#540D37"/>
</g>
<g style="mix-blend-mode:multiply" opacity="0.35">
<path d="M2522.87 1348.77H2521.43V1463.14H2522.87V1348.77Z" fill="#540D37"/>
</g>
<g style="mix-blend-mode:multiply" opacity="0.35">
<path d="M2529.21 1575.69H2527.77V1774.02H2529.21V1575.69Z" fill="#540D37"/>
</g>
</g>
<path d="M2629.85 1371.43L2672.96 1375.46L2688.8 1380.23L2632.63 1377.51L2629.85 1371.43Z" fill="#FFA463"/>
<path d="M2645.2 1405.95L2698.28 1407.57L2711.83 1412.65L2648.44 1413.87L2645.2 1405.95Z" fill="#FFA463"/>
<path d="M2660.36 1444.43H2720.26L2735.04 1453.64L2664.45 1455.82L2660.36 1444.43Z" fill="#FFA463"/>
<path d="M2675.06 1488.21L2739 1487.87L2753.52 1498.16L2678.12 1498.43L2675.06 1488.21Z" fill="#FFA463"/>
<path d="M2686.18 1528.98L2752.44 1527.65L2765.26 1538.57L2688.81 1540.36L2686.18 1528.98Z" fill="#FFA463"/>
<path d="M2695.2 1573.5L2762.88 1575.04L2774.64 1584.48H2696.97L2695.2 1573.5Z" fill="#FFA463"/>
<path d="M2701.57 1620.62L2769.1 1623.28L2779.77 1634.41L2702.86 1634.23L2701.57 1620.62Z" fill="#FFA463"/>
<path d="M2705.23 1674.86L2771.59 1677.73L2780.83 1688.48H2705.51L2705.23 1674.86Z" fill="#FFA463"/>
<path d="M2704.72 1728.7H2769.73L2777.73 1739.83H2704.03L2704.72 1728.7Z" fill="#FFA463"/>
<path d="M2774.64 1584.48H2696.98L2697.23 1586.38L2774.64 1584.48Z" fill="#FF7C48"/>
<path d="M2702.85 1634.23H2768.13L2703.12 1637.38L2702.85 1634.23Z" fill="#FF7C48"/>
<path d="M2705.52 1688.48H2780.83L2705.53 1690L2705.52 1688.48Z" fill="#FF7C48"/>
<path d="M2677.73 1497.18L2743.3 1498.2L2678.12 1498.43L2677.73 1497.18Z" fill="#FF7C48"/>
<path d="M2688.82 1540.36L2765.27 1538.57L2689.21 1542.11L2688.82 1540.36Z" fill="#FF7C48"/>
<path d="M2497.07 1672.94L2665 1670.86L2665.44 1680.62H2494.64L2497.07 1672.94Z" fill="#FFD663"/>
<path d="M2495.41 1538.9L2646.08 1528.98L2644.01 1519.82L2497.07 1529.19L2495.41 1538.9Z" fill="#FFD663"/>
<path d="M2590.58 1365.98L2497.09 1383.72L2500.43 1389.03L2594.36 1373.94L2590.58 1365.98Z" fill="#FFD663"/>
<path d="M2497.95 1674.08L2496.02 1671.98L2571.87 1589.1L2645.17 1527.88L2647.2 1529.88L2583.04 1609.02L2497.95 1674.08ZM2635.71 1539.51L2573.85 1591.17L2509.04 1661.99L2581.16 1606.84L2635.71 1539.51Z" fill="#FFD663"/>
<path d="M2488.94 1779.02L2570.81 1725.74L2664.82 1679.34L2666.3 1681.77L2581.17 1744.99L2488.94 1779.02ZM2651.91 1688.9L2572.22 1728.23L2511.9 1767.49L2579.98 1742.37L2651.91 1688.9Z" fill="#FFD663"/>
<path d="M2502.88 1530.22L2500.47 1528.69L2541.91 1450.98L2593.16 1373.15L2595.65 1374.55L2554.35 1461.87L2502.88 1530.22ZM2584.38 1391.69L2544.37 1452.44L2511.65 1513.81L2551.97 1460.26L2584.38 1391.69Z" fill="#FFD663"/>
<path d="M2378.52 1704.45H2343.36V1796.67H2378.52V1704.45Z" fill="url(#paint42_linear)"/>
<path d="M2396.11 1704.44H2360.94V1796.67H2396.11V1704.44Z" fill="#540D37"/>
<path d="M2971.81 1704.4H2936.61V1796.72H2971.81V1704.4Z" fill="url(#paint43_linear)"/>
<path d="M2989.4 1704.4H2954.21V1796.72H2989.4V1704.4Z" fill="#540D37"/>
<path d="M2598.75 1775.18H2378.52V1796.72H2598.75V1775.18Z" fill="#540D37"/>
<path d="M2708.86 1775.18H2488.64V1796.72H2708.86V1775.18Z" fill="#540D37"/>
<g style="mix-blend-mode:multiply" opacity="0.35">
<path d="M2971.12 1763.7H2871.62V1796.72H2971.12V1763.7Z" fill="#540D37"/>
</g>
<path d="M3020.87 1763.7H2921.37V1796.72H3020.87V1763.7Z" fill="#540D37"/>
<path d="M3458.83 1763.33H3416.74V1254.72L3458.83 1214.4V1763.33Z" fill="url(#paint44_linear)"/>
<path d="M3394.1 1763.33H3352V1486.14L3394.1 1471.48V1763.33Z" fill="url(#paint45_linear)"/>
<path d="M3416.74 1254.72V1299.31L3458.83 1258.1V1214.4L3416.74 1254.72Z" fill="#FFEFC2"/>
<path d="M3433.25 1763.33H3391.15V1296.46L3433.25 1259.45V1763.33Z" fill="url(#paint46_linear)"/>
<path d="M3433.24 1259.45L3442.32 1261.51V1761.85L3433.24 1763.33V1259.45Z" fill="url(#paint47_linear)"/>
<path d="M3586.9 1765.69H3458.74L3458.82 1214.4L3586.9 1215.93V1765.69Z" fill="url(#paint48_linear)"/>
<g style="mix-blend-mode:multiply" opacity="0.2">
<path d="M3356.93 1762.46V1513.1L3387 1505.44V1762.18L3356.93 1762.46Z" fill="#540D37"/>
</g>
<path d="M3458.82 1258.1H3586.9V1215.93L3458.82 1214.4V1258.1Z" fill="#FFBA9F"/>
<path style="mix-blend-mode:screen" d="M3391.15 1393.7L3433.25 1352.29V1633.95L3391.15 1709.18V1393.7Z" fill="url(#paint49_linear)"/>
<g style="mix-blend-mode:multiply" opacity="0.35">
<g style="mix-blend-mode:multiply" opacity="0.35">
<path d="M3475.73 1215.62L3473.68 1765.21L3475.05 1765.22L3477.11 1215.63L3475.73 1215.62Z" fill="#540D37"/>
</g>
<g style="mix-blend-mode:multiply" opacity="0.35">
<path d="M3494.77 1214.82H3493.39V1764.5H3494.77V1214.82Z" fill="#540D37"/>
</g>
<g style="mix-blend-mode:multiply" opacity="0.35">
<path d="M3586.9 1633.26H3459.89V1634.64H3586.9V1633.26Z" fill="#540D37"/>
</g>
<g style="mix-blend-mode:multiply" opacity="0.35">
<path d="M3524.08 1215.62H3522.7V1766.66H3524.08V1215.62Z" fill="#540D37"/>
</g>
<g style="mix-blend-mode:multiply" opacity="0.35">
<path d="M3543.18 1215.62H3541.81V1765.69H3543.18V1215.62Z" fill="#540D37"/>
</g>
<g style="mix-blend-mode:multiply" opacity="0.35">
<path d="M3586.9 1367.64H3458.82V1369.02H3586.9V1367.64Z" fill="#540D37"/>
</g>
<g style="mix-blend-mode:multiply" opacity="0.35">
<path d="M3586.9 1344.72H3458.82V1346.09H3586.9V1344.72Z" fill="#540D37"/>
</g>
<g style="mix-blend-mode:multiply" opacity="0.35">
<path d="M3586.9 1576.29H3523.4V1577.66H3586.9V1576.29Z" fill="#540D37"/>
</g>
<g style="mix-blend-mode:multiply" opacity="0.35">
<path d="M3586.9 1296.1H3523.4V1297.47H3586.9V1296.1Z" fill="#540D37"/>
</g>
</g>
<g style="mix-blend-mode:multiply" opacity="0.5">
<g style="mix-blend-mode:multiply" opacity="0.5">
<path d="M3432.81 1296.21L3390.74 1327.24L3391.56 1328.35L3433.63 1297.32L3432.81 1296.21Z" fill="#B84F7F"/>
</g>
<g style="mix-blend-mode:multiply" opacity="0.5">
<path d="M3404.8 1285.06H3403.43V1761.74H3404.8V1285.06Z" fill="#B84F7F"/>
</g>
<g style="mix-blend-mode:multiply" opacity="0.5">
<path d="M3427.48 1265.12H3426.11V1762.69H3427.48V1265.12Z" fill="#B84F7F"/>
</g>
<g style="mix-blend-mode:multiply" opacity="0.5">
<path d="M3432.87 1424.03L3390.8 1448.98L3391.5 1450.17L3433.58 1425.22L3432.87 1424.03Z" fill="#B84F7F"/>
</g>
<g style="mix-blend-mode:multiply" opacity="0.5">
<path d="M3433.11 1563.9L3403.98 1569.19L3404.23 1570.54L3433.35 1565.26L3433.11 1563.9Z" fill="#B84F7F"/>
</g>
</g>
<g style="mix-blend-mode:multiply" opacity="0.2">
<path d="M3475.39 1225.07L3474.69 1472.01L3494.08 1471.48V1624.71H3523.4V1387.76H3542.49V1277.77L3586.9 1278.2V1225.07H3475.39Z" fill="#540D37"/>
</g>
<g style="mix-blend-mode:multiply" opacity="0.2">
<path d="M3586.9 1576.06H3542.5V1765.69H3586.9V1576.06Z" fill="#540D37"/>
</g>
<path d="M3556.67 1363.05H3468.47V1367.01H3556.67V1363.05Z" fill="#FFFF00"/>
<path d="M3556.66 1363.05H3516.67V1367.01H3556.66V1363.05Z" fill="#FFCF00"/>
<path d="M3556.67 1363.05H3545.48V1367.01H3556.67V1363.05Z" fill="#FF8900"/>
<path d="M3569.6 1290.09H3481.41V1296.26H3569.6V1290.09Z" fill="#FFFF00"/>
<path d="M3569.6 1290.09H3529.61V1296.26H3569.6V1290.09Z" fill="#FFCF00"/>
<path d="M3569.6 1290.09H3558.41V1296.26H3569.6V1290.09Z" fill="#FF8900"/>
<path d="M3569.6 1624.5H3481.41V1630.68H3569.6V1624.5Z" fill="#FFFF00"/>
<path d="M3569.6 1624.5H3529.61V1630.68H3569.6V1624.5Z" fill="#FFCF00"/>
<path d="M3522.82 1435.82H3494.08V1443.99H3522.82V1435.82Z" fill="#FFFF00"/>
<path d="M3522.83 1435.82H3509.8V1443.99H3522.83V1435.82Z" fill="#FFCF00"/>
<path d="M3571.22 1666.79H3542.48V1674.96H3571.22V1666.79Z" fill="#FFFF00"/>
<path d="M3571.22 1666.79H3558.18V1674.96H3571.22V1666.79Z" fill="#FFCF00"/>
<path d="M3505.8 1247.7H3477.06V1255.87H3505.8V1247.7Z" fill="#FFFF00"/>
<path d="M3505.8 1247.7H3492.77V1255.87H3505.8V1247.7Z" fill="#FFCF00"/>
<path d="M3387 1547.77L3356.93 1552.4V1546.23L3387 1541.6V1547.77Z" fill="#FFFF00"/>
<path d="M3370.48 1616.25L3356.93 1617.41V1611.23L3370.48 1610.08V1616.25Z" fill="#FFFF00"/>
<path d="M3386.98 1704.45L3378.31 1705.19V1701.24L3386.98 1700.49V1704.45Z" fill="#FF8900"/>
<path d="M3569.6 1624.5H3558.41V1630.68H3569.6V1624.5Z" fill="#FF8900"/>
<path d="M3577.18 1363.05H3571.87V1367.01H3577.18V1363.05Z" fill="#FFFF00"/>
<path d="M3485.53 1309.32H3476.09V1316.36H3485.53V1309.32Z" fill="#FFFF00"/>
<path d="M3496.74 1533.92H3491.43V1537.88H3496.74V1533.92Z" fill="#FFFF00"/>
<path d="M3481.4 1533.92H3476.09V1537.88H3481.4V1533.92Z" fill="#FFFF00"/>
<path d="M3394.97 1447.3V1442.12L3422.8 1422.88V1430.82L3394.97 1447.3Z" fill="#FFFF00"/>
<path d="M3394.97 1442.12V1447.3L3404.11 1441.88V1435.79L3394.97 1442.12Z" fill="#FFCF00"/>
<path d="M3433.06 1289.77L3404.11 1311.63V1316.36L3433.23 1296.79L3433.06 1289.77Z" fill="#FFFF00"/>
<path d="M3426.8 1294.49V1301.11L3433.24 1296.79L3433.07 1289.77L3426.8 1294.49Z" fill="#FFCF00"/>
<path d="M2085.19 1762.46V1350.4C2085.19 1350.4 2127.7 1408.99 2194.47 1450.51V1766.26L2085.19 1762.46Z" fill="url(#paint50_linear)"/>
<path d="M2085.19 1350.4L2122.12 1350.63C2122.12 1350.63 2248.01 1378.23 2263.2 1450.99L2194.47 1450.51C2194.47 1450.51 2111.45 1401.21 2085.19 1350.4Z" fill="url(#paint51_linear)"/>
<path d="M2194.47 1450.51V1766.26H2263.2V1450.99L2194.47 1450.51Z" fill="url(#paint52_linear)"/>
<g style="mix-blend-mode:multiply" opacity="0.35">
<g style="mix-blend-mode:multiply" opacity="0.35">
<path d="M2174.19 1366.41H2095.5V1367H2174.19V1366.41Z" fill="#540D37"/>
</g>
</g>
<g style="mix-blend-mode:multiply" opacity="0.35">
<g style="mix-blend-mode:multiply" opacity="0.35">
<path d="M2203.23 1380.81H2107.31V1381.4H2203.23V1380.81Z" fill="#540D37"/>
</g>
</g>
<g style="mix-blend-mode:multiply" opacity="0.35">
<g style="mix-blend-mode:multiply" opacity="0.35">
<path d="M2224.71 1395.39H2122.12V1395.98H2224.71V1395.39Z" fill="#540D37"/>
</g>
</g>
<g style="mix-blend-mode:multiply" opacity="0.35">
<g style="mix-blend-mode:multiply" opacity="0.35">
<path d="M2240.91 1409.44H2137.89V1410.03H2240.91V1409.44Z" fill="#540D37"/>
</g>
</g>
<g style="mix-blend-mode:multiply" opacity="0.35">
<g style="mix-blend-mode:multiply" opacity="0.35">
<path d="M2252.7 1425.41H2156.35V1426.01H2252.7V1425.41Z" fill="#540D37"/>
</g>
</g>
<g style="mix-blend-mode:multiply" opacity="0.35">
<g style="mix-blend-mode:multiply" opacity="0.35">
<path d="M2260.32 1440.64H2179.48V1441.24H2260.32V1440.64Z" fill="#540D37"/>
</g>
</g>
<g style="mix-blend-mode:multiply" opacity="0.35">
<g style="mix-blend-mode:multiply" opacity="0.35">
<path d="M2147.49 1357.15H2089.19V1357.74H2147.49V1357.15Z" fill="#540D37"/>
</g>
</g>
<g style="mix-blend-mode:multiply" opacity="0.35">
<g style="mix-blend-mode:multiply" opacity="0.35">
<path d="M2095.22 1763.18L2092.33 1362.68L2092.92 1362.68L2095.81 1763.17L2095.22 1763.18Z" fill="#540D37"/>
</g>
</g>
<g style="mix-blend-mode:multiply" opacity="0.35">
<g style="mix-blend-mode:multiply" opacity="0.35">
<path d="M2118.05 1763.62L2113.43 1387.86L2114.02 1387.85L2118.64 1763.61L2118.05 1763.62Z" fill="#540D37"/>
</g>
</g>
<g style="mix-blend-mode:multiply" opacity="0.35">
<g style="mix-blend-mode:multiply" opacity="0.35">
<path d="M2137.83 1450.98L2137.24 1450.99L2143.24 1764.49L2143.83 1764.48L2137.83 1450.98Z" fill="#540D37"/>
</g>
</g>
<g style="mix-blend-mode:multiply" opacity="0.35">
<g style="mix-blend-mode:multiply" opacity="0.35">
<path d="M2085.03 1612.54L2085 1613.13L2194 1618.01L2194.03 1617.42L2085.03 1612.54Z" fill="#540D37"/>
</g>
</g>
<g style="mix-blend-mode:multiply" opacity="0.35">
<g style="mix-blend-mode:multiply" opacity="0.35">
<path d="M2194.02 1671.51L2085.02 1669.61L2085.03 1669.02L2194.03 1670.92L2194.02 1671.51Z" fill="#540D37"/>
</g>
</g>
<g style="mix-blend-mode:soft-light" opacity="0.5">
<path d="M2092.61 1362.68L2095.5 1721.93H2117.82L2115.69 1549.02L2129.2 1549.33V1602.46H2143.52V1536.59H2155.26L2156.34 1425.71C2156.34 1425.71 2113.61 1390.95 2092.61 1362.68Z" fill="#EFBBFC"/>
</g>
<path d="M2165.04 1442.78H2094.4V1448.17H2165.04V1442.78Z" fill="#FFFF00"/>
<path d="M2172.22 1566.57H2140.6V1571.96H2172.22V1566.57Z" fill="#FFFF00"/>
<path d="M2123.13 1660.27H2091.51V1665.65H2123.13V1660.27Z" fill="#FFFF00"/>
<path d="M2165.04 1442.78H2156.08V1448.17H2165.04V1442.78Z" fill="#FF8900"/>
<path d="M2125.37 1660.27H2116.41V1665.65H2125.37V1660.27Z" fill="#FF8900"/>
<path d="M5760 1787.4H0V1800.4H5760V1787.4Z" fill="#540D37"/>
<g opacity="0.1">
<path d="M3805.26 152.578C3802.17 151.678 3703.08 122.54 3657.35 118.639C3610.9 114.708 3539 91.3923 3539 91.3923C3539 91.3923 3593.25 86.0809 3621.76 100.095C3650.27 114.078 3686.79 115.099 3692.28 114.588C3697.8 114.078 3700.29 95.0832 3729.79 102.585C3751.58 108.137 3782.33 132.743 3796.98 145.256C3801.54 149.158 3804.54 151.888 3805.2 152.488C3805.23 152.518 3805.23 152.548 3805.26 152.578Z" fill="url(#paint53_linear)"/>
<path d="M3805.29 152.578C3805.29 152.578 3805.26 152.608 3805.26 152.578C3802.17 151.678 3703.08 122.54 3657.35 118.639C3610.9 114.708 3539 91.3921 3539 91.3921C3539 91.3921 3591.12 94.3329 3609.52 102.585C3627.91 110.837 3672.93 121.28 3711.16 121.49C3744.16 121.7 3777.38 130.822 3796.98 145.256C3799.94 147.399 3802.7 149.821 3805.2 152.488L3805.29 152.578Z" fill="#FF6B86"/>
</g>
<g opacity="0.05">
<path d="M1374.25 86.8769C1366.13 86.2326 1105.53 64.8652 991.156 79.5514C875.001 94.5496 684.564 73.457 684.564 73.457C684.564 73.457 814.106 30.4775 892.561 51.1028C970.998 71.651 1061.04 54.5366 1074.17 50.257C1087.37 45.9612 1081.72 -4.2258 1158.58 -0.878937C1215.35 1.62077 1305.86 48.2664 1349.45 72.5266C1363.02 80.092 1372.06 85.4915 1374.05 86.6779C1374.14 86.7388 1374.16 86.8159 1374.25 86.8769Z" fill="url(#paint54_linear)"/>
<path d="M1374.32 86.8064C1374.32 86.8064 1374.27 86.8998 1374.25 86.8226C1366.12 86.1781 1105.51 64.8032 991.127 79.4947C874.963 94.4985 684.512 73.3984 684.512 73.3984C684.512 73.3984 813.949 52.7812 864.089 64.0618C914.228 75.3424 1030.89 77.8667 1124.62 57.7374C1205.57 40.4311 1292.54 45.9354 1349.44 72.4672C1358.03 76.3756 1366.27 81.1161 1374.05 86.6235L1374.32 86.8064Z" fill="#FF6B86"/>
</g>
</g>
<defs>
<linearGradient id="paint0_linear" x1="1912" y1="1121.9" x2="3186.17" y2="1121.9" gradientUnits="userSpaceOnUse">
<stop stop-color="#FF5E74"/>
<stop offset="0.99603" stop-color="#FF7565"/>
</linearGradient>
<linearGradient id="paint1_linear" x1="2217.06" y1="1746.95" x2="2217.06" y2="1107.92" gradientUnits="userSpaceOnUse">
<stop stop-color="#D9485C"/>
<stop offset="1" stop-color="#E78D90"/>
</linearGradient>
<linearGradient id="paint2_linear" x1="2196.4" y1="1746.95" x2="2196.4" y2="1107.92" gradientUnits="userSpaceOnUse">
<stop stop-color="#FF8F54"/>
<stop offset="1" stop-color="#FFCC65"/>
</linearGradient>
<linearGradient id="paint3_linear" x1="2142.83" y1="1354.86" x2="2248.28" y2="1354.86" gradientUnits="userSpaceOnUse">
<stop offset="0.00397"/>
<stop offset="0.13304" stop-color="#040100"/>
<stop offset="0.25904" stop-color="#100400"/>
<stop offset="0.38388" stop-color="#230900"/>
<stop offset="0.50802" stop-color="#3F1100"/>
<stop offset="0.63167" stop-color="#621A00"/>
<stop offset="0.75503" stop-color="#8E2600"/>
<stop offset="0.87747" stop-color="#C13300"/>
<stop offset="0.9975" stop-color="#FC4300"/>
<stop offset="1" stop-color="#FD4300"/>
</linearGradient>
<linearGradient id="paint4_linear" x1="3054.01" y1="1199.6" x2="3054.01" y2="977.508" gradientUnits="userSpaceOnUse">
<stop stop-color="#CA3946"/>
<stop offset="1" stop-color="#FE8957"/>
</linearGradient>
<linearGradient id="paint5_linear" x1="-44093.8" y1="224797" x2="-44093.8" y2="109651" gradientUnits="userSpaceOnUse">
<stop stop-color="#FF8F54"/>
<stop offset="1" stop-color="#FFCC65"/>
</linearGradient>
<linearGradient id="paint6_linear" x1="-43721.8" y1="224797" x2="-43721.8" y2="109651" gradientUnits="userSpaceOnUse">
<stop stop-color="#CA3946"/>
<stop offset="1" stop-color="#FE8957"/>
</linearGradient>
<linearGradient id="paint7_linear" x1="2361.58" y1="1766.87" x2="2361.58" y2="1332.19" gradientUnits="userSpaceOnUse">
<stop stop-color="#D9485C"/>
<stop offset="1" stop-color="#FE8957"/>
</linearGradient>
<linearGradient id="paint8_linear" x1="2281.5" y1="1775.12" x2="2281.5" y2="1332.19" gradientUnits="userSpaceOnUse">
<stop stop-color="#63163D"/>
<stop offset="1" stop-color="#95294D"/>
</linearGradient>
<linearGradient id="paint9_linear" x1="3320.35" y1="1290.57" x2="3345.17" y2="1290.57" gradientUnits="userSpaceOnUse">
<stop stop-color="#D9485C"/>
<stop offset="1" stop-color="#E76056"/>
</linearGradient>
<linearGradient id="paint10_linear" x1="97301.3" y1="189916" x2="97301.3" y2="110909" gradientUnits="userSpaceOnUse">
<stop stop-color="#D9485C"/>
<stop offset="1" stop-color="#E76056"/>
</linearGradient>
<linearGradient id="paint11_linear" x1="22276.1" y1="191370" x2="22276.1" y2="111504" gradientUnits="userSpaceOnUse">
<stop stop-color="#63163D"/>
<stop offset="1" stop-color="#95294D"/>
</linearGradient>
<linearGradient id="paint12_linear" x1="37594.4" y1="191370" x2="37594.4" y2="111504" gradientUnits="userSpaceOnUse">
<stop stop-color="#FF8F54"/>
<stop offset="1" stop-color="#FFCC65"/>
</linearGradient>
<linearGradient id="paint13_linear" x1="3229.72" y1="1768.18" x2="3229.72" y2="1387.05" gradientUnits="userSpaceOnUse">
<stop offset="0.00397"/>
<stop offset="0.10173" stop-color="#100503"/>
<stop offset="0.29346" stop-color="#3B130B"/>
<stop offset="0.56052" stop-color="#7F2918"/>
<stop offset="0.88944" stop-color="#DC4729"/>
<stop offset="1" stop-color="#FD522F"/>
</linearGradient>
<radialGradient id="paint14_radial" cx="0" cy="0" r="1" gradientUnits="userSpaceOnUse" gradientTransform="translate(2765.73 1756.48) scale(554.539 200.069)">
<stop stop-color="#F84300"/>
<stop offset="0.15994" stop-color="#BA3200"/>
<stop offset="0.32365" stop-color="#822300"/>
<stop offset="0.48297" stop-color="#531700"/>
<stop offset="0.63396" stop-color="#2F0D00"/>
<stop offset="0.77441" stop-color="#150600"/>
<stop offset="0.90054" stop-color="#050100"/>
<stop offset="1"/>
</radialGradient>
<linearGradient id="paint15_linear" x1="2045.72" y1="1774.53" x2="2045.72" y2="1439.31" gradientUnits="userSpaceOnUse">
<stop offset="0.00727" stop-color="#FFD88B"/>
<stop offset="0.63287" stop-color="#FFA286"/>
<stop offset="1" stop-color="#FB787A"/>
</linearGradient>
<linearGradient id="paint16_linear" x1="65067.8" y1="151795" x2="65067.8" y2="92593.2" gradientUnits="userSpaceOnUse">
<stop offset="0.00727" stop-color="#FFD88B"/>
<stop offset="0.63287" stop-color="#FFA286"/>
<stop offset="1" stop-color="#FB787A"/>
</linearGradient>
<linearGradient id="paint17_linear" x1="51637.3" y1="112175" x2="51637.3" y2="80113.5" gradientUnits="userSpaceOnUse">
<stop offset="0.00727" stop-color="#FFD88B"/>
<stop offset="0.63287" stop-color="#FFA286"/>
<stop offset="1" stop-color="#FB787A"/>
</linearGradient>
<linearGradient id="paint18_linear" x1="11822.3" y1="197215" x2="11822.3" y2="80392.6" gradientUnits="userSpaceOnUse">
<stop stop-color="#D9485C"/>
<stop offset="1" stop-color="#FE8957"/>
</linearGradient>
<linearGradient id="paint19_linear" x1="12943.1" y1="140562" x2="12943.1" y2="81650" gradientUnits="userSpaceOnUse">
<stop stop-color="#D9485C"/>
<stop offset="1" stop-color="#FE8957"/>
</linearGradient>
<linearGradient id="paint20_linear" x1="6930.37" y1="253247" x2="6930.37" y2="59838.7" gradientUnits="userSpaceOnUse">
<stop stop-color="#D9485C"/>
<stop offset="1" stop-color="#FE8957"/>
</linearGradient>
<linearGradient id="paint21_linear" x1="8358.56" y1="222784" x2="8358.56" y2="73395.5" gradientUnits="userSpaceOnUse">
<stop stop-color="#D9485C"/>
<stop offset="1" stop-color="#FE8957"/>
</linearGradient>
<linearGradient id="paint22_linear" x1="10832.5" y1="164435" x2="10832.5" y2="83513.4" gradientUnits="userSpaceOnUse">
<stop stop-color="#D9485C"/>
<stop offset="1" stop-color="#FE8957"/>
</linearGradient>
<linearGradient id="paint23_linear" x1="11411.7" y1="116931" x2="11411.7" y2="76372.3" gradientUnits="userSpaceOnUse">
<stop stop-color="#D9485C"/>
<stop offset="1" stop-color="#FE8957"/>
</linearGradient>
<linearGradient id="paint24_linear" x1="12339.4" y1="77345.4" x2="12339.4" y2="59877.9" gradientUnits="userSpaceOnUse">
<stop stop-color="#D9485C"/>
<stop offset="1" stop-color="#FE8957"/>
</linearGradient>
<linearGradient id="paint25_linear" x1="15330.4" y1="42801.2" x2="15330.4" y2="37652.6" gradientUnits="userSpaceOnUse">
<stop stop-color="#D9485C"/>
<stop offset="1" stop-color="#FE8957"/>
</linearGradient>
<linearGradient id="paint26_linear" x1="14518.4" y1="101331" x2="14518.4" y2="71016.3" gradientUnits="userSpaceOnUse">
<stop stop-color="#D9485C"/>
<stop offset="1" stop-color="#FE8957"/>
</linearGradient>
<linearGradient id="paint27_linear" x1="13233.3" y1="61775.5" x2="13233.3" y2="50764" gradientUnits="userSpaceOnUse">
<stop stop-color="#D9485C"/>
<stop offset="1" stop-color="#FE8957"/>
</linearGradient>
<linearGradient id="paint28_linear" x1="12594.7" y1="17906" x2="12594.7" y2="16993.6" gradientUnits="userSpaceOnUse">
<stop/>
<stop offset="0.12072" stop-color="#000104"/>
<stop offset="0.24568" stop-color="#000511"/>
<stop offset="0.37259" stop-color="#000C25"/>
<stop offset="0.50089" stop-color="#001542"/>
<stop offset="0.63027" stop-color="#002168"/>
<stop offset="0.76059" stop-color="#003096"/>
<stop offset="0.88912" stop-color="#0040CB"/>
<stop offset="1" stop-color="#0051FF"/>
</linearGradient>
<linearGradient id="paint29_linear" x1="12668.7" y1="15984.5" x2="12668.7" y2="15072.1" gradientUnits="userSpaceOnUse">
<stop/>
<stop offset="0.12072" stop-color="#000104"/>
<stop offset="0.24568" stop-color="#000511"/>
<stop offset="0.37259" stop-color="#000C25"/>
<stop offset="0.50089" stop-color="#001542"/>
<stop offset="0.63027" stop-color="#002168"/>
<stop offset="0.76059" stop-color="#003096"/>
<stop offset="0.88912" stop-color="#0040CB"/>
<stop offset="1" stop-color="#0051FF"/>
</linearGradient>
<linearGradient id="paint30_linear" x1="11896.5" y1="14613.8" x2="11896.5" y2="13701.4" gradientUnits="userSpaceOnUse">
<stop/>
<stop offset="0.12072" stop-color="#000104"/>
<stop offset="0.24568" stop-color="#000511"/>
<stop offset="0.37259" stop-color="#000C25"/>
<stop offset="0.50089" stop-color="#001542"/>
<stop offset="0.63027" stop-color="#002168"/>
<stop offset="0.76059" stop-color="#003096"/>
<stop offset="0.88912" stop-color="#0040CB"/>
<stop offset="1" stop-color="#0051FF"/>
</linearGradient>
<linearGradient id="paint31_linear" x1="10698.4" y1="12419.1" x2="10698.4" y2="11506.7" gradientUnits="userSpaceOnUse">
<stop/>
<stop offset="0.12072" stop-color="#000104"/>
<stop offset="0.24568" stop-color="#000511"/>
<stop offset="0.37259" stop-color="#000C25"/>
<stop offset="0.50089" stop-color="#001542"/>
<stop offset="0.63027" stop-color="#002168"/>
<stop offset="0.76059" stop-color="#003096"/>
<stop offset="0.88912" stop-color="#0040CB"/>
<stop offset="1" stop-color="#0051FF"/>
</linearGradient>
<radialGradient id="paint32_radial" cx="0" cy="0" r="1" gradientUnits="userSpaceOnUse" gradientTransform="translate(3629.9 10259) scale(3.20395 79.0946)">
<stop stop-color="#3BCAFF"/>
<stop offset="0.11088" stop-color="#2FA1CB"/>
<stop offset="0.23941" stop-color="#237796"/>
<stop offset="0.36973" stop-color="#185268"/>
<stop offset="0.49911" stop-color="#0F3542"/>
<stop offset="0.62741" stop-color="#091E25"/>
<stop offset="0.75432" stop-color="#040D11"/>
<stop offset="0.87928" stop-color="#010304"/>
<stop offset="1"/>
</radialGradient>
<linearGradient id="paint33_linear" x1="1.35678e+06" y1="16716.4" x2="4.81704e+06" y2="16716.4" gradientUnits="userSpaceOnUse">
<stop stop-color="#63163D"/>
<stop offset="1" stop-color="#95294D"/>
</linearGradient>
<linearGradient id="paint34_linear" x1="-60274.5" y1="-69744.5" x2="-60274.5" y2="-33060.1" gradientUnits="userSpaceOnUse">
<stop/>
<stop offset="0.12072" stop-color="#040401"/>
<stop offset="0.24568" stop-color="#110E05"/>
<stop offset="0.37259" stop-color="#25200B"/>
<stop offset="0.50089" stop-color="#423A14"/>
<stop offset="0.63027" stop-color="#685A1F"/>
<stop offset="0.76059" stop-color="#96822D"/>
<stop offset="0.88912" stop-color="#CBB13D"/>
<stop offset="1" stop-color="#FFDE4D"/>
</linearGradient>
<linearGradient id="paint35_linear" x1="118702" y1="178796" x2="118702" y2="96905.8" gradientUnits="userSpaceOnUse">
<stop stop-color="#63163D"/>
<stop offset="1" stop-color="#95294D"/>
</linearGradient>
<linearGradient id="paint36_linear" x1="21373.6" y1="209738" x2="21373.6" y2="96719.4" gradientUnits="userSpaceOnUse">
<stop stop-color="#D9485C"/>
<stop offset="1" stop-color="#E76056"/>
</linearGradient>
<linearGradient id="paint37_linear" x1="86293.5" y1="179143" x2="86293.5" y2="96931.6" gradientUnits="userSpaceOnUse">
<stop stop-color="#FF5154"/>
<stop offset="1" stop-color="#FFAC65"/>
</linearGradient>
<linearGradient id="paint38_linear" x1="85623.2" y1="167735" x2="85623.2" y2="95759.3" gradientUnits="userSpaceOnUse">
<stop stop-color="#BB2E3E"/>
<stop offset="0.55446" stop-color="#FF6443"/>
<stop offset="0.99063" stop-color="#FF8B4F"/>
</linearGradient>
<linearGradient id="paint39_linear" x1="2698.28" y1="1770.5" x2="2698.28" y2="1342.1" gradientUnits="userSpaceOnUse">
<stop stop-color="#BB3831"/>
<stop offset="0.99063" stop-color="#FF6148"/>
</linearGradient>
<linearGradient id="paint40_linear" x1="142394" y1="210690" x2="142394" y2="96047.5" gradientUnits="userSpaceOnUse">
<stop stop-color="#D9485C"/>
<stop offset="1" stop-color="#E76056"/>
</linearGradient>
<linearGradient id="paint41_linear" x1="85499.7" y1="212203" x2="85499.7" y2="96489.3" gradientUnits="userSpaceOnUse">
<stop stop-color="#D9485C"/>
<stop offset="1" stop-color="#E76056"/>
</linearGradient>
<linearGradient id="paint42_linear" x1="16343" y1="37895.6" x2="16343" y2="35060.9" gradientUnits="userSpaceOnUse">
<stop stop-color="#D9485C"/>
<stop offset="1" stop-color="#E76056"/>
</linearGradient>
<linearGradient id="paint43_linear" x1="23907.4" y1="37929.3" x2="23907.4" y2="35089.5" gradientUnits="userSpaceOnUse">
<stop stop-color="#D9485C"/>
<stop offset="1" stop-color="#E76056"/>
</linearGradient>
<linearGradient id="paint44_linear" x1="33407.5" y1="213944" x2="33407.5" y2="96719.6" gradientUnits="userSpaceOnUse">
<stop stop-color="#FF8F54"/>
<stop offset="1" stop-color="#FFCC65"/>
</linearGradient>
<linearGradient id="paint45_linear" x1="32284.5" y1="114574" x2="32284.5" y2="81437.4" gradientUnits="userSpaceOnUse">
<stop stop-color="#FF8F54"/>
<stop offset="1" stop-color="#FFCC65"/>
</linearGradient>
<linearGradient id="paint46_linear" x1="32962.8" y1="196530" x2="32962.8" y2="97757.4" gradientUnits="userSpaceOnUse">
<stop stop-color="#FF8F54"/>
<stop offset="1" stop-color="#FFCC65"/>
</linearGradient>
<linearGradient id="paint47_linear" x1="9899.86" y1="196530" x2="9899.86" y2="97757.4" gradientUnits="userSpaceOnUse">
<stop stop-color="#D9485C"/>
<stop offset="1" stop-color="#E76056"/>
</linearGradient>
<linearGradient id="paint48_linear" x1="3522.82" y1="1765.69" x2="3522.82" y2="1214.41" gradientUnits="userSpaceOnUse">
<stop stop-color="#9F273E"/>
<stop offset="1" stop-color="#E55146"/>
</linearGradient>
<linearGradient id="paint49_linear" x1="32962.8" y1="132139" x2="32962.8" y2="82589.3" gradientUnits="userSpaceOnUse">
<stop offset="0.00397"/>
<stop offset="0.13304" stop-color="#040100"/>
<stop offset="0.25904" stop-color="#100400"/>
<stop offset="0.38388" stop-color="#230900"/>
<stop offset="0.50802" stop-color="#3F1100"/>
<stop offset="0.63167" stop-color="#621A00"/>
<stop offset="0.75503" stop-color="#8E2600"/>
<stop offset="0.87747" stop-color="#C13300"/>
<stop offset="0.9975" stop-color="#FC4300"/>
<stop offset="1" stop-color="#FD4300"/>
</linearGradient>
<linearGradient id="paint50_linear" x1="36049.3" y1="162098" x2="36049.3" y2="104468" gradientUnits="userSpaceOnUse">
<stop stop-color="#D9485C"/>
<stop offset="1" stop-color="#E77F56"/>
</linearGradient>
<linearGradient id="paint51_linear" x1="59448.1" y1="29662.9" x2="59448.1" y2="26291.5" gradientUnits="userSpaceOnUse">
<stop stop-color="#FF8F54"/>
<stop offset="1" stop-color="#FFAC4F"/>
</linearGradient>
<linearGradient id="paint52_linear" x1="25593.2" y1="123504" x2="25593.2" y2="90279.3" gradientUnits="userSpaceOnUse">
<stop stop-color="#63163D"/>
<stop offset="1" stop-color="#95294D"/>
</linearGradient>
<linearGradient id="paint53_linear" x1="3539" y1="121.492" x2="3805.26" y2="121.492" gradientUnits="userSpaceOnUse">
<stop offset="0.00397" stop-color="#A863D9"/>
<stop offset="1" stop-color="#FF5E74"/>
</linearGradient>
<linearGradient id="paint54_linear" x1="703.17" y1="150.85" x2="1352.12" y2="-5.16779" gradientUnits="userSpaceOnUse">
<stop offset="0.00397" stop-color="#A863D9"/>
<stop offset="1" stop-color="#FF5E74"/>
</linearGradient>
</defs>
</svg>
