<svg width="97" height="97" viewBox="0 0 97 97" fill="none" xmlns="http://www.w3.org/2000/svg">
<path d="M97 50.0645V37.511C97 34.0298 94.7594 31.0184 91.4257 30.0184L81.3548 26.9971V24.6205C84.1882 22.6389 86.0484 19.3578 86.0484 15.6467V10.9516C86.0484 4.91279 81.1356 0 75.0968 0C69.058 0 64.1452 4.91279 64.1452 10.9516V15.6452C64.1452 19.3578 66.0053 22.6389 68.8387 24.619V26.9955L59.9634 29.6586C56.6327 26.68 52.3891 25.0323 47.8835 25.0323C43.3962 25.0323 39.2909 26.6762 36.1183 29.3851L28.1613 26.9971V24.6205C30.9947 22.6389 32.8548 19.3578 32.8548 15.6467V10.9516C32.8548 4.91279 27.942 0 21.9032 0C15.8644 0 10.9516 4.91279 10.9516 10.9516V15.6452C10.9516 19.3578 12.8118 22.6389 15.6452 24.619V26.9955L5.57435 30.0169C2.24059 31.0184 0 34.0298 0 37.511V50.0645H3.12903V37.511C3.12903 35.4224 4.47277 33.6149 6.47426 33.016L16.5481 29.9932C17.4587 31.1757 19.2203 32.8548 21.9032 32.8548C24.5861 32.8548 26.3477 31.1757 27.2583 29.9932L33.6745 31.9175C31.6379 34.4789 30.2812 37.5965 29.8694 41.0074C27.8718 38.8845 25.043 37.5484 21.9032 37.5484C15.8644 37.5484 10.9516 42.4612 10.9516 48.5V53.1936C10.9516 56.9062 12.8118 60.1873 15.6452 62.1674V64.5439L5.57435 67.5653C2.24059 68.5668 0 71.5781 0 75.0593V89.1774H18.7742C19.6359 89.1774 20.3387 89.8802 20.3387 90.7419V97H76.6613V90.7419C76.6613 89.8802 77.3641 89.1774 78.2258 89.1774H97V75.0593C97 71.5781 94.7594 68.5668 91.4257 67.5668L81.3548 64.5455V62.1689C84.1882 60.1873 86.0484 56.9062 86.0484 53.1951V48.5015C86.0484 42.4627 81.1356 37.5499 75.0968 37.5499C72.0334 37.5499 69.2642 38.8173 67.2742 40.8508V39.3681C67.2742 36.278 65.5951 33.4965 62.9748 32.026L69.7417 29.9947C70.6523 31.1757 72.4139 32.8548 75.0968 32.8548C77.7797 32.8548 79.5413 31.1757 80.4519 29.9932L90.5273 33.016C92.5272 33.6149 93.871 35.4224 93.871 37.511V50.0645H97ZM21.9032 3.12903C26.2163 3.12903 29.7258 6.6385 29.7258 10.9516H22.551C21.5572 10.9516 20.5824 10.5483 19.8804 9.84545L18.7742 8.73929L17.668 9.84545C16.966 10.5483 15.9912 10.9516 14.9974 10.9516H14.0806C14.0806 6.6385 17.5901 3.12903 21.9032 3.12903ZM14.0806 15.6452V14.0806H14.9974C16.3602 14.0806 17.6619 13.6895 18.7742 12.9592C19.8865 13.6895 21.1882 14.0806 22.551 14.0806H29.7258V15.6452C29.7258 19.9583 26.2163 23.4677 21.9032 23.4677C17.5901 23.4677 14.0806 19.9583 14.0806 15.6452ZM21.9032 29.7258C20.2402 29.7258 19.1623 28.3286 18.7742 27.7312V26.1369C19.7658 26.4325 20.8162 26.5968 21.9032 26.5968C22.9903 26.5968 24.0407 26.4325 25.0323 26.1354V27.7297C24.6442 28.3301 23.5663 29.7258 21.9032 29.7258ZM64.9083 57.1858C65.7051 59.2094 67.0802 60.9397 68.8387 62.1689V64.5455L58.7694 67.5668C58.4379 67.6653 58.1155 67.7937 57.8008 67.9358L56.3226 67.595V64.5126C57.9948 63.1689 59.3126 61.4042 60.1216 59.3813C61.9237 59.2232 63.6135 58.4562 64.9083 57.1858ZM48.5 67.2742C50.16 67.2742 51.7436 66.9426 53.1936 66.3529V68.0565L48.5 71.5766L43.8065 68.0565V66.3529C45.2564 66.9426 46.84 67.2742 48.5 67.2742ZM41.8852 70.527L45.6995 73.3886L41.7759 75.7431L40.7836 70.7821L41.8852 70.527ZM46.7712 82.9194H50.2288L51.4457 93.871H45.5543L46.7712 82.9194ZM50.5007 79.7903H46.4978L45.5994 77.096L48.5 75.3565L51.3991 77.096L50.5007 79.7903ZM51.3005 73.3886L55.1148 70.527L56.2164 70.7806L55.2241 75.7415L51.3005 73.3886ZM62.9252 54.7863C62.3836 55.3807 61.6953 55.797 60.9489 56.0506C60.9925 55.6251 61.0161 55.1943 61.0161 54.7581V47.2716C62.6998 47.9103 63.9527 49.3915 64.1215 51.1615C64.2498 52.5083 63.8258 53.794 62.9252 54.7863ZM57.8871 54.7581C57.8871 59.9352 53.6771 64.1452 48.5 64.1452C43.3229 64.1452 39.1129 59.9352 39.1129 54.7581V46.9355H44.4245C47.8339 46.9355 51.1516 46.0845 54.1179 44.4588L55.3555 46.9355H57.8871V54.7581ZM36.0511 56.0506C35.3047 55.797 34.6164 55.3807 34.0748 54.7863C33.1742 53.7955 32.7502 52.5083 32.8785 51.163C33.0473 49.393 34.3002 47.9103 35.9839 47.2731V54.7581C35.9839 55.1943 36.0076 55.6251 36.0511 56.0506ZM36.8784 59.3813C37.6859 61.4042 39.0037 63.1689 40.6774 64.5126V67.595L39.1992 67.9358C38.883 67.7937 38.5621 67.6669 38.2321 67.5668L28.1613 64.5455V62.1689C29.9183 60.9397 31.2949 59.2094 32.0917 57.1858C33.3865 58.4562 35.0763 59.2232 36.8784 59.3813ZM21.9032 40.6774C26.2163 40.6774 29.7258 44.1869 29.7258 48.5H28.8091C27.8152 48.5 26.8405 48.0966 26.1384 47.3938L25.0323 46.2877L23.9261 47.3938C23.2241 48.0966 22.2493 48.5 21.2554 48.5H14.0806C14.0806 44.1869 17.5901 40.6774 21.9032 40.6774ZM14.0806 53.1936V51.629H21.2554C22.6183 51.629 23.92 51.2379 25.0323 50.5076C26.1445 51.2379 27.4463 51.629 28.8091 51.629H29.7258V53.1936C29.7258 57.5067 26.2163 61.0161 21.9032 61.0161C17.5901 61.0161 14.0806 57.5067 14.0806 53.1936ZM21.9032 64.1452C22.9903 64.1452 24.0407 63.9809 25.0323 63.6838V65.2781C24.6442 65.8785 23.5663 67.2742 21.9032 67.2742C20.2402 67.2742 19.1623 65.877 18.7742 65.2796V63.6853C19.7658 63.9809 20.8162 64.1452 21.9032 64.1452ZM18.7742 86.0484H12.5161V75.0968H9.3871V86.0484H3.12903V75.0593C3.12903 72.9708 4.47277 71.1633 6.47426 70.5644L16.5481 67.5416C17.4587 68.7241 19.2203 70.4032 21.9032 70.4032C24.5861 70.4032 26.3477 68.7241 27.2583 67.5416L33.191 69.3223L28.8274 70.3284C23.8291 71.4827 20.3387 75.8714 20.3387 80.9996V82.9194H23.4677V80.9996C23.4677 77.3358 25.962 74.2022 29.5318 73.3772L37.7333 71.4842L39.5774 80.7086L42.8508 78.7453L43.7767 81.5237L42.4062 93.871H34.4194V81.3548H31.2903V93.871H23.4677V90.7419C23.4677 88.1545 21.3616 86.0484 18.7742 86.0484ZM90.5257 70.5644C92.5272 71.1633 93.871 72.9708 93.871 75.0593V86.0484H87.6129V75.0968H84.4839V86.0484H78.2258C75.6384 86.0484 73.5323 88.1545 73.5323 90.7419V93.871H65.7097V81.3548H62.5806V93.871H54.5938L53.2218 81.5237L54.1477 78.7453L57.4211 80.7086L59.2652 71.4842L67.4682 73.3772C71.038 74.2022 73.5323 77.3358 73.5323 80.9996V82.9194H76.6613V80.9996C76.6613 75.8714 73.1709 71.4827 68.1726 70.3284L63.809 69.3223L69.7417 67.5416C70.6523 68.7241 72.4139 70.4032 75.0968 70.4032C77.7797 70.4032 79.5413 68.7241 80.4519 67.5416L90.5257 70.5644ZM78.2258 65.2796C77.8377 65.8785 76.7598 67.2742 75.0968 67.2742C73.4307 67.2742 72.3512 65.8724 71.9677 65.2796V63.6838C72.9593 63.9809 74.0097 64.1452 75.0968 64.1452C76.1838 64.1452 77.2342 63.9809 78.2258 63.6838V65.2796ZM75.0968 61.0161C70.7837 61.0161 67.2742 57.5067 67.2742 53.1936V51.629H68.1909C69.5537 51.629 70.8555 51.2379 71.9677 50.5076C73.08 51.2379 74.3817 51.629 75.7446 51.629H82.9194V53.1936C82.9194 57.5067 79.4099 61.0161 75.0968 61.0161ZM75.0968 40.6774C79.4099 40.6774 82.9194 44.1869 82.9194 48.5H75.7446C74.7507 48.5 73.776 48.0966 73.0739 47.3938L71.9677 46.2877L70.8616 47.3938C70.1595 48.0966 69.1848 48.5 68.1909 48.5H67.2742C67.2742 44.1869 70.7837 40.6774 75.0968 40.6774ZM64.1452 45.5039C62.7609 44.4558 61.0413 43.8065 59.1827 43.8065H57.2897L55.3654 39.9578L53.891 40.9402C51.0767 42.8164 47.8041 43.8065 44.4245 43.8065H37.8173C35.9587 43.8065 34.2391 44.4558 32.8548 45.5039V43.19C32.8548 34.9044 39.598 28.1613 47.8835 28.1613C51.8979 28.1613 55.6732 29.7243 58.5112 32.5623L60.1712 34.2223L60.5219 34.3399C62.6884 35.0626 64.1452 37.0824 64.1452 39.3665V45.5039ZM75.0968 3.12903C79.4099 3.12903 82.9194 6.6385 82.9194 10.9516H82.0026C81.0088 10.9516 80.034 10.5483 79.332 9.84545L78.2258 8.73929L77.1196 9.84545C76.4176 10.5483 75.4428 10.9516 74.449 10.9516H67.2742C67.2742 6.6385 70.7837 3.12903 75.0968 3.12903ZM67.2742 15.6452V14.0806H74.449C75.8118 14.0806 77.1135 13.6895 78.2258 12.9592C79.3381 13.6895 80.6398 14.0806 82.0026 14.0806H82.9194V15.6452C82.9194 19.9583 79.4099 23.4677 75.0968 23.4677C70.7837 23.4677 67.2742 19.9583 67.2742 15.6452ZM75.0968 29.7258C73.4307 29.7258 72.3512 28.324 71.9677 27.7312V26.1354C72.9593 26.4325 74.0097 26.5968 75.0968 26.5968C76.1838 26.5968 77.2342 26.4325 78.2258 26.1354V27.7297C77.8377 28.3301 76.7598 29.7258 75.0968 29.7258Z" fill="#94BAD0"/>
<path d="M35.9844 0H39.1134V3.12903H35.9844V0Z" fill="#94BAD0"/>
<path d="M35.9844 6.2583H39.1134V23.468H35.9844V6.2583Z" fill="#94BAD0"/>
<path d="M57.8867 0H61.0158V3.12903H57.8867V0Z" fill="#94BAD0"/>
<path d="M57.8867 6.2583H61.0158V23.468H57.8867V6.2583Z" fill="#94BAD0"/>
<path d="M42.2422 6.2583H45.3712V17.2099H42.2422V6.2583Z" fill="#94BAD0"/>
<path d="M42.2422 20.3389H45.3712V23.4679H42.2422V20.3389Z" fill="#94BAD0"/>
<path d="M51.6289 6.2583H54.7579V17.2099H51.6289V6.2583Z" fill="#94BAD0"/>
<path d="M51.6289 20.3389H54.7579V23.4679H51.6289V20.3389Z" fill="#94BAD0"/>
</svg>
