<svg width="98" height="98" viewBox="0 0 98 98" fill="none" xmlns="http://www.w3.org/2000/svg">
<path d="M26.0313 49C21.4885 49 17.0477 50.3471 13.2705 52.8709C9.49332 55.3948 6.54935 58.982 4.8109 63.179C3.07245 67.376 2.61759 71.9942 3.50385 76.4497C4.3901 80.9052 6.57766 84.9979 9.7899 88.2101C13.0021 91.4223 17.0948 93.6099 21.5503 94.4962C26.0058 95.3824 30.624 94.9276 34.821 93.1891C39.018 91.4507 42.6052 88.5067 45.1291 84.7295C47.6529 80.9523 49 76.5115 49 71.9688C48.9927 65.8793 46.5705 60.0413 42.2646 55.7354C37.9587 51.4296 32.1207 49.0073 26.0313 49ZM45.8609 70.4375H42.7984C42.618 68.5293 42.1158 66.6655 41.3131 64.925L43.9622 63.3784C45.0247 65.5943 45.6684 67.9876 45.8609 70.4375ZM37.2706 55.5537C39.2955 56.9508 41.0492 58.7045 42.4463 60.7294L39.7819 62.2606C38.6656 60.7002 37.2998 59.3344 35.7394 58.2181L37.2706 55.5537ZM27.5625 52.1391C30.0124 52.3316 32.4057 52.9753 34.6216 54.0378L33.075 56.6869C31.3345 55.8842 29.4707 55.382 27.5625 55.2016V52.1391ZM24.5 52.1391V55.2016C22.5919 55.382 20.728 55.8842 18.9875 56.6869L17.4409 54.0378C19.6569 52.9753 22.0501 52.3316 24.5 52.1391ZM14.7919 55.5537L16.3231 58.2181C14.7627 59.3344 13.397 60.7002 12.2806 62.2606L9.61626 60.7294C11.0133 58.7045 12.767 56.9508 14.7919 55.5537ZM8.10032 63.3784L10.7494 64.925C9.94671 66.6655 9.44451 68.5293 9.26407 70.4375H6.20157C6.39409 67.9876 7.03782 65.5943 8.10032 63.3784ZM6.20157 73.5H9.26407C9.44451 75.4082 9.94671 77.272 10.7494 79.0125L8.10032 80.5591C7.03782 78.3432 6.39409 75.9499 6.20157 73.5ZM14.7919 88.3838C12.767 86.9867 11.0133 85.233 9.61626 83.2081L12.2806 81.6769C13.397 83.2373 14.7627 84.6031 16.3231 85.7194L14.7919 88.3838ZM24.5 91.7984C22.0501 91.6059 19.6569 90.9622 17.4409 89.8997L18.9875 87.2506C20.728 88.0533 22.5919 88.5555 24.5 88.7359V91.7984ZM12.25 71.9688C12.25 69.2431 13.0583 66.5786 14.5726 64.3123C16.0869 62.046 18.2392 60.2796 20.7574 59.2365C23.2756 58.1935 26.0465 57.9205 28.7198 58.4523C31.3931 58.9841 33.8487 60.2966 35.7761 62.2239C37.7034 64.1513 39.016 66.6069 39.5477 69.2802C40.0795 71.9535 39.8065 74.7244 38.7635 77.2426C37.7204 79.7608 35.954 81.9131 33.6877 83.4274C31.4214 84.9417 28.7569 85.75 26.0313 85.75C22.378 85.7443 18.876 84.2906 16.2927 81.7073C13.7094 79.124 12.2557 75.622 12.25 71.9688ZM27.5625 91.7984V88.7359C29.4707 88.5555 31.3345 88.0533 33.075 87.2506L34.6216 89.8997C32.4057 90.9622 30.0124 91.6059 27.5625 91.7984ZM37.2706 88.3838L35.7394 85.7194C37.2998 84.6031 38.6656 83.2373 39.7819 81.6769L42.4463 83.2081C41.0492 85.233 39.2955 86.9867 37.2706 88.3838ZM43.9622 80.5591L41.3131 79.0125C42.1158 77.272 42.618 75.4082 42.7984 73.5H45.8609C45.6684 75.9499 45.0247 78.3432 43.9622 80.5591Z" fill="#94BAD0"/>
<path d="M27.5625 61.25H24.5V64.3125C23.6878 64.3125 22.9088 64.6352 22.3345 65.2095C21.7602 65.7838 21.4375 66.5628 21.4375 67.375V70.4375C21.4375 71.2497 21.7602 72.0287 22.3345 72.603C22.9088 73.1773 23.6878 73.5 24.5 73.5H27.5625V76.5625H21.4375V79.625H24.5V82.6875H27.5625V79.625C28.3747 79.625 29.1537 79.3023 29.728 78.728C30.3023 78.1537 30.625 77.3747 30.625 76.5625V73.5C30.625 72.6878 30.3023 71.9088 29.728 71.3345C29.1537 70.7602 28.3747 70.4375 27.5625 70.4375H24.5V67.375H30.625V64.3125H27.5625V61.25Z" fill="#94BAD0"/>
<path d="M93.406 3.06251H78.2467C77.9438 3.06136 77.6475 3.15125 77.3963 3.32054C77.1451 3.48982 76.9506 3.73069 76.8379 4.01189C76.7207 4.29074 76.6886 4.59809 76.7459 4.89513C76.8031 5.19218 76.947 5.46562 77.1595 5.68095L80.4057 8.9272L43.4414 45.8916C43.1562 46.1785 42.9961 46.5666 42.9961 46.9711C42.9961 47.3756 43.1562 47.7637 43.4414 48.0506L49.9492 54.5585C50.2344 54.8413 50.6193 55.0008 51.0211 55.0025C51.4273 55.0009 51.8171 54.8417 52.1082 54.5585L89.0726 17.5941L92.3189 20.8403C92.5342 21.0528 92.8076 21.1967 93.1047 21.254C93.4017 21.3112 93.7091 21.2791 93.9879 21.1619C94.2691 21.0493 94.51 20.8547 94.6793 20.6035C94.8486 20.3523 94.9384 20.0561 94.9373 19.7531V4.59376C94.9373 4.18765 94.776 3.79817 94.4888 3.511C94.2016 3.22384 93.8122 3.06251 93.406 3.06251ZM91.8748 16.0628L90.1598 14.3325C89.8707 14.0456 89.4799 13.8846 89.0726 13.8846C88.6653 13.8846 88.2745 14.0456 87.9854 14.3325L51.0211 51.3122L46.6876 46.9788L83.6673 10.0144C83.9542 9.72527 84.1152 9.33449 84.1152 8.9272C84.1152 8.51991 83.9542 8.12912 83.6673 7.84001L81.937 6.12501H91.8748V16.0628Z" fill="#94BAD0"/>
<path d="M93.406 53.5938H78.2467C77.9438 53.5926 77.6475 53.6825 77.3963 53.8518C77.1451 54.0211 76.9506 54.2619 76.8379 54.5431C76.7207 54.822 76.6886 55.1293 76.7459 55.4264C76.8031 55.7234 76.947 55.9969 77.1595 56.2122L80.4057 59.4585L55.6914 84.1728C55.4062 84.4597 55.2461 84.8478 55.2461 85.2524C55.2461 85.6569 55.4062 86.045 55.6914 86.3319L62.1992 92.8397C62.4844 93.1226 62.8693 93.2821 63.2711 93.2838C63.6773 93.2822 64.0671 93.123 64.3582 92.8397L89.0726 68.1253L92.3189 71.3716C92.5342 71.5841 92.8076 71.728 93.1047 71.7852C93.4017 71.8424 93.7091 71.8104 93.9879 71.6931C94.2691 71.5805 94.51 71.386 94.6793 71.1348C94.8486 70.8836 94.9385 70.5873 94.9373 70.2844V55.125C94.9373 54.7189 94.776 54.3294 94.4888 54.0423C94.2016 53.7551 93.8122 53.5938 93.406 53.5938ZM91.8748 66.5941L90.1598 64.8638C89.8707 64.5769 89.4799 64.4159 89.0726 64.4159C88.6653 64.4159 88.2745 64.5769 87.9854 64.8638L63.2711 89.5935L58.9376 85.26L83.6673 60.5456C83.9542 60.2565 84.1152 59.8657 84.1152 59.4585C84.1152 59.0512 83.9542 58.6604 83.6673 58.3713L81.937 56.6563H91.8748V66.5941Z" fill="#94BAD0"/>
<path d="M44.4061 3.06251H29.2467C28.9438 3.06136 28.6475 3.15125 28.3963 3.32054C28.1451 3.48982 27.9506 3.73069 27.8379 4.01189C27.7207 4.29074 27.6886 4.59809 27.7459 4.89513C27.8031 5.19218 27.947 5.46562 28.1595 5.68095L31.4057 8.9272L6.69137 33.6416C6.40617 33.9285 6.24609 34.3166 6.24609 34.7211C6.24609 35.1256 6.40617 35.5137 6.69137 35.8006L13.1992 42.3085C13.4844 42.5913 13.8693 42.7508 14.2711 42.7525C14.6773 42.7509 15.0671 42.5917 15.3582 42.3085L40.0726 17.5941L43.3189 20.8403C43.5342 21.0528 43.8076 21.1967 44.1047 21.254C44.4017 21.3112 44.7091 21.2792 44.9879 21.1619C45.2691 21.0493 45.51 20.8547 45.6793 20.6035C45.8486 20.3523 45.9385 20.0561 45.9373 19.7531V4.59376C45.9373 4.18765 45.776 3.79817 45.4888 3.511C45.2017 3.22384 44.8122 3.06251 44.4061 3.06251ZM42.8748 16.0628L41.1598 14.3325C40.8707 14.0456 40.4799 13.8846 40.0726 13.8846C39.6653 13.8846 39.2745 14.0456 38.9854 14.3325L14.2711 39.0622L9.93762 34.7288L34.6673 10.0144C34.9542 9.72528 35.1152 9.33449 35.1152 8.9272C35.1152 8.51991 34.9542 8.12912 34.6673 7.84001L32.937 6.12501H42.8748V16.0628Z" fill="#94BAD0"/>
<path d="M23.4102 43.3213L35.6586 31.0728L37.8238 33.238L25.5753 45.4865L23.4102 43.3213Z" fill="#94BAD0"/>
<path d="M38.7227 28.0122L41.7847 24.9502L43.9502 27.1157L40.8882 30.1777L38.7227 28.0122Z" fill="#94BAD0"/>
<path d="M52.4961 72.415L64.7446 60.1666L66.9097 62.3318L54.6613 74.5802L52.4961 72.415Z" fill="#94BAD0"/>
<path d="M67.8086 57.106L70.8706 54.0439L73.0362 56.2094L69.9741 59.2715L67.8086 57.106Z" fill="#94BAD0"/>
<path d="M41.7812 35.668L54.0297 23.4195L56.1949 25.5847L43.9464 37.8332L41.7812 35.668Z" fill="#94BAD0"/>
<path d="M57.0977 20.3589L60.1597 17.2968L62.3252 19.4624L59.2632 22.5244L57.0977 20.3589Z" fill="#94BAD0"/>
<path d="M60.1562 54.043L72.4047 41.7945L74.5699 43.9597L62.3214 56.2082L60.1562 54.043Z" fill="#94BAD0"/>
<path d="M75.4688 38.7339L78.5308 35.6718L80.6963 37.8374L77.6343 40.8994L75.4688 38.7339Z" fill="#94BAD0"/>
</svg>
