<svg width="98" height="98" viewBox="0 0 98 98" fill="none" xmlns="http://www.w3.org/2000/svg">
<path d="M79.625 87.2812H82.6875V90.3438H79.625V87.2812Z" fill="#94BAD0"/>
<path d="M73.5 87.2812H76.5625V90.3438H73.5V87.2812Z" fill="#94BAD0"/>
<path d="M67.375 87.2812H70.4375V90.3438H67.375V87.2812Z" fill="#94BAD0"/>
<path d="M67.375 81.1562H82.6875V84.2188H67.375V81.1562Z" fill="#94BAD0"/>
<path d="M96.4688 18.375C96.4688 15.8423 94.4077 13.7812 91.875 13.7812V10.7188C94.4077 10.7188 96.4688 8.65769 96.4688 6.125C96.4688 3.59231 94.4077 1.53125 91.875 1.53125H67.375C64.8423 1.53125 62.7812 3.59231 62.7812 6.125C62.7812 8.65769 64.8423 10.7188 67.375 10.7188V13.7812C65.3813 13.7812 63.6969 15.066 63.063 16.8438H61.25C57.0283 16.8438 53.5938 20.2783 53.5938 24.5V56.6562H50.5312V24.5C50.5312 20.2783 47.0967 16.8438 42.875 16.8438H41.3438V6.125C41.3438 3.59231 39.2827 1.53125 36.75 1.53125H6.125C3.59231 1.53125 1.53125 3.59231 1.53125 6.125V27.5625C1.53125 30.0952 3.59231 32.1562 6.125 32.1562H36.75C39.2827 32.1562 41.3438 30.0952 41.3438 27.5625V19.9062H42.875C45.4077 19.9062 47.4688 21.9673 47.4688 24.5V56.6562H44.4062V49C44.4062 44.7783 40.9717 41.3438 36.75 41.3438H32.0016C31.2896 37.854 28.198 35.2188 24.5 35.2188H12.25C8.02834 35.2188 4.59375 38.6533 4.59375 42.875C4.59375 47.0967 8.02834 50.5312 12.25 50.5312H32.1562V44.4062H36.75C39.2827 44.4062 41.3438 46.4673 41.3438 49V56.6562H9.77244L2.11619 71.9688H9.1875V96.4688H88.8125V71.9688H95.8838L88.2276 56.6562H62.7812V52.0625C62.7812 49.5298 64.8423 47.4688 67.375 47.4688H69.0609C69.7729 50.9585 72.8645 53.5938 76.5625 53.5938C80.7842 53.5938 84.2188 50.1592 84.2188 45.9375C84.2188 41.7158 80.7842 38.2812 76.5625 38.2812C72.8661 38.2812 69.7729 40.9165 69.0609 44.4062H67.375C63.1533 44.4062 59.7188 47.8408 59.7188 52.0625V56.6562H56.6562V24.5C56.6562 21.9673 58.7173 19.9062 61.25 19.9062H63.063C63.6969 21.684 65.3813 22.9688 67.375 22.9688V26.0312C64.8423 26.0312 62.7812 28.0923 62.7812 30.625C62.7812 33.1577 64.8423 35.2188 67.375 35.2188H91.875C94.4077 35.2188 96.4688 33.1577 96.4688 30.625C96.4688 28.0923 94.4077 26.0312 91.875 26.0312V22.9688C94.4077 22.9688 96.4688 20.9077 96.4688 18.375ZM38.2812 27.5625C38.2812 28.4077 37.5952 29.0938 36.75 29.0938H6.125C5.27975 29.0938 4.59375 28.4077 4.59375 27.5625V6.125C4.59375 5.27975 5.27975 4.59375 6.125 4.59375H36.75C37.5952 4.59375 38.2812 5.27975 38.2812 6.125V27.5625ZM29.0938 47.4688H12.25C9.71731 47.4688 7.65625 45.4077 7.65625 42.875C7.65625 40.3423 9.71731 38.2812 12.25 38.2812H24.5C27.0327 38.2812 29.0938 40.3423 29.0938 42.875V47.4688ZM76.5625 41.3438C79.0952 41.3438 81.1562 43.4048 81.1562 45.9375C81.1562 48.4702 79.0952 50.5312 76.5625 50.5312C74.0298 50.5312 71.9688 48.4702 71.9688 45.9375C71.9688 43.4048 74.0298 41.3438 76.5625 41.3438ZM11.6651 59.7188H34.2724L29.6787 68.9062H7.07131L11.6651 59.7188ZM12.25 71.9688H31.5713L36.75 61.6114V93.4062H12.25V71.9688ZM85.75 93.4062H39.8125V61.6114L44.9912 71.9688H85.75V93.4062ZM90.9287 68.9062H46.8838L42.2901 59.7188H86.3349L90.9287 68.9062ZM65.8438 6.125C65.8438 5.27975 66.5297 4.59375 67.375 4.59375H91.875C92.7203 4.59375 93.4062 5.27975 93.4062 6.125C93.4062 6.97025 92.7203 7.65625 91.875 7.65625H67.375C66.5297 7.65625 65.8438 6.97025 65.8438 6.125ZM70.4375 10.7188H88.8125V13.7812H70.4375V10.7188ZM65.8438 18.375C65.8438 17.5297 66.5297 16.8438 67.375 16.8438H91.875C92.7203 16.8438 93.4062 17.5297 93.4062 18.375C93.4062 19.2202 92.7203 19.9062 91.875 19.9062H67.375C66.5297 19.9062 65.8438 19.2202 65.8438 18.375ZM93.4062 30.625C93.4062 31.4702 92.7203 32.1562 91.875 32.1562H67.375C66.5297 32.1562 65.8438 31.4702 65.8438 30.625C65.8438 29.7798 66.5297 29.0938 67.375 29.0938H91.875C92.7203 29.0938 93.4062 29.7798 93.4062 30.625ZM88.8125 26.0312H70.4375V22.9688H88.8125V26.0312Z" fill="#94BAD0"/>
<path d="M26.0312 10.7188H19.9062V13.7812H13.7812V16.8438H7.65625V26.0312H35.2188V7.65625H26.0312V10.7188ZM19.9062 16.8438V22.9688H16.8438V16.8438H19.9062ZM10.7188 19.9062H13.7812V22.9688H10.7188V19.9062ZM22.9688 22.9688V13.7812H26.0312V22.9688H22.9688ZM29.0938 10.7188H32.1562V22.9688H29.0938V10.7188Z" fill="#94BAD0"/>
<path d="M10.7188 41.3438H13.7812V44.4062H10.7188V41.3438Z" fill="#94BAD0"/>
<path d="M16.8438 41.3438H19.9062V44.4062H16.8438V41.3438Z" fill="#94BAD0"/>
<path d="M22.9688 41.3438H26.0312V44.4062H22.9688V41.3438Z" fill="#94BAD0"/>
<path d="M81.1562 62.7812H84.2188V65.8438H81.1562V62.7812Z" fill="#94BAD0"/>
<path d="M75.0312 62.7812H78.0938V65.8438H75.0312V62.7812Z" fill="#94BAD0"/>
<path d="M68.9062 62.7812H71.9688V65.8438H68.9062V62.7812Z" fill="#94BAD0"/>
<path d="M15.3125 75.0312H18.375V78.0938H15.3125V75.0312Z" fill="#94BAD0"/>
<path d="M15.3125 81.1562H18.375V84.2188H15.3125V81.1562Z" fill="#94BAD0"/>
<path d="M15.3125 87.2812H18.375V90.3438H15.3125V87.2812Z" fill="#94BAD0"/>
</svg>
