<svg width="1406" height="389" viewBox="0 0 1406 389" fill="none" xmlns="http://www.w3.org/2000/svg">
<path d="M640.391 183.04H584.793V379.107H640.391V183.04Z" fill="url(#paint0_linear)"/>
<path d="M584.794 382.829H568.094V193.429L584.794 183.04V382.829Z" fill="url(#paint1_linear)"/>
<g style="mix-blend-mode:multiply" opacity="0.35">
<g style="mix-blend-mode:multiply" opacity="0.35">
<path d="M601.63 183.039H601V378.859H601.63V183.039Z" fill="#540D37"/>
</g>
</g>
<g style="mix-blend-mode:multiply" opacity="0.35">
<g style="mix-blend-mode:multiply" opacity="0.35">
<path d="M617.88 183.04H617.25V379.107H617.88V183.04Z" fill="#540D37"/>
</g>
</g>
<g style="mix-blend-mode:multiply" opacity="0.35">
<g style="mix-blend-mode:multiply" opacity="0.35">
<path d="M633.481 183.04H632.852V378.859H633.481V183.04Z" fill="#540D37"/>
</g>
</g>
<g style="mix-blend-mode:multiply" opacity="0.35">
<g style="mix-blend-mode:multiply" opacity="0.35">
<path d="M640.386 299.012H584.789V299.642H640.386V299.012Z" fill="#540D37"/>
</g>
</g>
<g style="mix-blend-mode:multiply" opacity="0.35">
<g style="mix-blend-mode:multiply" opacity="0.35">
<path d="M640.007 266.69H585V267.32H640.007V266.69Z" fill="#540D37"/>
</g>
</g>
<g style="mix-blend-mode:multiply" opacity="0.35">
<g style="mix-blend-mode:multiply" opacity="0.35">
<path d="M640.393 244.797H617.562V245.427H640.393V244.797Z" fill="#540D37"/>
</g>
</g>
<g style="mix-blend-mode:multiply" opacity="0.2">
<path d="M601.03 183.04H584.793V249.546H601.03V183.04Z" fill="#540D37"/>
</g>
<g style="mix-blend-mode:multiply" opacity="0.2">
<path d="M633.65 225.751H617.559V245.113H633.65V225.751Z" fill="#540D37"/>
</g>
<g style="mix-blend-mode:multiply" opacity="0.2">
<path d="M633.169 267.004H585.004V298.25H633.169V267.004Z" fill="#540D37"/>
</g>
<path d="M632.41 264.359H617.988V266.741H632.41V264.359Z" fill="#FFFF00"/>
<path d="M632.41 264.359H625.871V266.741H632.41V264.359Z" fill="#FFCF00"/>
<path d="M632.407 264.359H630.578V266.741H632.407V264.359Z" fill="#FF8900"/>
<path d="M632.395 189.485H617.973V191.867H632.395V189.485Z" fill="#FFFF00"/>
<path d="M632.395 189.485H625.855V191.867H632.395V189.485Z" fill="#FFCF00"/>
<path d="M632.396 189.485H630.566V191.867H632.396V189.485Z" fill="#FF8900"/>
<path d="M617.558 226.332H584.27V228.714H617.558V226.332Z" fill="#FFFF00"/>
<path d="M617.559 226.332H602.465V228.714H617.559V226.332Z" fill="#FFCF00"/>
<path d="M617.554 226.332H613.332V228.714H617.554V226.332Z" fill="#FF8900"/>
<path d="M632.726 296.727H599.438V299.109H632.726V296.727Z" fill="#FFFF00"/>
<path d="M632.727 296.727H617.633V299.109H632.727V296.727Z" fill="#FFCF00"/>
<path d="M632.722 296.727H628.5V299.109H632.722V296.727Z" fill="#FF8900"/>
<path d="M631.036 178.116H594.281V183.039H631.036V178.116Z" fill="#FFFF00"/>
<path d="M594.281 183.039H587.641V180.577L594.281 178.115V183.039Z" fill="#FFCF00"/>
<path d="M568.094 193.429V237.657L584.794 251.899V183.04L568.094 193.429Z" fill="#FFC563"/>
<path d="M1406 358H0V389H1406V358Z" fill="url(#paint2_linear)"/>
<path d="M779.57 104.756H803.019L784.093 0L779.57 12.1342V104.756Z" fill="#FFD663"/>
<path d="M784.096 104.756H807.543V-9.91821e-05H784.096V104.756Z" fill="url(#paint3_linear)"/>
<g style="mix-blend-mode:multiply" opacity="0.2">
<path d="M807.398 2.24219L807.542 49.4993L803.554 49.3988V78.7215H797.526V33.3766H793.598V12.3269L784.465 12.409V2.24219H807.398Z" fill="#A90074"/>
</g>
<path d="M771.27 368.53H807.966L778.346 91.2715L771.27 98.8976V368.53Z" fill="url(#paint4_linear)"/>
<path d="M778.35 368.529H815.047V91.2716H778.35V368.529Z" fill="url(#paint5_linear)"/>
<path d="M793.376 109.411H815.047V107.29H793.376V109.411Z" fill="#FFCF00"/>
<path d="M778.349 147.243H800.02V145.122H778.349V147.243Z" fill="#FFCF00"/>
<path d="M784.986 62.9692H806.656V60.8484H784.986V62.9692Z" fill="#FFCF00"/>
<path d="M778.353 126.063H784.199V123.943H778.353V126.063Z" fill="#FFCF00"/>
<path d="M778.924 191.829H784.77V189.708H778.924V191.829Z" fill="#FFCF00"/>
<path d="M786.26 31.3521H792.105V29.2312H786.26V31.3521Z" fill="#FFCF00"/>
<path d="M809.201 170.035H815.047V167.914H809.201V170.035Z" fill="#FFCF00"/>
<g style="mix-blend-mode:multiply" opacity="0.2">
<path d="M814.819 97.2061L815.044 222.28L808.802 222.012V299.621H799.366V179.609H793.22V123.895L778.926 124.113V97.2061H814.819Z" fill="#A90074"/>
</g>
<path d="M690.174 129.913L649.965 124.906C679.319 170.758 713.526 253.251 712.274 379.914L773.498 377.965C773.498 377.965 813.669 203.582 690.174 129.913Z" fill="url(#paint6_linear)"/>
<path d="M611.865 80.335H633.421L634.486 379.916H610.238L611.865 80.335Z" fill="url(#paint7_linear)"/>
<path d="M652.703 124.405L613.719 131.547V379.491L712.277 379.914C724.324 267.272 685.856 175.127 652.703 124.405Z" fill="url(#paint8_linear)"/>
<path d="M765.341 377.71C759.151 378.048 766.083 377.675 724.35 379.915C724.35 379.915 732.888 334.421 721.172 266.276C713.603 222.272 696.332 177.769 677.477 140.841L700.334 145.188C733.507 169.114 783.32 248.742 765.341 377.71Z" fill="url(#paint9_linear)"/>
<path d="M768.651 343.304L765.341 377.71L760.699 377.964C780.689 211.979 699.582 149.982 699.582 149.982L680.786 146.124L680.742 146.06L677.711 141.206L677.477 140.841L700.334 145.188C700.334 145.188 776.09 199.829 768.651 343.304Z" fill="url(#paint10_linear)"/>
<path d="M603.363 379.491L605.784 86.1698L611.868 80.335L610.242 379.916L603.363 379.491Z" fill="#FFD663"/>
<path d="M615.184 80.335L615.522 9.97373L618.754 5.40283V80.335H615.184Z" fill="#FFEFC2"/>
<path d="M618.746 5.40283H622.363L623.912 80.9619L618.746 80.3349V5.40283Z" fill="#FFBA9F"/>
<g style="mix-blend-mode:multiply" opacity="0.2">
<path d="M615.184 87.6895V127.544L631.055 128.373V90.2719L615.184 87.6895Z" fill="#540D37"/>
</g>
<path d="M627.082 76.7842H632.043C632.043 76.7842 819.595 164.549 779.745 378.51L773.505 377.965C773.505 377.965 819.595 186.507 627.082 76.7842Z" fill="url(#paint11_linear)"/>
<path d="M773.505 377.964C773.505 377.964 821.347 183.088 627.082 76.7842L628.008 80.5515C628.008 80.5515 802.269 163.882 769.138 377.492L773.505 377.964Z" fill="#FFD663"/>
<path d="M620.594 76.7842H627.076C627.076 76.7842 734.353 187.514 717.82 379.916L712.273 379.913C712.273 379.913 716.283 192.914 620.594 76.7842Z" fill="url(#paint12_linear)"/>
<path d="M712.273 379.913C712.273 379.913 728.668 210.822 620.594 76.7842V86.0373C620.594 86.0373 715.808 187.514 704.614 379.916L712.273 379.913Z" fill="#FFD663"/>
<path d="M687.997 221.141L616.645 227.252L617.357 235.558L688.709 229.446L687.997 221.141Z" fill="#FFFF00"/>
<path d="M687.998 221.141L655.645 223.913L656.357 232.218L688.71 229.447L687.998 221.141Z" fill="#FFCF00"/>
<g style="mix-blend-mode:soft-light" opacity="0.5">
<path d="M668.169 163.882L613.719 217.001V368.327H638.807V337.721H652.675V269.909H677.468V233.523H691.887C691.887 233.523 676.898 172.905 668.169 163.882Z" fill="#EFBBFC"/>
</g>
<path d="M687.999 221.141L678.949 221.916L679.662 230.221L688.712 229.446L687.999 221.141Z" fill="#FF8900"/>
<path d="M692 310.536L620.398 311.879L620.477 316.046L692.078 314.703L692 310.536Z" fill="#FFFF00"/>
<path d="M692.001 310.535L659.535 311.144L659.613 315.311L692.08 314.702L692.001 310.535Z" fill="#FFCF00"/>
<path d="M661.997 273.775L653.809 273.928L653.887 278.095L662.075 277.942L661.997 273.775Z" fill="#FFCF00"/>
<path d="M629.813 355.75L621.625 355.904L621.703 360.071L629.891 359.917L629.813 355.75Z" fill="#FFCF00"/>
<path d="M661.034 172.008L628.938 176.929L629.042 172.697L661.109 167.78L661.034 172.008Z" fill="#FFCF00"/>
<path d="M692.004 310.536L682.922 310.706L683 314.873L692.082 314.703L692.004 310.536Z" fill="#FF8900"/>
<g style="mix-blend-mode:multiply" opacity="0.35">
<g style="mix-blend-mode:multiply" opacity="0.35">
<path d="M705.392 360.596H613.723V361.389H705.392V360.596Z" fill="#540D37"/>
</g>
<g style="mix-blend-mode:multiply" opacity="0.35">
<path d="M705.129 346.314H613.723V347.108H705.129V346.314Z" fill="#540D37"/>
</g>
<g style="mix-blend-mode:multiply" opacity="0.35">
<path d="M698.814 266.648L613.699 270.402L613.734 271.196L698.849 267.441L698.814 266.648Z" fill="#540D37"/>
</g>
<g style="mix-blend-mode:multiply" opacity="0.35">
<path d="M681.93 200.93L613.668 208.823L613.759 209.611L682.022 201.718L681.93 200.93Z" fill="#540D37"/>
</g>
<g style="mix-blend-mode:multiply" opacity="0.35">
<path d="M674.782 179.497L613.668 187.43L613.77 188.218L674.885 180.285L674.782 179.497Z" fill="#540D37"/>
</g>
<g style="mix-blend-mode:multiply" opacity="0.35">
<path d="M656.199 138.283L613.648 146.468L613.798 147.247L656.349 139.062L656.199 138.283Z" fill="#540D37"/>
</g>
<g style="mix-blend-mode:multiply" opacity="0.35">
<path d="M648.251 161.332L647.457 161.35L652.285 377.5L653.079 377.483L648.251 161.332Z" fill="#540D37"/>
</g>
<g style="mix-blend-mode:multiply" opacity="0.35">
<path d="M626.153 144.538H625.359V207.838H626.153V144.538Z" fill="#540D37"/>
</g>
<g style="mix-blend-mode:multiply" opacity="0.35">
<path d="M629.665 270.136H628.871V379.914H629.665V270.136Z" fill="#540D37"/>
</g>
</g>
<path d="M685.41 157.079L709.292 159.307L718.064 161.951L686.951 160.442L685.41 157.079Z" fill="#FFA463"/>
<path d="M693.91 176.187L723.315 177.079L730.821 179.891L695.706 180.567L693.91 176.187Z" fill="#FFA463"/>
<path d="M702.312 197.486H735.49L743.678 202.58L704.575 203.786L702.312 197.486Z" fill="#FFA463"/>
<path d="M710.449 221.715L745.868 221.53L753.907 227.225L712.143 227.375L710.449 221.715Z" fill="#FFA463"/>
<path d="M716.613 244.28L753.317 243.546L760.42 249.592L718.072 250.579L716.613 244.28Z" fill="#FFA463"/>
<path d="M721.605 268.921L759.095 269.778L765.609 275H722.589L721.605 268.921Z" fill="#FFA463"/>
<path d="M725.141 295.003L762.545 296.478L768.456 302.637L725.857 302.538L725.141 295.003Z" fill="#FFA463"/>
<path d="M727.164 325.025L763.925 326.617L769.041 332.567H727.322L727.164 325.025Z" fill="#FFA463"/>
<path d="M726.885 354.829H762.891L767.323 360.991H726.5L726.885 354.829Z" fill="#FFA463"/>
<path d="M765.613 275H722.594L722.734 276.056L765.613 275Z" fill="#FF7C48"/>
<path d="M725.848 302.539H762.007L725.994 304.28L725.848 302.539Z" fill="#FF7C48"/>
<path d="M727.32 332.566H769.039L727.329 333.409L727.32 332.566Z" fill="#FF7C48"/>
<path d="M711.934 226.68L748.251 227.244L712.147 227.375L711.934 226.68Z" fill="#FF7C48"/>
<path d="M718.07 250.579L760.418 249.592L718.286 251.552L718.07 250.579Z" fill="#FF7C48"/>
<path d="M611.862 323.967L704.876 322.811L705.122 328.216H610.516L611.862 323.967Z" fill="#FFD663"/>
<path d="M610.941 249.774L694.399 244.28L693.251 239.21L611.862 244.401L610.941 249.774Z" fill="#FFD663"/>
<path d="M663.663 154.061L611.875 163.882L613.727 166.819L665.757 158.466L663.663 154.061Z" fill="#FFD663"/>
<path d="M612.349 324.597L611.281 323.431L653.297 277.561L693.895 243.672L695.021 244.779L659.482 288.583L612.349 324.597ZM688.657 250.11L654.391 278.704L618.494 317.904L658.442 287.379L688.657 250.11Z" fill="#FFD663"/>
<path d="M607.363 382.681L652.709 353.189L704.78 327.505L705.604 328.853L658.447 363.844L607.363 382.681ZM697.632 332.8L653.493 354.565L620.083 376.3L657.79 362.396L697.632 332.8Z" fill="#FFD663"/>
<path d="M615.084 244.97L613.75 244.121L636.7 201.107L665.088 158.031L666.469 158.807L643.59 207.134L615.084 244.97ZM660.227 168.291L638.062 201.915L619.94 235.888L642.274 206.246L660.227 168.291Z" fill="#FFD663"/>
<defs>
<linearGradient id="paint0_linear" x1="612.592" y1="379.107" x2="612.592" y2="183.04" gradientUnits="userSpaceOnUse">
<stop stop-color="#D9485C"/>
<stop offset="1" stop-color="#FE8957"/>
</linearGradient>
<linearGradient id="paint1_linear" x1="576.443" y1="382.829" x2="576.443" y2="183.039" gradientUnits="userSpaceOnUse">
<stop stop-color="#63163D"/>
<stop offset="1" stop-color="#95294D"/>
</linearGradient>
<linearGradient id="paint2_linear" x1="331186" y1="12254.8" x2="1.17583e+06" y2="12254.8" gradientUnits="userSpaceOnUse">
<stop stop-color="#63163D"/>
<stop offset="1" stop-color="#95294D"/>
</linearGradient>
<linearGradient id="paint3_linear" x1="795.819" y1="104.756" x2="795.819" y2="-0.000113336" gradientUnits="userSpaceOnUse">
<stop stop-color="#CA3946"/>
<stop offset="1" stop-color="#FE8957"/>
</linearGradient>
<linearGradient id="paint4_linear" x1="-21458.4" y1="105570" x2="-21458.4" y2="51258.2" gradientUnits="userSpaceOnUse">
<stop stop-color="#FF8F54"/>
<stop offset="1" stop-color="#FFCC65"/>
</linearGradient>
<linearGradient id="paint5_linear" x1="-21282.8" y1="105569" x2="-21282.8" y2="51258.1" gradientUnits="userSpaceOnUse">
<stop stop-color="#CA3946"/>
<stop offset="1" stop-color="#FE8957"/>
</linearGradient>
<linearGradient id="paint6_linear" x1="64978.1" y1="98362.2" x2="64978.1" y2="53035.8" gradientUnits="userSpaceOnUse">
<stop stop-color="#63163D"/>
<stop offset="1" stop-color="#95294D"/>
</linearGradient>
<linearGradient id="paint7_linear" x1="11067.6" y1="115489" x2="11067.6" y2="52932.6" gradientUnits="userSpaceOnUse">
<stop stop-color="#D9485C"/>
<stop offset="1" stop-color="#E76056"/>
</linearGradient>
<linearGradient id="paint8_linear" x1="47026.7" y1="98554.7" x2="47026.7" y2="53050" gradientUnits="userSpaceOnUse">
<stop stop-color="#FF5154"/>
<stop offset="1" stop-color="#FFAC65"/>
</linearGradient>
<linearGradient id="paint9_linear" x1="46655.5" y1="92240.1" x2="46655.5" y2="52401.2" gradientUnits="userSpaceOnUse">
<stop stop-color="#BB2E3E"/>
<stop offset="0.55446" stop-color="#FF6443"/>
<stop offset="0.99063" stop-color="#FF8B4F"/>
</linearGradient>
<linearGradient id="paint10_linear" x1="723.321" y1="377.964" x2="723.321" y2="140.841" gradientUnits="userSpaceOnUse">
<stop stop-color="#BB3831"/>
<stop offset="0.99063" stop-color="#FF6148"/>
</linearGradient>
<linearGradient id="paint11_linear" x1="78100.5" y1="116016" x2="78100.5" y2="52560.7" gradientUnits="userSpaceOnUse">
<stop stop-color="#D9485C"/>
<stop offset="1" stop-color="#E76056"/>
</linearGradient>
<linearGradient id="paint12_linear" x1="46587" y1="116853" x2="46587" y2="52805.2" gradientUnits="userSpaceOnUse">
<stop stop-color="#D9485C"/>
<stop offset="1" stop-color="#E76056"/>
</linearGradient>
</defs>
</svg>
