<svg width="278" height="44" viewBox="0 0 278 44" fill="none" xmlns="http://www.w3.org/2000/svg">
<path d="M126.662 4.4H122.234L119.552 9.098H118.256V4.4H114.008V17H118.256V12.446H119.444L121.856 17H126.644L122.918 10.52L126.662 4.4ZM129.536 4.4L129.374 9.314C129.284 11.762 129.104 13.652 127.7 13.652C127.556 13.652 127.394 13.634 127.232 13.598L127.016 17C127.682 17.162 128.294 17.234 128.816 17.234C132.29 17.234 132.938 14.012 133.082 9.152L133.118 7.694H135.998V17H140.174V4.4H129.536ZM150.895 4.4L148.303 9.71L145.801 4.4H141.319L146.143 13.292C145.747 13.778 145.333 13.994 144.703 13.994C144.343 13.994 143.929 13.922 143.407 13.778L142.417 16.838C143.263 17.18 144.091 17.342 144.865 17.342C146.953 17.342 148.735 16.136 149.941 13.886L154.999 4.4H150.895ZM155.882 17H162.524C165.854 17 167.834 15.452 167.834 12.878C167.834 10.412 166.142 9.062 163.064 9.062H160.058V7.604H166.808V4.4H155.882V17ZM160.058 14.03V12.014H162.236C163.118 12.014 163.568 12.338 163.568 12.986C163.568 13.652 163.082 14.03 162.236 14.03H160.058ZM181.026 17.288C183.492 17.288 185.436 16.388 186.678 14.768L183.996 12.374C183.258 13.31 182.376 13.85 181.242 13.85C179.478 13.85 178.29 12.626 178.29 10.7C178.29 8.774 179.478 7.55 181.242 7.55C182.376 7.55 183.258 8.09 183.996 9.026L186.678 6.632C185.436 5.012 183.492 4.112 181.026 4.112C176.976 4.112 174.006 6.83 174.006 10.7C174.006 14.57 176.976 17.288 181.026 17.288ZM194.748 8.27H192.138V4.4H187.962V17H194.208C197.538 17 199.662 15.434 199.662 12.428C199.662 9.638 197.826 8.27 194.748 8.27ZM200.814 17H204.99V4.4H200.814V17ZM193.92 14.03H192.138V11.24H193.92C194.766 11.24 195.396 11.546 195.396 12.5C195.396 13.472 194.766 14.03 193.92 14.03ZM217.955 4.4H206.399V7.694H210.089V17H214.265V7.694H217.955V4.4ZM226.142 8.27H223.532V4.4H219.356V17H225.602C228.932 17 231.056 15.434 231.056 12.428C231.056 9.638 229.22 8.27 226.142 8.27ZM232.208 17H236.384V4.4H232.208V17ZM225.314 14.03H223.532V11.24H225.314C226.16 11.24 226.79 11.546 226.79 12.5C226.79 13.472 226.16 14.03 225.314 14.03ZM237.83 4.382L241.988 10.592L237.56 17H242.438L244.526 13.742L246.65 17H251.654L247.19 10.394L251.276 4.382H246.362L244.526 7.352L242.69 4.382H237.83ZM120.452 39.288C122.918 39.288 124.862 38.388 126.104 36.768L123.422 34.374C122.684 35.31 121.802 35.85 120.668 35.85C118.904 35.85 117.716 34.626 117.716 32.7C117.716 30.774 118.904 29.55 120.668 29.55C121.802 29.55 122.684 30.09 123.422 31.026L126.104 28.632C124.862 27.012 122.918 26.112 120.452 26.112C116.402 26.112 113.432 28.83 113.432 32.7C113.432 36.57 116.402 39.288 120.452 39.288ZM131.563 35.796V34.14H136.891V31.08H131.563V29.604H137.629V26.4H127.387V39H137.863V35.796H131.563ZM150.315 26.4H138.759V29.694H142.449V39H146.625V29.694H150.315V26.4ZM155.892 35.796V34.14H161.22V31.08H155.892V29.604H161.958V26.4H151.716V39H162.192V35.796H155.892ZM173.599 32.394C174.625 31.836 175.219 30.9 175.219 29.694C175.219 27.606 173.419 26.4 170.305 26.4H163.915V39H170.647C173.941 39 175.777 37.578 175.777 35.346C175.777 33.888 174.985 32.898 173.599 32.394ZM168.091 29.37H169.891C170.611 29.37 170.935 29.712 170.935 30.324C170.935 30.936 170.611 31.242 169.891 31.242H168.091V29.37ZM170.449 36.03H168.091V34.05H170.449C171.151 34.05 171.493 34.374 171.493 35.022C171.493 35.67 171.151 36.03 170.449 36.03ZM177.292 39H181.306L185.626 32.466V39H189.802V26.4H185.806L181.468 32.952V26.4H177.292V39ZM204.586 26.4H200.158L197.476 31.098H196.18V26.4H191.932V39H196.18V34.446H197.368L199.78 39H204.568L200.842 32.52L204.586 26.4ZM211.754 39.288C215.858 39.288 218.864 36.516 218.864 32.7C218.864 28.884 215.858 26.112 211.754 26.112C207.65 26.112 204.644 28.884 204.644 32.7C204.644 36.516 207.65 39.288 211.754 39.288ZM211.754 35.85C210.188 35.85 208.928 34.662 208.928 32.7C208.928 30.738 210.188 29.55 211.754 29.55C213.32 29.55 214.58 30.738 214.58 32.7C214.58 34.662 213.32 35.85 211.754 35.85ZM230.077 32.394C231.103 31.836 231.697 30.9 231.697 29.694C231.697 27.606 229.897 26.4 226.783 26.4H220.393V39H227.125C230.419 39 232.255 37.578 232.255 35.346C232.255 33.888 231.463 32.898 230.077 32.394ZM224.569 29.37H226.369C227.089 29.37 227.413 29.712 227.413 30.324C227.413 30.936 227.089 31.242 226.369 31.242H224.569V29.37ZM226.927 36.03H224.569V34.05H226.927C227.629 34.05 227.971 34.374 227.971 35.022C227.971 35.67 227.629 36.03 226.927 36.03Z" fill="#2A8E94"/>
<g clip-path="url(#clip0)">
<path d="M16.3325 2H0V41H16.3325V2Z" fill="#2A8E94"/>
<path d="M16.3325 21.5H0L16.3325 2H32.6683L16.3325 21.5Z" fill="#62C1CE"/>
<path d="M16.3325 21.5H0L16.3325 41H32.6683L16.3325 21.5Z" fill="#CCF6EF"/>
<path d="M48.9966 21.5H32.6641L48.9966 41H65.3323L48.9966 21.5Z" fill="#8EE5C1"/>
<path d="M48.9966 2L32.6641 21.5H48.9966L65.3323 2H48.9966Z" fill="#2A8E94"/>
<path d="M81.6646 21.5H65.332L81.6646 41H98.0003L81.6646 21.5Z" fill="#62C1CE"/>
<path d="M81.6646 2L65.332 21.5H81.6646L98.0003 2H81.6646Z" fill="#CCF6EF"/>
</g>
<defs>
<clipPath id="clip0">
<rect width="98" height="39" fill="white" transform="translate(0 2)"/>
</clipPath>
</defs>
</svg>
