<svg width="1022" height="809" viewBox="0 0 1022 809" fill="none" xmlns="http://www.w3.org/2000/svg">
<path d="M1003.5 723H0V809H1004L1003.5 723Z" fill="url(#paint0_linear)"/>
<g style="mix-blend-mode:soft-light" opacity="0.62">
<path d="M513.753 744.41C445.892 744.973 75.1858 741.723 15.2811 741.191C48.106 742.018 120.749 744.064 122.533 746.018C124.421 748.083 37.5574 748.921 5.77154 749.158L5.55666 750.456C24.02 749.989 58.7325 749.304 58.603 750.766C58.4839 752.096 26.3589 753.084 5.03629 753.593L0 784C0 784 204.915 760.753 542.366 762.699C609.852 763.088 1014.72 775.27 1014.72 775.27L1022 733C1022 733 587.628 743.797 513.753 744.41ZM744.968 744.431C752.426 744.431 767.097 745.959 767.166 746.652C767.344 748.413 725.789 746.882 725.966 746.193C726.144 745.504 737.509 744.431 744.968 744.431V744.431ZM683.524 745.963C690.982 745.963 705.652 747.491 705.722 748.184C705.899 749.945 664.344 748.413 664.522 747.724C664.7 747.035 676.065 745.963 683.524 745.963V745.963ZM296.922 746.171C296.744 746.86 285.379 747.932 277.92 747.932C270.461 747.932 255.791 746.405 255.722 745.712C255.544 743.95 297.099 745.482 296.922 746.171V746.171ZM70.5011 750.766C70.5011 750.766 160.49 749.391 183.518 749.126C161.867 749.058 129.18 747.95 129.637 746.477C130.702 743.032 252.348 745.329 252.348 746.477C252.348 747.626 212.391 748.775 192.502 749.081C191.813 749.092 191.094 749.1 190.349 749.108C195.7 749.213 209.699 749.617 226.749 750.161C228.718 748.7 250.176 747.396 253.769 747.396C257.853 747.396 276.677 748.392 277.92 749.081C278.84 749.591 268.373 750.689 256.894 751.162C274.887 751.785 292.835 752.453 305.765 753.023C289.859 752.014 285.593 749.956 285.911 749.081C287.332 745.176 361.03 748.545 361.03 750.077C361.03 751.608 336.701 754.135 313.993 753.406C318.372 753.626 321.629 753.821 323.382 753.982C337.184 755.247 411.796 751.018 416.031 750.777C411.968 751.049 342.406 755.655 325.513 755.284C308.109 754.901 200.316 751.302 186.641 750.766C172.967 750.23 70.146 752.221 70.5011 750.766H70.5011ZM242.781 760.451C220.074 759.723 214.332 757.135 214.7 756.126C216.121 752.221 289.818 755.59 289.818 757.122C289.818 758.653 265.489 761.18 242.781 760.451ZM362.456 760.754C342.566 761.06 299.065 759.847 299.591 758.15C300.656 754.704 422.302 757.001 422.302 758.15C422.302 759.299 382.345 760.447 362.456 760.754V760.754ZM550.335 756.76C549.269 760.206 427.624 757.909 427.624 756.76C427.624 755.612 467.581 754.463 487.47 754.157C507.359 753.85 550.861 755.063 550.335 756.76V756.76ZM546.961 754.846C547.138 754.157 558.504 753.084 565.962 753.084C573.421 753.084 588.091 754.612 588.161 755.305C588.338 757.066 546.783 755.535 546.961 754.846V754.846ZM714.246 754.539C713.18 757.985 591.535 755.688 591.535 754.539C591.535 753.391 631.491 752.242 651.381 751.936C652.07 751.925 652.789 751.917 653.533 751.909C648.182 751.804 634.183 751.4 617.134 750.856C615.164 752.317 593.707 753.621 590.114 753.621C586.029 753.621 567.206 752.625 565.962 751.936C565.043 751.426 575.509 750.328 586.989 749.855C569.005 749.233 551.065 748.565 538.137 747.995C554.027 749.005 558.289 751.062 557.971 751.936C556.551 755.841 482.853 752.472 482.853 750.94C482.853 749.41 507.166 746.883 529.867 747.609C525.498 747.39 522.25 747.195 520.501 747.035C506.654 745.766 431.611 750.027 427.814 750.242C431.458 749.998 501.421 745.36 518.37 745.733C535.773 746.116 643.567 749.715 657.241 750.251C670.915 750.787 773.737 748.796 773.381 750.251C773.381 750.251 683.392 751.626 660.365 751.891C682.018 751.959 714.702 753.067 714.246 754.539H714.246ZM844.415 760.206C844.415 760.206 723.658 757.526 721.349 754.999C719.041 752.472 849.565 751.783 849.565 751.783V750.251C849.565 750.251 785.102 752.242 785.28 750.251C785.457 748.26 857.379 747.035 857.379 747.035L844.415 760.206Z" fill="white"/>
</g>
<path d="M555.713 751.202L555.902 752.308L550.454 750.798L550.265 748.937H550.238L549.969 746.321C549.969 746.321 549.807 746.159 549.591 745.889C548.944 745.134 547.946 743.624 549.969 743.624C552.666 743.624 552.665 740.927 555.362 743.624C556.069 744.262 556.493 745.153 556.544 746.103C556.595 747.053 556.267 747.985 555.632 748.694C555.549 748.808 555.459 748.916 555.362 749.018L555.713 751.202Z" fill="#7B889B"/>
<path d="M555.708 751.203C555.617 751.39 555.499 751.562 555.358 751.715L550.26 748.937H550.233L549.964 746.321C549.964 746.321 549.802 746.159 549.586 745.889C549.882 745.404 550.746 745.35 552.661 746.321C553.851 746.821 554.878 747.643 555.627 748.694C555.544 748.808 555.454 748.916 555.358 749.018L555.708 751.203Z" fill="#E5B998"/>
<path d="M546.151 751.202L546.339 752.308L540.891 750.798L540.703 748.937H540.676L540.406 746.321C540.406 746.321 540.244 746.159 540.028 745.889C539.381 745.134 538.383 743.624 540.406 743.624C543.103 743.624 543.103 740.927 545.8 743.624C546.506 744.262 546.931 745.153 546.981 746.103C547.032 747.053 546.704 747.985 546.07 748.694C545.987 748.808 545.897 748.916 545.8 749.018L546.151 751.202Z" fill="#ADF7D2"/>
<path d="M546.153 751.203C546.062 751.39 545.944 751.562 545.803 751.715L540.705 748.937H540.679L540.409 746.321C540.409 746.321 540.247 746.159 540.031 745.889C540.328 745.404 541.191 745.35 543.106 746.321C544.296 746.821 545.323 747.643 546.073 748.694C545.99 748.808 545.9 748.916 545.803 749.018L546.153 751.203Z" fill="#E5B998"/>
<path d="M481.352 751.668L519.659 733.427L538.671 745.585L581.735 757.429L585.368 762.226L481.352 751.668Z" fill="url(#paint1_linear)"/>
<path opacity="0.79" d="M585.368 762.226L582.077 761.893L481.352 751.665L519.659 733.427L538.671 745.585L540.143 745.993L581.735 757.425L585.368 762.226Z" fill="url(#paint2_linear)"/>
<g style="mix-blend-mode:multiply" opacity="0.44">
<path d="M561.305 759.708L497.305 749.926L513.497 744.348L521.049 749.926V745.718L522.164 746.289C522.164 746.289 521.593 751.297 522.995 751.58C524.398 751.868 526.084 746.833 526.084 746.833L526.916 747.121L525.417 751.9L539.22 755.788C539.22 755.788 539.999 754.79 541.081 753.617L538.217 753.089L542.601 751.926V750.859L541.534 750.326L540.468 746.593L546.574 747.708L545.801 749.26L545.871 749.926C546.083 749.878 546.304 749.878 546.516 749.926C547.348 750.15 548.98 750.721 551.369 751.361L550.287 749.414L550.095 749.094L555.78 750.593L555.652 752.7C557.721 753.27 560.351 753.75 560.479 753.846C560.875 755.781 561.152 757.739 561.305 759.708V759.708Z" fill="#5EA1AB"/>
</g>
<path style="mix-blend-mode:color-dodge" opacity="0.63" d="M496.168 747.968L519.658 734.825L529.445 741.257L501.762 748.67L496.168 747.968Z" fill="url(#paint3_linear)"/>
<g style="mix-blend-mode:multiply" opacity="0.67">
<path d="M585.372 762.228L582.08 761.893L581.388 763.261L534.972 754.814L532.523 755.517L538.675 745.73C538.675 745.73 534.942 754.347 535.884 754.518L572.864 758.999V754.737L581.736 757.427L585.372 762.228Z" fill="#5EA1AB"/>
</g>
<path d="M623.578 769.409L621.987 772.316L617.587 780.353L608.207 783.48L604.54 772.842L602.996 768.367L607.684 760.551L620.973 763.679L623.578 769.409Z" fill="url(#paint4_linear)"/>
<g style="mix-blend-mode:multiply">
<path d="M621.971 772.315L617.571 780.352L608.191 783.48L604.523 772.841L606.108 766.802L617.571 768.105L621.971 772.315Z" fill="#ADC7F6"/>
</g>
<path d="M457.883 746.79L461.221 735.944L458.985 746.848L466.462 747.543L469.051 736.782L467.531 747.642L473.475 748.184L475.761 737.342L474.611 748.293L481.355 748.934L483.313 739.018L482.471 748.805L488.625 750.203L490.023 739.859L489.463 750.203L494.776 750.763L496.455 740.138L495.896 750.763L500.713 750.905L501.768 740.416V750.61L508.756 751.601V740.928L509.876 751.601L457.883 746.79Z" fill="url(#paint5_linear)"/>
<path d="M616.966 767.541L606.9 786.835C606.9 786.835 590.349 786.743 569.889 786.522C539.886 786.198 501.475 785.597 494.493 784.598C482.749 782.921 452.55 756.077 452.55 756.077L445 745.731C445 745.731 465.692 744.613 513.786 749.925C561.881 755.238 616.966 767.541 616.966 767.541Z" fill="url(#paint6_linear)"/>
<path opacity="0.39" d="M462.055 758.873C462.055 758.873 540.069 767.82 572.225 774.531L604.381 781.242L474.358 767.261L462.055 758.873Z" fill="#ADC7F6"/>
<path opacity="0.39" d="M616.966 767.541L606.9 786.835C606.9 786.835 590.349 786.743 569.889 786.522L574.464 775.091C574.464 775.091 585.369 765.584 577.54 763.067C548.16 753.625 445 745.731 445 745.731C445 745.731 465.692 744.613 513.786 749.925C561.881 755.238 616.966 767.541 616.966 767.541Z" fill="#ADC7F6"/>
<path d="M590.535 762.227L611.09 767.261L605.028 786.822H606.314L615.833 767.292L590.535 762.227Z" fill="#ADC7F6"/>
<path d="M459.262 735.945L514.067 743.216L516.584 750.764L514.627 741.818L459.262 735.386V735.945Z" fill="url(#paint7_linear)"/>
<path d="M509.867 783.158C509.867 783.158 519.827 772.358 526.978 776.588C535.366 781.55 518.215 776.487 516.604 782.228C514.992 787.969 525.97 783.134 525.97 783.134C525.97 783.134 538.963 771.955 548.632 774.171C558.3 776.386 554.775 780.314 552.66 779.811C549.497 779.058 552.257 775.278 546.617 775.883C544.817 776.099 543.151 776.946 541.916 778.273C540.68 779.601 539.955 781.323 539.869 783.134L550.163 783.988C551.467 782.687 553.049 781.698 554.789 781.097C556.53 780.496 558.385 780.297 560.214 780.516C567.264 780.818 565.451 785.149 565.451 785.149C565.451 785.149 584.257 774.977 591.975 776.688C599.694 778.4 601.104 781.825 599.694 782.43C598.285 783.034 593.561 776.224 590.534 777.463C587.508 778.702 587.347 784.4 587.347 784.4C592.54 783.158 597.895 782.731 603.219 783.134C609.565 784.142 629.808 785.954 629.808 785.954C629.808 785.954 666.368 783.739 669.591 784.544C672.814 785.35 679.461 787.062 679.461 787.062C679.461 787.062 694.669 781.624 699 783.638C703.838 785.287 708.833 786.435 713.906 787.062H740.998L692.856 789.782C692.856 789.782 666.872 784.645 658.714 786.76C650.556 788.875 646.93 789.782 646.93 789.782L588.313 787.969C588.313 787.969 565.955 793.609 562.127 792.501C558.3 791.393 561.322 789.379 561.322 789.379C561.322 789.379 525.769 790.889 524.661 789.177C523.554 787.466 525.064 787.062 525.064 787.062C525.064 787.062 495.353 788.07 492.13 785.451C488.907 782.832 509.755 775.278 513.582 776.084C517.41 776.89 509.867 783.158 509.867 783.158Z" fill="url(#paint8_linear)"/>
<path d="M551.758 774.547C551.758 774.547 560.923 775.453 560.52 777.165C560.118 778.877 554.074 774.748 551.758 774.547Z" fill="white"/>
<path d="M557.199 778.072C557.199 778.072 562.336 779.885 561.329 780.993C560.322 782.101 558.609 778.777 557.199 778.072Z" fill="white"/>
<path d="M509.484 738.268L519.702 733.567L525.202 738.472L538.212 745.152L519.702 733L509.484 738.268Z" fill="white"/>
<path d="M712.588 25.1386C712.509 25.401 710.922 30.3198 700.042 36.8717C695.769 39.4459 690.529 42.0628 685.456 44.4697C677.248 48.3622 669.476 51.7037 666.928 53.4319C662.803 56.2258 658.753 64.0435 647.079 69.8772C635.405 75.7077 635.352 70.5626 635.352 70.5626C635.352 70.5626 634.004 90.7299 615.529 97.4326C597.054 104.139 593.991 95.1044 593.991 95.1044C593.991 95.1044 594.391 98.4853 591.722 98.9673C589.102 99.4428 588.151 96.8948 588.118 96.7997C588.161 96.9604 590.207 104.795 581.373 107.398C572.443 110.031 569.548 107.543 569.017 107.697H569.013C568.466 107.854 561.222 109.887 560.412 110.061C559.605 110.238 553.86 109.202 553.089 109.31C552.342 109.415 548.518 109.635 548 109.52C548.489 109.595 552.211 108.88 553.729 108.549C555.293 108.215 558.858 108.448 558.858 108.448C559.359 108.343 559.953 108.198 560.596 108.025C560.917 106.88 561.799 104.201 563.084 103.945C564.38 103.686 565.678 105.477 566.164 106.237C566.292 106.441 566.364 106.569 566.364 106.569C566.364 106.569 566.442 106.372 566.587 106.073C566.945 105.294 567.423 104.576 568.003 103.945C568.535 103.414 569.443 103.647 570.171 103.975C570.948 103.457 571.679 102.981 571.955 102.778C572.476 102.397 570.633 96.7965 573.024 94.1567C575.414 91.5202 579.527 93.2549 579.527 93.2549C579.527 93.2549 574.762 72.1596 584.036 65.3584C593.211 58.6262 606.613 65.7716 606.898 65.9257C606.833 65.7224 604.042 57.3473 609.705 55.3764C615.362 53.4023 617.336 56.6849 617.385 56.7701C617.349 56.6258 615.119 47.644 624.921 47.7194C634.805 47.7916 635.267 55.1666 635.267 55.1666C635.267 55.1666 664.557 37.262 668.459 39.4623C672.211 41.5741 669.961 43.8303 669.781 44.0041C670.427 43.6925 698.143 30.1657 708.358 20.4887C714.738 14.3798 720.329 7.49685 725 0C724.852 0.311527 720.029 10.3263 709.489 21.3216C698.779 32.4939 686.584 39.1049 685.544 40.2657C684.501 41.4266 690.62 40.5773 700.632 34.5402C710.289 28.7097 712.447 25.3649 712.588 25.1386Z" fill="url(#paint9_linear)"/>
<path style="mix-blend-mode:multiply" opacity="0.11" d="M685.455 44.4692C677.248 48.3614 669.474 51.7048 666.926 53.4318C662.802 56.226 658.752 64.044 647.077 69.876C635.402 75.7081 635.352 70.5635 635.352 70.5635C635.352 70.5635 634.002 90.73 615.528 97.4336C597.054 104.138 593.991 95.1043 593.991 95.1043C593.991 95.1043 594.392 98.4854 591.723 98.9684C589.102 99.4432 588.151 96.8954 588.117 96.8016C588.159 96.9618 590.208 104.794 581.371 107.4C572.442 110.032 569.546 107.543 569.016 107.696L569.014 107.696L569.008 107.687C569.008 107.687 576.195 107.792 577.425 106.012C578.655 104.232 581.629 105.107 584.818 103.257C588.007 101.407 584.074 92.674 584.074 92.674C584.074 92.674 578.715 78.257 591.285 74.1044C608.184 68.5217 608.665 82.9583 608.665 82.9583C608.665 82.9583 611.258 74.3857 615.552 80.6629C620.437 87.8066 608.331 66.946 620.47 68.2018C639.49 70.1693 621.373 63.1008 629.587 62.3879C637.801 61.6749 634.968 65.0488 634.968 65.0488C634.968 65.0488 636.184 54.3961 643.598 53.8749C650.976 53.3562 646.278 63.2769 646.231 63.3757C646.3 63.2401 655.836 44.5574 662.204 46.8091C668.595 49.0693 664.233 53.508 664.233 53.508L685.455 44.4692Z" fill="url(#paint10_linear)"/>
<path d="M515 68.1505C515 68.1505 493.466 69.8733 486.575 69.0119C479.684 68.1505 455.565 56.0912 455.565 56.0912C454.189 55.148 452.936 54.0369 451.835 52.7835C450.371 51.0952 449.423 49.3122 450.397 48.3388C452.119 46.6161 465.901 52.6457 465.901 52.6457C466.586 50.8937 467.788 49.3915 469.347 48.3388C471.931 46.6161 472.793 50.0616 472.793 50.0616C472.793 50.0616 477.099 35.4181 489.159 37.1409C500.615 38.7775 494.964 57.5211 494.379 59.3903C494.732 58.5547 496.756 54.6355 502.941 56.9526C509.832 59.5367 504.663 66.4277 504.663 66.4277L515 68.1505Z" fill="url(#paint11_linear)"/>
<path style="mix-blend-mode:multiply" opacity="0.11" d="M514.997 68.1505C514.997 68.1505 493.462 69.8733 486.571 69.0119C479.68 68.1505 455.562 56.0912 455.562 56.0912C454.186 55.148 452.933 54.0369 451.832 52.7835C451.897 52.5195 452.042 52.2819 452.247 52.1031C452.452 51.9243 452.707 51.813 452.978 51.7843C457.285 50.923 469.344 56.0912 469.344 56.0912C469.344 56.0912 469.344 54.3685 471.928 55.2299C474.512 56.0912 474.512 56.9526 474.512 56.9526C478.23 54.2151 482.845 52.9843 487.433 53.5071C495.185 54.3685 493.462 61.2595 493.462 61.2595C493.462 61.2595 495.185 60.3981 499.492 62.9822C503.799 65.5664 502.938 68.1505 502.938 68.1505H514.997Z" fill="url(#paint12_linear)"/>
<defs>
<linearGradient id="paint0_linear" x1="500.722" y1="723.542" x2="501.642" y2="798.355" gradientUnits="userSpaceOnUse">
<stop stop-color="#75C9C1"/>
<stop offset="1" stop-color="#9CE9BC"/>
</linearGradient>
<linearGradient id="paint1_linear" x1="533.409" y1="765.057" x2="533.211" y2="732.41" gradientUnits="userSpaceOnUse">
<stop stop-color="#D6ECF8"/>
<stop offset="1" stop-color="white"/>
</linearGradient>
<linearGradient id="paint2_linear" x1="599.144" y1="768.99" x2="498.143" y2="741.913" gradientUnits="userSpaceOnUse">
<stop stop-color="#5CA18F"/>
<stop offset="1" stop-color="#BFFF9D"/>
</linearGradient>
<linearGradient id="paint3_linear" x1="528.54" y1="744.261" x2="500.269" y2="740.335" gradientUnits="userSpaceOnUse">
<stop/>
<stop offset="1" stop-color="#E3FF6B"/>
</linearGradient>
<linearGradient id="paint4_linear" x1="16062" y1="10126.9" x2="16186.9" y2="10126.9" gradientUnits="userSpaceOnUse">
<stop stop-color="#D6ECF8"/>
<stop offset="1" stop-color="white"/>
</linearGradient>
<linearGradient id="paint5_linear" x1="37692.2" y1="7047.87" x2="37689" y2="6949.75" gradientUnits="userSpaceOnUse">
<stop stop-color="#D6ECF8"/>
<stop offset="1" stop-color="white"/>
</linearGradient>
<linearGradient id="paint6_linear" x1="125968" y1="17805.6" x2="125967" y2="17233.2" gradientUnits="userSpaceOnUse">
<stop stop-color="#D6ECF8"/>
<stop offset="1" stop-color="white"/>
</linearGradient>
<linearGradient id="paint7_linear" x1="41588.3" y1="6932.85" x2="41585.5" y2="6836.45" gradientUnits="userSpaceOnUse">
<stop stop-color="#D6ECF8"/>
<stop offset="1" stop-color="white"/>
</linearGradient>
<linearGradient id="paint8_linear" x1="614.455" y1="765.739" x2="620.55" y2="829.255" gradientUnits="userSpaceOnUse">
<stop stop-color="white"/>
<stop offset="1" stop-color="#9CE9BC"/>
</linearGradient>
<linearGradient id="paint9_linear" x1="187685" y1="18238.6" x2="132608" y2="19929.4" gradientUnits="userSpaceOnUse">
<stop offset="0.00794" stop-color="#E1CCD8"/>
<stop offset="1" stop-color="#F8F4FF"/>
</linearGradient>
<linearGradient id="paint10_linear" x1="118995" y1="14720.8" x2="87484.6" y2="17086.3" gradientUnits="userSpaceOnUse">
<stop stop-color="#C1B8F1"/>
<stop offset="0.99603" stop-color="#7589EF"/>
</linearGradient>
<linearGradient id="paint11_linear" x1="42208.8" y1="12673.9" x2="41772.5" y2="10047.8" gradientUnits="userSpaceOnUse">
<stop offset="0.00794" stop-color="#E1CCD8"/>
<stop offset="1" stop-color="#F8F4FF"/>
</linearGradient>
<linearGradient id="paint12_linear" x1="39159.7" y1="5166.44" x2="39160" y2="5376.29" gradientUnits="userSpaceOnUse">
<stop stop-color="#C1B8F1"/>
<stop offset="0.99603" stop-color="#7589EF"/>
</linearGradient>
</defs>
</svg>
