<svg width="108" height="108" viewBox="0 0 108 108" fill="none" xmlns="http://www.w3.org/2000/svg">
<path d="M8.4375 15.1875H102.938V102.938H8.4375V15.1875Z" fill="#C3C6C7"/>
<path d="M5.0625 11.8125H96.1875V96.1875H5.0625V11.8125Z" fill="#E9EEF2"/>
<path d="M5.0625 11.8125H96.1875V32.0625H5.0625V11.8125Z" fill="#EB423F"/>
<path d="M23.625 11.8125V10.125C23.625 9.67745 23.4472 9.24823 23.1307 8.93176C22.8143 8.61529 22.3851 8.4375 21.9375 8.4375C21.4899 8.4375 21.0607 8.61529 20.7443 8.93176C20.4278 9.24823 20.25 9.67745 20.25 10.125V16.875C20.2505 17.3224 20.4285 17.7513 20.7448 18.0677C21.0612 18.384 21.4901 18.562 21.9375 18.5625C22.3851 18.5625 22.8143 18.7403 23.1307 19.0568C23.4472 19.3732 23.625 19.8024 23.625 20.25C23.625 20.6976 23.4472 21.1268 23.1307 21.4432C22.8143 21.7597 22.3851 21.9375 21.9375 21.9375C20.5953 21.9359 19.3086 21.4021 18.3595 20.453C17.4104 19.5039 16.8766 18.2172 16.875 16.875V10.125C16.875 8.78234 17.4084 7.49467 18.3578 6.54527C19.3072 5.59587 20.5948 5.0625 21.9375 5.0625C23.2802 5.0625 24.5678 5.59587 25.5172 6.54527C26.4666 7.49467 27 8.78234 27 10.125V11.8125H23.625Z" fill="#6A7073"/>
<path d="M37.125 11.8125V10.125C37.125 9.67745 36.9472 9.24823 36.6307 8.93176C36.3143 8.61529 35.8851 8.4375 35.4375 8.4375C34.9899 8.4375 34.5607 8.61529 34.2443 8.93176C33.9278 9.24823 33.75 9.67745 33.75 10.125V16.875C33.7505 17.3224 33.9285 17.7513 34.2448 18.0677C34.5612 18.384 34.9901 18.562 35.4375 18.5625C35.8851 18.5625 36.3143 18.7403 36.6307 19.0568C36.9472 19.3732 37.125 19.8024 37.125 20.25C37.125 20.6976 36.9472 21.1268 36.6307 21.4432C36.3143 21.7597 35.8851 21.9375 35.4375 21.9375C34.0953 21.9359 32.8086 21.4021 31.8595 20.453C30.9104 19.5039 30.3766 18.2172 30.375 16.875V10.125C30.375 8.78234 30.9084 7.49467 31.8578 6.54527C32.8072 5.59587 34.0948 5.0625 35.4375 5.0625C36.7802 5.0625 38.0678 5.59587 39.0172 6.54527C39.9666 7.49467 40.5 8.78234 40.5 10.125V11.8125H37.125Z" fill="#6A7073"/>
<path d="M67.5 11.8125V10.125C67.5 9.67745 67.3222 9.24823 67.0057 8.93176C66.6893 8.61529 66.2601 8.4375 65.8125 8.4375C65.3649 8.4375 64.9357 8.61529 64.6193 8.93176C64.3028 9.24823 64.125 9.67745 64.125 10.125V16.875C64.1255 17.3224 64.3035 17.7513 64.6198 18.0677C64.9362 18.384 65.3651 18.562 65.8125 18.5625C66.2601 18.5625 66.6893 18.7403 67.0057 19.0568C67.3222 19.3732 67.5 19.8024 67.5 20.25C67.5 20.6976 67.3222 21.1268 67.0057 21.4432C66.6893 21.7597 66.2601 21.9375 65.8125 21.9375C64.4703 21.9359 63.1836 21.4021 62.2345 20.453C61.2854 19.5039 60.7516 18.2172 60.75 16.875V10.125C60.75 8.78234 61.2834 7.49467 62.2328 6.54527C63.1822 5.59587 64.4698 5.0625 65.8125 5.0625C67.1552 5.0625 68.4428 5.59587 69.3922 6.54527C70.3416 7.49467 70.875 8.78234 70.875 10.125V11.8125H67.5Z" fill="#6A7073"/>
<path d="M81 11.8125V10.125C81 9.67745 80.8222 9.24822 80.5057 8.93176C80.1893 8.61529 79.7601 8.4375 79.3125 8.4375C78.8649 8.4375 78.4357 8.61529 78.1193 8.93176C77.8028 9.24822 77.625 9.67745 77.625 10.125V16.875C77.6255 17.3224 77.8035 17.7513 78.1198 18.0677C78.4362 18.384 78.8651 18.562 79.3125 18.5625C79.7601 18.5625 80.1893 18.7403 80.5057 19.0568C80.8222 19.3732 81 19.8024 81 20.25C81 20.6976 80.8222 21.1268 80.5057 21.4432C80.1893 21.7597 79.7601 21.9375 79.3125 21.9375C77.9703 21.9359 76.6836 21.4021 75.7345 20.453C74.7854 19.5039 74.2516 18.2172 74.25 16.875V10.125C74.25 8.78234 74.7834 7.49467 75.7328 6.54527C76.6822 5.59587 77.9698 5.0625 79.3125 5.0625C80.6552 5.0625 81.9428 5.59587 82.8922 6.54527C83.8416 7.49467 84.375 8.78234 84.375 10.125V11.8125H81Z" fill="#6A7073"/>
<path d="M69.9589 45.7492C69.683 45.6073 69.3734 45.5443 69.064 45.567C68.7546 45.5897 68.4574 45.6973 68.2052 45.8778L54.7052 55.5426C54.525 55.6716 54.372 55.8348 54.2549 56.023C54.1378 56.2111 54.0589 56.4205 54.0227 56.6391C53.9865 56.8577 53.9937 57.0813 54.0439 57.2972C54.0941 57.513 54.1864 57.7169 54.3154 57.8971C54.4444 58.0773 54.6076 58.2303 54.7958 58.3474C54.9839 58.4645 55.1933 58.5434 55.4119 58.5796C55.6305 58.6158 55.8542 58.6086 56.07 58.5583C56.2858 58.5081 56.4897 58.4159 56.6699 58.2869L67.5 50.5334V81C67.5 81.4475 67.6778 81.8768 67.9943 82.1932C68.3108 82.5097 68.74 82.6875 69.1875 82.6875C69.6351 82.6875 70.0643 82.5097 70.3808 82.1932C70.6972 81.8768 70.875 81.4475 70.875 81V47.25C70.875 46.9398 70.7895 46.6356 70.6279 46.3708C70.4663 46.1061 70.2348 45.891 69.9589 45.7492Z" fill="#6A7073"/>
<path d="M50.625 55.6875C50.625 53.0022 49.5583 50.4269 47.6595 48.528C45.7607 46.6292 43.1853 45.5625 40.5 45.5625C37.8147 45.5625 35.2393 46.6292 33.3405 48.528C31.4417 50.4269 30.375 53.0022 30.375 55.6875C30.375 56.1351 30.5528 56.5643 30.8693 56.8807C31.1857 57.1972 31.6149 57.375 32.0625 57.375C32.5101 57.375 32.9393 57.1972 33.2557 56.8807C33.5722 56.5643 33.75 56.1351 33.75 55.6875C33.75 54.3525 34.1459 53.0474 34.8876 51.9374C35.6293 50.8274 36.6835 49.9622 37.9169 49.4513C39.1503 48.9404 40.5075 48.8067 41.8169 49.0672C43.1262 49.3277 44.329 49.9705 45.273 50.9145C46.217 51.8585 46.8598 53.0613 47.1203 54.3706C47.3808 55.68 47.2471 57.0372 46.7362 58.2706C46.2253 59.504 45.3601 60.5582 44.2501 61.2999C43.1401 62.0416 41.835 62.4375 40.5 62.4375C40.0524 62.4375 39.6232 62.6153 39.3068 62.9318C38.9903 63.2482 38.8125 63.6775 38.8125 64.125C38.8125 64.5726 38.9903 65.0018 39.3068 65.3183C39.6232 65.6347 40.0524 65.8125 40.5 65.8125C41.835 65.8125 43.1401 66.2084 44.2501 66.9501C45.3601 67.6918 46.2253 68.746 46.7362 69.9794C47.2471 71.2128 47.3808 72.57 47.1203 73.8794C46.8598 75.1887 46.217 76.3915 45.273 77.3355C44.329 78.2795 43.1262 78.9224 41.8169 79.1828C40.5075 79.4433 39.1503 79.3096 37.9169 78.7987C36.6835 78.2878 35.6293 77.4226 34.8876 76.3126C34.1459 75.2026 33.75 73.8975 33.75 72.5625C33.75 72.115 33.5722 71.6857 33.2557 71.3693C32.9393 71.0528 32.5101 70.875 32.0625 70.875C31.6149 70.875 31.1857 71.0528 30.8693 71.3693C30.5528 71.6857 30.375 72.115 30.375 72.5625C30.3744 74.3136 30.8279 76.0349 31.6913 77.5584C32.5547 79.0818 33.7985 80.3553 35.3011 81.2545C36.8037 82.1536 38.5139 82.6477 40.2645 82.6884C42.0151 82.7291 43.7464 82.3152 45.2892 81.4869C46.832 80.6586 48.1337 79.4443 49.067 77.9627C50.0003 76.481 50.5334 74.7827 50.6142 73.0334C50.695 71.2842 50.3208 69.5439 49.5281 67.9825C48.7353 66.4211 47.5512 65.092 46.0913 64.125C47.4848 63.2021 48.6281 61.9486 49.4191 60.4763C50.2102 59.0041 50.6245 57.3589 50.625 55.6875Z" fill="#6A7073"/>
</svg>
