<svg width="108" height="108" viewBox="0 0 108 108" fill="none" xmlns="http://www.w3.org/2000/svg">
<path d="M8.4375 15.1875H102.938V102.938H8.4375V15.1875Z" fill="#C3C6C7"/>
<path d="M5.0625 11.8125H96.1875V96.1875H5.0625V11.8125Z" fill="#E9EEF2"/>
<path d="M5.0625 11.8125H96.1875V32.0625H5.0625V11.8125Z" fill="#EB423F"/>
<path d="M23.625 11.8125V10.125C23.625 9.67745 23.4472 9.24823 23.1307 8.93176C22.8143 8.61529 22.3851 8.4375 21.9375 8.4375C21.4899 8.4375 21.0607 8.61529 20.7443 8.93176C20.4278 9.24823 20.25 9.67745 20.25 10.125V16.875C20.2505 17.3224 20.4285 17.7513 20.7448 18.0677C21.0612 18.384 21.4901 18.562 21.9375 18.5625C22.3851 18.5625 22.8143 18.7403 23.1307 19.0568C23.4472 19.3732 23.625 19.8024 23.625 20.25C23.625 20.6976 23.4472 21.1268 23.1307 21.4432C22.8143 21.7597 22.3851 21.9375 21.9375 21.9375C20.5953 21.9359 19.3086 21.4021 18.3595 20.453C17.4104 19.5039 16.8766 18.2172 16.875 16.875V10.125C16.875 8.78234 17.4084 7.49467 18.3578 6.54527C19.3072 5.59587 20.5948 5.0625 21.9375 5.0625C23.2802 5.0625 24.5678 5.59587 25.5172 6.54527C26.4666 7.49467 27 8.78234 27 10.125V11.8125H23.625Z" fill="#6A7073"/>
<path d="M37.125 11.8125V10.125C37.125 9.67745 36.9472 9.24823 36.6307 8.93176C36.3143 8.61529 35.8851 8.4375 35.4375 8.4375C34.9899 8.4375 34.5607 8.61529 34.2443 8.93176C33.9278 9.24823 33.75 9.67745 33.75 10.125V16.875C33.7505 17.3224 33.9285 17.7513 34.2448 18.0677C34.5612 18.384 34.9901 18.562 35.4375 18.5625C35.8851 18.5625 36.3143 18.7403 36.6307 19.0568C36.9472 19.3732 37.125 19.8024 37.125 20.25C37.125 20.6976 36.9472 21.1268 36.6307 21.4432C36.3143 21.7597 35.8851 21.9375 35.4375 21.9375C34.0953 21.9359 32.8086 21.4021 31.8595 20.453C30.9104 19.5039 30.3766 18.2172 30.375 16.875V10.125C30.375 8.78234 30.9084 7.49467 31.8578 6.54527C32.8072 5.59587 34.0948 5.0625 35.4375 5.0625C36.7802 5.0625 38.0678 5.59587 39.0172 6.54527C39.9666 7.49467 40.5 8.78234 40.5 10.125V11.8125H37.125Z" fill="#6A7073"/>
<path d="M67.5 11.8125V10.125C67.5 9.67745 67.3222 9.24823 67.0057 8.93176C66.6893 8.61529 66.2601 8.4375 65.8125 8.4375C65.3649 8.4375 64.9357 8.61529 64.6193 8.93176C64.3028 9.24823 64.125 9.67745 64.125 10.125V16.875C64.1255 17.3224 64.3035 17.7513 64.6198 18.0677C64.9362 18.384 65.3651 18.562 65.8125 18.5625C66.2601 18.5625 66.6893 18.7403 67.0057 19.0568C67.3222 19.3732 67.5 19.8024 67.5 20.25C67.5 20.6976 67.3222 21.1268 67.0057 21.4432C66.6893 21.7597 66.2601 21.9375 65.8125 21.9375C64.4703 21.9359 63.1836 21.4021 62.2345 20.453C61.2854 19.5039 60.7516 18.2172 60.75 16.875V10.125C60.75 8.78234 61.2834 7.49467 62.2328 6.54527C63.1822 5.59587 64.4698 5.0625 65.8125 5.0625C67.1552 5.0625 68.4428 5.59587 69.3922 6.54527C70.3416 7.49467 70.875 8.78234 70.875 10.125V11.8125H67.5Z" fill="#6A7073"/>
<path d="M81 11.8125V10.125C81 9.67745 80.8222 9.24822 80.5057 8.93176C80.1893 8.61529 79.7601 8.4375 79.3125 8.4375C78.8649 8.4375 78.4357 8.61529 78.1193 8.93176C77.8028 9.24822 77.625 9.67745 77.625 10.125V16.875C77.6255 17.3224 77.8035 17.7513 78.1198 18.0677C78.4362 18.384 78.8651 18.562 79.3125 18.5625C79.7601 18.5625 80.1893 18.7403 80.5057 19.0568C80.8222 19.3732 81 19.8024 81 20.25C81 20.6976 80.8222 21.1268 80.5057 21.4432C80.1893 21.7597 79.7601 21.9375 79.3125 21.9375C77.9703 21.9359 76.6836 21.4021 75.7345 20.453C74.7854 19.5039 74.2516 18.2172 74.25 16.875V10.125C74.25 8.78234 74.7834 7.49467 75.7328 6.54527C76.6822 5.59587 77.9698 5.0625 79.3125 5.0625C80.6552 5.0625 81.9428 5.59587 82.8922 6.54527C83.8416 7.49467 84.375 8.78234 84.375 10.125V11.8125H81Z" fill="#6A7073"/>
<path d="M37.125 55.6875C37.125 53.0022 36.0583 50.4269 34.1595 48.528C32.2607 46.6292 29.6853 45.5625 27 45.5625C24.3147 45.5625 21.7394 46.6292 19.8405 48.528C17.9417 50.4269 16.875 53.0022 16.875 55.6875C16.875 56.1351 17.0528 56.5643 17.3693 56.8807C17.6857 57.1972 18.1149 57.375 18.5625 57.375C19.0101 57.375 19.4393 57.1972 19.7557 56.8807C20.0722 56.5643 20.25 56.1351 20.25 55.6875C20.25 54.3525 20.6459 53.0474 21.3876 51.9374C22.1293 50.8274 23.1835 49.9622 24.4169 49.4513C25.6503 48.9404 27.0075 48.8067 28.3169 49.0672C29.6262 49.3277 30.829 49.9705 31.773 50.9145C32.717 51.8585 33.3599 53.0613 33.6203 54.3706C33.8808 55.68 33.7471 57.0372 33.2362 58.2706C32.7253 59.504 31.8601 60.5582 30.7501 61.2999C29.6401 62.0416 28.335 62.4375 27 62.4375C26.5524 62.4375 26.1232 62.6153 25.8068 62.9318C25.4903 63.2482 25.3125 63.6775 25.3125 64.125C25.3125 64.5726 25.4903 65.0018 25.8068 65.3183C26.1232 65.6347 26.5524 65.8125 27 65.8125C28.335 65.8125 29.6401 66.2084 30.7501 66.9501C31.8601 67.6918 32.7253 68.746 33.2362 69.9794C33.7471 71.2128 33.8808 72.57 33.6203 73.8794C33.3599 75.1887 32.717 76.3915 31.773 77.3355C30.829 78.2795 29.6262 78.9224 28.3169 79.1828C27.0075 79.4433 25.6503 79.3096 24.4169 78.7987C23.1835 78.2878 22.1293 77.4226 21.3876 76.3126C20.6459 75.2026 20.25 73.8975 20.25 72.5625C20.25 72.115 20.0722 71.6857 19.7557 71.3693C19.4393 71.0528 19.0101 70.875 18.5625 70.875C18.1149 70.875 17.6857 71.0528 17.3693 71.3693C17.0528 71.6857 16.875 72.115 16.875 72.5625C16.8744 74.3136 17.3279 76.0349 18.1913 77.5584C19.0547 79.0818 20.2985 80.3553 21.8011 81.2545C23.3037 82.1536 25.0139 82.6477 26.7645 82.6884C28.5151 82.7291 30.2464 82.3152 31.7892 81.4869C33.332 80.6586 34.6337 79.4443 35.567 77.9627C36.5003 76.481 37.0334 74.7827 37.1142 73.0334C37.195 71.2842 36.8208 69.5439 36.0281 67.9825C35.2353 66.4211 34.0512 65.092 32.5913 64.125C33.9848 63.2021 35.1281 61.9486 35.9192 60.4763C36.7102 59.0041 37.1245 57.3589 37.125 55.6875Z" fill="#6A7073"/>
<path d="M74.25 62.4375H69.1875V48.9375H81C81.4475 48.9375 81.8768 48.7597 82.1932 48.4432C82.5097 48.1268 82.6875 47.6976 82.6875 47.25C82.6875 46.8024 82.5097 46.3732 82.1932 46.0568C81.8768 45.7403 81.4475 45.5625 81 45.5625H67.5C67.0524 45.5625 66.6232 45.7403 66.3068 46.0568C65.9903 46.3732 65.8125 46.8024 65.8125 47.25V64.125C65.8125 64.5726 65.9903 65.0018 66.3068 65.3182C66.6232 65.6347 67.0524 65.8125 67.5 65.8125H74.25C75.585 65.8125 76.8901 66.2084 78.0001 66.9501C79.1101 67.6918 79.9753 68.746 80.4862 69.9794C80.9971 71.2128 81.1307 72.57 80.8703 73.8794C80.6098 75.1887 79.967 76.3915 79.023 77.3355C78.079 78.2795 76.8762 78.9224 75.5669 79.1828C74.2575 79.4433 72.9003 79.3096 71.6669 78.7987C70.4335 78.2878 69.3793 77.4226 68.6376 76.3126C67.8959 75.2026 67.5 73.8975 67.5 72.5625C67.5 72.1149 67.3222 71.6857 67.0057 71.3693C66.6893 71.0528 66.2601 70.875 65.8125 70.875C65.3649 70.875 64.9357 71.0528 64.6193 71.3693C64.3028 71.6857 64.125 72.1149 64.125 72.5625C64.125 74.565 64.7188 76.5226 65.8314 78.1876C66.9439 79.8527 68.5252 81.1504 70.3753 81.9168C72.2254 82.6831 74.2612 82.8836 76.2253 82.493C78.1893 82.1023 79.9934 81.138 81.4095 79.722C82.8255 78.306 83.7898 76.5019 84.1804 74.5378C84.5711 72.5737 84.3706 70.5379 83.6043 68.6878C82.8379 66.8377 81.5402 65.2564 79.8751 64.1439C78.2101 63.0313 76.2525 62.4375 74.25 62.4375Z" fill="#6A7073"/>
<path d="M50.625 48.9375C52.4146 48.9395 54.1303 49.6513 55.3958 50.9167C56.6612 52.1822 57.373 53.8979 57.375 55.6875C57.375 56.135 57.5528 56.5643 57.8693 56.8807C58.1857 57.1972 58.615 57.375 59.0625 57.375C59.5101 57.375 59.9393 57.1972 60.2558 56.8807C60.5722 56.5643 60.75 56.135 60.75 55.6875C60.75 53.0022 59.6833 50.4268 57.7845 48.528C55.8857 46.6292 53.3103 45.5625 50.625 45.5625C47.9397 45.5625 45.3644 46.6292 43.4656 48.528C41.5667 50.4268 40.5 53.0022 40.5 55.6875V72.5625C40.4967 74.885 41.2908 77.1383 42.7495 78.9455C44.2082 80.7528 46.2432 82.0045 48.5141 82.4913C50.7851 82.9782 53.1543 82.6706 55.2257 81.6202C57.297 80.5697 58.945 78.84 59.894 76.7202C60.843 74.6004 61.0355 72.2191 60.4394 69.9743C59.8432 67.7296 58.4945 65.7576 56.6188 64.3881C54.7431 63.0185 52.454 62.3344 50.1344 62.4501C47.8147 62.5658 45.6051 63.4743 43.875 65.0238V55.6875C43.877 53.8979 44.5888 52.1822 45.8543 50.9167C47.1197 49.6513 48.8354 48.9395 50.625 48.9375ZM50.625 65.8125C51.96 65.8125 53.2651 66.2084 54.3751 66.9501C55.4851 67.6918 56.3503 68.746 56.8612 69.9794C57.3721 71.2128 57.5058 72.57 57.2453 73.8793C56.9849 75.1887 56.342 76.3915 55.398 77.3355C54.454 78.2795 53.2512 78.9223 51.9419 79.1828C50.6325 79.4432 49.2753 79.3096 48.0419 78.7987C46.8085 78.2878 45.7543 77.4226 45.0126 76.3126C44.2709 75.2026 43.875 73.8975 43.875 72.5625C43.877 70.7729 44.5888 69.0572 45.8543 67.7917C47.1197 66.5263 48.8354 65.8145 50.625 65.8125Z" fill="#6A7073"/>
</svg>
