<svg width="29" height="29" viewBox="0 0 29 29" fill="none" xmlns="http://www.w3.org/2000/svg">
<path d="M15.293 17.6572V21.3105C15.293 22.9919 11.8695 24.355 7.64648 24.355C3.42347 24.355 0 22.9919 0 21.3105V17.6572H15.293Z" fill="#FCD232"/>
<path d="M7.64453 24.355C11.8675 24.355 15.291 22.9919 15.291 21.3105V17.6572H7.64453V24.355Z" fill="#F7B90F"/>
<path d="M15.293 14.0049V17.6582C15.293 19.3396 11.8695 20.7026 7.64648 20.7026C3.42347 20.7026 0 19.3396 0 17.6582V14.0049H15.293Z" fill="#F7B90F"/>
<path d="M7.64453 20.7026C11.8675 20.7026 15.291 19.3396 15.291 17.6582V14.0049H7.64453V20.7026Z" fill="#F1A000"/>
<path d="M15.293 10.3506V14.0039C15.293 15.6853 11.8695 17.0483 7.64648 17.0483C3.42347 17.0483 0 15.6853 0 14.0039V10.3506H15.293Z" fill="#FCD232"/>
<path d="M7.64453 17.0483C11.8675 17.0483 15.291 15.6853 15.291 14.0039V10.3506H7.64453V17.0483Z" fill="#F7B90F"/>
<path d="M15.293 6.69824V10.3516C15.293 12.0329 11.8695 13.396 7.64648 13.396C3.42347 13.396 0 12.0329 0 10.3516V6.69824H15.293Z" fill="#F7B90F"/>
<path d="M7.64453 13.396C11.8675 13.396 15.291 12.0329 15.291 10.3516V6.69824H7.64453V13.396Z" fill="#F1A000"/>
<path d="M15.293 3.04395V6.69727C15.293 8.37864 11.8695 9.7417 7.64648 9.7417C3.42347 9.7417 0 8.37864 0 6.69727V3.04395H15.293Z" fill="#FCD232"/>
<path d="M7.64453 9.7417C11.8675 9.7417 15.291 8.37864 15.291 6.69727V3.04395H7.64453V9.7417Z" fill="#F7B90F"/>
<path d="M7.64648 6.08887C11.8695 6.08887 15.293 4.72583 15.293 3.04443C15.293 1.36304 11.8695 0 7.64648 0C3.42345 0 0 1.36304 0 3.04443C0 4.72583 3.42345 6.08887 7.64648 6.08887Z" fill="#FFEE78"/>
<path d="M15.291 3.04443C15.291 1.36306 11.8675 0 7.64453 0V6.08887C11.8675 6.08887 15.291 4.72581 15.291 3.04443Z" fill="#FCD232"/>
<path d="M20.7891 28.1504C24.8557 28.1504 28.1523 24.8537 28.1523 20.7871C28.1523 16.7205 24.8557 13.4238 20.7891 13.4238C16.7224 13.4238 13.4258 16.7205 13.4258 20.7871C13.4258 24.8537 16.7224 28.1504 20.7891 28.1504Z" fill="#FFEE78"/>
<path d="M28.1484 20.7871C28.1484 16.7205 24.8518 13.4238 20.7852 13.4238V28.1504C24.8518 28.1504 28.1484 24.8537 28.1484 20.7871Z" fill="#FCD232"/>
<path d="M20.7871 29C16.2585 29 12.5742 25.3157 12.5742 20.7871C12.5742 16.2585 16.2585 12.5742 20.7871 12.5742C25.3157 12.5742 29 16.2585 29 20.7871C29 25.3157 25.3157 29 20.7871 29ZM20.7871 14.2734C17.1955 14.2734 14.2734 17.1955 14.2734 20.7871C14.2734 24.3787 17.1955 27.3008 20.7871 27.3008C24.3787 27.3008 27.3008 24.3787 27.3008 20.7871C27.3008 17.1955 24.3787 14.2734 20.7871 14.2734Z" fill="#FCD232"/>
<path d="M27.2988 20.7871C27.2988 24.3787 24.3768 27.3008 20.7852 27.3008V29C25.3137 29 28.998 25.3157 28.998 20.7871C28.998 16.2585 25.3137 12.5742 20.7852 12.5742V14.2734C24.3768 14.2734 27.2988 17.1955 27.2988 20.7871Z" fill="#F7B90F"/>
<path d="M20.7871 19.9375C20.3186 19.9375 19.9375 19.5564 19.9375 19.0879C19.9375 18.6194 20.3186 18.2383 20.7871 18.2383C21.2556 18.2383 21.6367 18.6194 21.6367 19.0879C21.6367 19.5571 22.0171 19.9375 22.4863 19.9375C22.9555 19.9375 23.3359 19.5571 23.3359 19.0879C23.3359 17.9803 22.6256 17.0359 21.6367 16.6852V16.2559C21.6367 15.7866 21.2563 15.4062 20.7871 15.4062C20.3179 15.4062 19.9375 15.7866 19.9375 16.2559V16.6852C18.9486 17.0359 18.2383 17.9803 18.2383 19.0879C18.2383 20.4933 19.3817 21.6367 20.7871 21.6367C21.2556 21.6367 21.6367 22.0179 21.6367 22.4863C21.6367 22.9548 21.2556 23.3359 20.7871 23.3359C20.3186 23.3359 19.9375 22.9548 19.9375 22.4863C19.9375 22.0171 19.5571 21.6367 19.0879 21.6367C18.6187 21.6367 18.2383 22.0171 18.2383 22.4863C18.2383 23.5939 18.9486 24.5383 19.9375 24.889V25.3184C19.9375 25.7876 20.3179 26.168 20.7871 26.168C21.2563 26.168 21.6367 25.7876 21.6367 25.3184V24.889C22.6256 24.5383 23.3359 23.5939 23.3359 22.4863C23.3359 21.0809 22.1925 19.9375 20.7871 19.9375Z" fill="#FCD232"/>
<path d="M21.6348 19.0879C21.6348 19.5571 22.0152 19.9375 22.4844 19.9375C22.9536 19.9375 23.334 19.5571 23.334 19.0879C23.334 17.9803 22.6237 17.0359 21.6348 16.6852V16.2559C21.6348 15.7866 21.2544 15.4062 20.7852 15.4062V18.2383C21.2536 18.2383 21.6348 18.6194 21.6348 19.0879Z" fill="#F7B90F"/>
<path d="M21.6348 25.3184V24.889C22.6237 24.5383 23.334 23.5939 23.334 22.4863C23.334 21.0809 22.1906 19.9375 20.7852 19.9375V21.6367C21.2536 21.6367 21.6348 22.0179 21.6348 22.4863C21.6348 22.9548 21.2536 23.3359 20.7852 23.3359V26.168C21.2544 26.168 21.6348 25.7876 21.6348 25.3184Z" fill="#F7B90F"/>
</svg>
