<svg width="1374" height="127" viewBox="0 0 1374 127" fill="none" xmlns="http://www.w3.org/2000/svg">
<path d="M1374 77H0V127H1374V77Z" fill="url(#paint0_radial)"/>
<path style="mix-blend-mode:multiply" opacity="0.2" d="M1371.46 127L1374 98L0.0114287 101.896L0 127H1371.46Z" fill="url(#paint1_linear)"/>
<path style="mix-blend-mode:multiply" opacity="0.2" d="M0.00756367 77H389.687L412.984 98.2089H284.606V104.826L749.562 109.675L773 127H0L0.00756367 77Z" fill="url(#paint2_linear)"/>
<path style="mix-blend-mode:multiply" opacity="0.2" d="M684 84L689.583 92H826V84H684Z" fill="url(#paint3_linear)"/>
<path style="mix-blend-mode:multiply" opacity="0.5" d="M577 116L541.5 127H468.5L533.5 115L554.5 113.5L525.5 124.149H534.163L569 116H577Z" fill="url(#paint4_linear)"/>
<path style="mix-blend-mode:multiply" opacity="0.5" d="M739.5 107.5C739.5 107.5 763.518 127 765.5 127C767.482 127 809.045 127 811 127C812.955 127 744 107.5 744 107.5H739.5Z" fill="url(#paint5_linear)"/>
<path d="M879.769 56.4511L886.595 49.6911L883.311 48.6484L870.938 55.5425L879.769 56.4511Z" fill="url(#paint6_linear)"/>
<path d="M894.966 82.1265C894.854 84.7818 894.482 87.4197 893.853 90.002L875.527 89.9671L777.577 89.8163L751.422 90.002L732.029 90.1411C730.102 89.1464 728.536 87.5724 727.552 85.6408C726.331 83.3179 725.47 80.8227 725 78.2409C726.125 75.1093 743.001 64.7865 743.001 64.7865C749.278 61.9892 755.821 59.8313 762.53 58.3456C762.53 58.3456 783.804 51.7833 798.141 48.9544C813.066 45.4576 828.549 45.0603 843.633 47.787L867.404 52.7189C867.404 52.7189 884.365 59.6599 891.881 63.7427C894.259 66.8047 895.349 74.7961 894.966 82.1265Z" fill="url(#paint7_linear)"/>
<path d="M844.311 58.4298C820.961 67.7218 808.499 67.5716 793.295 65.2457C786.174 64.1461 773.426 60.8943 773.426 60.8943C785.85 50.9359 813.695 45.0253 832.505 49.0666C836.664 51.1271 840.832 52.7187 844.311 58.4298Z" fill="#290928"/>
<g style="mix-blend-mode:soft-light" opacity="0.5">
<path d="M839.883 59.375C839.883 59.375 820.837 66.9531 810.385 66.9531C804.655 66.7707 798.943 66.2001 793.29 65.2452L792.648 64.4008C792.648 64.4008 812.316 52.8622 833.122 53.6737L839.883 59.375Z" fill="white"/>
</g>
<path d="M891.893 63.7413C891.893 63.7413 881.207 58.2828 865.063 60.0282C848.919 61.7736 830.818 67.2276 813.907 69.191C796.996 71.1545 770.929 64.09 756.965 64.4375C743 64.785 726.809 76.0861 726.809 76.0861C726.809 76.0861 739.037 61.5187 762.535 58.3463C762.535 58.3463 797.439 67.4189 813.907 65.4689C830.375 63.5189 854.825 52.7197 869.761 52.7197C874.058 52.6843 878.301 53.6642 882.147 55.5794C885.993 57.4947 889.332 60.2912 891.893 63.7413Z" fill="url(#paint8_linear)"/>
<path d="M736.359 70.5365C736.359 70.5365 748.779 66.9541 752.21 60.8945C752.21 60.8945 739.998 63.6271 736.359 70.5365Z" fill="white"/>
<path d="M780.075 81.3455C780.08 84.3523 779.214 87.2963 777.581 89.8211L751.428 90.0044C750.074 87.973 749.215 85.6529 748.92 83.23C748.624 80.8071 748.9 78.3486 749.725 76.0513C750.55 73.7541 751.901 71.6819 753.671 70.0008C755.441 68.3196 757.579 67.0761 759.916 66.3699C762.252 65.6637 764.722 65.5143 767.126 65.9338C769.531 66.3532 771.804 67.3298 773.763 68.7854C775.723 70.241 777.314 72.1352 778.41 74.3162C779.506 76.4973 780.076 78.9046 780.075 81.3455Z" fill="#A22245"/>
<path d="M778.835 81.346C778.832 84.9563 777.472 88.4337 775.024 91.0875C772.577 93.7413 769.22 95.3775 765.622 95.6711C762.024 95.9647 758.447 94.8943 755.601 92.6725C752.756 90.4506 750.85 87.2398 750.262 83.6776C749.674 80.1155 750.448 76.4626 752.429 73.4443C754.409 70.4259 757.453 68.263 760.955 67.385C764.457 66.507 768.16 66.978 771.331 68.7047C774.501 70.4314 776.907 73.2873 778.069 76.7054C778.577 78.1999 778.835 79.7676 778.835 81.346Z" fill="#290928"/>
<path d="M776.16 81.3464C776.161 83.6644 775.474 85.9306 774.186 87.8582C772.899 89.7858 771.069 91.2883 768.927 92.1756C766.786 93.063 764.429 93.2953 762.156 92.8433C759.882 92.3912 757.794 91.275 756.155 89.6359C754.516 87.9968 753.4 85.9085 752.948 83.635C752.496 81.3615 752.728 79.005 753.615 76.8636C754.503 74.7221 756.005 72.892 757.933 71.6046C759.86 70.3172 762.127 69.6304 764.445 69.631C765.985 69.6226 767.513 69.9199 768.938 70.5056C770.363 71.0914 771.658 71.954 772.747 73.0436C773.837 74.1332 774.7 75.428 775.285 76.8532C775.871 78.2784 776.168 79.8056 776.16 81.3464Z" fill="#845A77"/>
<path d="M776.16 81.3462C776.166 84.3231 775.032 87.1896 772.992 89.3572L771.709 88.9448H755.524C754.3 87.5082 753.441 85.7972 753.021 83.9575C752.601 82.1177 752.631 80.2036 753.109 78.3781C753.587 76.5525 754.499 74.8695 755.768 73.4722C757.036 72.0749 758.624 71.0046 760.395 70.3525C762.165 69.7005 764.068 69.4858 765.939 69.7268C767.811 69.9678 769.597 70.6574 771.145 71.7368C772.693 72.8163 773.957 74.2537 774.83 75.9268C775.703 77.5998 776.159 79.459 776.16 81.3462Z" fill="#472758"/>
<path d="M764.44 91.8641C770.247 91.8641 774.954 87.1568 774.954 81.35C774.954 75.5432 770.247 70.8359 764.44 70.8359C758.633 70.8359 753.926 75.5432 753.926 81.35C753.926 87.1568 758.633 91.8641 764.44 91.8641Z" fill="#472758"/>
<path d="M764.439 86.409C767.233 86.409 769.499 84.1436 769.499 81.349C769.499 78.5545 767.233 76.2891 764.439 76.2891C761.644 76.2891 759.379 78.5545 759.379 81.349C759.379 84.1436 761.644 86.409 764.439 86.409Z" fill="#290928"/>
<path d="M764.445 85.5898C766.788 85.5898 768.687 83.691 768.687 81.3486C768.687 79.0063 766.788 77.1074 764.445 77.1074C762.102 77.1074 760.203 79.0063 760.203 81.3486C760.203 83.691 762.102 85.5898 764.445 85.5898Z" fill="#472758"/>
<path d="M763.9 80.4977C764.657 79.669 764.779 78.5485 764.173 77.9949C763.567 77.4413 762.462 77.6642 761.706 78.4928C760.949 79.3214 760.827 80.442 761.433 80.9956C762.039 81.5492 763.144 81.3263 763.9 80.4977Z" fill="#845A77"/>
<path d="M767.087 84.295C767.469 83.8763 767.531 83.3101 767.225 83.0303C766.918 82.7506 766.36 82.8632 765.978 83.2819C765.595 83.7006 765.533 84.2668 765.84 84.5466C766.146 84.8263 766.704 84.7137 767.087 84.295Z" fill="#845A77"/>
<g style="mix-blend-mode:multiply" opacity="0.29">
<path d="M778.069 76.705H775.203L768.9 78.9564L768.252 79.4932H760.627L760.202 79.0088L753.513 76.705H750.816C751.786 73.8607 753.621 71.3911 756.065 69.6423C758.508 67.8935 761.438 66.9531 764.443 66.9531C767.448 66.9531 770.377 67.8935 772.821 69.6423C775.265 71.3911 777.1 73.8607 778.069 76.705H778.069Z" fill="#290928"/>
</g>
<path d="M877.977 81.3455C877.982 84.3523 877.116 87.2963 875.483 89.8211L849.33 90.0044C847.977 87.973 847.118 85.6529 846.822 83.23C846.526 80.8071 846.802 78.3486 847.627 76.0513C848.452 73.7541 849.804 71.6819 851.573 70.0008C853.343 68.3196 855.482 67.0761 857.818 66.3699C860.155 65.6637 862.624 65.5143 865.029 65.9338C867.433 66.3532 869.706 67.3298 871.666 68.7854C873.625 70.241 875.217 72.1352 876.312 74.3162C877.408 76.4973 877.978 78.9046 877.977 81.3455Z" fill="#A22245"/>
<path d="M876.737 81.346C876.734 84.9563 875.374 88.4337 872.927 91.0875C870.479 93.7413 867.123 95.3775 863.525 95.6711C859.926 95.9647 856.349 94.8943 853.504 92.6725C850.658 90.4506 848.752 87.2398 848.165 83.6776C847.577 80.1155 848.35 76.4626 850.331 73.4443C852.312 70.4259 855.355 68.263 858.857 67.385C862.359 66.507 866.063 66.978 869.233 68.7047C872.404 70.4314 874.809 73.2873 875.971 76.7054C876.479 78.1999 876.738 79.7676 876.737 81.346Z" fill="#290928"/>
<path d="M874.058 81.3464C874.059 83.6644 873.372 85.9306 872.085 87.8582C870.797 89.7858 868.967 91.2883 866.826 92.1756C864.684 93.063 862.328 93.2953 860.054 92.8433C857.781 92.3912 855.692 91.275 854.053 89.6359C852.414 87.9968 851.298 85.9085 850.846 83.635C850.394 81.3615 850.626 79.005 851.514 76.8636C852.401 74.7221 853.904 72.892 855.831 71.6046C857.759 70.3172 860.025 69.6304 862.343 69.631C863.884 69.6226 865.411 69.9199 866.836 70.5056C868.261 71.0914 869.556 71.954 870.646 73.0436C871.735 74.1332 872.598 75.428 873.184 76.8532C873.77 78.2784 874.067 79.8056 874.058 81.3464Z" fill="#845A77"/>
<path d="M874.058 81.3462C874.064 84.3231 872.931 87.1896 870.89 89.3572L869.608 88.9448H853.422C852.198 87.5082 851.34 85.7972 850.919 83.9575C850.499 82.1177 850.529 80.2036 851.008 78.3781C851.486 76.5525 852.398 74.8695 853.666 73.4722C854.935 72.0749 856.522 71.0046 858.293 70.3525C860.064 69.7005 861.966 69.4858 863.838 69.7268C865.71 69.9678 867.495 70.6574 869.043 71.7368C870.591 72.8163 871.856 74.2537 872.729 75.9268C873.602 77.5998 874.058 79.459 874.058 81.3462Z" fill="#472758"/>
<path d="M862.346 91.8641C868.153 91.8641 872.86 87.1568 872.86 81.35C872.86 75.5432 868.153 70.8359 862.346 70.8359C856.539 70.8359 851.832 75.5432 851.832 81.35C851.832 87.1568 856.539 91.8641 862.346 91.8641Z" fill="#472758"/>
<path d="M862.345 86.409C865.14 86.409 867.405 84.1436 867.405 81.349C867.405 78.5545 865.14 76.2891 862.345 76.2891C859.551 76.2891 857.285 78.5545 857.285 81.349C857.285 84.1436 859.551 86.409 862.345 86.409Z" fill="#290928"/>
<path d="M862.343 85.5898C864.686 85.5898 866.585 83.691 866.585 81.3486C866.585 79.0063 864.686 77.1074 862.343 77.1074C860.001 77.1074 858.102 79.0063 858.102 81.3486C858.102 83.691 860.001 85.5898 862.343 85.5898Z" fill="#472758"/>
<path d="M861.807 80.4977C862.563 79.669 862.685 78.5485 862.079 77.9949C861.473 77.4412 860.369 77.6642 859.612 78.4928C858.855 79.3214 858.733 80.442 859.34 80.9956C859.946 81.5492 861.05 81.3263 861.807 80.4977Z" fill="#845A77"/>
<path d="M864.985 84.295C865.368 83.8763 865.429 83.3101 865.123 83.0303C864.817 82.7506 864.258 82.8632 863.876 83.2819C863.494 83.7006 863.432 84.2668 863.738 84.5466C864.045 84.8263 864.603 84.7137 864.985 84.295Z" fill="#845A77"/>
<g style="mix-blend-mode:multiply" opacity="0.29">
<path d="M875.976 76.705H873.109L866.806 78.9564L866.158 79.4932H858.533L858.108 79.0088L851.419 76.705H848.723C849.692 73.8607 851.527 71.3911 853.971 69.6423C856.415 67.8935 859.344 66.9531 862.349 66.9531C865.354 66.9531 868.284 67.8935 870.727 69.6423C873.171 71.3911 875.006 73.8607 875.976 76.705Z" fill="#290928"/>
</g>
<path d="M821.312 64.1625C821.312 64.1625 825.189 66.7091 825.842 67.3628C827.042 68.5626 822.761 89.8928 822.761 89.8928H823.713C823.713 89.8928 826.793 69.3712 826.291 67.2625L821.689 64.082L821.312 64.1625Z" fill="#A22245"/>
<path d="M824.299 67.6289C824.299 67.6289 823.861 68.9182 823.514 69.6382C823.445 69.7961 823.355 69.9436 823.246 70.0766C822.919 70.4105 816.459 71.4969 815.189 70.8359C814.326 70.3732 813.487 69.8664 812.676 69.3175C814.332 68.3227 824.299 67.6289 824.299 67.6289Z" fill="#A22245"/>
<g style="mix-blend-mode:multiply" opacity="0.29">
<path d="M824.299 67.6289C824.299 67.6289 823.861 68.9182 823.514 69.6382C823.319 69.5071 823.105 69.4056 822.879 69.337C820.749 69.1499 818.602 69.249 816.498 69.6316C816.199 69.7128 815.924 69.8646 815.697 70.0742C815.469 70.2838 815.295 70.545 815.189 70.8359C814.326 70.3732 813.487 69.8664 812.676 69.3175C814.332 68.3227 824.299 67.6289 824.299 67.6289Z" fill="#290928"/>
</g>
<path d="M798.759 68.99C798.826 68.4764 796.922 67.8017 794.505 67.4829C792.088 67.1642 790.073 67.3222 790.006 67.8357C789.938 68.3493 791.842 69.024 794.259 69.3427C796.676 69.6614 798.691 69.5035 798.759 68.99Z" fill="white"/>
<path d="M805.939 69.9091C806.514 69.9091 806.98 69.7291 806.98 69.5072C806.98 69.2853 806.514 69.1055 805.939 69.1055C805.364 69.1055 804.898 69.2853 804.898 69.5072C804.898 69.7291 805.364 69.9091 805.939 69.9091Z" fill="white"/>
<path d="M848.834 63.1996C849.386 63.0382 849.782 62.7347 849.72 62.5218C849.657 62.3089 849.16 62.2671 848.608 62.4285C848.057 62.5899 847.66 62.8933 847.722 63.1063C847.785 63.3192 848.282 63.361 848.834 63.1996Z" fill="white"/>
<path d="M779.41 54.0704C780.053 53.8094 780.502 53.4194 780.413 53.1993C780.324 52.9793 779.73 53.0125 779.087 53.2735C778.443 53.5345 777.994 53.9245 778.084 54.1446C778.173 54.3646 778.767 54.3314 779.41 54.0704Z" fill="white"/>
<path d="M751.417 90.0018L732.024 90.1409C730.097 89.1462 728.532 87.5722 727.547 85.6406C727.547 85.6406 736.956 88.1921 750.733 85.7567L751.417 90.0018Z" fill="#A22245"/>
<path d="M894.966 82.1268C894.854 84.7821 894.481 87.42 893.853 90.0022L875.527 89.9674L875.48 89.8166L877.974 81.3496C883.407 83.4293 889.366 83.7019 894.966 82.1268Z" fill="#A22245"/>
<path d="M824.305 47.9492C824.305 47.9492 833.931 48.7316 837.014 49.2933C841.059 50.0301 851.831 55.7126 851.831 55.7126L843.979 57.9023C843.979 57.9023 836.724 51.5407 835.056 50.7433C833.389 49.9459 824.305 47.9492 824.305 47.9492Z" fill="#A22245"/>
<path d="M893.99 48.8765L890.462 50.8442L876.978 49.8604L875.48 48.711C875.48 48.711 889.278 44.164 893.99 48.8765Z" fill="url(#paint9_linear)"/>
<path d="M725 78.2416C725 78.2416 729.755 77.6399 731.61 79.4947C733.465 81.35 734.509 89.8928 734.509 89.8928L732.029 90.1406C732.029 90.1406 727.089 89.1366 725 78.2416Z" fill="#A22245"/>
<path d="M847.953 79.4941C847.953 79.4941 838.462 84.4337 832.373 85.6756C826.284 86.9176 779.229 86.4088 779.229 86.4088L778.07 87.891L847.555 86.4088L847.953 79.4941Z" fill="#A22245"/>
<path d="M725.525 63.8496C725.525 63.8496 725.124 66.0928 725.013 67.5752C724.95 68.4735 725.117 69.3731 725.5 70.1883C725.675 70.5659 725.879 70.9289 726.112 71.274C726.468 71.5479 726.902 71.7017 727.35 71.713C727.787 71.7456 727.263 69.1644 727.303 68.6358C727.545 67.6698 727.848 66.7199 728.208 65.7915C728.332 65.3195 728.369 64.8288 728.316 64.3436L725.525 63.8496Z" fill="#C25B71"/>
<path d="M750.562 61.7687C750.562 61.7687 749.993 65.1279 749.06 66.0612C749.06 66.0612 746.675 80.0618 746.675 82.7581C746.675 85.4544 744.324 105.366 744.324 105.366L740.314 106.127L739.208 86.4224L736.727 60.0255L745.069 58.2129L750.562 61.7687Z" fill="#1C001A"/>
<path d="M752.123 34.5859C752.123 34.5859 755.954 46.4148 754.917 51.9529C754.917 51.9529 752.299 57.3036 749.099 58.382C745.898 59.4603 745.457 54.0199 745.457 54.0199L747.356 42.7227L752.123 34.5859Z" fill="#1C001A"/>
<path d="M745.404 31.1495C745.404 31.1495 745.357 31.4066 744.667 31.3599C743.978 31.313 739.335 31.7341 738.926 31.2546C738.833 31.1378 738.657 30.9039 738.447 30.5998L738.435 30.5881C737.73 29.6361 737.156 28.594 736.728 27.4896C736.763 26.9985 736.658 26.2502 736.822 24.1689C736.891 23.1297 736.903 22.0874 736.857 21.0469C736.858 20.9766 736.854 20.9063 736.845 20.8366C736.833 20.439 736.822 20.1115 736.81 19.9011C736.798 19.714 736.786 19.6088 736.786 19.6088C737.465 18.6149 743.884 22.3214 743.884 22.3214C744.469 23.9448 744.915 25.6151 745.217 27.3142C745.205 27.513 745.205 27.817 745.217 28.1677C745.252 29.3838 745.404 31.1495 745.404 31.1495Z" fill="#C25B71"/>
<path d="M747.717 22.5783C747.201 24.5489 746.381 26.4267 745.285 28.144C745.262 28.1558 745.238 28.1558 745.215 28.1674C744.859 28.3365 744.47 28.4212 744.077 28.4152C743.683 28.4091 743.296 28.3123 742.946 28.1323C742.946 28.1323 742.408 27.536 741.847 26.8812C741.286 26.2382 740.655 25.9107 739.17 24.1919C738.162 22.8946 737.39 21.4302 736.89 19.8657L736.808 19.9007L736.059 20.1813C735.856 19.5717 735.777 18.9274 735.827 18.2867C735.877 17.646 736.056 17.0219 736.352 16.4514C740.468 13.5515 746.466 15.8316 746.957 16.1941C746.963 16.2008 746.971 16.2049 746.98 16.2058C747.872 18.2047 748.129 20.4288 747.717 22.5783Z" fill="#240924"/>
<path d="M751.04 45.3565C750.579 48.2303 749.049 53.4182 749.012 53.9407C748.974 54.4508 750.803 62.0398 750.803 62.0398C749.585 62.6324 748.238 62.9145 746.884 62.8609L745.901 59.4521L745.105 63.1719C741.875 62.9923 738.792 61.765 736.322 59.676C736.322 59.676 738.288 53.2689 738.375 51.9626C738.462 50.8678 737.155 48.081 736.086 44.8962C735.849 44.2492 735.638 43.5774 735.451 42.9056C734.668 39.8647 734.053 36.783 733.61 33.6745C733.56 33.3759 733.535 33.1893 733.535 33.1893C735.114 32.572 736.633 31.8141 738.076 30.925L738.151 30.8504C738.437 30.6015 738.698 30.3403 738.947 30.0915C739.322 29.7011 739.675 29.2899 740.004 28.8598C740.004 28.8598 743.612 27.9268 745.541 29.2828C745.541 29.2828 745.74 29.5192 746.063 29.88C746.275 30.1163 746.523 30.4025 746.797 30.7135C748.495 32.1066 750.273 33.3986 752.122 34.5826C752.122 34.5826 751.5 42.4826 751.04 45.3565Z" fill="#240924"/>
<path d="M736.506 42.678C736.366 43.403 736.226 44.1514 736.085 44.8996C735.442 48.5139 734.527 52.0747 733.349 55.5518C732.461 57.9369 731.385 60.1469 730.449 62.2749C729.654 64.0522 729.07 65.2448 729.07 65.2448C727.693 65.0832 726.389 64.5406 725.305 63.6782C725.305 63.6782 725.41 63.2455 725.562 62.5556C725.574 62.5439 725.574 62.5322 725.574 62.5089C725.948 60.942 726.626 58.0889 727.164 55.9843C727.947 52.9209 729.725 49.0623 730.321 45.7181C730.917 42.3624 731.607 34.3178 731.876 34.084C732.409 33.7502 732.963 33.4533 733.536 33.1953C733.731 33.2055 733.924 33.2409 734.109 33.3006C737.792 34.3529 736.506 42.678 736.506 42.678Z" fill="#2B092F"/>
<path d="M749.19 98.172C747.779 98.2899 746.388 98.5845 745.051 99.049C743.589 99.6686 742.221 102.007 741.999 102.37C741.993 102.385 741.989 102.4 741.987 102.416C741.649 100.316 741.124 98.2501 740.42 96.2427C739.555 94.2082 736.234 84.2577 735.767 79.8378C735.654 75.2123 735.837 70.5842 736.316 65.9821V65.9469C736.574 62.8719 736.807 60.5566 736.807 60.5566L737.357 61.948L739.555 64.5789C741.019 65.079 742.378 65.8439 743.566 66.8356C743.566 66.8356 741.905 81.1709 741.905 81.7672C741.905 82.3635 742.899 83.3106 742.899 83.6965C742.85 84.2187 742.772 84.7379 742.665 85.2516C742.665 85.2516 743.32 87.3562 744.15 89.2271C744.98 91.0861 747.6 93.4364 748.091 94.5123C748.532 95.7083 748.9 96.9305 749.19 98.172Z" fill="#240924"/>
<path d="M749.2 98.9729C749.208 99.761 749.108 100.546 748.901 101.307C748.664 101.872 748.305 102.379 747.85 102.789H747.297C746.366 104.252 745.35 105.659 744.255 107.004C743.647 107.623 741.158 107.723 739.764 107.734C739.2 107.734 738.813 107.723 738.813 107.723C738.806 107.308 738.93 106.902 739.167 106.561C739.51 106.219 741.578 103.066 742.519 101.562C743.059 100.424 743.929 99.4757 745.017 98.8403C746.104 98.2049 747.357 97.912 748.614 97.9996L749.2 98.9729Z" fill="#1C001A"/>
<path d="M749.198 98.9727C749.206 99.7607 749.105 100.546 748.899 101.307C748.662 101.872 748.303 102.378 747.848 102.789H747.295C746.363 104.252 745.347 105.659 744.253 107.004C743.645 107.623 741.156 107.723 739.762 107.734L739.695 107.723C740.532 107.68 741.328 107.352 741.952 106.794C742.848 105.898 744.065 103.243 745.359 101.218C745.808 100.598 746.381 100.077 747.042 99.6908C747.702 99.3041 748.437 99.0595 749.198 98.9727Z" fill="#15000B"/>
<path d="M746.957 16.1941C744.858 15.4374 742.61 15.1929 740.397 15.4809C736.586 15.937 736.059 20.1813 736.059 20.1813C735.856 19.5717 735.777 18.9274 735.827 18.2867C735.877 17.646 736.056 17.0219 736.352 16.4514C740.468 13.5515 746.466 15.8316 746.957 16.1941Z" fill="#FF9046"/>
<path d="M738.95 30.097L738.447 30.5997L738.435 30.5881C737.73 29.6361 737.156 28.5939 736.728 27.4895C736.763 26.9985 736.658 26.2502 736.822 24.1688C736.891 23.1296 736.903 22.0874 736.857 21.0469C736.939 21.9238 737.254 25.3264 737.465 26.7763C737.716 27.9769 738.222 29.1095 738.95 30.097Z" fill="#FF9046"/>
<path d="M738.074 30.9277C736.899 31.9416 735.558 32.7447 734.11 33.3013L733.607 33.6754L732.824 34.2601C732.824 34.2601 731.096 42.7843 730.523 46.3388C729.962 49.8817 728.499 52.4323 727.476 55.6844C726.952 57.3505 725.866 61.5859 725.574 62.5096C725.948 60.9428 726.626 58.0897 727.164 55.9851C727.948 52.9216 729.725 49.0631 730.321 45.7189C730.918 42.3632 731.608 34.3186 731.876 34.0847C732.409 33.751 732.964 33.4541 733.537 33.1961C735.113 32.5757 736.631 31.8166 738.074 30.9277Z" fill="#FF9046"/>
<path d="M736.734 46.7168C737.555 48.4386 738.233 50.2253 738.76 52.0588C738.076 54.6385 737.261 57.182 736.32 59.6797C736.32 59.6797 738.377 52.4791 738.231 51.4192C737.821 49.8246 737.321 48.2546 736.734 46.7168Z" fill="#FF9046"/>
<path d="M741.999 102.37C741.993 102.385 741.989 102.401 741.987 102.417C741.649 100.316 741.124 98.2504 740.42 96.243C739.555 94.2085 736.234 84.258 735.767 79.8381C735.654 75.2126 735.837 70.5845 736.316 65.9824C736.305 66.7307 735.809 78.1668 736.217 80.5398C737.178 86.1375 741.114 96.3754 741.6 98.708C741.84 99.9146 741.974 101.14 741.999 102.37Z" fill="#FF9046"/>
<path d="M746.049 50.458C745.763 52.3615 745.9 59.4531 745.9 59.4531C745.9 59.4531 745.601 54.8498 745.639 52.5606C745.688 50.2714 746.733 43.0305 746.049 37.9793C745.756 35.2232 744.946 32.5472 743.66 30.0915C742.102 29.799 740.503 29.799 738.945 30.0915C739.321 29.7012 739.674 29.29 740.003 28.8599C740.003 28.8599 743.611 27.9267 745.539 29.2829C745.539 29.2829 745.738 29.5192 746.062 29.88H744.631C744.631 29.88 746.845 35.2547 746.845 37.8301C746.845 40.393 746.348 48.5545 746.049 50.458Z" fill="#1C001A"/>
<path d="M937.521 89.7669C937.402 92.5714 937.009 95.3576 936.345 98.085L916.989 98.0483L813.532 97.889L785.907 98.085L765.424 98.232C763.389 97.1815 761.735 95.519 760.695 93.4788C759.405 91.0253 758.497 88.3898 758 85.6629C759.188 82.3552 777.013 71.4522 777.013 71.4522C777.013 71.4522 799.542 69.3696 811.498 67.8382C811.498 67.8382 825.317 59.6426 835.252 54.7301C835.252 54.7301 864.372 48.6783 896.126 54.5953L910.9 60.4389C910.9 60.4389 926.324 66.0374 934.262 70.3496C936.773 73.5838 937.925 82.0245 937.521 89.7669Z" fill="url(#paint10_linear)"/>
<path d="M879.341 65.7375C879.341 65.7375 859.225 73.7425 848.185 73.7425C842.132 73.5499 836.1 72.9471 830.128 71.9384C822.607 70.7769 816.289 69.4911 816.289 69.4911C816.289 69.4911 822.801 62.5921 835.679 55.9835C835.679 55.9835 854.78 51.2482 871.543 54.8498L872.2 55.7692L879.341 65.7375Z" fill="#290928"/>
<g style="mix-blend-mode:soft-light" opacity="0.5">
<path d="M879.347 65.7375C879.347 65.7375 859.231 73.7426 848.191 73.7426C842.138 73.5499 836.106 72.9472 830.135 71.9384L829.457 71.0466C829.457 71.0466 850.23 54.9121 872.206 55.7693L879.347 65.7375Z" fill="white"/>
</g>
<path d="M934.27 70.3472C934.27 70.3472 922.984 64.582 905.932 66.4253C888.881 68.2687 869.762 74.0294 851.9 76.1033C834.039 78.1772 806.507 70.7155 791.757 71.0825C777.008 71.4495 759.906 83.3859 759.906 83.3859C759.906 83.3859 772.822 67.9996 797.641 64.649C797.641 64.649 834.507 74.2316 851.9 72.1719C869.294 70.1122 895.119 58.7061 910.895 58.7061C915.432 58.6687 919.915 59.7036 923.977 61.7266C928.039 63.7495 931.566 66.7032 934.27 70.3472Z" fill="url(#paint11_linear)"/>
<path d="M769.996 77.5259C769.996 77.5259 783.114 73.742 786.738 67.3418C786.738 67.3418 773.839 70.2281 769.996 77.5259Z" fill="white"/>
<path d="M816.172 88.9438C816.178 92.1196 815.263 95.2291 813.539 97.8959L785.915 98.0895C784.486 95.9439 783.578 93.4934 783.266 90.9342C782.954 88.3751 783.245 85.7784 784.116 83.352C784.988 80.9256 786.415 78.7369 788.284 76.9613C790.154 75.1856 792.413 73.8722 794.88 73.1263C797.348 72.3803 799.956 72.2225 802.496 72.6656C805.036 73.1086 807.437 74.1401 809.506 75.6776C811.576 77.215 813.257 79.2157 814.414 81.5193C815.572 83.823 816.174 86.3656 816.172 88.9438Z" fill="#775EE7"/>
<path d="M814.866 88.9423C814.863 92.7555 813.427 96.4284 810.841 99.2314C808.256 102.034 804.711 103.763 800.911 104.073C797.11 104.383 793.332 103.252 790.326 100.906C787.321 98.5587 785.308 95.1674 784.687 91.405C784.066 87.6426 784.883 83.7843 786.975 80.5963C789.067 77.4083 792.282 75.1238 795.981 74.1964C799.679 73.269 803.591 73.7666 806.94 75.5903C810.289 77.4141 812.829 80.4306 814.057 84.0408C814.594 85.6192 814.867 87.2751 814.866 88.9423Z" fill="#290928"/>
<path d="M812.04 88.9425C812.041 91.3909 811.315 93.7844 809.955 95.8204C808.596 97.8563 806.663 99.4433 804.401 100.381C802.139 101.318 799.65 101.563 797.249 101.086C794.847 100.608 792.642 99.4294 790.91 97.6981C789.179 95.9669 788 93.7611 787.523 91.3598C787.045 88.9585 787.291 86.4696 788.228 84.2078C789.165 81.9459 790.752 80.0129 792.788 78.6531C794.824 77.2933 797.218 76.5679 799.666 76.5685C801.293 76.5596 802.907 76.8737 804.412 77.4924C805.917 78.111 807.285 79.0222 808.436 80.173C809.586 81.3238 810.498 82.6914 811.116 84.1967C811.735 85.702 812.049 87.3151 812.04 88.9425Z" fill="#845A77"/>
<path d="M812.036 88.9424C812.042 92.0866 810.845 95.1142 808.69 97.4036L807.335 96.9681H790.239C788.947 95.4507 788.04 93.6435 787.596 91.7003C787.152 89.7571 787.184 87.7355 787.689 85.8073C788.194 83.8791 789.158 82.1014 790.498 80.6256C791.837 79.1497 793.514 78.0194 795.384 77.3306C797.255 76.6419 799.264 76.4151 801.241 76.6697C803.218 76.9243 805.104 77.6526 806.739 78.7927C808.374 79.9329 809.709 81.4511 810.632 83.2182C811.554 84.9853 812.035 86.9491 812.036 88.9424Z" fill="#472758"/>
<path d="M799.66 100.05C805.793 100.05 810.765 95.0781 810.765 88.9449C810.765 82.8118 805.793 77.8398 799.66 77.8398C793.527 77.8398 788.555 82.8118 788.555 88.9449C788.555 95.0781 793.527 100.05 799.66 100.05Z" fill="#472758"/>
<path d="M799.661 94.2891C802.612 94.2891 805.005 91.8966 805.005 88.9453C805.005 85.994 802.612 83.6016 799.661 83.6016C796.709 83.6016 794.316 85.994 794.316 88.9453C794.316 91.8966 796.709 94.2891 799.661 94.2891Z" fill="#290928"/>
<path d="M799.656 93.4255C802.131 93.4255 804.136 91.4196 804.136 88.9452C804.136 86.4708 802.131 84.4648 799.656 84.4648C797.182 84.4648 795.176 86.4708 795.176 88.9452C795.176 91.4196 797.182 93.4255 799.656 93.4255Z" fill="#472758"/>
<path d="M799.09 88.0442C799.889 87.1693 800.018 85.9861 799.378 85.4015C798.738 84.817 797.571 85.0524 796.772 85.9274C795.972 86.8024 795.843 87.9856 796.483 88.5701C797.124 89.1547 798.291 88.9192 799.09 88.0442Z" fill="#845A77"/>
<path d="M802.45 92.0563C802.854 91.614 802.919 91.0159 802.595 90.7204C802.272 90.4249 801.682 90.5439 801.278 90.9862C800.874 91.4285 800.809 92.0266 801.133 92.3221C801.456 92.6176 802.046 92.4986 802.45 92.0563Z" fill="#845A77"/>
<g style="mix-blend-mode:multiply" opacity="0.29">
<path d="M814.054 84.0404H811.027L804.37 86.4185L803.685 86.9854H795.632L795.182 86.4738L788.118 84.0404H785.27C786.293 81.0362 788.232 78.4277 790.813 76.5806C793.394 74.7334 796.488 73.7402 799.662 73.7402C802.836 73.7402 805.93 74.7334 808.511 76.5806C811.092 78.4277 813.031 81.0362 814.055 84.0404H814.054Z" fill="#290928"/>
</g>
<path d="M919.575 88.9438C919.58 92.1196 918.666 95.2291 916.941 97.8959L889.317 98.0895C887.888 95.9439 886.981 93.4934 886.668 90.9342C886.356 88.3751 886.647 85.7784 887.519 83.352C888.39 80.9256 889.818 78.7369 891.687 76.9613C893.556 75.1856 895.815 73.8722 898.283 73.1263C900.751 72.3803 903.359 72.2225 905.899 72.6656C908.438 73.1086 910.839 74.1401 912.909 75.6776C914.978 77.215 916.659 79.2157 917.817 81.5193C918.974 83.823 919.576 86.3656 919.575 88.9438Z" fill="#775EE7"/>
<path d="M918.264 88.9422C918.262 92.7555 916.825 96.4283 914.24 99.2313C911.655 102.034 908.11 103.763 904.309 104.073C900.509 104.383 896.731 103.252 893.725 100.906C890.719 98.5588 888.706 95.1675 888.086 91.4051C887.465 87.6427 888.282 83.7843 890.374 80.5963C892.466 77.4083 895.681 75.1238 899.379 74.1964C903.078 73.269 906.99 73.7666 910.339 75.5903C913.688 77.414 916.228 80.4305 917.456 84.0408C917.992 85.6192 918.265 87.2751 918.264 88.9422Z" fill="#290928"/>
<path d="M915.442 88.9425C915.443 91.3909 914.718 93.7844 913.358 95.8204C911.998 97.8564 910.065 99.4433 907.803 100.381C905.541 101.318 903.052 101.563 900.651 101.086C898.25 100.608 896.044 99.4293 894.313 97.6981C892.582 95.9669 891.403 93.7611 890.925 91.3598C890.448 88.9585 890.693 86.4695 891.63 84.2077C892.568 81.9459 894.155 80.0128 896.191 78.653C898.227 77.2933 900.62 76.5678 903.068 76.5685C904.696 76.5597 906.309 76.8736 907.814 77.4923C909.32 78.1111 910.687 79.0222 911.838 80.173C912.989 81.3238 913.9 82.6914 914.519 84.1967C915.137 85.702 915.451 87.3151 915.442 88.9425Z" fill="#845A77"/>
<path d="M915.442 88.9423C915.448 92.0866 914.251 95.1141 912.096 97.4036L910.741 96.9681H893.646C892.353 95.4507 891.446 93.6435 891.002 91.7003C890.558 89.7571 890.59 87.7355 891.095 85.8073C891.601 83.8791 892.564 82.1014 893.904 80.6256C895.244 79.1497 896.92 78.0194 898.791 77.3306C900.661 76.6419 902.67 76.4151 904.647 76.6697C906.624 76.9243 908.51 77.6526 910.145 78.7927C911.78 79.9329 913.116 81.4511 914.038 83.2182C914.96 84.9853 915.442 86.949 915.442 88.9423Z" fill="#472758"/>
<path d="M903.062 100.05C909.195 100.05 914.167 95.0781 914.167 88.9449C914.167 82.8118 909.195 77.8398 903.062 77.8398C896.929 77.8398 891.957 82.8118 891.957 88.9449C891.957 95.0781 896.929 100.05 903.062 100.05Z" fill="#472758"/>
<path d="M903.063 94.2891C906.015 94.2891 908.408 91.8966 908.408 88.9453C908.408 85.994 906.015 83.6016 903.063 83.6016C900.112 83.6016 897.719 85.994 897.719 88.9453C897.719 91.8966 900.112 94.2891 903.063 94.2891Z" fill="#290928"/>
<path d="M903.07 93.4254C905.545 93.4254 907.55 91.4195 907.55 88.9451C907.55 86.4707 905.545 84.4648 903.07 84.4648C900.596 84.4648 898.59 86.4707 898.59 88.9451C898.59 91.4195 900.596 93.4254 903.07 93.4254Z" fill="#472758"/>
<path d="M902.492 88.0443C903.292 87.1693 903.421 85.9861 902.78 85.4016C902.14 84.817 900.973 85.0525 900.174 85.9274C899.375 86.8024 899.246 87.9856 899.886 88.5701C900.526 89.1547 901.693 88.9193 902.492 88.0443Z" fill="#845A77"/>
<path d="M905.852 92.0563C906.256 91.614 906.321 91.0159 905.998 90.7204C905.674 90.4249 905.084 90.5439 904.68 90.9862C904.277 91.4285 904.211 92.0267 904.535 92.3222C904.859 92.6176 905.448 92.4986 905.852 92.0563Z" fill="#845A77"/>
<g style="mix-blend-mode:multiply" opacity="0.29">
<path d="M917.461 84.0422H914.433L907.776 86.4203L907.091 86.9871H899.038L898.589 86.4755L891.524 84.0422H888.676C889.7 81.038 891.638 78.4296 894.219 76.5825C896.8 74.7354 899.894 73.7422 903.068 73.7422C906.242 73.7422 909.336 74.7354 911.917 76.5825C914.498 78.4296 916.437 81.038 917.461 84.0422H917.461Z" fill="#290928"/>
</g>
<path d="M813.773 96.1739C813.773 96.1739 835.249 88.9456 849.593 88.9456C863.937 88.9456 887.444 94.2901 887.444 94.2901L886.758 91.5219C874.55 89.1158 862.15 87.8116 849.708 87.625C838.46 87.6393 827.229 88.5224 816.116 90.2662L813.773 96.1739Z" fill="#775EE7"/>
<path d="M859.73 70.794C859.73 70.794 863.824 73.4836 864.515 74.1741C865.782 75.4414 864.801 88.3686 864.801 88.3686L861.524 89.7775L861.26 97.9707H862.266V89.8663L866.05 88.4875C866.05 88.4875 865.519 76.2954 864.988 74.0682L860.128 70.709L859.73 70.794Z" fill="#775EE7"/>
<path d="M862.883 74.4531C862.883 74.4531 862.419 75.8154 862.053 76.576C861.98 76.7429 861.885 76.8988 861.77 77.0393C861.424 77.392 854.601 78.5398 853.26 77.8414C852.348 77.3525 851.462 76.8171 850.605 76.2372C852.354 75.1862 862.883 74.4531 862.883 74.4531Z" fill="#775EE7"/>
<g style="mix-blend-mode:multiply" opacity="0.29">
<path d="M862.883 74.4531C862.883 74.4531 862.419 75.8156 862.053 76.5763C861.846 76.4377 861.62 76.3305 861.382 76.2582C859.132 76.0604 856.865 76.165 854.643 76.5693C854.327 76.6551 854.037 76.8155 853.796 77.037C853.556 77.2584 853.372 77.5344 853.26 77.8418C852.348 77.3529 851.462 76.8174 850.605 76.2374C852.354 75.1863 862.883 74.4531 862.883 74.4531Z" fill="#290928"/>
</g>
<path d="M835.906 75.8905C835.978 75.3481 833.966 74.6354 831.413 74.2986C828.86 73.9619 826.732 74.1287 826.661 74.6711C826.589 75.2136 828.601 75.9263 831.154 76.263C833.707 76.5998 835.834 76.433 835.906 75.8905Z" fill="white"/>
<path d="M843.494 76.8613C844.101 76.8613 844.593 76.6716 844.593 76.4375C844.593 76.2034 844.101 76.0137 843.494 76.0137C842.887 76.0137 842.395 76.2034 842.395 76.4375C842.395 76.6716 842.887 76.8613 843.494 76.8613Z" fill="white"/>
<path d="M888.79 69.7773C889.372 69.6069 889.791 69.2863 889.725 69.0614C889.659 68.8365 889.134 68.7924 888.551 68.9628C887.968 69.1333 887.55 69.4538 887.615 69.6787C887.681 69.9037 888.207 69.9478 888.79 69.7773Z" fill="white"/>
<path d="M823.693 61.7417C824.512 61.269 825.094 60.7447 824.994 60.5708C824.893 60.3969 824.148 60.6391 823.33 61.1118C822.511 61.5846 821.929 62.1088 822.029 62.2827C822.13 62.4566 822.875 62.2144 823.693 61.7417Z" fill="white"/>
<path d="M785.903 98.0848L765.42 98.2318C763.385 97.1813 761.731 95.5187 760.691 93.4785C760.691 93.4785 770.63 96.1734 785.18 93.601L785.903 98.0848Z" fill="#775EE7"/>
<path d="M937.519 89.7681C937.4 92.5727 937.007 95.3588 936.343 98.0863L916.987 98.0495L916.938 97.8902L919.571 88.9473C925.31 91.1439 931.604 91.4318 937.519 89.7681Z" fill="#775EE7"/>
<path d="M884.256 64.0102C884.256 64.0102 880.199 57.2889 880.199 56.3701C880.199 55.4513 891.684 55.5535 895.053 56.3701C897.358 57.0404 899.498 58.1832 901.337 59.7258C901.337 59.7258 896.682 56.7785 893.828 56.7785C890.974 56.7785 884.609 57.6661 883.568 58.7068C882.95 59.3249 884.256 64.0102 884.256 64.0102Z" fill="#775EE7"/>
<path d="M454.089 61.3251L447.344 54.6466L450.59 53.6152L462.814 60.4267L454.089 61.3251Z" fill="url(#paint12_linear)"/>
<path d="M439.074 86.6925C439.185 89.316 439.553 91.9222 440.174 94.4734L458.28 94.439L555.054 94.2901L580.895 94.4734L600.055 94.6109C601.958 93.6283 603.505 92.0731 604.478 90.1647C605.684 87.8697 606.535 85.4044 606.999 82.8536C605.888 79.7596 589.214 69.5608 589.214 69.5608C583.013 66.7971 576.548 64.6652 569.919 63.1972C569.919 63.1972 548.902 56.7139 534.737 53.9188C519.991 50.4641 504.694 50.0716 489.791 52.7656L466.306 57.6382C466.306 57.6382 449.548 64.4958 442.122 68.5295C439.773 71.5547 438.696 79.4502 439.074 86.6925Z" fill="url(#paint13_linear)"/>
<path d="M489.121 63.2805C512.191 72.4609 524.503 72.3124 539.525 70.0144C546.56 68.928 559.155 65.7154 559.155 65.7154C546.88 55.8766 519.37 50.0368 500.785 54.0297C496.676 56.0653 492.559 57.6379 489.121 63.2805Z" fill="#290928"/>
<g style="mix-blend-mode:soft-light" opacity="0.5">
<path d="M493.488 64.2142C493.488 64.2142 512.305 71.7012 522.632 71.7012C528.294 71.521 533.936 70.9573 539.522 70.0138L540.156 69.1797C540.156 69.1797 520.724 57.7797 500.168 58.5814L493.488 64.2142Z" fill="white"/>
</g>
<path d="M442.117 68.5269C442.117 68.5269 452.675 63.134 468.625 64.8583C484.575 66.5826 502.459 71.9713 519.166 73.9111C535.874 75.851 561.628 68.8714 575.425 69.2147C589.221 69.558 605.219 80.7234 605.219 80.7234C605.219 80.7234 593.137 66.331 569.921 63.1967C569.921 63.1967 535.437 72.1604 519.167 70.2337C502.896 68.3071 478.74 57.6376 463.983 57.6376C459.738 57.6027 455.545 58.5708 451.746 60.4631C447.946 62.3553 444.647 65.1182 442.117 68.5269Z" fill="url(#paint14_linear)"/>
<path d="M595.781 75.2422C595.781 75.2422 583.511 71.7023 580.121 65.7148C580.121 65.7148 592.186 68.4149 595.781 75.2422Z" fill="white"/>
<path d="M552.586 85.9214C552.581 88.8921 553.436 91.8008 555.05 94.2953L580.889 94.4763C582.226 92.4693 583.075 90.1771 583.367 87.7833C583.659 85.3895 583.386 82.9605 582.571 80.6908C581.756 78.4211 580.421 76.3738 578.673 74.7128C576.924 73.0519 574.811 71.8233 572.503 71.1255C570.194 70.4278 567.754 70.2802 565.379 70.6946C563.003 71.1091 560.757 72.074 558.821 73.5121C556.886 74.9502 555.313 76.8216 554.231 78.9765C553.148 81.1313 552.585 83.5098 552.586 85.9214Z" fill="#E15572"/>
<path d="M553.809 85.9206C553.811 89.4874 555.155 92.9228 557.573 95.5447C559.992 98.1665 563.307 99.783 566.862 100.073C570.417 100.363 573.951 99.3057 576.763 97.1106C579.574 94.9155 581.457 91.7434 582.038 88.2242C582.619 84.705 581.855 81.0961 579.898 78.1141C577.941 75.1322 574.934 72.9953 571.474 72.1278C568.014 71.2604 564.355 71.7258 561.222 73.4317C558.09 75.1375 555.713 77.959 554.565 81.336C554.063 82.8124 553.808 84.3612 553.809 85.9206Z" fill="#290928"/>
<path d="M556.453 85.9206C556.453 88.2107 557.131 90.4496 558.403 92.3541C559.675 94.2586 561.483 95.743 563.599 96.6197C565.715 97.4964 568.043 97.7259 570.289 97.2793C572.535 96.8326 574.599 95.7299 576.218 94.1105C577.837 92.4911 578.94 90.4278 579.387 88.1816C579.833 85.9354 579.604 83.6073 578.727 81.4916C577.85 79.3758 576.366 77.5677 574.461 76.2957C572.557 75.0238 570.318 74.3452 568.028 74.3459C566.506 74.3375 564.997 74.6312 563.589 75.21C562.181 75.7887 560.901 76.641 559.825 77.7175C558.748 78.7939 557.896 80.0732 557.317 81.4813C556.739 82.8894 556.445 84.3982 556.453 85.9206Z" fill="#845A77"/>
<path d="M556.453 85.9217C556.447 88.8627 557.567 91.6945 559.583 93.8359L560.85 93.4286H576.841C578.05 92.0093 578.899 90.3189 579.314 88.5014C579.729 86.6838 579.7 84.7928 579.227 82.9893C578.754 81.1858 577.853 79.523 576.6 78.1426C575.347 76.7622 573.779 75.7049 572.029 75.0606C570.279 74.4164 568.4 74.2043 566.551 74.4424C564.701 74.6806 562.937 75.3618 561.408 76.4282C559.878 77.4947 558.629 78.9148 557.767 80.5676C556.904 82.2205 556.453 84.0573 556.453 85.9217H556.453Z" fill="#472758"/>
<path d="M568.032 96.3127C573.769 96.3127 578.42 91.662 578.42 85.9249C578.42 80.1879 573.769 75.5371 568.032 75.5371C562.295 75.5371 557.645 80.1879 557.645 85.9249C557.645 91.662 562.295 96.3127 568.032 96.3127Z" fill="#472758"/>
<path d="M568.027 90.9242C570.788 90.9242 573.026 88.6859 573.026 85.925C573.026 83.164 570.788 80.9258 568.027 80.9258C565.266 80.9258 563.027 83.164 563.027 85.925C563.027 88.6859 565.266 90.9242 568.027 90.9242Z" fill="#290928"/>
<path d="M568.031 90.1152C570.345 90.1152 572.222 88.2387 572.222 85.9238C572.222 83.609 570.345 81.7324 568.031 81.7324C565.716 81.7324 563.84 83.609 563.84 85.9238C563.84 88.2387 565.716 90.1152 568.031 90.1152Z" fill="#472758"/>
<path d="M570.998 85.5739C571.597 85.027 571.476 83.9199 570.729 83.1013C569.981 82.2827 568.89 82.0624 568.291 82.6093C567.692 83.1562 567.813 84.2633 568.561 85.0819C569.308 85.9005 570.399 86.1208 570.998 85.5739Z" fill="#845A77"/>
<path d="M566.65 89.0828C566.953 88.8063 566.892 88.2467 566.514 87.8329C566.136 87.4191 565.585 87.3078 565.282 87.5843C564.98 87.8608 565.041 88.4204 565.418 88.8342C565.796 89.248 566.347 89.3593 566.65 89.0828Z" fill="#845A77"/>
<g style="mix-blend-mode:multiply" opacity="0.29">
<path d="M554.566 81.3369H557.399L563.626 83.5615L564.266 84.0918H571.799L572.219 83.6132L578.828 81.3369H581.492C580.534 78.5265 578.721 76.0862 576.307 74.3583C573.893 72.6303 570.998 71.7012 568.029 71.7012C565.06 71.7012 562.166 72.6303 559.752 74.3583C557.337 76.0862 555.524 78.5265 554.566 81.3369Z" fill="#290928"/>
</g>
<path d="M455.863 85.9217C455.858 88.8925 456.714 91.8011 458.327 94.2957L484.166 94.4767C485.503 92.4697 486.352 90.1775 486.644 87.7836C486.936 85.3897 486.664 82.9607 485.849 80.691C485.034 78.4213 483.698 76.374 481.95 74.7129C480.202 73.0519 478.089 71.8233 475.78 71.1256C473.472 70.4278 471.032 70.2802 468.656 70.6946C466.28 71.1091 464.035 72.074 462.099 73.5122C460.163 74.9503 458.591 76.8218 457.508 78.9767C456.425 81.1316 455.862 83.5101 455.863 85.9217Z" fill="#E15572"/>
<path d="M457.082 85.9206C457.085 89.4874 458.428 92.9228 460.847 95.5447C463.265 98.1665 466.581 99.783 470.136 100.073C473.691 100.363 477.225 99.3057 480.036 97.1106C482.848 94.9155 484.731 91.7434 485.311 88.2242C485.892 84.705 485.128 81.0961 483.171 78.1141C481.214 75.1322 478.207 72.9953 474.747 72.1278C471.288 71.2604 467.628 71.7258 464.496 73.4317C461.363 75.1375 458.987 77.959 457.839 81.336C457.337 82.8124 457.081 84.3612 457.082 85.9206Z" fill="#290928"/>
<path d="M459.731 85.9206C459.73 88.2107 460.409 90.4497 461.681 92.3542C462.953 94.2586 464.761 95.7431 466.876 96.6198C468.992 97.4965 471.32 97.726 473.567 97.2794C475.813 96.8327 477.876 95.73 479.495 94.1106C481.115 92.4912 482.218 90.4279 482.664 88.1817C483.111 85.9355 482.881 83.6073 482.005 81.4916C481.128 79.3758 479.643 77.5676 477.739 76.2957C475.834 75.0237 473.595 74.3452 471.305 74.3459C469.783 74.3376 468.274 74.6312 466.866 75.21C465.458 75.7887 464.179 76.641 463.102 77.7175C462.026 78.7939 461.173 80.0732 460.595 81.4813C460.016 82.8894 459.722 84.3982 459.731 85.9206Z" fill="#845A77"/>
<path d="M459.73 85.9217C459.724 88.8627 460.844 91.6945 462.86 93.8359L464.128 93.4286H480.119C481.328 92.0093 482.176 90.3189 482.591 88.5014C483.007 86.6838 482.977 84.7928 482.504 82.9893C482.032 81.1858 481.131 79.523 479.877 78.1426C478.624 76.7622 477.056 75.7049 475.306 75.0606C473.557 74.4164 471.677 74.2043 469.828 74.4424C467.979 74.6806 466.214 75.3618 464.685 76.4282C463.156 77.4947 461.906 78.9148 461.044 80.5676C460.181 82.2205 459.731 84.0573 459.73 85.9217Z" fill="#472758"/>
<path d="M471.302 96.3127C477.039 96.3127 481.69 91.6619 481.69 85.9249C481.69 80.1879 477.039 75.5371 471.302 75.5371C465.565 75.5371 460.914 80.1879 460.914 85.9249C460.914 91.6619 465.565 96.3127 471.302 96.3127Z" fill="#472758"/>
<path d="M471.304 90.9242C474.065 90.9242 476.303 88.686 476.303 85.925C476.303 83.164 474.065 80.9258 471.304 80.9258C468.543 80.9258 466.305 83.164 466.305 85.925C466.305 88.686 468.543 90.9242 471.304 90.9242Z" fill="#290928"/>
<path d="M471.308 90.1152C473.623 90.1152 475.499 88.2387 475.499 85.9238C475.499 83.609 473.623 81.7324 471.308 81.7324C468.994 81.7324 467.117 83.609 467.117 85.9238C467.117 88.2387 468.994 90.1152 471.308 90.1152Z" fill="#472758"/>
<path d="M474.272 85.5739C474.87 85.0269 474.75 83.9199 474.002 83.1013C473.255 82.2826 472.163 82.0624 471.565 82.6093C470.966 83.1562 471.086 84.2632 471.834 85.0819C472.581 85.9005 473.673 86.1208 474.272 85.5739Z" fill="#845A77"/>
<path d="M469.927 89.0828C470.23 88.8063 470.169 88.2467 469.791 87.8329C469.414 87.4191 468.862 87.3078 468.56 87.5843C468.257 87.8608 468.318 88.4204 468.696 88.8342C469.073 89.248 469.625 89.3593 469.927 89.0828Z" fill="#845A77"/>
<g style="mix-blend-mode:multiply" opacity="0.29">
<path d="M457.84 81.3368H460.672L466.899 83.5615L467.539 84.0918H475.072L475.493 83.6132L482.101 81.3368H484.765C483.808 78.5264 481.995 76.0862 479.58 74.3583C477.166 72.6303 474.272 71.7012 471.303 71.7012C468.334 71.7012 465.439 72.6303 463.025 74.3583C460.611 76.0862 458.798 78.5264 457.84 81.3368Z" fill="#290928"/>
</g>
<path d="M511.844 68.9448C511.844 68.9448 508.015 71.4608 507.369 72.1067C506.183 73.2922 510.413 94.3672 510.413 94.3672H509.473C509.473 94.3672 506.429 74.091 506.926 72.0076L511.472 68.8652L511.844 68.9448Z" fill="#E15572"/>
<path d="M508.887 72.3672C508.887 72.3672 509.32 73.6417 509.663 74.3534C509.731 74.5094 509.82 74.6553 509.928 74.7868C510.251 75.1167 516.633 76.1907 517.888 75.5372C518.741 75.0799 519.569 74.5789 520.371 74.0364C518.735 73.053 508.887 72.3672 508.887 72.3672Z" fill="#E15572"/>
<g style="mix-blend-mode:multiply" opacity="0.29">
<path d="M508.887 72.3672C508.887 72.3672 509.32 73.6417 509.663 74.3533C509.856 74.2236 510.067 74.1234 510.29 74.0557C512.395 73.8707 514.515 73.9686 516.594 74.3468C516.89 74.427 517.161 74.577 517.386 74.7842C517.611 74.9913 517.783 75.2496 517.888 75.5371C518.741 75.0798 519.569 74.5788 520.371 74.0363C518.735 73.053 508.887 72.3672 508.887 72.3672Z" fill="#290928"/>
</g>
<path d="M538.574 74.0602C540.962 73.7451 542.844 73.0783 542.777 72.5709C542.71 72.0634 540.72 71.9075 538.332 72.2225C535.944 72.5376 534.062 73.2043 534.129 73.7118C534.196 74.2192 536.186 74.3752 538.574 74.0602Z" fill="white"/>
<path d="M527.036 74.622C527.604 74.622 528.064 74.4443 528.064 74.2251C528.064 74.0059 527.604 73.8281 527.036 73.8281C526.468 73.8281 526.008 74.0059 526.008 74.2251C526.008 74.4443 526.468 74.622 527.036 74.622Z" fill="white"/>
<path d="M485.753 67.902C485.815 67.6916 485.423 67.3916 484.878 67.2321C484.333 67.0725 483.841 67.1137 483.779 67.3241C483.718 67.5345 484.11 67.8344 484.655 67.994C485.2 68.1536 485.691 68.1124 485.753 67.902Z" fill="white"/>
<path d="M554.555 59.0476C554.643 58.8301 554.2 58.4449 553.564 58.1871C552.929 57.9294 552.342 57.8967 552.254 58.1141C552.165 58.3316 552.609 58.7168 553.244 58.9745C553.88 59.2323 554.467 59.265 554.555 59.0476Z" fill="white"/>
<path d="M580.895 94.4738L600.055 94.6113C601.958 93.6284 603.505 92.073 604.478 90.1641C604.478 90.1641 595.181 92.6855 581.571 90.2787L580.895 94.4738Z" fill="#E15572"/>
<path d="M439.074 86.6916C439.185 89.315 439.553 91.9212 440.174 94.4725L458.28 94.4381L458.326 94.2891L455.862 85.9238C450.494 87.9786 444.607 88.2478 439.074 86.6916Z" fill="#E15572"/>
<path d="M508.887 52.9258C508.887 52.9258 499.377 53.6987 496.331 54.2537C492.334 54.9818 481.691 60.5963 481.691 60.5963L489.449 62.7598C489.449 62.7598 496.617 56.4743 498.265 55.6863C499.912 54.8984 508.887 52.9258 508.887 52.9258Z" fill="#E15572"/>
<path d="M440.039 53.8411L443.525 55.7851L456.847 54.8131L458.327 53.6776C458.327 53.6776 444.695 49.1852 440.039 53.8411Z" fill="url(#paint15_linear)"/>
<path d="M607.001 82.8538C607.001 82.8538 602.303 82.2592 600.47 84.092C598.637 85.9251 597.605 94.3662 597.605 94.3662L600.056 94.6111C600.056 94.6111 604.936 93.6189 607.001 82.8538Z" fill="#E15572"/>
<path d="M485.523 84.0918C485.523 84.0918 494.9 88.9714 500.916 90.1983C506.932 91.4252 553.421 90.9225 553.421 90.9225L554.566 92.3867L485.917 90.9225L485.523 84.0918Z" fill="#E15572"/>
<path d="M578.64 64.5987C577.71 66.2878 573.964 68.2707 571.699 69.2989C571.138 69.5806 570.552 69.8101 569.949 69.9844C569.52 69.9844 566.301 64.0234 566.301 63.6929C566.302 63.6835 566.306 63.6748 566.313 63.6684C566.316 63.633 566.329 63.5992 566.35 63.5705C566.372 63.5006 566.405 63.4346 566.448 63.3747C566.46 63.3502 566.472 63.338 566.484 63.3135C567.052 62.5035 567.661 61.7232 568.308 60.9756C570.092 59.7559 572.01 58.7455 574.025 57.9645C574.588 57.7564 574.98 57.6218 575.102 57.5728C575.118 57.5654 575.134 57.5612 575.151 57.5605C575.396 57.7136 575.614 57.9035 575.8 58.1236C577.6 59.9474 578.506 63.9989 578.628 64.5375C578.628 64.562 578.64 64.5742 578.64 64.5987Z" fill="#880943"/>
<g style="mix-blend-mode:multiply">
<path d="M571.699 69.2995C571.138 69.5813 570.552 69.8108 569.949 69.9851C569.52 69.9851 566.301 64.0234 566.301 63.6929C566.302 63.6835 566.306 63.6748 566.313 63.6684C566.316 63.633 566.329 63.5992 566.35 63.5705L568.468 63.1543L571.699 69.2995Z" fill="#D481B6"/>
</g>
<path d="M563.854 91.885C563.854 96.5246 563.731 100.748 563.401 103.992C562.58 112.071 557.01 113.92 552.53 114.054C550.625 114.105 548.722 113.895 546.875 113.43C546.764 113.406 546.703 113.393 546.703 113.393L551.845 60.3876L560.291 49.3457L562.127 53.6057C562.127 53.6057 562.886 63.301 563.388 74.6857C563.658 80.329 563.841 86.3886 563.854 91.885Z" fill="#790943"/>
<g style="mix-blend-mode:multiply">
<path d="M563.85 91.8851C561.594 94.2269 559.7 96.8923 558.231 99.7933C555.938 104.381 554.03 109.151 552.527 114.055C550.622 114.106 548.719 113.896 546.871 113.431L554.363 68.9562L559.223 65.6387L563.385 74.6853C563.654 80.3288 563.838 86.3885 563.85 91.8851Z" fill="#D481B6"/>
</g>
<path d="M575.803 58.12C575.706 58.1565 575.621 58.1931 575.511 58.2417C572.994 59.2632 568.47 63.1548 568.47 63.1548L566.293 63.6899C566.294 63.6805 566.298 63.6718 566.305 63.6655C566.317 63.6289 566.366 63.5196 566.439 63.3737C566.451 63.3493 566.463 63.3371 566.475 63.3129C567.07 62.1407 567.846 61.0695 568.774 60.1387C570.132 59.0895 571.706 58.3544 573.383 57.9863H573.395C574.246 57.743 574.903 57.6092 575.098 57.5728C575.113 57.5653 575.129 57.5612 575.146 57.5605L575.803 58.12Z" fill="#A90943"/>
<path d="M573.915 115.824H570.546C570.546 115.824 568.037 109.641 568.443 109.236C568.848 108.83 573.485 112.327 573.485 112.327L573.915 115.824Z" fill="#880943"/>
<path d="M547.99 26.0352C547.408 26.799 546.894 27.6129 546.454 28.4674C545.897 29.6328 545.289 45.0875 545.289 46.101C545.289 47.1145 548.823 51.0034 548.823 51.0034L550.899 47.8087C550.093 46.7481 549.396 45.6095 548.817 44.4098C548.817 43.9031 549.799 37.1322 550.153 35.156C550.508 33.1797 549.374 26.0352 547.99 26.0352Z" fill="#BC4563"/>
<path d="M561.903 17.2831C561.493 18.0991 560.931 18.8296 560.249 19.4359L560.224 19.4603C559.578 20.0984 558.845 20.6428 558.048 21.0779C557.014 21.5767 555.348 20.4698 555.348 20.4698L562.109 9.31641C562.109 9.31641 562.048 9.76649 561.988 10.399C561.812 11.6158 561.791 12.8501 561.927 14.0721C562.168 14.5737 562.292 15.1238 562.287 15.6805C562.283 16.2371 562.152 16.7853 561.903 17.2831Z" fill="#C25B71"/>
<path d="M562.493 26.6711C562.291 29.8883 561.753 33.0756 560.888 36.181C560.839 36.327 560.791 36.4607 560.742 36.5702C559.684 39.1119 556.741 41.69 554.868 41.69C552.995 41.69 551.743 39.574 551.183 39.0145C550.624 38.4551 548.897 31.0004 548.082 28.9695C547.255 26.9508 552.643 22.3417 552.643 22.3417L556.972 21.1621V22.3417C556.972 22.3417 557.507 22.2079 558.237 22.0864H558.261C558.964 21.9725 559.677 21.9277 560.389 21.9526C560.764 21.956 561.137 22.0133 561.496 22.1229C561.678 22.1659 561.85 22.24 562.007 22.3417C562.076 22.3951 562.133 22.4611 562.177 22.5364C562.596 23.8725 562.704 25.2867 562.493 26.6711Z" fill="#C25B71"/>
<path d="M553.964 41.5211L553.375 34.7441L554.862 41.69L553.964 41.5211Z" fill="#BC4563"/>
<path d="M562.518 8.55771C561.245 10.5286 560.841 14.8376 560.192 17.2125C559.531 19.5996 556.005 23.37 555.271 24.1045C554.879 24.4962 554.744 26.1243 554.597 27.7402C554.573 28.8848 554.396 30.021 554.071 31.1188C553.41 32.4777 548.146 33.102 549.138 34.0935C550.068 35.0239 551.488 33.8487 551.659 33.714C551.598 33.9222 551.035 35.5625 549.701 35.5625C548.281 35.5625 545.673 33.102 546.91 31.8656C548.146 30.617 549.591 29.5764 548.379 28.3645C547.167 27.1526 546.432 26.0141 547.571 24.8757C548.709 23.725 547.816 22.7824 546.91 19.9546C545.881 16.7473 544.633 13.6257 544.633 11.3855C544.642 10.9351 544.703 10.4873 544.816 10.0512V10.0389C545.31 8.4696 546.112 7.01472 547.176 5.75973C548.24 4.50473 549.543 3.47491 551.011 2.73072C556.238 -0.109312 559.225 0.368117 559.225 0.368117C560.056 0.583464 560.825 0.990978 561.47 1.55783C562.115 2.12467 562.618 2.83503 562.938 3.63173C563.259 4.42843 563.388 5.28923 563.314 6.14482C563.241 7.0004 562.968 7.82686 562.518 8.55771Z" fill="#FF9046"/>
<path d="M573.894 111.191C573.478 110.481 570.026 104.691 567.712 104.067C567.712 104.067 561.347 91.5435 560.796 89.4135C560.594 87.7952 560.753 86.1523 561.261 84.6026C561.47 83.9277 561.617 83.2353 561.702 82.5338C561.702 81.8238 559.706 78.6287 557.515 73.6709C556.292 70.8885 555.237 68.0352 554.357 65.1263C551.761 56.3369 559.706 52.5787 561.249 51.9299C561.408 51.8687 561.506 51.832 561.506 51.832C561.506 51.832 561.579 52.236 561.702 52.9215L562.044 54.8067C562.093 55.0883 562.154 55.3821 562.216 55.6881C563.317 61.968 565.386 73.9647 565.386 76.6823C565.386 80.416 569.72 102.696 569.72 102.696C571.12 105.066 572.375 107.518 573.478 110.041V110.053C573.637 110.444 573.784 110.824 573.894 111.191Z" fill="#C25B71"/>
<g style="mix-blend-mode:multiply">
<path d="M560.932 54.5254L559.964 78.7853L557.516 73.6737C557.516 73.6737 558.872 56.5848 560.932 54.5254Z" fill="#D481B6"/>
</g>
<path d="M567.71 104.068C567.012 104.394 566.52 107.615 566.52 108.185C566.52 108.343 567.212 109.788 567.464 110.699C567.934 112.471 568.308 114.266 568.586 116.078L569.281 116.09L569.576 109.913C570.766 110.374 571.75 111.25 572.347 112.378C572.994 113.467 573.52 114.622 573.917 115.824H577.312C577.123 114.953 576.656 114.166 575.982 113.582C574.747 112.347 569.775 103.106 567.71 104.068Z" fill="#A90943"/>
<path d="M561.7 49.0473C562 51.2487 562.171 53.4658 562.211 55.6872V55.7723L562.041 54.8116L561.7 52.9266C561.437 53.2523 561.235 53.6232 561.104 54.0212V54.0333C561.104 54.0454 561.092 54.0576 561.092 54.0698C559.973 57.0249 558.745 64.7472 557.517 73.6735C555.17 90.8327 552.847 112.467 551.4 113.319C549.041 114.681 533 115.07 533 115.07C533 115.07 536.952 113.246 538.096 110.047C539.239 106.849 541.063 89.8355 541.063 88.6924C541.063 87.5492 542.802 84.6671 543.337 82.9888C543.872 81.3228 544.176 61.33 545.295 57.0736C546.037 54.2035 553.297 44.3409 553.297 43.7816C552.589 41.9607 551.769 40.1857 550.84 38.4671C552.969 42.1519 555.113 41.4644 557.152 40.0037C559.225 38.5187 561.907 32.873 561.907 32.873L562.552 34.9526L561.518 38.0172L561.506 38.0293L559.913 42.7478L559.925 42.7843C559.929 42.8214 559.938 42.858 559.949 42.8937C560.131 43.4775 560.813 45.7395 561.299 47.4907C561.457 48.0987 561.603 48.646 561.7 49.0473Z" fill="#A90943"/>
<path d="M575.357 64.0423C575.319 64.241 575.254 64.4334 575.162 64.6138C575.162 64.6138 575.162 65.2827 575.016 65.4287C574.96 65.4775 574.894 65.5145 574.823 65.5374C574.752 65.5604 574.677 65.5689 574.603 65.5624C574.603 65.5624 574.177 65.8909 573.46 65.1733C572.754 64.4679 571.842 63.0451 571.489 62.6924C571.137 62.3397 568.036 61.3304 567.61 60.2115C567.184 59.0926 567.379 56.843 567.148 56.2349C566.929 55.6268 563.281 47.3208 563.001 46.1777C562.721 45.0346 562.004 39.5743 561.615 38.3338C561.493 37.9324 561.226 37.142 560.885 36.1813C560.192 34.1625 559.195 31.3533 558.611 29.6629C557.857 27.4496 558.234 23.3879 559.754 22.2325H559.766C559.947 22.0906 560.16 21.9947 560.386 21.9528C560.401 21.9432 560.418 21.9389 560.435 21.9407C560.797 21.9222 561.158 21.9845 561.493 22.1231C561.744 22.217 561.975 22.3572 562.174 22.5366C562.569 22.9035 562.841 23.3834 562.952 23.9107C563.451 26.0633 564.485 36.4123 564.947 37.5555C566.012 39.9402 566.851 42.4198 567.452 44.9616C567.707 46.5546 568.084 50.3368 568.401 53.0244C568.399 53.0415 568.403 53.0587 568.413 53.073C568.522 54.0216 568.644 54.8364 568.741 55.3592V55.3836C568.745 55.4617 568.757 55.5392 568.778 55.6147C568.803 55.7503 568.848 55.8815 568.911 56.0039C569.252 56.3443 574.676 59.8224 575.113 60.2603C575.199 60.3617 575.257 60.4829 575.284 60.6129V60.625C575.475 61.7544 575.499 62.9057 575.357 64.0423Z" fill="#C25B71"/>
<path d="M561.908 17.2827C561.498 18.0987 560.937 18.8293 560.254 19.4355C561.3 18.0246 561.458 14.473 561.458 13.9987C561.458 13.5122 561.993 10.3984 561.993 10.3984C561.817 11.6153 561.797 12.8496 561.932 14.0716C562.174 14.5732 562.297 15.1234 562.293 15.68C562.288 16.2367 562.157 16.7849 561.908 17.2827Z" fill="#FF9046"/>
<path d="M553.27 1.63808C555.031 0.916755 556.922 0.566883 558.825 0.610394C562.298 0.960747 563.254 4.84207 563.254 4.84207C563.254 4.84207 563.53 1.05575 560.253 0.136655C557.767 -0.560745 553.27 1.63808 553.27 1.63808Z" fill="#FF9046"/>
<path d="M568.396 53.0244C567.898 50.3245 567.103 43.1767 564.408 38.1444C564.084 37.5391 562.945 30.9156 562.215 26.6713C562.039 25.4552 561.722 24.2635 561.271 23.1203C561.11 22.8616 560.888 22.6457 560.625 22.4912C560.363 22.3366 560.066 22.2478 559.762 22.2325H559.75C559.255 22.1484 558.755 22.0996 558.254 22.0866C558.957 21.9728 559.67 21.928 560.382 21.9528C560.396 21.9432 560.414 21.9389 560.431 21.9407C560.793 21.9222 561.154 21.9845 561.489 22.1231C561.67 22.1662 561.843 22.2402 562 22.342C562.068 22.3953 562.126 22.4614 562.17 22.5366C562.565 22.9035 562.837 23.3834 562.948 23.9107C563.447 26.0633 564.48 36.4123 564.943 37.5555C566.008 39.9402 566.847 42.4198 567.448 44.9616C567.703 46.5546 568.08 50.3368 568.396 53.0244Z" fill="#FF9046"/>
<path d="M578.624 64.541C577.9 62.3001 576.851 60.1777 575.511 58.2417C575.464 58.1756 575.406 58.118 575.34 58.0714C574.911 57.9635 574.468 57.9265 574.027 57.9619C573.711 57.974 573.455 57.9863 573.395 57.9863C574.246 57.743 574.903 57.6092 575.097 57.5728C575.112 57.5653 575.129 57.5612 575.146 57.5605C575.39 57.7155 575.611 57.9038 575.802 58.12C577.59 59.9442 578.502 63.9938 578.624 64.541Z" fill="#FF9046"/>
<path d="M568.727 55.3457L568.739 55.3581V55.383C568.732 55.3716 568.728 55.3589 568.727 55.3457Z" fill="#FF9046"/>
<path d="M575.283 60.6115C574.809 59.9304 569.008 56.5497 568.935 56.3551C568.866 56.1117 568.813 55.8638 568.777 55.6133C568.802 55.7489 568.847 55.8801 568.911 56.0024C569.252 56.3429 574.675 59.821 575.113 60.2588C575.199 60.3603 575.257 60.4815 575.283 60.6115Z" fill="#FF9046"/>
<path opacity="0.61" d="M559.949 42.8937C560.131 43.4775 560.813 45.7395 561.299 47.4907L561.092 54.0697C559.973 57.0249 558.745 64.7472 557.517 73.6735C555.17 90.8327 552.847 112.467 551.4 113.319C549.041 114.681 533 115.07 533 115.07C533 115.07 536.952 113.246 538.096 110.047C539.239 106.849 541.063 89.8355 541.063 88.6924C541.063 87.5492 542.802 84.6671 543.337 82.9888C543.872 81.3228 544.176 61.33 545.295 57.0736C545.295 57.0736 553.686 57.6937 556.362 54.2523C559.049 50.8106 558.854 42.4195 558.854 42.4195L561.506 38.0293L559.913 42.7478L559.925 42.7843C559.929 42.8214 559.938 42.858 559.949 42.8937Z" fill="#880943"/>
<path d="M573.472 110.035V110.047C573.472 110.047 569.787 104.112 569.484 103.164C567.683 95.5186 566.275 87.7863 565.264 79.9974C564.656 73.0656 561.105 54.0339 561.105 54.0339V54.0218C561.117 53.888 561.214 53.0246 561.25 51.9301C561.312 50.7364 561.264 49.5395 561.105 48.3548C560.776 46.4213 560.107 43.5755 559.949 42.8945C560.192 43.6851 561.348 47.5279 561.7 49.048C562.053 50.6288 562.881 54.946 562.905 55.6148C564.012 61.8897 565.646 73.7047 565.646 76.4166C565.646 80.1501 569.715 102.689 569.715 102.689C571.116 105.059 572.371 107.512 573.472 110.035Z" fill="#FF9046"/>
<g style="mix-blend-mode:multiply">
<path d="M560.842 40.0039L559.656 32.6406L561.51 38.0302L560.842 40.0039Z" fill="#D45490"/>
</g>
<path d="M558.258 18.498C556.054 22.2562 553.838 23.5538 553.838 25.0105C553.997 25.9441 554.251 26.8589 554.597 27.7404C554.573 28.885 554.396 30.0212 554.071 31.119C553.41 32.4779 548.146 33.1022 549.138 34.0937C550.068 35.0241 551.488 33.8489 551.659 33.7142C551.598 33.9223 551.035 35.5627 549.701 35.5627C548.281 35.5627 545.673 33.1022 546.91 31.8658C548.146 30.6172 549.591 29.5766 548.379 28.3647C547.167 27.1528 546.432 26.0143 547.571 24.8759C548.709 23.7251 547.816 22.7826 546.91 19.9548C545.881 16.7475 544.633 13.6259 544.633 11.3857C544.642 10.9353 544.703 10.4874 544.816 10.0514V10.0391C545.71 8.55789 549.449 0.77937 556.818 2.42182C563.6 3.9334 560.473 14.7399 558.258 18.498Z" fill="#240924"/>
<path opacity="0.79" d="M555.273 58.7109C555.273 58.7109 546.919 108.457 544.187 111.19C541.454 113.922 534.82 114.778 534.82 114.778C534.82 114.778 542.08 113.196 543.304 110.047C544.528 106.897 547.994 84.8906 547.994 81.5099C547.994 78.1293 546.967 70.4279 546.967 70.4279L549.746 80.7344L555.273 58.7109Z" fill="#790943"/>
<defs>
<radialGradient id="paint0_radial" cx="0" cy="0" r="1" gradientUnits="userSpaceOnUse" gradientTransform="translate(685.473 36.848) scale(489.07 152.641)">
<stop offset="0.06349" stop-color="#7F007C"/>
<stop offset="1" stop-color="#2F004A"/>
</radialGradient>
<linearGradient id="paint1_linear" x1="7.04862" y1="11270.9" x2="825946" y2="11270.9" gradientUnits="userSpaceOnUse">
<stop stop-color="#360068"/>
<stop offset="1" stop-color="#4B0083"/>
</linearGradient>
<linearGradient id="paint2_linear" x1="3.96549" y1="19118.7" x2="395003" y2="19118.7" gradientUnits="userSpaceOnUse">
<stop stop-color="#360068"/>
<stop offset="1" stop-color="#4B0083"/>
</linearGradient>
<linearGradient id="paint3_linear" x1="52038.7" y1="2968" x2="85885.5" y2="2968" gradientUnits="userSpaceOnUse">
<stop stop-color="#360068"/>
<stop offset="1" stop-color="#4B0083"/>
</linearGradient>
<linearGradient id="paint4_linear" x1="15239.9" y1="9212.64" x2="35619.3" y2="9212.64" gradientUnits="userSpaceOnUse">
<stop stop-color="#360068"/>
<stop offset="1" stop-color="#4B0083"/>
</linearGradient>
<linearGradient id="paint5_linear" x1="15971.4" y1="12110.4" x2="19016.7" y2="12110.4" gradientUnits="userSpaceOnUse">
<stop stop-color="#360068"/>
<stop offset="1" stop-color="#4B0083"/>
</linearGradient>
<linearGradient id="paint6_linear" x1="878.767" y1="56.4515" x2="878.767" y2="48.6483" gradientUnits="userSpaceOnUse">
<stop stop-color="#FFBA36"/>
<stop offset="1" stop-color="#FF7548"/>
</linearGradient>
<linearGradient id="paint7_linear" x1="810.021" y1="90.1411" x2="810.021" y2="45.9831" gradientUnits="userSpaceOnUse">
<stop stop-color="#FF0036"/>
<stop offset="1" stop-color="#FF3D36"/>
</linearGradient>
<linearGradient id="paint8_linear" x1="726.809" y1="64.4029" x2="891.893" y2="64.4029" gradientUnits="userSpaceOnUse">
<stop stop-color="#FF6A36"/>
<stop offset="1" stop-color="#FF3D36"/>
</linearGradient>
<linearGradient id="paint9_linear" x1="893.99" y1="48.7912" x2="875.48" y2="48.7912" gradientUnits="userSpaceOnUse">
<stop stop-color="#FF7548"/>
<stop offset="1" stop-color="#FFBA36"/>
</linearGradient>
<linearGradient id="paint10_linear" x1="847.8" y1="98.232" x2="847.8" y2="52" gradientUnits="userSpaceOnUse">
<stop stop-color="#8B75FE"/>
<stop offset="1" stop-color="#C7A9FF"/>
</linearGradient>
<linearGradient id="paint11_linear" x1="759.906" y1="71.046" x2="934.27" y2="71.046" gradientUnits="userSpaceOnUse">
<stop stop-color="#FFA9FF"/>
<stop offset="1" stop-color="#C79BFE"/>
</linearGradient>
<linearGradient id="paint12_linear" x1="1531.3" y1="2559.38" x2="1531.3" y2="2507.51" gradientUnits="userSpaceOnUse">
<stop stop-color="#FFBA36"/>
<stop offset="1" stop-color="#FF7548"/>
</linearGradient>
<linearGradient id="paint13_linear" x1="-19616" y1="15491.7" x2="-19616" y2="13831.4" gradientUnits="userSpaceOnUse">
<stop stop-color="#FF7548"/>
<stop offset="1" stop-color="#FFBA36"/>
</linearGradient>
<linearGradient id="paint14_linear" x1="605.219" y1="69.1805" x2="442.117" y2="69.1805" gradientUnits="userSpaceOnUse">
<stop stop-color="#FFFF3B"/>
<stop offset="1" stop-color="#FFC04D"/>
</linearGradient>
<linearGradient id="paint15_linear" x1="1481.39" y1="1343.35" x2="1773.24" y2="1343.35" gradientUnits="userSpaceOnUse">
<stop stop-color="#FF7548"/>
<stop offset="1" stop-color="#FFBA36"/>
</linearGradient>
</defs>
</svg>
