<svg width="30" height="30" viewBox="0 0 30 30" fill="none" xmlns="http://www.w3.org/2000/svg">
<path d="M19.6155 16.1555H23.654C24.1348 16.1555 24.5435 16.3238 24.8801 16.6603C25.2165 16.9969 25.3849 17.4055 25.3849 17.8865V18.4631C25.3849 19.7372 24.9341 20.8249 24.0325 21.7264C23.1311 22.6277 22.0432 23.0785 20.7692 23.0785H19.6155C19.303 23.0785 19.0327 23.1927 18.8042 23.421C18.5759 23.6494 18.4617 23.9197 18.4617 24.2322V26.5401C18.4617 26.8526 18.576 27.1232 18.8042 27.3516C19.0326 27.5797 19.303 27.6941 19.6155 27.6941H20.7692C22.0194 27.6941 23.212 27.4505 24.348 26.9639C25.4838 26.4771 26.4662 25.8189 27.2957 24.9895C28.125 24.1604 28.783 23.1779 29.2698 22.042C29.7566 20.9062 30 19.7132 30 18.4632V5.77118C30 4.80913 29.6636 3.99226 28.9905 3.31893C28.3174 2.64597 27.4999 2.30952 26.5384 2.30952H19.615C18.6536 2.30952 17.8364 2.64597 17.1632 3.31893C16.4902 3.99226 16.1536 4.80913 16.1536 5.77118V12.6939C16.1536 13.6558 16.4902 14.4727 17.1636 15.1461C17.8365 15.819 18.6541 16.1555 19.6155 16.1555Z" fill="#001E20"/>
<path d="M1.01095 15.1461C1.68384 15.819 2.50115 16.1555 3.46282 16.1555H7.50126C7.98181 16.1555 8.39094 16.3238 8.72694 16.6603C9.06364 16.9969 9.23174 17.4055 9.23174 17.8865V18.4631C9.23174 19.7372 8.78093 20.8249 7.87982 21.7264C6.97865 22.6277 5.89088 23.0785 4.61626 23.0785H3.46275C3.15024 23.0785 2.87972 23.1927 2.65144 23.421C2.42329 23.6494 2.30868 23.9197 2.30868 24.2322V26.5401C2.30868 26.8526 2.42323 27.1232 2.65144 27.3516C2.87966 27.5797 3.15018 27.6941 3.46275 27.6941H4.61626C5.86708 27.6941 7.05948 27.4505 8.19575 26.9639C9.33138 26.4771 10.3135 25.8189 11.1429 24.9895C11.9724 24.1604 12.6306 23.1779 13.1172 22.042C13.6039 20.9062 13.8477 19.7132 13.8477 18.4632V5.77118C13.8477 4.80913 13.511 3.99226 12.8381 3.31893C12.1651 2.64597 11.3478 2.30952 10.3862 2.30952H3.4632C2.50153 2.30952 1.68428 2.64597 1.01139 3.31893C0.337989 3.99226 0.0019846 4.80913 0.0019846 5.77118V12.6939C0.0019207 13.6559 0.337989 14.4727 1.01095 15.1461Z" fill="#001E20"/>
</svg>
