<svg width="1080" height="2214" viewBox="0 0 1080 2214" fill="none" xmlns="http://www.w3.org/2000/svg">
<rect width="1080" height="2214" fill="#1F2529"/>
<g style="mix-blend-mode:overlay" opacity="0.3">
<path d="M30 9.41694L555 0L1050 119.875L1065 1166.94L298.5 605.484L1080 2214L808.5 1182.21L0 2214L777 2138.16L93 767.863L30 9.41694Z" fill="#001E20"/>
</g>
<g style="mix-blend-mode:overlay" opacity="0.3">
<path d="M0 0H1080L0 1817V0Z" fill="#001E20"/>
</g>
<path d="M692.024 2143H665.059V2169.97H692.024V2143Z" fill="#D86713"/>
<path d="M700.337 2143H673.371V2169.97H700.337V2143Z" fill="url(#paint0_linear)"/>
<path d="M687.141 2160.98C686.882 2160.98 686.626 2161.04 686.388 2161.14C686.149 2161.24 685.933 2161.38 685.751 2161.57C685.569 2161.75 685.424 2161.97 685.326 2162.21C685.228 2162.45 685.179 2162.7 685.18 2162.96V2162.96C685.182 2163.48 685.391 2163.98 685.762 2164.35C686.133 2164.72 686.635 2164.92 687.157 2164.92H687.157C687.68 2164.92 688.18 2164.71 688.547 2164.34C688.915 2163.97 689.121 2163.47 689.119 2162.94C689.116 2162.42 688.907 2161.92 688.536 2161.55C688.165 2161.19 687.663 2160.98 687.141 2160.98V2160.98Z" fill="#F3F7FA"/>
<path d="M687.157 2151.68H687.157C687.68 2151.68 688.18 2151.47 688.547 2151.1C688.915 2150.73 689.121 2150.23 689.119 2149.7V2149.7C689.117 2149.31 689 2148.93 688.782 2148.61C688.564 2148.29 688.256 2148.04 687.895 2147.89C687.535 2147.74 687.139 2147.7 686.757 2147.78C686.375 2147.86 686.025 2148.05 685.751 2148.33C685.476 2148.6 685.29 2148.95 685.216 2149.34C685.142 2149.72 685.182 2150.11 685.333 2150.47C685.483 2150.83 685.737 2151.14 686.062 2151.35C686.386 2151.57 686.768 2151.68 687.157 2151.68V2151.68Z" fill="#F3F7FA"/>
<path d="M695.553 2154.48L678.676 2154.55L678.692 2158.49L695.569 2158.42L695.553 2154.48Z" fill="#F3F7FA"/>
<path d="M651.766 2214H696.418V2170H651.766V2214Z" fill="#D86713"/>
<path d="M682.652 2170H638V2214H682.652V2170Z" fill="#F1A34F"/>
<path d="M673.857 2188.79H663.145V2178.23H656.622V2188.79H645.91V2195.21H656.622V2205.77H663.145V2195.21H673.857V2188.79Z" fill="#F3F7FA"/>
<path d="M682.652 2170L696.42 2176.61V2170H682.652Z" fill="#C95C12"/>
<defs>
<linearGradient id="paint0_linear" x1="74146.1" y1="25203.7" x2="81968" y2="25203.7" gradientUnits="userSpaceOnUse">
<stop stop-color="#FCB448"/>
<stop offset="1" stop-color="#F47554"/>
</linearGradient>
</defs>
</svg>
