<svg width="5760" height="1370" viewBox="0 0 5760 1370" fill="none" xmlns="http://www.w3.org/2000/svg">
<rect width="5760" height="1370" fill="#1F2529"/>
<g style="mix-blend-mode:overlay" opacity="0.1">
<path d="M0 0L3056 1370L2880 0L4573 1370H5760L4730.5 0L0 1370V0Z" fill="#1F2529"/>
</g>
<mask id="mask0" mask-type="alpha" maskUnits="userSpaceOnUse" x="0" y="0" width="5760" height="1370">
<rect width="5760" height="1370" fill="#1F2529"/>
</mask>
<g mask="url(#mask0)">
<path d="M3765.13 1108.37H3666.62V1206.88H3765.13V1108.37Z" fill="#D86713"/>
<path d="M3795.5 1108.37H3697V1206.88H3795.5V1108.37Z" fill="url(#paint0_linear)"/>
<path d="M3747.3 1174.06C3746.36 1174.07 3745.42 1174.26 3744.55 1174.62C3743.68 1174.99 3742.89 1175.52 3742.22 1176.19C3741.56 1176.86 3741.03 1177.66 3740.67 1178.53C3740.31 1179.41 3740.13 1180.34 3740.14 1181.29C3740.14 1183.2 3740.91 1185.02 3742.26 1186.37C3743.62 1187.71 3745.45 1188.46 3747.36 1188.45H3747.36C3749.27 1188.44 3751.1 1187.68 3752.44 1186.32C3753.78 1184.97 3754.53 1183.14 3754.53 1181.23C3754.52 1179.32 3753.75 1177.49 3752.4 1176.15C3751.04 1174.81 3749.21 1174.06 3747.3 1174.06Z" fill="#F3F7FA"/>
<path d="M3747.36 1140.09H3747.36C3749.27 1140.08 3751.1 1139.31 3752.44 1137.96C3753.78 1136.6 3754.53 1134.77 3754.53 1132.86C3754.52 1131.44 3754.09 1130.05 3753.3 1128.87C3752.5 1127.69 3751.37 1126.77 3750.06 1126.23C3748.74 1125.69 3747.29 1125.56 3745.9 1125.84C3744.5 1126.12 3743.22 1126.82 3742.22 1127.83C3741.22 1128.84 3740.54 1130.12 3740.27 1131.52C3740 1132.91 3740.15 1134.36 3740.7 1135.67C3741.25 1136.98 3742.17 1138.1 3743.36 1138.89C3744.55 1139.68 3745.94 1140.09 3747.36 1140.09Z" fill="#F3F7FA"/>
<path d="M3778.03 1150.3L3716.38 1150.56L3716.43 1164.95L3778.09 1164.69L3778.03 1150.3Z" fill="#F3F7FA"/>
<path d="M3618.07 1369.99H3781.18V1206.88H3618.07V1369.99Z" fill="#D86713"/>
<path d="M3730.89 1206.88H3567.78V1369.99H3730.89V1206.88Z" fill="#F1A34F"/>
<path d="M3698.76 1276.52H3659.63V1237.39H3635.8V1276.52H3596.67V1300.35H3635.8V1339.48H3659.63V1300.35H3698.76V1276.52Z" fill="#F3F7FA"/>
<path d="M3730.89 1206.88L3781.18 1231.37V1206.88H3730.89Z" fill="#C95C12"/>
<path d="M3586.71 1273.94C3587.09 1274.36 3587.34 1274.87 3587.43 1275.42C3587.52 1275.97 3587.45 1276.54 3587.23 1277.05C3587.23 1277.06 3587.23 1277.07 3587.22 1277.07C3586.47 1279.14 3583.99 1281.46 3581.11 1283.78C3580.74 1284.07 3580.41 1284.34 3580.13 1284.59C3580.05 1284.66 3579.98 1284.72 3579.91 1284.79C3579.85 1284.84 3579.79 1284.89 3579.74 1284.94C3577.05 1287.42 3578.06 1287.99 3573.24 1293.01C3567.73 1298.74 3563.94 1298.84 3562.86 1298.32C3561.95 1297.88 3563.8 1294.84 3565.86 1291.43C3565.96 1291.26 3566.05 1291.1 3566.16 1290.93C3566.43 1290.48 3566.7 1290.01 3566.97 1289.56C3569.38 1285.45 3568.76 1283.52 3568.19 1277.41C3567.73 1272.44 3560.46 1249.65 3560.46 1249.65L3571.01 1247.83C3571.01 1247.83 3574.19 1265.98 3577.69 1268.77C3579.56 1270.26 3581.65 1270.28 3583.45 1271.39C3583.58 1271.46 3583.7 1271.54 3583.82 1271.62C3584.89 1272.26 3585.86 1273.04 3586.71 1273.94Z" fill="#E49963"/>
<path d="M3586.71 1273.94C3587.09 1274.36 3587.34 1274.87 3587.43 1275.42C3587.52 1275.97 3587.45 1276.54 3587.23 1277.05C3587.23 1277.06 3587.23 1277.07 3587.22 1277.07C3586.3 1279.14 3583.88 1281.45 3581.1 1283.75C3580.74 1284.06 3580.41 1284.33 3580.13 1284.59C3580.05 1284.66 3579.98 1284.72 3579.91 1284.79C3579.85 1284.84 3579.79 1284.89 3579.74 1284.94C3577.05 1287.42 3578.06 1287.99 3573.24 1293.01C3567.73 1298.74 3563.94 1298.84 3562.86 1298.32C3561.95 1297.88 3563.8 1294.84 3565.86 1291.43C3569.71 1289.92 3573.09 1287.43 3575.67 1284.2C3578.98 1279.97 3581.19 1274.53 3583.45 1271.39C3583.58 1271.46 3583.7 1271.54 3583.82 1271.62C3584.89 1272.26 3585.86 1273.04 3586.71 1273.94Z" fill="url(#paint1_linear)"/>
<path d="M3501.66 1267.35C3501.01 1270.61 3496.37 1270.07 3491.18 1268.8C3486 1267.53 3487.23 1269.04 3479.85 1268.22C3472.47 1267.4 3470.23 1264.65 3470.01 1263.56C3469.81 1262.58 3473.45 1262.24 3477.36 1261.79C3477.86 1261.73 3478.35 1261.67 3478.84 1261.61C3483.26 1261.06 3486.49 1258.21 3490.5 1255.87C3494.3 1253.65 3499.97 1244.62 3499.97 1244.62L3510.09 1245.42C3510.09 1245.42 3504.78 1253.49 3502.73 1257C3501.52 1259.06 3501.59 1261.79 3501.74 1263.89C3501.86 1265.04 3501.84 1266.21 3501.66 1267.35Z" fill="#E49963"/>
<path d="M3491.18 1268.8C3486 1267.53 3487.23 1269.04 3479.85 1268.22C3472.47 1267.4 3470.23 1264.65 3470.01 1263.56C3469.81 1262.58 3473.45 1262.24 3477.36 1261.79L3477.4 1261.86C3480.56 1263.89 3484.21 1265.03 3487.97 1265.15C3492.98 1265.27 3498.28 1263.84 3501.74 1263.89C3501.86 1265.04 3501.84 1266.21 3501.66 1267.35C3501.01 1270.61 3496.37 1270.07 3491.18 1268.8Z" fill="url(#paint2_linear)"/>
<path d="M3524.18 1118.71C3524.18 1118.71 3521.76 1112.8 3519.11 1112.56C3516.46 1112.32 3508.02 1110.99 3507.42 1112.2C3506.81 1113.4 3507.42 1117.74 3509.23 1119.31C3511.03 1120.88 3522.25 1123.41 3522.25 1123.41L3524.18 1118.71Z" fill="#E49963"/>
<path d="M3540.44 1202.64L3562.25 1261.34C3564.46 1261.5 3566.68 1261.3 3568.82 1260.74C3571.77 1259.89 3575.16 1257.65 3575.16 1257.65C3575.16 1257.65 3569.75 1201.29 3559.83 1189.56C3549.91 1177.84 3540.44 1202.64 3540.44 1202.64Z" fill="url(#paint3_linear)"/>
<path d="M3626.71 1178.89C3626.71 1178.89 3564.04 1157.7 3550.06 1162.21C3536.08 1166.72 3494.12 1250.22 3494.12 1250.22C3494.12 1250.22 3495.06 1251.48 3497.65 1252.45C3500.05 1253.35 3505.88 1253.29 3505.88 1253.29C3505.88 1253.29 3543.75 1220.83 3548.26 1211.36C3552.77 1201.89 3554.57 1192.87 3559.08 1193.77C3563.59 1194.67 3617.25 1215.87 3629.42 1203.24C3641.59 1190.62 3638.41 1174.21 3638.41 1174.21L3626.71 1178.89Z" fill="url(#paint4_linear)"/>
<path d="M3588.41 1080.31C3587.41 1078.24 3586.29 1074.57 3585.75 1068.03C3585.83 1068.68 3586.96 1076.93 3590.13 1081.6C3603.16 1090.16 3628.15 1118.73 3627.65 1124.15C3627.65 1124.15 3636.45 1109.22 3636.61 1109.13C3636.61 1109.13 3652.84 1088.49 3633.6 1076.66C3623.82 1070.66 3623.87 1062.94 3624.28 1056.24C3624.69 1049.54 3621.61 1020.7 3602.03 1028.25C3602.03 1028.25 3598.88 1026.85 3597.47 1027.06C3597.47 1027.06 3598.62 1027.28 3599.21 1027.89C3596.94 1027.75 3593.69 1027.92 3590.98 1029.46C3583.8 1033.54 3577.38 1070.15 3588.41 1080.31Z" fill="#B5453C"/>
<path d="M3590.9 1082.02C3590.84 1082.05 3597.2 1085.36 3601.98 1084.05C3606.48 1082.82 3609.42 1076.99 3609.36 1076.97C3607.45 1076.6 3606.9 1073.98 3606.94 1062.73L3606.08 1062.9L3591.6 1065.76C3591.6 1065.76 3591.93 1070.32 3591.94 1074.62C3591.95 1078.22 3591.73 1081.64 3590.9 1082.02Z" fill="#E49963"/>
<path d="M3591.6 1065.76C3591.6 1065.76 3591.93 1070.32 3591.94 1074.62C3600.04 1074.39 3604.32 1066.99 3606.08 1062.9L3591.6 1065.76Z" fill="#D68D5D"/>
<path d="M3607.58 1061.32C3607.58 1061.32 3611.82 1054.61 3612.84 1048.87C3613.57 1044.78 3611.48 1029.59 3596.22 1031.78C3593.15 1032.2 3590.21 1033.31 3587.63 1035.03C3584.31 1037.27 3579.53 1042.1 3584.88 1055.35L3586.27 1059.82L3607.58 1061.32Z" fill="#B5453C"/>
<path d="M3588.89 1069.83C3588.89 1069.83 3608.06 1070.15 3608.08 1058.2C3608.09 1046.26 3610.57 1038.26 3598.33 1037.55C3586.09 1036.84 3583.71 1041.4 3582.73 1045.38C3581.76 1049.37 3583.9 1069.44 3588.89 1069.83Z" fill="#E49963"/>
<path d="M3606.99 1039.77C3606.99 1039.77 3593.9 1030.82 3589.76 1037.01C3588.5 1035.93 3586.26 1035.15 3583.3 1038.74C3578.86 1044.13 3582.81 1053.65 3582.81 1053.65C3584.64 1053.87 3585.07 1047.61 3586.02 1044.56C3586.74 1042.27 3589.15 1039.93 3590.29 1038.91C3591.96 1042.69 3596.56 1051.71 3602.91 1053.34C3610.96 1055.41 3614.46 1053.25 3614.46 1053.25C3614.46 1053.25 3608.28 1048.34 3606.99 1039.77Z" fill="#B5453C"/>
<path d="M3641.42 1179.22C3640.38 1182.09 3637.21 1182.83 3632.96 1182.34C3624.85 1181.39 3612.82 1175.95 3604.14 1172.18C3590.91 1166.45 3584.9 1171.84 3580.69 1168.19C3576.48 1164.54 3585.5 1156.43 3577.69 1118.75C3575.03 1105.97 3591.82 1078.56 3591.82 1078.56C3591.82 1078.56 3592.99 1085.99 3609.36 1076.97C3609.44 1076.93 3616.25 1086 3622.34 1097.55C3629.06 1110.29 3635.49 1125.68 3633.6 1133.61C3629.99 1148.73 3644.42 1170.88 3641.42 1179.22Z" fill="url(#paint5_linear)"/>
<path d="M3591.82 1078.56L3581.92 1119.23C3581.92 1119.23 3580.69 1121.42 3578.76 1124.54C3574.22 1131.88 3565.83 1144.34 3560.45 1145.6C3557.8 1146.23 3552.16 1144.02 3545.92 1140.87C3534.12 1134.91 3520.17 1125.57 3520.17 1125.57C3519.27 1120.15 3523.98 1115.74 3523.98 1115.74C3523.98 1115.74 3552.23 1126.36 3555.04 1126.57C3561.16 1127 3567.38 1097.48 3573.1 1087.64C3577.23 1080.52 3591.82 1078.56 3591.82 1078.56Z" fill="url(#paint6_linear)"/>
<path d="M3593.16 1062.59C3593.16 1062.59 3592.8 1064.11 3589.02 1063.87C3589.02 1063.87 3585.85 1063.68 3585.95 1062.01C3585.95 1062.01 3589.02 1060.82 3593.16 1062.59Z" fill="white"/>
<path d="M3641.42 1179.22C3640.38 1182.09 3637.21 1182.83 3632.96 1182.34C3627.35 1179.89 3603.12 1170.5 3603.39 1164.14C3603.79 1154.72 3608.05 1154.42 3605.04 1142.8C3602.63 1133.47 3625.02 1116.11 3628.59 1112.34C3635.31 1125.08 3635.49 1125.68 3633.6 1133.61C3629.99 1148.73 3644.42 1170.88 3641.42 1179.22Z" fill="url(#paint7_linear)"/>
<path d="M3578.76 1124.54C3574.22 1131.88 3565.83 1144.34 3560.45 1145.6C3557.8 1146.23 3552.16 1144.02 3545.92 1140.87C3550.48 1142.04 3554.9 1142.01 3559.2 1141.6C3563.86 1141.15 3565.21 1135.43 3572.58 1126.87C3577.35 1121.31 3578.53 1122.71 3578.76 1124.54Z" fill="url(#paint8_linear)"/>
<path d="M3601.21 1142.57C3601.21 1142.57 3597.15 1139.42 3593.32 1140.17C3589.48 1140.92 3587.6 1143.55 3587.75 1144.75C3587.9 1145.96 3589.93 1149.34 3592.86 1149.64C3595.8 1149.94 3604.14 1147.83 3604.14 1147.83L3601.21 1142.57Z" fill="#E49963"/>
<path d="M3609.35 1076.97C3609.35 1076.97 3624.98 1077.94 3630.39 1085.48C3638.01 1096.1 3656.28 1143.35 3647.63 1149.39C3637.88 1156.19 3600.08 1149.19 3600.08 1149.19C3600.08 1149.19 3598.93 1143.8 3600.53 1141.2C3602.13 1138.59 3628.19 1134.38 3629.39 1133.18C3630.59 1131.98 3614.36 1109.73 3614.36 1106.12C3614.36 1102.52 3609.35 1076.97 3609.35 1076.97Z" fill="url(#paint9_linear)"/>
<path d="M3597.13 1163.8H3539.56L3529.19 1127.62H3586.66L3597.13 1163.8Z" fill="url(#paint10_linear)"/>
<path d="M3615.01 1162.39H3539.76V1163.8H3615.01V1162.39Z" fill="url(#paint11_linear)"/>
<path d="M3557.84 1145.12C3557.48 1143.85 3558.21 1142.82 3559.49 1142.82C3560.16 1142.86 3560.8 1143.1 3561.33 1143.51C3561.86 1143.92 3562.25 1144.48 3562.45 1145.12C3562.81 1146.39 3562.08 1147.43 3560.81 1147.43C3560.14 1147.39 3559.5 1147.15 3558.97 1146.74C3558.44 1146.33 3558.04 1145.76 3557.84 1145.12Z" fill="url(#paint12_linear)"/>
<path d="M1830.33 1137.75H1728.26V1239.82H1830.33V1137.75Z" fill="url(#paint13_linear)"/>
<path d="M1861.79 1137.75H1759.73V1239.82H1861.79V1137.75Z" fill="url(#paint14_linear)"/>
<path d="M1843.72 1181.33H1779.84V1196.24H1843.72V1181.33Z" fill="#F3F7FA"/>
<path d="M1870.06 1239.82H1739.62V1370.26H1870.06V1239.82Z" fill="#D86713"/>
<path d="M1910.29 1239.82H1779.84V1370.26H1910.29V1239.82Z" fill="#F1A34F"/>
<path d="M1882.32 1326.58L1859.83 1304.82L1881.59 1282.33L1867.9 1269.08L1846.14 1291.57L1823.65 1269.81L1810.4 1283.5L1832.89 1305.26L1811.13 1327.75L1824.82 1341L1846.58 1318.51L1869.07 1340.27L1882.32 1326.58Z" fill="#F3F7FA"/>
<path d="M1779.84 1239.82L1739.62 1264.2V1239.82H1779.84Z" fill="#C95C12"/>
<path d="M2127.97 963.729C2127.97 963.729 2091.7 1000.65 2089.96 1014.77C2088.22 1028.9 2107.23 1050.99 2107.23 1050.99L2127.97 963.729Z" fill="#E58638"/>
<path d="M2143.51 1352.2C2143.51 1352.2 2144.28 1364.65 2146.51 1370H2191.86C2191.09 1368.22 2189.31 1365.93 2185.18 1365.21C2178.07 1363.97 2166.19 1358.98 2161.89 1349.6C2157.36 1339.73 2143.51 1352.2 2143.51 1352.2Z" fill="#2E2D57"/>
<path d="M2089.4 1352.2C2089.4 1352.2 2090.17 1364.65 2092.4 1370H2137.75C2136.99 1368.22 2135.2 1365.93 2131.06 1365.21C2123.97 1363.97 2112.08 1358.98 2107.78 1349.6C2103.25 1339.73 2089.4 1352.2 2089.4 1352.2Z" fill="#2E2D57"/>
<path d="M2170.42 1138.22C2170.42 1138.22 2164.06 1178.84 2140.36 1250.96C2116.66 1323.07 2113.43 1354.3 2113.43 1354.3L2088 1353.59C2088 1353.59 2087.78 1274.77 2098.71 1238.51C2109.63 1202.25 2101.07 1107.77 2101.07 1107.77L2170.42 1138.22Z" fill="#2E2D57"/>
<path d="M2182.79 1110C2182.79 1110 2183.69 1171.22 2173.09 1246.38C2162.5 1321.55 2166.09 1353.46 2166.09 1353.46L2140.71 1354.3C2140.71 1354.3 2125.55 1279.11 2129.9 1241.48C2134.24 1203.86 2109.13 1112.38 2109.13 1112.38L2182.79 1110Z" fill="#3D3E74"/>
<path d="M2133.67 966.736L2147.19 975.598L2166.73 971.957C2166.46 970.38 2165.17 963.845 2163.99 957.925C2163.92 957.575 2163.85 957.226 2163.78 956.885C2162.78 951.848 2161.91 947.521 2161.91 947.521L2143.66 939.471L2136.85 936.47C2136.87 936.576 2137.38 942.06 2137.45 942.86C2138.73 957.077 2133.67 966.736 2133.67 966.736Z" fill="url(#paint15_linear)"/>
<path d="M2099.38 1117.56C2103.31 1135.45 2168.62 1137.57 2185.45 1121.33C2187.36 1119.48 2187.46 1110.86 2186.74 1099.25C2185.32 1076.55 2180.79 1042.41 2180.61 1024.97C2180.44 1016.62 2179.5 1008.3 2177.82 1000.11C2175.83 989.997 2173.06 980.049 2169.54 970.357C2169.54 970.357 2137.64 960.047 2131.67 961.8C2102.92 970.247 2095.46 1099.66 2099.38 1117.56Z" fill="url(#paint16_linear)"/>
<path d="M2186.73 1099.25C2185.32 1076.55 2180.79 1042.41 2180.61 1024.97C2180.43 1016.62 2179.5 1008.3 2177.82 1000.11L2158.63 996.727C2158.63 996.727 2139.87 1073.34 2186.73 1099.25Z" fill="#E58638"/>
<path d="M2176.34 1067.61C2176.34 1067.61 2175.04 1070.74 2177.78 1072.84C2180.53 1074.94 2182.31 1078.34 2181.68 1080.82C2181.05 1083.31 2175.03 1087.36 2172.94 1086.71C2170.85 1086.05 2166.6 1082.78 2167.06 1081.47C2167.51 1080.16 2164.2 1069.97 2169.29 1066.04C2174.38 1062.12 2176.34 1067.61 2176.34 1067.61Z" fill="url(#paint17_linear)"/>
<path d="M2154.89 965.765C2154.89 965.765 2173.6 969.266 2188.51 991.234C2203.42 1013.2 2213.24 1029.54 2210.49 1037.45C2207.74 1045.37 2182.7 1072.83 2178.39 1072.83C2174.07 1072.83 2167.1 1069.69 2166.71 1062.63C2166.71 1062.63 2184.34 1036.22 2180.87 1032.26C2179.38 1030.57 2157.98 1013.2 2154.92 1021.05C2149.87 1034.03 2154.89 965.765 2154.89 965.765Z" fill="url(#paint18_linear)"/>
<path d="M2138.82 943.111C2142.83 949.898 2157.76 955.767 2163.99 957.924C2163.92 957.575 2163.85 957.226 2163.78 956.885C2162.78 951.848 2161.91 947.521 2161.91 947.521L2143.66 939.471C2139.62 939.416 2137.17 940.318 2138.82 943.111Z" fill="#FCA56B"/>
<path d="M2168.79 946.411C2168.79 946.411 2139.39 955.579 2133.96 937.189C2128.53 918.799 2121.08 907.598 2139.62 900.967C2158.16 894.336 2163.89 900.272 2167.2 905.97C2170.51 911.667 2176.29 943.553 2168.79 946.411Z" fill="url(#paint19_linear)"/>
<path d="M2166.04 904.198C2166.04 904.198 2164.17 925.598 2159.74 924.669C2155.32 923.74 2151.3 923.051 2151.95 929.502C2152.6 935.953 2158.74 943.401 2145.09 944.542C2131.45 945.684 2111.84 910.51 2115.59 903.85C2126.4 884.634 2181.67 880.756 2166.04 904.198Z" fill="#2E2D57"/>
<path d="M2161.72 962.265C2161.34 962.105 2138.19 955.275 2135.68 956.105C2133.16 956.935 2131.67 961.8 2131.67 961.8L2169.54 970.359C2169.54 970.359 2166.56 964.3 2161.72 962.265Z" fill="#E58638"/>
<path d="M1800.02 1073.62C1800.02 1073.62 1789.73 1061.61 1799.39 1053.99C1799.39 1053.99 1806.44 1049.72 1812.19 1050.06C1812.19 1050.06 1804.04 1063.73 1806.68 1065.09C1809.31 1066.45 1814.66 1049.21 1814.66 1049.21C1814.66 1049.21 1830.71 1047.65 1835.87 1050.13C1835.87 1050.13 1822.15 1061.36 1825.04 1062.03C1827.93 1062.7 1842.75 1051.68 1842.75 1051.68C1842.75 1051.68 1857.69 1054.22 1856.89 1063.33C1856.1 1072.44 1850.95 1075.26 1848.69 1075.02C1846.43 1074.77 1833.19 1069.72 1832.9 1071.58C1832.62 1073.43 1840.58 1079.49 1846.16 1079.77C1846.16 1079.77 1835.63 1091.38 1828.63 1088.03C1821.63 1084.68 1821.03 1079.37 1816.67 1077.37C1812.31 1075.38 1808.58 1075.39 1810.38 1077.42C1812.18 1079.45 1820.08 1081.43 1822.58 1085.84C1825.07 1090.25 1827.31 1093.23 1820.07 1092.14C1812.83 1091.05 1801.05 1085.75 1800.54 1079.69L1800.02 1073.62Z" fill="url(#paint20_linear)"/>
<path d="M1849.55 1063.58C1849.55 1063.58 1808.98 1062.01 1800.02 1073.62C1800.02 1073.62 1798.04 1079.55 1791.94 1084.96L1790.99 1087.55C1790.99 1087.55 1798.02 1080.13 1800.54 1079.68C1800.54 1079.68 1796.6 1065.31 1849.55 1063.58Z" fill="url(#paint21_linear)"/>
<path d="M1791.94 1084.96C1791.94 1084.96 1783.23 1091.4 1782.63 1102.9L1784.21 1103.05C1784.21 1103.05 1786.99 1091.15 1792.02 1086.49C1797.05 1081.84 1791.94 1084.96 1791.94 1084.96Z" fill="url(#paint22_linear)"/>
<path d="M1764.04 1058.52C1764.04 1058.52 1780.41 1049.35 1772.77 1036.91C1772.77 1036.91 1766.66 1029.27 1760.11 1027.31C1760.11 1027.31 1763.61 1045.86 1760.11 1046.3C1756.62 1046.73 1757.71 1025.34 1757.71 1025.34C1757.71 1025.34 1740.47 1017.05 1733.71 1017.71C1733.71 1017.71 1744.4 1035.82 1740.91 1035.38C1737.42 1034.95 1725.41 1016.61 1725.41 1016.61C1725.41 1016.61 1707.73 1013.34 1704.9 1023.82C1702.06 1034.29 1706.64 1039.53 1709.26 1040.19C1711.88 1040.84 1728.68 1040.62 1728.25 1042.8C1727.81 1044.99 1716.46 1048.48 1710.13 1046.51C1710.13 1046.51 1717.12 1063.76 1726.28 1062.88C1735.45 1062.01 1738.29 1056.34 1743.96 1055.9C1749.64 1055.46 1753.78 1056.99 1750.95 1058.52C1748.11 1060.05 1738.51 1059.02 1733.92 1062.92C1729.34 1066.81 1725.63 1069.21 1734.14 1070.96C1742.65 1072.71 1757.93 1071.61 1760.99 1065.07L1764.04 1058.52Z" fill="#A980F8"/>
<path d="M1712.97 1027.09C1712.97 1027.09 1758.8 1041.93 1764.04 1058.52C1764.04 1058.52 1763.82 1065.94 1768.41 1074.45V1077.73C1768.41 1077.73 1763.6 1066.59 1760.99 1065.07C1760.99 1065.07 1771.24 1050.66 1712.97 1027.09Z" fill="url(#paint23_linear)"/>
<path d="M1768.4 1074.45C1768.4 1074.45 1775.47 1085.19 1771.44 1098.25L1769.62 1097.76C1769.62 1097.76 1771.39 1083.37 1767.69 1076.13C1763.99 1068.9 1768.4 1074.45 1768.4 1074.45Z" fill="url(#paint24_linear)"/>
<path d="M1790.08 1045.88C1790.08 1045.88 1768.51 1033.79 1778.58 1017.39C1778.58 1017.39 1786.63 1007.32 1795.26 1004.74C1795.26 1004.74 1790.66 1029.19 1795.26 1029.77C1799.87 1030.34 1798.43 1002.15 1798.43 1002.15C1798.43 1002.15 1821.16 991.214 1830.07 992.077C1830.07 992.077 1815.98 1015.96 1820.58 1015.38C1825.18 1014.81 1841.01 990.638 1841.01 990.638C1841.01 990.638 1864.31 986.323 1868.05 1000.13C1871.79 1013.94 1865.75 1020.85 1862.3 1021.71C1858.84 1022.57 1836.69 1022.29 1837.27 1025.16C1837.84 1028.04 1852.8 1032.64 1861.15 1030.05C1861.15 1030.05 1851.94 1052.78 1839.86 1051.63C1827.77 1050.48 1824.03 1043 1816.55 1042.42C1809.07 1041.85 1803.61 1043.86 1807.35 1045.88C1811.09 1047.89 1823.74 1046.54 1829.79 1051.67C1835.83 1056.81 1840.72 1059.97 1829.5 1062.28C1818.28 1064.58 1798.14 1063.14 1794.11 1054.51L1790.08 1045.88Z" fill="#A980F8"/>
<path d="M1857.41 1004.45C1857.41 1004.45 1796.99 1024.01 1790.09 1045.88C1790.09 1045.88 1790.37 1055.66 1784.33 1066.88V1071.2C1784.33 1071.2 1790.66 1056.52 1794.11 1054.51C1794.11 1054.51 1780.59 1035.52 1857.41 1004.45Z" fill="url(#paint25_linear)"/>
<path d="M1784.33 1066.88C1784.33 1066.88 1775.01 1081.03 1780.32 1098.25L1782.72 1097.61C1782.72 1097.61 1780.39 1078.64 1785.27 1069.1C1790.14 1059.55 1784.33 1066.88 1784.33 1066.88Z" fill="url(#paint26_linear)"/>
<path d="M1789.36 1135.6C1800.57 1135.6 1811.32 1131.15 1819.24 1123.22C1827.17 1115.29 1831.62 1104.54 1831.62 1093.33H1747.09C1747.09 1104.54 1751.54 1115.29 1759.47 1123.22C1767.4 1131.15 1778.15 1135.6 1789.36 1135.6Z" fill="#F1A34F"/>
<path d="M1799.76 1135.28C1793.81 1136.02 1787.78 1135.48 1782.05 1133.72C1776.32 1131.95 1771.04 1128.98 1766.55 1125.01C1762.05 1121.05 1758.46 1116.17 1755.99 1110.71C1753.52 1105.25 1752.25 1099.33 1752.24 1093.33H1762.74C1762.74 1103.63 1766.5 1113.58 1773.32 1121.3C1780.14 1129.03 1789.54 1134 1799.76 1135.28Z" fill="#FFB973"/>
<path d="M1826.99 1132.54H1751.72C1750.34 1132.54 1749.01 1133.09 1748.04 1134.06C1747.06 1135.04 1746.51 1136.37 1746.51 1137.75H1832.21C1832.21 1136.37 1831.66 1135.04 1830.68 1134.06C1829.7 1133.09 1828.38 1132.54 1826.99 1132.54Z" fill="#F1A34F"/>
<path d="M1832.59 1093.33H1745.7V1094.63H1832.59V1093.33Z" fill="#D86713"/>
<g style="mix-blend-mode:overlay" opacity="0.1">
<path d="M3565 155.62V138.049H3550.93L3552.91 122H3534.31L3532.33 138.049H3520.83L3522.8 122H3504.2L3502.23 138.049H3485.95V155.62H3500.02L3498.27 170.38H3482V187.951H3496.07L3494.09 204H3512.69L3514.67 187.951H3526.17L3524.2 204H3542.8L3544.77 187.951H3561.05V170.38H3546.98L3548.73 155.62H3565ZM3528.38 170.38H3516.87L3518.62 155.62H3530.13L3528.38 170.38Z" fill="white"/>
</g>
<g style="mix-blend-mode:overlay" opacity="0.2">
<path d="M4435 431.7V395.271H4405.68L4409.8 362H4371.03L4366.91 395.271H4342.93L4347.05 362H4308.28L4304.16 395.271H4270.24V431.7H4299.56L4295.92 462.3H4262V498.729H4291.32L4287.2 532H4325.97L4330.09 498.729H4354.07L4349.95 532H4388.72L4392.84 498.729H4426.76V462.3H4397.44L4401.08 431.7H4435ZM4358.68 462.3H4334.69L4338.32 431.7H4362.31L4358.68 462.3Z" fill="white"/>
</g>
<g style="mix-blend-mode:overlay" opacity="0.2">
<path d="M1513 259.204H1469.97V301H1423.03V259.204H1380V214.796H1423.03V173H1469.97V214.796H1513V259.204Z" fill="white"/>
</g>
<g style="mix-blend-mode:overlay" opacity="0.1">
<path d="M2094 492.245H2065.53V520H2034.47V492.245H2006V462.755H2034.47V435H2065.53V462.755H2094V492.245Z" fill="white"/>
</g>
</g>
<defs>
<linearGradient id="paint0_linear" x1="272091" y1="85348.3" x2="300664" y2="85348.3" gradientUnits="userSpaceOnUse">
<stop stop-color="#FCB448"/>
<stop offset="1" stop-color="#F47554"/>
</linearGradient>
<linearGradient id="paint1_linear" x1="3562.62" y1="1284.95" x2="3587.46" y2="1284.95" gradientUnits="userSpaceOnUse">
<stop stop-color="#7560E1"/>
<stop offset="1" stop-color="#5957D4"/>
</linearGradient>
<linearGradient id="paint2_linear" x1="68891.9" y1="10653.1" x2="71872.4" y2="10653.1" gradientUnits="userSpaceOnUse">
<stop stop-color="#7560E1"/>
<stop offset="1" stop-color="#5957D4"/>
</linearGradient>
<linearGradient id="paint3_linear" x1="82131.5" y1="79939.6" x2="85681" y2="79939.6" gradientUnits="userSpaceOnUse">
<stop stop-color="#7560E1"/>
<stop offset="1" stop-color="#5957D4"/>
</linearGradient>
<linearGradient id="paint4_linear" x1="3494.12" y1="1207.44" x2="3638.79" y2="1207.44" gradientUnits="userSpaceOnUse">
<stop stop-color="#A980F8"/>
<stop offset="1" stop-color="#8673E9"/>
</linearGradient>
<linearGradient id="paint5_linear" x1="3577.4" y1="1129.73" x2="3641.83" y2="1129.73" gradientUnits="userSpaceOnUse">
<stop stop-color="#8A3A77"/>
<stop offset="1" stop-color="#59275A"/>
</linearGradient>
<linearGradient id="paint6_linear" x1="161669" y1="49507.2" x2="176836" y2="49507.2" gradientUnits="userSpaceOnUse">
<stop stop-color="#8A3A77"/>
<stop offset="1" stop-color="#59275A"/>
</linearGradient>
<linearGradient id="paint7_linear" x1="3603.39" y1="1147.41" x2="3641.83" y2="1147.41" gradientUnits="userSpaceOnUse">
<stop stop-color="#782D65"/>
<stop offset="1" stop-color="#4E204E"/>
</linearGradient>
<linearGradient id="paint8_linear" x1="78411.6" y1="19045.8" x2="81587.1" y2="19045.8" gradientUnits="userSpaceOnUse">
<stop stop-color="#782D65"/>
<stop offset="1" stop-color="#4E204E"/>
</linearGradient>
<linearGradient id="paint9_linear" x1="126053" y1="56007.1" x2="133481" y2="56007.1" gradientUnits="userSpaceOnUse">
<stop stop-color="#8A3A77"/>
<stop offset="1" stop-color="#59275A"/>
</linearGradient>
<linearGradient id="paint10_linear" x1="155069" y1="30804.1" x2="168660" y2="30804.1" gradientUnits="userSpaceOnUse">
<stop stop-color="#FCB448"/>
<stop offset="1" stop-color="#F47554"/>
</linearGradient>
<linearGradient id="paint11_linear" x1="173735" y1="2390.76" x2="190410" y2="2390.76" gradientUnits="userSpaceOnUse">
<stop stop-color="#FCB448"/>
<stop offset="1" stop-color="#F47554"/>
</linearGradient>
<linearGradient id="paint12_linear" x1="14652.4" y1="4912.55" x2="14720" y2="4912.55" gradientUnits="userSpaceOnUse">
<stop stop-color="#782D65"/>
<stop offset="1" stop-color="#4E204E"/>
</linearGradient>
<linearGradient id="paint13_linear" x1="1728.26" y1="1188.78" x2="1830.33" y2="1188.78" gradientUnits="userSpaceOnUse">
<stop stop-color="#FA8B3A"/>
<stop offset="1" stop-color="#F15C46"/>
</linearGradient>
<linearGradient id="paint14_linear" x1="24800.9" y1="106788" x2="50110.1" y2="106788" gradientUnits="userSpaceOnUse">
<stop stop-color="#FCB448"/>
<stop offset="1" stop-color="#F47554"/>
</linearGradient>
<linearGradient id="paint15_linear" x1="2166.73" y1="956.034" x2="2133.67" y2="956.034" gradientUnits="userSpaceOnUse">
<stop stop-color="#FFBF44"/>
<stop offset="1" stop-color="#FAAA49"/>
</linearGradient>
<linearGradient id="paint16_linear" x1="-154200" y1="140546" x2="-170241" y2="140546" gradientUnits="userSpaceOnUse">
<stop stop-color="#FCB448"/>
<stop offset="1" stop-color="#F47554"/>
</linearGradient>
<linearGradient id="paint17_linear" x1="-25116.3" y1="20464.1" x2="-25599.1" y2="20464.1" gradientUnits="userSpaceOnUse">
<stop stop-color="#FFBF44"/>
<stop offset="1" stop-color="#FAAA49"/>
</linearGradient>
<linearGradient id="paint18_linear" x1="-97672.9" y1="82459" x2="-104592" y2="82459" gradientUnits="userSpaceOnUse">
<stop stop-color="#FCB448"/>
<stop offset="1" stop-color="#F47554"/>
</linearGradient>
<linearGradient id="paint19_linear" x1="-77890.2" y1="29552" x2="-81955.4" y2="29552" gradientUnits="userSpaceOnUse">
<stop stop-color="#FFBF44"/>
<stop offset="1" stop-color="#FAAA49"/>
</linearGradient>
<linearGradient id="paint20_linear" x1="21039.5" y1="33686.6" x2="30279.3" y2="33686.6" gradientUnits="userSpaceOnUse">
<stop stop-color="#FA8B3A"/>
<stop offset="1" stop-color="#F15C46"/>
</linearGradient>
<linearGradient id="paint21_linear" x1="19458.8" y1="19332.2" x2="27790.8" y2="19332.2" gradientUnits="userSpaceOnUse">
<stop stop-color="#FA8B3A"/>
<stop offset="1" stop-color="#F15C46"/>
</linearGradient>
<linearGradient id="paint22_linear" x1="5047.69" y1="16441.2" x2="5374.82" y2="16441.2" gradientUnits="userSpaceOnUse">
<stop stop-color="#FA8B3A"/>
<stop offset="1" stop-color="#F15C46"/>
</linearGradient>
<linearGradient id="paint23_linear" x1="7930.02" y1="36663.5" x2="15396.3" y2="36663.5" gradientUnits="userSpaceOnUse">
<stop stop-color="#FA8B3A"/>
<stop offset="1" stop-color="#F15C46"/>
</linearGradient>
<linearGradient id="paint24_linear" x1="3328.82" y1="21322.8" x2="3430.52" y2="21322.8" gradientUnits="userSpaceOnUse">
<stop stop-color="#FA8B3A"/>
<stop offset="1" stop-color="#F15C46"/>
</linearGradient>
<linearGradient id="paint25_linear" x1="22648.2" y1="45614.6" x2="35621.6" y2="45614.6" gradientUnits="userSpaceOnUse">
<stop stop-color="#FA8B3A"/>
<stop offset="1" stop-color="#F15C46"/>
</linearGradient>
<linearGradient id="paint26_linear" x1="4096.87" y1="27417.8" x2="4273.59" y2="27417.8" gradientUnits="userSpaceOnUse">
<stop stop-color="#FA8B3A"/>
<stop offset="1" stop-color="#F15C46"/>
</linearGradient>
</defs>
</svg>
