<svg width="5760" height="1958" viewBox="0 0 5760 1958" fill="none" xmlns="http://www.w3.org/2000/svg">
<rect width="5760" height="1958" fill="#F9F7F7"/>
<g opacity="0.05">
<path d="M5760 1110.73V1228.88L0 1520V1291.26L5760 1110.73Z" fill="#001E20"/>
<path d="M5760 686.342V996.366L0 1221.32V675L5760 686.342Z" fill="#001E20"/>
</g>
<g style="mix-blend-mode:screen" opacity="0.3">
<path d="M3678.3 1025.87L3715.09 1002.07L3678.3 1000.2L3673.64 1004.4L3670.38 1017L3678.3 1025.87C3677.83 1025.87 3677.83 1025.87 3678.3 1025.87Z" fill="white"/>
<path d="M3677.36 1030.07L3675.5 1028.2L3666.65 1017.93L3667.12 1016.07L3670.38 1002.53L3676.43 996.93L3716.95 998.797L3718.35 1003.46L3716.02 1004.86L3677.36 1030.07ZM3674.1 1016.07L3678.76 1021.2L3704.38 1004.4L3679.23 1003.46L3676.43 1005.8L3674.1 1016.07Z" fill="white"/>
<path d="M3739.76 817.704L3625.2 751.429C3618.68 747.695 3612.62 747.229 3608.43 749.562L3571.18 772.898C3571.18 772.898 3570.71 773.365 3571.18 773.365C3573.04 776.632 3588.41 809.303 3589.8 815.37C3590.27 817.704 3595.39 842.907 3600.98 871.843V886.312C3600.98 894.246 3603.78 903.581 3608.9 911.515C3614.95 941.852 3619.61 967.522 3620.08 968.455L3672.7 986.191H3676.43C3676.43 986.191 3676.89 985.724 3676.43 985.724L3673.63 977.323C3672.7 973.589 3672.24 968.922 3672.24 964.721L3721.6 1019.79H3722.07L3758.39 997.392C3758.39 997.392 3758.86 997.392 3758.86 996.925C3763.05 994.125 3765.84 988.991 3765.84 981.057V861.109C3764.91 845.24 3753.74 825.638 3739.76 817.704Z" fill="#001E20"/>
<path d="M3721.13 1023.53C3720.2 1023.53 3719.27 1023.06 3718.34 1022.13L3675.96 974.993C3675.96 975.459 3675.96 976.393 3676.43 976.859L3679.22 984.794C3679.69 986.661 3679.22 988.527 3677.36 989.461L3676.43 989.928H3671.3L3616.35 971.259L3615.88 969.392L3605.17 912.918C3600.05 904.051 3597.25 894.716 3597.25 886.315V872.313C3590.73 838.243 3586.54 818.174 3586.08 816.307C3585.15 812.573 3576.3 792.504 3567.91 774.768C3566.98 772.902 3567.91 771.035 3569.31 770.101L3606.57 746.765C3612.62 743.965 3619.61 744.431 3627.06 748.632L3741.63 814.907C3756.53 823.308 3768.17 844.31 3768.17 861.112V981.527C3768.17 989.928 3765.38 996.928 3759.79 1000.2L3723 1023.06C3722.53 1023.06 3722.07 1023.53 3721.13 1023.53ZM3667.58 955.39L3721.6 1015.6L3755.6 994.595L3757.93 997.395L3756.06 994.595C3759.32 992.261 3761.19 988.061 3761.19 981.527V861.112C3761.19 846.644 3750.47 827.975 3737.9 820.507L3623.33 754.233C3618.21 750.966 3613.09 750.499 3609.83 752.366L3574.9 773.835C3580.02 784.57 3591.2 808.839 3592.6 813.973C3593.06 816.773 3599.12 846.177 3603.77 870.447V871.38V885.848C3603.77 892.849 3606.57 901.717 3610.76 909.185L3611.23 910.585L3621.94 965.658L3670.84 981.993L3669.44 977.793C3668.51 973.126 3668.04 968.925 3667.58 964.725V955.39Z" fill="white"/>
<path d="M3739.77 817.706L3631.26 754.698L3577.23 788.769L3693.66 850.376L3717.88 854.11L3755.14 832.174C3750.48 826.107 3745.36 820.973 3739.77 817.706Z" fill="white"/>
<path d="M3718.34 857.845L3691.8 853.645L3570.25 789.237L3630.79 750.966L3741.16 814.907C3746.75 818.174 3752.34 823.775 3757 830.309L3758.86 833.109L3718.34 857.845ZM3694.59 847.111L3716.95 850.845L3750.01 831.242C3746.29 826.575 3742.56 823.308 3738.37 820.974L3631.25 758.9L3583.75 788.77L3694.59 847.111Z" fill="white"/>
<path d="M3763.87 861.519L3726.74 883.867L3730.35 889.862L3767.48 867.514L3763.87 861.519Z" fill="white"/>
<path d="M3762.43 948.017L3725.3 970.365L3728.91 976.36L3766.04 954.012L3762.43 948.017Z" fill="white"/>
<path d="M3588.4 774.301L3702.97 840.575C3716.47 848.509 3727.65 867.645 3727.65 883.514V1003.93C3727.65 1019.8 3716.47 1026.33 3702.97 1018.4L3689.93 1010.93C3687.6 1009.53 3685.74 1010.46 3685.27 1012.8C3683.87 1019.8 3678.75 1033.33 3660.12 1025.4C3656.4 1024 3653.6 1018.4 3654.53 1014.66C3655.93 1010.46 3657.33 1004.39 3657.33 997.394C3657.33 994.127 3655 990.393 3652.2 988.993L3588.4 952.122C3574.9 944.188 3563.72 925.052 3563.72 909.183V788.769C3563.72 772.9 3574.9 766.366 3588.4 774.301Z" fill="#001E20"/>
<path d="M3670.37 1031C3667.11 1031 3662.92 1030.07 3658.73 1028.2C3653.61 1025.87 3649.88 1018.4 3651.28 1013.26C3652.21 1009.53 3653.61 1003.93 3653.61 996.929C3653.61 995.062 3652.21 992.261 3650.35 991.328L3586.55 954.457C3571.64 946.056 3560 925.52 3560 908.718V788.77C3560 779.903 3563.26 772.902 3568.85 769.635C3574.44 766.368 3581.89 766.834 3589.81 771.502L3704.37 837.776C3719.27 846.177 3730.92 866.713 3730.92 883.515V1003.93C3730.92 1012.8 3727.66 1019.8 3722.07 1023.07C3716.48 1026.33 3709.03 1025.87 3701.11 1021.2L3688.07 1013.73C3687.14 1018.86 3684.35 1025.4 3678.29 1029.13C3676.43 1030.53 3673.63 1031 3670.37 1031ZM3577.7 774.302C3575.83 774.302 3574.44 774.769 3573.04 775.702C3569.31 777.569 3567.45 782.236 3567.45 788.77V909.185C3567.45 924.12 3577.7 941.855 3590.74 949.323L3654.54 986.194C3658.27 988.528 3661.06 993.195 3661.06 997.862C3661.06 1005.33 3659.66 1011.86 3658.27 1016.06C3657.8 1017.93 3659.66 1021.67 3661.99 1022.6C3668.05 1024.93 3672.7 1025.4 3675.96 1023.53C3680.15 1021.2 3682.02 1015.6 3682.48 1012.33C3682.95 1010 3684.35 1008.6 3685.74 1007.66C3687.61 1006.73 3689.93 1007.2 3692.26 1008.13L3705.3 1015.6C3710.89 1018.86 3716.01 1019.33 3719.27 1017.46C3723 1015.6 3724.86 1010.93 3724.86 1004.4V883.515C3724.86 868.58 3714.62 850.845 3701.58 843.377L3587.01 777.102C3583.75 775.235 3580.49 774.302 3577.7 774.302Z" fill="white"/>
<path d="M3764.91 968.457L3728.12 990.86V1007.2L3725.79 1017L3757.92 997.394L3764.44 988.993L3765.37 980.125L3764.91 968.457Z" fill="white"/>
</g>
<path opacity="0.05" d="M2065 385.043H2029.18V420H2002.62V385.043H1967V359.957H2002.62V325H2029.18V359.957H2065V385.043Z" fill="#001E20"/>
<g style="mix-blend-mode:screen" opacity="0.65">
<path d="M2209 812.649H2194.38V827H2183.54V812.649H2169V802.351H2183.54V788H2194.38V802.351H2209V812.649Z" fill="white"/>
</g>
<g style="mix-blend-mode:overlay" opacity="0.2">
<path d="M1420.46 959.854H1468.45V1000.03H1415.67L1408.28 1059H1366.57L1373.96 1000.03H1319.7L1312.31 1059H1270.97L1278.35 1000.03H1230V959.854H1283.15L1290.9 900.146H1242.55V859.971H1295.7L1303.09 801H1344.43L1337.04 859.971H1391.3L1398.69 801H1440.03L1432.65 859.971H1480.63L1481 900.146H1427.85L1420.46 959.854ZM1378.75 959.854L1386.51 900.146H1332.25L1324.49 959.854H1378.75Z" fill="black"/>
</g>
<path opacity="0.03" d="M4799.83 468.801H4866.55V520.343H4793.16L4782.89 596H4724.9L4735.16 520.343H4659.72L4649.45 596H4591.97L4602.23 520.343H4535V468.801H4608.91L4619.68 392.199H4552.45V340.657H4626.36L4636.62 265H4694.1L4683.84 340.657H4759.28L4769.55 265H4827.03L4816.77 340.657H4883.49L4884 392.199H4810.09L4799.83 468.801ZM4741.83 468.801L4752.61 392.199H4677.17L4666.39 468.801H4741.83Z" fill="black"/>
</svg>
