<svg width="944" height="375" viewBox="0 0 944 375" fill="none" xmlns="http://www.w3.org/2000/svg">
<rect width="944" height="182" fill="#1F2529"/>
<g style="mix-blend-mode:screen" opacity="0.1">
<path d="M838.094 24C829.308 24 820.608 25.7329 812.491 29.0998C804.373 32.4668 796.998 37.4017 790.785 43.623C778.238 56.1874 771.189 73.2283 771.189 90.997C771.13 106.468 776.479 121.471 786.309 133.406L772.928 146.806C772 147.748 771.371 148.944 771.121 150.244C770.871 151.543 771.011 152.888 771.523 154.108C772.079 155.314 772.98 156.327 774.111 157.019C775.243 157.71 776.554 158.05 777.879 157.994H838.094C855.839 157.994 872.857 150.935 885.404 138.371C897.951 125.807 905 108.766 905 90.997C905 73.2283 897.951 56.1874 885.404 43.623C872.857 31.0586 855.839 24 838.094 24ZM838.094 144.595H794.003L800.226 138.364C801.472 137.109 802.171 135.411 802.171 133.641C802.171 131.871 801.472 130.173 800.226 128.917C791.465 120.154 786.009 108.621 784.788 96.2817C783.568 83.9426 786.657 71.5612 793.53 61.2472C800.403 50.9331 810.635 43.3243 822.482 39.7173C834.329 36.1103 847.059 36.7281 858.502 41.4655C869.945 46.203 879.394 54.7669 885.239 65.6982C891.084 76.6296 892.963 89.2521 890.556 101.415C888.149 113.578 881.605 124.529 872.039 132.403C862.473 140.276 850.477 144.585 838.094 144.595Z" fill="#3267B4"/>
</g>
<g style="mix-blend-mode:screen" opacity="0.1">
<circle cx="739" cy="58" r="13" fill="#3267B4"/>
</g>
<g style="mix-blend-mode:screen" opacity="0.1">
<circle cx="695" cy="58" r="13" fill="#3267B4"/>
</g>
<g style="mix-blend-mode:screen" opacity="0.1">
<circle cx="651" cy="58" r="13" fill="#3267B4"/>
</g>
<rect y="173" width="944" height="202" fill="#1F2529"/>
</svg>
