<svg width="68" height="68" viewBox="0 0 68 68" fill="none" xmlns="http://www.w3.org/2000/svg">
<path d="M21.2504 4.25H26.9687L27.7376 5.7877C27.8258 5.96418 27.9615 6.11259 28.1293 6.21632C28.2971 6.32005 28.4906 6.37499 28.6879 6.375H39.3129C39.5102 6.37499 39.7036 6.32005 39.8714 6.21632C40.0393 6.11259 40.1749 5.96418 40.2631 5.7877L41.032 4.25H46.7504C47.4572 4.24939 48.1441 4.48387 48.703 4.91652C49.2618 5.34918 49.661 5.95543 49.8375 6.63983L51.8953 6.11017C51.6014 4.96925 50.9363 3.95847 50.0049 3.237C49.0735 2.51552 47.9285 2.12433 46.7504 2.125H21.2504C20.0722 2.12433 18.9273 2.51552 17.9958 3.237C17.0644 3.95847 16.3994 4.96925 16.1055 6.11017L18.1633 6.63983C18.3398 5.95543 18.7389 5.34918 19.2978 4.91652C19.8567 4.48387 20.5436 4.24939 21.2504 4.25Z" fill="white"/>
<path d="M21.25 40.375C21.5318 40.375 21.802 40.2631 22.0013 40.0638C22.2006 39.8645 22.3125 39.5943 22.3125 39.3125V34H28.6875C30.096 33.9984 31.4463 33.4382 32.4423 32.4423C33.4382 31.4463 33.9984 30.096 34 28.6875V13.8125C33.9984 12.404 33.4382 11.0537 32.4423 10.0577C31.4463 9.0618 30.096 8.50158 28.6875 8.5H7.4375C6.02902 8.50158 4.67869 9.0618 3.68274 10.0577C2.6868 11.0537 2.12658 12.404 2.125 13.8125V28.6875C2.12658 30.096 2.6868 31.4463 3.68274 32.4423C4.67869 33.4382 6.02902 33.9984 7.4375 34H12.3958L20.6125 40.1625C20.7964 40.3005 21.0201 40.3751 21.25 40.375ZM20.1875 32.9375V37.1875L13.3875 32.0875C13.2036 31.9496 12.9799 31.8751 12.75 31.875H7.4375C6.59242 31.874 5.78224 31.5379 5.18468 30.9403C4.58713 30.3428 4.25098 29.5326 4.25 28.6875V13.8125C4.25098 12.9674 4.58713 12.1572 5.18468 11.5597C5.78224 10.9621 6.59242 10.626 7.4375 10.625H28.6875C29.5326 10.626 30.3428 10.9621 30.9403 11.5597C31.5379 12.1572 31.874 12.9674 31.875 13.8125V28.6875C31.874 29.5326 31.5379 30.3428 30.9403 30.9403C30.3428 31.5379 29.5326 31.874 28.6875 31.875H21.25C20.9682 31.875 20.698 31.9869 20.4987 32.1862C20.2994 32.3855 20.1875 32.6557 20.1875 32.9375Z" fill="white"/>
<path d="M60.5625 8.5H44.625C43.2165 8.50158 41.8662 9.0618 40.8702 10.0577C39.8743 11.0537 39.3141 12.404 39.3125 13.8125V26.5625C39.3141 27.971 39.8743 29.3213 40.8702 30.3173C41.8662 31.3132 43.2165 31.8734 44.625 31.875H46.75V36.125C46.75 36.3202 46.8038 36.5117 46.9054 36.6783C47.0071 36.845 47.1527 36.9804 47.3263 37.0698C47.4999 37.1591 47.6947 37.1989 47.8895 37.1847C48.0842 37.1706 48.2712 37.1031 48.4301 36.9896L55.5904 31.875H60.5625C61.971 31.8734 63.3213 31.3132 64.3173 30.3173C65.3132 29.3213 65.8734 27.971 65.875 26.5625V13.8125C65.8734 12.404 65.3132 11.0537 64.3173 10.0577C63.3213 9.0618 61.971 8.50158 60.5625 8.5ZM63.75 26.5625C63.749 27.4076 63.4129 28.2178 62.8153 28.8153C62.2178 29.4129 61.4076 29.749 60.5625 29.75H55.25C55.0285 29.75 54.8126 29.8192 54.6324 29.9479L48.875 34.0603V30.8125C48.875 30.5307 48.7631 30.2605 48.5638 30.0612C48.3645 29.8619 48.0943 29.75 47.8125 29.75H44.625C43.7799 29.749 42.9697 29.4129 42.3722 28.8153C41.7746 28.2178 41.4385 27.4076 41.4375 26.5625V13.8125C41.4385 12.9674 41.7746 12.1572 42.3722 11.5597C42.9697 10.9621 43.7799 10.626 44.625 10.625H60.5625C61.4076 10.626 62.2178 10.9621 62.8153 11.5597C63.4129 12.1572 63.749 12.9674 63.75 13.8125V26.5625Z" fill="white"/>
<path d="M58.4375 17H55.25V15.9375C55.249 15.0924 54.9129 14.2822 54.3153 13.6847C53.7178 13.0871 52.9076 12.751 52.0625 12.75H49.9375C49.6557 12.75 49.3855 12.8619 49.1862 13.0612C48.9869 13.2605 48.875 13.5307 48.875 13.8125V17H44.625C44.3432 17 44.073 17.1119 43.8737 17.3112C43.6744 17.5105 43.5625 17.7807 43.5625 18.0625V26.5625C43.5625 26.8443 43.6744 27.1145 43.8737 27.3138C44.073 27.5131 44.3432 27.625 44.625 27.625H58.4375C59.2826 27.624 60.0928 27.2879 60.6903 26.6903C61.2879 26.0928 61.624 25.2826 61.625 24.4375V20.1875C61.624 19.3424 61.2879 18.5322 60.6903 17.9347C60.0928 17.3371 59.2826 17.001 58.4375 17ZM45.6875 19.125H48.875V25.5H45.6875V19.125ZM59.5 24.4375C59.4997 24.7192 59.3876 24.9893 59.1885 25.1885C58.9893 25.3876 58.7192 25.4997 58.4375 25.5H51V14.875H52.0625C52.3442 14.8753 52.6143 14.9874 52.8135 15.1865C53.0126 15.3857 53.1247 15.6558 53.125 15.9375V18.0625C53.125 18.3443 53.2369 18.6145 53.4362 18.8138C53.6355 19.0131 53.9057 19.125 54.1875 19.125H58.4375C58.7192 19.1253 58.9893 19.2374 59.1885 19.4365C59.3876 19.6357 59.4997 19.9058 59.5 20.1875V24.4375Z" fill="white"/>
<path d="M36.9469 38.5972L35.3281 40.188L36.8176 41.7036L38.4364 40.1128L36.9469 38.5972Z" fill="white"/>
<path d="M33.7101 41.779L30.4727 44.9604L31.9621 46.4761L35.1995 43.2947L33.7101 41.779Z" fill="white"/>
<path d="M51.8297 36.5234C51.6921 36.3515 51.5045 36.2265 51.2929 36.1658C51.0812 36.1051 50.8559 36.1117 50.6482 36.1846C50.4404 36.2575 50.2604 36.3932 50.1331 36.5728C50.0058 36.7525 49.9374 36.9673 49.9375 37.1875V45.2475L46.4765 41.7864C45.801 41.1074 44.9372 40.6467 43.9969 40.4641L39.9594 31.372C39.8898 31.2151 39.7831 31.0774 39.6486 30.9707C39.5141 30.8641 39.3557 30.7916 39.187 30.7595C39.0184 30.7274 38.8445 30.7366 38.6802 30.7864C38.5159 30.8362 38.3661 30.9251 38.2436 31.0454L25.5939 43.4767L21.4852 43.5625C21.3108 43.5661 21.14 43.6127 20.9878 43.6981C20.8357 43.7834 20.7069 43.9049 20.6128 44.0518C20.5188 44.1987 20.4623 44.3665 20.4485 44.5404C20.4346 44.7143 20.4638 44.889 20.5335 45.0489L24.4143 53.9606C24.4831 54.1186 24.5893 54.2576 24.7237 54.3654C24.8582 54.4732 25.0168 54.5467 25.186 54.5795C25.3552 54.6124 25.5298 54.6036 25.6949 54.5539C25.8599 54.5042 26.0103 54.4151 26.1333 54.2942L29.0859 51.393L41.7054 50.6452L44.3737 53.3136C43.5636 54.9485 43.1764 56.7604 43.2476 58.5837C43.3187 60.4069 43.846 62.1832 44.7811 63.75H21.25C20.4049 63.749 19.5947 63.4128 18.9972 62.8153C18.3996 62.2177 18.0635 61.4075 18.0625 60.5625V40.375H15.9375V60.5625C15.9391 61.9709 16.4993 63.3213 17.4952 64.3172C18.4912 65.3132 19.8415 65.8734 21.25 65.875H47.8125V64.8125C47.8125 64.6027 47.7504 64.3976 47.634 64.223L46.8205 63.003C45.9083 61.6265 45.4035 60.0202 45.3642 58.3693C45.325 56.7184 45.7528 55.09 46.5986 53.6716C46.7206 53.4685 46.7711 53.2304 46.7423 52.9952C46.7134 52.76 46.6067 52.5412 46.4392 52.3736L41.1644 47.0989C40.6592 46.5936 40.3754 45.9084 40.3754 45.1939C40.3754 44.4794 40.6592 43.7942 41.1644 43.289C41.6697 42.7838 42.3549 42.5 43.0694 42.5C43.7839 42.5 44.4691 42.7838 44.9743 43.289L53.4366 51.7513L54.9392 50.2486L52.0625 47.3723V40.2165L56.8078 46.1479C57.8608 47.4678 58.4353 49.1056 58.4375 50.7941V65.875H60.5625V50.7941C60.5597 48.6233 59.8211 46.5175 58.4671 44.8206L51.8297 36.5234ZM38.25 45.1939C38.2482 45.827 38.3721 46.4542 38.6144 47.0391C38.8566 47.624 39.2125 48.1551 39.6614 48.6015L39.6953 48.6355L28.5623 49.2952C28.3058 49.3104 28.0636 49.418 27.8804 49.598L25.7458 51.6958L23.1146 45.6537L26.0603 45.5916C26.3311 45.5859 26.5894 45.477 26.7826 45.2872L38.6397 33.6357L41.7184 40.5685C40.7184 40.8617 39.8402 41.4707 39.2151 42.3045C38.5899 43.1382 38.2513 44.1519 38.25 45.1939Z" fill="white"/>
<path d="M29.75 57.375H22.3125V59.5H29.75V57.375Z" fill="white"/>
<path d="M40.375 57.375H32.9375V59.5H40.375V57.375Z" fill="white"/>
<path d="M14.9765 21.7511C16.0053 20.8757 16.6728 19.5885 16.6728 18.1353C16.6728 15.5064 14.534 13.3677 11.9051 13.3677C9.27628 13.3677 7.13752 15.5064 7.13752 18.1353C7.13752 19.5885 7.80499 20.8757 8.83384 21.7511C6.69604 22.8648 5.23047 25.0979 5.23047 27.6706V28.6241H18.5798V27.6706C18.5798 25.0979 17.1143 22.8648 14.9765 21.7511ZM9.04457 18.1353C9.04457 16.5582 10.328 15.2747 11.9051 15.2747C13.4823 15.2747 14.7657 16.5582 14.7657 18.1353C14.7657 19.7124 13.4823 20.9959 11.9051 20.9959C10.328 20.9959 9.04457 19.7124 9.04457 18.1353ZM7.23383 26.717C7.67626 24.5439 9.60334 22.9029 11.9051 22.9029C14.207 22.9029 16.134 24.5439 16.5765 26.717H7.23383Z" fill="white"/>
<path d="M20.4844 23.9019H26.2055V25.8089H20.4844V23.9019Z" fill="white"/>
<path d="M20.4844 20.0879H30.0196V21.9949H20.4844V20.0879Z" fill="white"/>
<path d="M20.4844 16.2734H24.2985V18.1805H20.4844V16.2734Z" fill="white"/>
<path d="M26.207 16.2734H30.0211V18.1805H26.207V16.2734Z" fill="white"/>
</svg>
