<svg width="68" height="67" viewBox="0 0 68 67" fill="none" xmlns="http://www.w3.org/2000/svg">
<g clip-path="url(#clip0)">
<path d="M15.8678 15.6338H5.66797V17.8671H15.8678V15.6338Z" fill="white"/>
<path d="M15.8678 10.9634H5.66797V13.1967H15.8678V10.9634Z" fill="white"/>
<path d="M15.8678 6.09082H5.66797V8.32413H15.8678V6.09082Z" fill="white"/>
<path d="M15.8678 20.1006H5.66797V22.3339H15.8678V20.1006Z" fill="white"/>
<path d="M67.9991 64.7666H0V66.9999H67.9991V64.7666Z" fill="white"/>
<path d="M65.6141 9.55165L61.0808 0.618423C60.8013 0.0665178 60.1209 -0.15765 59.5607 0.117744C59.5604 0.117884 59.5602 0.118023 59.5599 0.118163L50.4933 4.58477C49.9332 4.86045 49.7058 5.53142 49.9856 6.08332C50.2654 6.63523 50.9464 6.85926 51.5065 6.58358L58.073 3.35087L56.2812 8.39144C48.4056 30.4911 28.1208 45.9953 4.4375 48.017L4.63016 50.2503C29.2058 48.1527 50.2539 32.0621 58.422 9.12843L60.2512 3.97843L63.5854 10.5499C63.8652 11.1018 64.5462 11.3259 65.1063 11.0502C65.6666 10.7745 65.8938 10.1037 65.6141 9.55165Z" fill="white"/>
<path d="M13.5978 53.6001H5.66457C5.03869 53.6001 4.53125 54.1001 4.53125 54.7168V61.4167C4.53125 62.0333 5.03869 62.5333 5.66457 62.5333H13.5978C14.2237 62.5333 14.7311 62.0333 14.7311 61.4167V54.7168C14.7311 54.1001 14.2237 53.6001 13.5978 53.6001ZM12.4645 60.3H6.79789V55.8334H12.4645V60.3Z" fill="white"/>
<path d="M26.0666 50.25H18.1333C17.5074 50.25 17 50.75 17 51.3667V61.4165C17 62.0332 17.5074 62.5332 18.1333 62.5332H26.0666C26.6924 62.5332 27.1999 62.0332 27.1999 61.4165V51.3667C27.1999 50.75 26.6924 50.25 26.0666 50.25ZM24.9332 60.2999H19.2666V52.4833H24.9332V60.2999Z" fill="white"/>
<path d="M38.5314 44.667H30.5982C29.9723 44.667 29.4648 45.167 29.4648 45.7836V61.4168C29.4648 62.0335 29.9723 62.5334 30.5982 62.5334H38.5314C39.1573 62.5334 39.6647 62.0335 39.6647 61.4168V45.7836C39.6647 45.167 39.1573 44.667 38.5314 44.667ZM37.3981 60.3001H31.7315V46.9003H37.3981V60.3001Z" fill="white"/>
<path d="M51.0001 36.8506H43.0669C42.441 36.8506 41.9336 37.3506 41.9336 37.9672V61.4169C41.9336 62.0336 42.441 62.5336 43.0669 62.5336H51.0001C51.626 62.5336 52.1335 62.0336 52.1335 61.4169V37.9672C52.1335 37.3506 51.626 36.8506 51.0001 36.8506ZM49.8668 60.3003H44.2002V39.0839H49.8668V60.3003Z" fill="white"/>
<path d="M63.465 21.2173H55.5318C54.9059 21.2173 54.3984 21.7173 54.3984 22.3339V61.4168C54.3984 62.0334 54.9059 62.5334 55.5318 62.5334H63.465C64.0909 62.5334 64.5983 62.0334 64.5983 61.4168V22.3339C64.5983 21.7173 64.0909 21.2173 63.465 21.2173ZM62.3317 60.3001H56.6651V23.4506H62.3317V60.3001Z" fill="white"/>
<path d="M30.9375 27.4093C33.4213 27.4093 35.8494 26.6769 37.9146 25.3049C39.9799 23.9329 41.5895 21.9828 42.5401 19.7012C43.4906 17.4196 43.7393 14.909 43.2547 12.4869C42.7701 10.0648 41.574 7.83995 39.8177 6.0937C38.0614 4.34745 35.8236 3.15824 33.3875 2.67645C30.9514 2.19466 28.4263 2.44193 26.1315 3.387C23.8367 4.33206 21.8754 5.93247 20.4954 7.98584C19.1155 10.0392 18.3789 12.4533 18.3789 14.9229C18.3827 18.2333 19.7071 21.407 22.0615 23.7479C24.4158 26.0887 27.6079 27.4054 30.9375 27.4093ZM30.9375 4.35751C33.0392 4.35751 35.0937 4.97716 36.8412 6.1381C38.5887 7.29903 39.9507 8.94912 40.755 10.8797C41.5593 12.8103 41.7698 14.9346 41.3597 16.9841C40.9497 19.0336 39.9376 20.9161 38.4515 22.3937C36.9654 23.8713 35.0719 24.8776 33.0106 25.2853C30.9492 25.6929 28.8126 25.4837 26.8709 24.684C24.9292 23.8844 23.2695 22.5302 22.1019 20.7927C20.9342 19.0552 20.311 17.0125 20.311 14.9229C20.3143 12.1218 21.435 9.43636 23.4271 7.45569C25.4192 5.47501 28.1202 4.36081 30.9375 4.35751Z" fill="white"/>
<path d="M28.5676 10.516V19.9384H26.3877V12.2659H24.5039V10.516H28.5676Z" fill="white"/>
<path d="M34.7385 14.0292C35.3395 14.0292 35.8867 14.1504 36.3801 14.3927C36.8735 14.635 37.2637 14.9804 37.5508 15.4291C37.8379 15.8688 37.9814 16.3803 37.9814 16.9636C37.9814 17.5918 37.8244 18.1437 37.5104 18.6193C37.1965 19.0949 36.7659 19.4628 36.2187 19.7231C35.6804 19.9743 35.0794 20.0999 34.4156 20.0999C33.0969 20.0999 32.0653 19.6961 31.3207 18.8885C30.5761 18.0809 30.2039 16.9277 30.2039 15.4291C30.2039 14.3613 30.4057 13.4459 30.8094 12.6832C31.2131 11.9204 31.7737 11.3416 32.4914 10.9468C33.218 10.5519 34.0567 10.3545 35.0076 10.3545C35.51 10.3545 35.9899 10.4128 36.4474 10.5295C36.9139 10.6372 37.3086 10.7942 37.6315 11.0006L36.8242 12.6024C36.3577 12.2883 35.7701 12.1313 35.0614 12.1313C34.2631 12.1313 33.6306 12.3646 33.1642 12.8312C32.6977 13.2979 32.4465 13.9754 32.4106 14.8638C32.9668 14.3074 33.7428 14.0292 34.7385 14.0292ZM34.2945 18.4712C34.7609 18.4712 35.1377 18.3456 35.4248 18.0943C35.7208 17.8431 35.8688 17.5021 35.8688 17.0713C35.8688 16.6406 35.7208 16.2996 35.4248 16.0483C35.1377 15.7881 34.752 15.658 34.2675 15.658C33.7921 15.658 33.4019 15.7926 33.0969 16.0618C32.7919 16.322 32.6394 16.6585 32.6394 17.0713C32.6394 17.4841 32.7874 17.8206 33.0834 18.0809C33.3795 18.3411 33.7831 18.4712 34.2945 18.4712Z" fill="white"/>
</g>
<defs>
<clipPath id="clip0">
<rect width="68" height="67" fill="white"/>
</clipPath>
</defs>
</svg>
