<svg width="68" height="68" viewBox="0 0 68 68" fill="none" xmlns="http://www.w3.org/2000/svg">
<path d="M62.3333 56.6665H5.66671C2.49329 56.6665 0 59.1598 0 62.3331C0 65.5065 2.49329 67.9998 5.66671 67.9998H62.3334C65.5067 67.9998 68 65.5065 68 62.3331C68 59.1598 65.5067 56.6665 62.3333 56.6665ZM62.3333 65.7331H5.66671C3.74 65.7331 2.26671 64.2598 2.26671 62.3331C2.26671 60.4064 3.74 58.9331 5.66671 58.9331H62.3334C64.2601 58.9331 65.7334 60.4064 65.7334 62.3331C65.7333 64.2598 64.26 65.7331 62.3333 65.7331Z" fill="white"/>
<path d="M10.5889 61.3193C9.891 61.3193 9.42578 61.7846 9.42578 62.4824C9.42578 63.1803 9.891 63.6456 10.5889 63.6456C11.2868 63.6456 11.752 63.1803 11.752 62.4824C11.752 61.7846 11.2868 61.3193 10.5889 61.3193Z" fill="white"/>
<path d="M5.93655 61.3193C5.23866 61.3193 4.77344 61.7846 4.77344 62.4824C4.77344 63.1803 5.23866 63.6456 5.93655 63.6456C6.63444 63.6456 7.09966 63.1803 7.09966 62.4824C7.09966 61.7846 6.63444 61.3193 5.93655 61.3193Z" fill="white"/>
<path d="M15.2412 61.3193C14.5433 61.3193 14.0781 61.7846 14.0781 62.4824C14.0781 63.1803 14.5433 63.6456 15.2412 63.6456C15.9391 63.6456 16.4044 63.1803 16.4044 62.4824C16.4044 61.7846 15.9391 61.3193 15.2412 61.3193Z" fill="white"/>
<path d="M19.8975 61.3193C19.1996 61.3193 18.7344 61.7846 18.7344 62.4824C18.7344 63.1803 19.1996 63.6456 19.8975 63.6456C20.5954 63.6456 21.0606 63.1803 21.0606 62.4824C21.0606 61.7846 20.5954 61.3193 19.8975 61.3193Z" fill="white"/>
<path d="M24.5459 61.3193C23.848 61.3193 23.3828 61.7846 23.3828 62.4824C23.3828 63.1803 23.848 63.6456 24.5459 63.6456C25.2438 63.6456 25.709 63.1803 25.709 62.4824C25.709 61.7846 25.2438 61.3193 24.5459 61.3193Z" fill="white"/>
<path d="M29.1983 61.3193C28.5004 61.3193 28.0352 61.7846 28.0352 62.4824C28.0352 63.1803 28.5004 63.6456 29.1983 63.6456C29.8962 63.6456 30.3614 63.1803 30.3614 62.4824C30.3614 61.7846 29.8962 61.3193 29.1983 61.3193Z" fill="white"/>
<path d="M33.8506 61.3193C33.1527 61.3193 32.6875 61.7846 32.6875 62.4824C32.6875 63.1803 33.1527 63.6456 33.8506 63.6456C34.5485 63.6456 35.0137 63.1803 35.0137 62.4824C35.0137 61.7846 34.5485 61.3193 33.8506 61.3193Z" fill="white"/>
<path d="M38.503 61.3193C37.8051 61.3193 37.3398 61.7846 37.3398 62.4824C37.3398 63.1803 37.8051 63.6456 38.503 63.6456C39.2008 63.6456 39.6661 63.1803 39.6661 62.4824C39.6661 61.7846 39.2008 61.3193 38.503 61.3193Z" fill="white"/>
<path d="M43.1553 61.3193C42.4574 61.3193 41.9922 61.7846 41.9922 62.4824C41.9922 63.1803 42.4574 63.6456 43.1553 63.6456C43.8532 63.6456 44.3184 63.1803 44.3184 62.4824C44.3184 61.7846 43.8532 61.3193 43.1553 61.3193Z" fill="white"/>
<path d="M47.8115 61.3193C47.1137 61.3193 46.6484 61.7846 46.6484 62.4824C46.6484 63.1803 47.1137 63.6456 47.8115 63.6456C48.5094 63.6456 48.9747 63.1803 48.9747 62.4824C48.9747 61.7846 48.5094 61.3193 47.8115 61.3193Z" fill="white"/>
<path d="M52.4639 61.3193C51.766 61.3193 51.3008 61.7846 51.3008 62.4824C51.3008 63.1803 51.766 63.6456 52.4639 63.6456C53.1618 63.6456 53.627 63.1803 53.627 62.4824C53.627 61.7846 53.1618 61.3193 52.4639 61.3193Z" fill="white"/>
<path d="M57.1162 61.3193C56.4183 61.3193 55.9531 61.7846 55.9531 62.4824C55.9531 63.1803 56.4183 63.6456 57.1162 63.6456C57.8141 63.6456 58.2793 63.1803 58.2793 62.4824C58.2793 61.7846 57.8141 61.3193 57.1162 61.3193Z" fill="white"/>
<path d="M61.7686 61.3193C61.0707 61.3193 60.6055 61.7846 60.6055 62.4824C60.6055 63.1803 61.0707 63.6456 61.7686 63.6456C62.4665 63.6456 62.9317 63.1803 62.9317 62.4824C62.9317 61.7846 62.4665 61.3193 61.7686 61.3193Z" fill="white"/>
<path d="M40.9899 35.4594L37.2893 34.4033V34.1114C38.656 33.0816 39.4829 31.4616 39.4829 29.7474V27.7819C39.4829 24.8338 37.2882 22.3356 34.4858 22.0919C32.9515 21.9548 31.4225 22.4759 30.2942 23.5111C29.1631 24.5462 28.5151 26.0206 28.5151 27.5527V29.7463C28.5151 31.4605 29.342 33.0816 30.7087 34.1104V34.4022L27.0081 35.4594C24.6668 36.1293 23.0312 38.2977 23.0312 40.7328V44.0043H44.9667V40.7328C44.9667 38.2977 43.3312 36.1293 40.9899 35.4594ZM42.7732 41.8108H25.2248V40.7328C25.2248 39.2708 26.2064 37.9699 27.6111 37.5683L32.9022 36.057V32.8942L32.357 32.5771C31.3251 31.9762 30.7087 30.9175 30.7087 29.7463V27.5527C30.7087 26.6338 31.098 25.7485 31.7771 25.1268C32.4636 24.4959 33.3553 24.1933 34.2973 24.2758C35.974 24.4215 37.2893 25.9601 37.2893 27.7809V29.7463C37.2893 30.9175 36.6729 31.9762 35.6409 32.5771L35.0958 32.8942V36.057L40.3868 37.5683C41.7915 37.971 42.7732 39.2718 42.7732 40.7328V41.8108Z" fill="white"/>
<path d="M58.7368 48.2995L55.1141 47.2657V46.98C56.4521 45.9718 57.2615 44.3859 57.2615 42.7078V40.7837C57.2615 37.8977 55.1131 35.452 52.3696 35.2135C50.8655 35.0814 49.3719 35.5894 48.2663 36.6028C47.159 37.6162 46.5247 39.0594 46.5247 40.5594V42.7067C46.5247 44.3849 47.3341 45.9718 48.672 46.9789V47.2646L45.0494 48.2995C42.7573 48.9554 41.1562 51.0781 41.1562 53.4619V56.6646H62.6299V53.4619C62.6299 51.0781 61.0288 48.9554 58.7368 48.2995ZM60.4826 54.5173H43.3036V53.4619C43.3036 52.0307 44.2646 50.7573 45.6397 50.3641L50.8194 48.8846V45.7883L50.2857 45.478C49.2755 44.8897 48.672 43.8533 48.672 42.7067V40.5594C48.672 39.6597 49.0532 38.7931 49.7179 38.1845C50.39 37.5669 51.2629 37.2696 52.1851 37.3514C53.8266 37.494 55.1141 39.0002 55.1141 40.7827V42.7067C55.1141 43.8533 54.5107 44.8897 53.5005 45.478L52.9668 45.7883V48.8846L58.1465 50.3641C59.5216 50.7583 60.4826 52.0317 60.4826 53.4619V54.5173Z" fill="white"/>
<path d="M22.354 48.2995L18.7313 47.2657V46.98C20.0692 45.9718 20.8787 44.3859 20.8787 42.7078V40.7837C20.8787 37.8977 18.7303 35.452 15.9868 35.2135C14.4869 35.0814 12.9891 35.5894 11.8834 36.6028C10.7762 37.6162 10.1419 39.0594 10.1419 40.5594V42.7067C10.1419 44.3849 10.9513 45.9718 12.2892 46.9789V47.2646L8.66659 48.2995C6.37453 48.9554 4.77344 51.0781 4.77344 53.4619V56.6646H26.2471V53.4619C26.2471 51.0781 24.646 48.9554 22.354 48.2995ZM24.0997 54.5173H6.92081V53.4619C6.92081 52.0307 7.88177 50.7573 9.25691 50.3641L14.4366 48.8846V45.7883L13.9029 45.478C12.8926 44.8897 12.2892 43.8533 12.2892 42.7067V40.5594C12.2892 39.6597 12.6704 38.7931 13.3351 38.1845C14.0072 37.5669 14.8812 37.2696 15.8023 37.3514C17.4437 37.494 18.7313 39.0002 18.7313 40.7827V42.7067C18.7313 43.8533 18.1279 44.8897 17.1177 45.478L16.584 45.7883V48.8846L21.7636 50.3641C23.1388 50.7583 24.0997 52.0317 24.0997 53.4619V54.5173Z" fill="white"/>
<path d="M35.0968 13.1613V10.9677C36.3065 10.9677 37.2903 9.98397 37.2903 8.77419H64.7097C66.5235 8.77419 68 7.29773 68 5.48387C68 3.67002 66.5235 2.19355 64.7097 2.19355H37.2903C37.2903 0.983777 36.3065 0 35.0968 0H32.9032C31.6935 0 30.7097 0.983777 30.7097 2.19355H3.29032C1.47647 2.19355 0 3.67002 0 5.48387C0 7.29773 1.47647 8.77419 3.29032 8.77419H30.7097C30.7097 9.98397 31.6935 10.9677 32.9032 10.9677V13.1613H25.8684L22.8427 16.1871L25.3045 22.3425L27.3417 21.5274L25.4165 16.7151L26.7767 15.3548H41.2233L42.5846 16.7162L40.6594 21.5285L42.6965 22.3436L45.1584 16.1881L42.1316 13.1613H35.0968ZM3.29032 6.58065C2.68624 6.58065 2.19355 6.08795 2.19355 5.48387C2.19355 4.87979 2.68624 4.3871 3.29032 4.3871H30.7097V6.58065H3.29032ZM64.7097 4.3871C65.3138 4.3871 65.8064 4.87979 65.8064 5.48387C65.8064 6.08795 65.3138 6.58065 64.7097 6.58065H37.2903V4.3871H64.7097ZM32.9032 2.19355H35.0968L35.0978 8.77419H32.9032V2.19355Z" fill="white"/>
</svg>
